G75*
%MOIN*%
%OFA0B0*%
%FSLAX24Y24*%
%IPPOS*%
%LPD*%
%AMOC8*
5,1,8,0,0,1.08239X$1,22.5*
%
%ADD10C,0.0060*%
%ADD11C,0.0040*%
%ADD12C,0.0080*%
%ADD13C,0.0050*%
%ADD14C,0.0030*%
D10*
X002440Y004690D02*
X002867Y004690D01*
X003085Y004797D02*
X003191Y004690D01*
X003405Y004690D01*
X003512Y004797D01*
X003729Y004690D02*
X004049Y004690D01*
X004156Y004797D01*
X004156Y005224D01*
X004049Y005331D01*
X003729Y005331D01*
X003729Y004690D01*
X003085Y004797D02*
X003085Y005224D01*
X003191Y005331D01*
X003405Y005331D01*
X003512Y005224D01*
X002440Y005331D02*
X002440Y004690D01*
X002346Y006940D02*
X002773Y006940D01*
X002880Y007047D01*
X002880Y007260D01*
X002773Y007367D01*
X002560Y007367D01*
X002560Y007154D01*
X002346Y007367D02*
X002239Y007260D01*
X002239Y007047D01*
X002346Y006940D01*
X002239Y007585D02*
X002880Y008012D01*
X002239Y008012D01*
X002239Y008229D02*
X002239Y008549D01*
X002346Y008656D01*
X002773Y008656D01*
X002880Y008549D01*
X002880Y008229D01*
X002239Y008229D01*
X002239Y007585D02*
X002880Y007585D01*
X003239Y007585D02*
X003560Y007585D01*
X003453Y007798D01*
X003453Y007905D01*
X003560Y008012D01*
X003773Y008012D01*
X003880Y007905D01*
X003880Y007691D01*
X003773Y007585D01*
X003560Y007367D02*
X003560Y006940D01*
X003773Y007154D02*
X003346Y007154D01*
X003239Y007585D02*
X003239Y008012D01*
X003239Y008229D02*
X003666Y008229D01*
X003880Y008443D01*
X003666Y008656D01*
X003239Y008656D01*
X004239Y008549D02*
X004239Y008336D01*
X004346Y008229D01*
X004773Y008229D01*
X004880Y008336D01*
X004880Y008549D01*
X004773Y008656D01*
X004346Y008656D02*
X004239Y008549D01*
X004239Y008012D02*
X004880Y007585D01*
X004773Y007367D02*
X004346Y007367D01*
X004239Y007260D01*
X004239Y006940D01*
X004880Y006940D01*
X004880Y007260D01*
X004773Y007367D01*
X005239Y007260D02*
X005346Y007367D01*
X005560Y007367D01*
X005666Y007260D01*
X005666Y006940D01*
X005880Y006940D02*
X005239Y006940D01*
X005239Y007260D01*
X005346Y007585D02*
X005453Y007585D01*
X005560Y007691D01*
X005560Y007905D01*
X005666Y008012D01*
X005773Y008012D01*
X005880Y007905D01*
X005880Y007691D01*
X005773Y007585D01*
X005880Y007367D02*
X005666Y007154D01*
X005346Y007585D02*
X005239Y007691D01*
X005239Y007905D01*
X005346Y008012D01*
X005239Y008229D02*
X005239Y008656D01*
X005239Y008443D02*
X005880Y008443D01*
X006239Y008549D02*
X006239Y008336D01*
X006346Y008229D01*
X006773Y008229D01*
X006880Y008336D01*
X006880Y008549D01*
X006773Y008656D01*
X006773Y008874D02*
X006880Y008980D01*
X006880Y009194D01*
X006773Y009301D01*
X006666Y009301D01*
X006560Y009194D01*
X006560Y008980D01*
X006453Y008874D01*
X006346Y008874D01*
X006239Y008980D01*
X006239Y009194D01*
X006346Y009301D01*
X006346Y008656D02*
X006239Y008549D01*
X006346Y008012D02*
X006239Y007905D01*
X006239Y007585D01*
X006880Y007585D01*
X006880Y007905D01*
X006773Y008012D01*
X006346Y008012D01*
X006346Y007367D02*
X006239Y007260D01*
X006239Y007047D01*
X006346Y006940D01*
X006453Y006940D01*
X006560Y007047D01*
X006560Y007260D01*
X006666Y007367D01*
X006773Y007367D01*
X006880Y007260D01*
X006880Y007047D01*
X006773Y006940D01*
X007239Y007047D02*
X007239Y007260D01*
X007346Y007367D01*
X007346Y007585D02*
X007453Y007585D01*
X007560Y007691D01*
X007560Y007905D01*
X007666Y008012D01*
X007773Y008012D01*
X007880Y007905D01*
X007880Y007691D01*
X007773Y007585D01*
X007773Y007367D02*
X007880Y007260D01*
X007880Y007047D01*
X007773Y006940D01*
X007346Y006940D01*
X007239Y007047D01*
X007346Y007585D02*
X007239Y007691D01*
X007239Y007905D01*
X007346Y008012D01*
X008239Y007905D02*
X008239Y007691D01*
X008346Y007585D01*
X008773Y007585D01*
X008880Y007691D01*
X008880Y007905D01*
X008773Y008012D01*
X008346Y008012D01*
X008239Y007905D01*
X008346Y008229D02*
X008453Y008229D01*
X008560Y008336D01*
X008560Y008549D01*
X008666Y008656D01*
X008773Y008656D01*
X008880Y008549D01*
X008880Y008336D01*
X008773Y008229D01*
X008346Y008229D02*
X008239Y008336D01*
X008239Y008549D01*
X008346Y008656D01*
X008239Y008874D02*
X008239Y009087D01*
X008239Y008980D02*
X008880Y008980D01*
X008880Y008874D02*
X008880Y009087D01*
X009239Y008979D02*
X009346Y009086D01*
X009773Y009086D01*
X009880Y008979D01*
X009880Y008766D01*
X009773Y008659D01*
X009346Y008659D01*
X009239Y008766D01*
X009239Y008979D01*
X009346Y008441D02*
X009239Y008335D01*
X009239Y008121D01*
X009346Y008014D01*
X009453Y008014D01*
X009560Y008121D01*
X009560Y008335D01*
X009666Y008441D01*
X009773Y008441D01*
X009880Y008335D01*
X009880Y008121D01*
X009773Y008014D01*
X009880Y007798D02*
X009880Y007585D01*
X009880Y007691D02*
X009239Y007691D01*
X009239Y007585D02*
X009239Y007798D01*
X009239Y007367D02*
X009880Y007367D01*
X010239Y007260D02*
X010239Y007047D01*
X010346Y006940D01*
X010453Y006940D01*
X010560Y007047D01*
X010560Y007260D01*
X010666Y007367D01*
X010773Y007367D01*
X010880Y007260D01*
X010880Y007047D01*
X010773Y006940D01*
X011239Y006940D02*
X011239Y007260D01*
X011346Y007367D01*
X011453Y007367D01*
X011560Y007260D01*
X011560Y006940D01*
X011880Y006940D02*
X011239Y006940D01*
X011560Y007260D02*
X011666Y007367D01*
X011773Y007367D01*
X011880Y007260D01*
X011880Y006940D01*
X011880Y007585D02*
X011239Y007585D01*
X010880Y007691D02*
X010880Y007905D01*
X010773Y008012D01*
X010666Y008229D02*
X010239Y008656D01*
X010239Y008229D02*
X010880Y008229D01*
X010560Y008336D02*
X010880Y008656D01*
X010346Y008012D02*
X010239Y007905D01*
X010239Y007691D01*
X010346Y007585D01*
X010773Y007585D01*
X010880Y007691D01*
X010346Y007367D02*
X010239Y007260D01*
X009880Y006940D02*
X009239Y006940D01*
X009453Y007154D01*
X009239Y007367D01*
X008880Y007367D02*
X008239Y007367D01*
X008453Y007154D01*
X008239Y006940D01*
X008880Y006940D01*
X011880Y007585D02*
X011880Y008012D01*
X013440Y006831D02*
X013760Y006831D01*
X013867Y006724D01*
X013867Y006617D01*
X013760Y006510D01*
X013440Y006510D01*
X013440Y006190D02*
X013760Y006190D01*
X013867Y006297D01*
X013867Y006404D01*
X013760Y006510D01*
X014085Y006617D02*
X014085Y006297D01*
X014191Y006190D01*
X014512Y006190D01*
X014512Y006617D01*
X014729Y006617D02*
X014943Y006617D01*
X014836Y006724D02*
X014836Y006297D01*
X014943Y006190D01*
X015266Y006297D02*
X015372Y006190D01*
X015266Y006297D02*
X015266Y006724D01*
X015372Y006617D02*
X015159Y006617D01*
X015588Y006510D02*
X015588Y006297D01*
X015695Y006190D01*
X015909Y006190D01*
X016016Y006297D01*
X016016Y006510D01*
X015909Y006617D01*
X015695Y006617D01*
X015588Y006510D01*
X016233Y006617D02*
X016233Y006190D01*
X016233Y006617D02*
X016553Y006617D01*
X016660Y006510D01*
X016660Y006190D01*
X016880Y005762D02*
X016880Y005335D01*
X016880Y005548D02*
X016239Y005548D01*
X016453Y005335D01*
X016453Y005117D02*
X016560Y005010D01*
X016560Y004690D01*
X016880Y004690D02*
X016880Y005010D01*
X016773Y005117D01*
X016666Y005117D01*
X016560Y005010D01*
X016453Y005117D02*
X016346Y005117D01*
X016239Y005010D01*
X016239Y004690D01*
X016880Y004690D01*
X015880Y004690D02*
X015880Y005010D01*
X015773Y005117D01*
X015666Y005117D01*
X015560Y005010D01*
X015560Y004690D01*
X015880Y004690D02*
X015239Y004690D01*
X015239Y005010D01*
X015346Y005117D01*
X015453Y005117D01*
X015560Y005010D01*
X015346Y005335D02*
X015239Y005441D01*
X015239Y005655D01*
X015346Y005762D01*
X015453Y005762D01*
X015880Y005335D01*
X015880Y005762D01*
X014880Y005655D02*
X014880Y005441D01*
X014773Y005335D01*
X014773Y005117D02*
X014666Y005117D01*
X014560Y005010D01*
X014560Y004690D01*
X014880Y004690D02*
X014880Y005010D01*
X014773Y005117D01*
X014560Y005010D02*
X014453Y005117D01*
X014346Y005117D01*
X014239Y005010D01*
X014239Y004690D01*
X014880Y004690D01*
X014346Y005335D02*
X014239Y005441D01*
X014239Y005655D01*
X014346Y005762D01*
X014453Y005762D01*
X014560Y005655D01*
X014666Y005762D01*
X014773Y005762D01*
X014880Y005655D01*
X014560Y005655D02*
X014560Y005548D01*
X013880Y005655D02*
X013239Y005655D01*
X013560Y005335D01*
X013560Y005762D01*
X013440Y006190D02*
X013440Y006831D01*
X013453Y005117D02*
X013560Y005010D01*
X013560Y004690D01*
X013880Y004690D02*
X013880Y005010D01*
X013773Y005117D01*
X013666Y005117D01*
X013560Y005010D01*
X013453Y005117D02*
X013346Y005117D01*
X013239Y005010D01*
X013239Y004690D01*
X013880Y004690D01*
X018542Y004896D02*
X018778Y004896D01*
X018778Y004424D02*
X018542Y004424D01*
X018542Y003396D02*
X018778Y003396D01*
X018778Y002924D02*
X018542Y002924D01*
X020042Y002924D02*
X020278Y002924D01*
X020278Y003396D02*
X020042Y003396D01*
X020042Y004424D02*
X020278Y004424D01*
X020278Y004896D02*
X020042Y004896D01*
D11*
X011449Y011520D02*
X011102Y011520D01*
X011276Y011520D02*
X011276Y012040D01*
X011102Y011867D01*
X010933Y012040D02*
X010933Y011693D01*
X010760Y011520D01*
X010586Y011693D01*
X010586Y012040D01*
X009902Y011954D02*
X009902Y011867D01*
X009815Y011780D01*
X009555Y011780D01*
X009387Y011607D02*
X009300Y011520D01*
X009126Y011520D01*
X009040Y011607D01*
X009040Y011954D01*
X009126Y012040D01*
X009300Y012040D01*
X009387Y011954D01*
X009555Y012040D02*
X009815Y012040D01*
X009902Y011954D01*
X009815Y011780D02*
X009902Y011693D01*
X009902Y011607D01*
X009815Y011520D01*
X009555Y011520D01*
X009555Y012040D01*
X008871Y011954D02*
X008871Y011780D01*
X008784Y011693D01*
X008524Y011693D01*
X008524Y011520D02*
X008524Y012040D01*
X008784Y012040D01*
X008871Y011954D01*
X007840Y011954D02*
X007840Y011607D01*
X007753Y011520D01*
X007493Y011520D01*
X007493Y012040D01*
X007753Y012040D01*
X007840Y011954D01*
X007324Y011954D02*
X007237Y012040D01*
X007064Y012040D01*
X006977Y011954D01*
X006977Y011607D01*
X007064Y011520D01*
X007237Y011520D01*
X007324Y011607D01*
X006808Y011520D02*
X006461Y011520D01*
X006461Y012040D01*
X005777Y011780D02*
X005777Y011693D01*
X005430Y011693D01*
X005430Y011607D02*
X005430Y011780D01*
X005517Y011867D01*
X005690Y011867D01*
X005777Y011780D01*
X005690Y011520D02*
X005517Y011520D01*
X005430Y011607D01*
X005260Y011520D02*
X005086Y011520D01*
X005173Y011520D02*
X005173Y012040D01*
X005086Y012040D01*
X004918Y011867D02*
X004657Y011867D01*
X004571Y011780D01*
X004571Y011607D01*
X004657Y011520D01*
X004918Y011520D01*
X005087Y011027D02*
X005000Y010940D01*
X005000Y010767D01*
X005087Y010680D01*
X005347Y010680D01*
X005347Y010593D02*
X005347Y011027D01*
X005087Y011027D01*
X004832Y010940D02*
X004832Y010680D01*
X004832Y010940D02*
X004745Y011027D01*
X004485Y011027D01*
X004485Y010680D01*
X004314Y010680D02*
X004141Y010680D01*
X004228Y010680D02*
X004228Y011027D01*
X004141Y011027D01*
X003972Y011027D02*
X003885Y011027D01*
X003711Y010853D01*
X003711Y010680D02*
X003711Y011027D01*
X003543Y010940D02*
X003543Y010767D01*
X003456Y010680D01*
X003196Y010680D01*
X003196Y010507D02*
X003196Y011027D01*
X003456Y011027D01*
X003543Y010940D01*
X003027Y010853D02*
X003027Y010767D01*
X002940Y010680D01*
X002767Y010680D01*
X002680Y010767D01*
X002767Y010940D02*
X002940Y010940D01*
X003027Y010853D01*
X003027Y011114D02*
X002940Y011200D01*
X002767Y011200D01*
X002680Y011114D01*
X002680Y011027D01*
X002767Y010940D01*
X002680Y011520D02*
X002940Y011520D01*
X003027Y011607D01*
X003027Y011693D01*
X002940Y011780D01*
X002680Y011780D01*
X002680Y011520D02*
X002680Y012040D01*
X002940Y012040D01*
X003027Y011954D01*
X003027Y011867D01*
X002940Y011780D01*
X003196Y011867D02*
X003282Y011867D01*
X003282Y011520D01*
X003196Y011520D02*
X003369Y011520D01*
X003539Y011607D02*
X003626Y011520D01*
X003886Y011520D01*
X004055Y011607D02*
X004142Y011520D01*
X004402Y011520D01*
X004402Y011433D02*
X004315Y011347D01*
X004229Y011347D01*
X004228Y011287D02*
X004228Y011200D01*
X004402Y011433D02*
X004402Y011867D01*
X004055Y011867D02*
X004055Y011607D01*
X003886Y011867D02*
X003626Y011867D01*
X003539Y011780D01*
X003539Y011607D01*
X003282Y012040D02*
X003282Y012127D01*
X003456Y013180D02*
X003456Y013700D01*
X003196Y013440D01*
X003543Y013440D01*
X003027Y013353D02*
X003027Y013267D01*
X002940Y013180D01*
X002680Y013180D01*
X002680Y013700D01*
X002940Y013700D01*
X003027Y013614D01*
X003027Y013527D01*
X002940Y013440D01*
X002680Y013440D01*
X002940Y013440D02*
X003027Y013353D01*
X002940Y014180D02*
X002680Y014180D01*
X002680Y014700D01*
X002940Y014700D01*
X003027Y014614D01*
X003027Y014527D01*
X002940Y014440D01*
X002680Y014440D01*
X002940Y014440D02*
X003027Y014353D01*
X003027Y014267D01*
X002940Y014180D01*
X003196Y014267D02*
X003282Y014180D01*
X003456Y014180D01*
X003543Y014267D01*
X003543Y014353D01*
X003456Y014440D01*
X003369Y014440D01*
X003456Y014440D02*
X003543Y014527D01*
X003543Y014614D01*
X003456Y014700D01*
X003282Y014700D01*
X003196Y014614D01*
X003196Y015180D02*
X003543Y015527D01*
X003543Y015614D01*
X003456Y015700D01*
X003282Y015700D01*
X003196Y015614D01*
X003027Y015614D02*
X002940Y015700D01*
X002680Y015700D01*
X002680Y015180D01*
X002940Y015180D01*
X003027Y015267D01*
X003027Y015353D01*
X002940Y015440D01*
X002680Y015440D01*
X002940Y015440D02*
X003027Y015527D01*
X003027Y015614D01*
X003196Y015180D02*
X003543Y015180D01*
X004227Y015440D02*
X004574Y015440D01*
X004743Y015180D02*
X005090Y015440D01*
X004743Y015700D01*
X004743Y016180D02*
X005090Y016440D01*
X004743Y016700D01*
X004574Y016440D02*
X004227Y016440D01*
X003543Y016180D02*
X003196Y016180D01*
X003369Y016180D02*
X003369Y016700D01*
X003196Y016527D01*
X003027Y016527D02*
X002940Y016440D01*
X002680Y016440D01*
X002680Y016180D02*
X002680Y016700D01*
X002940Y016700D01*
X003027Y016614D01*
X003027Y016527D01*
X002940Y016440D02*
X003027Y016353D01*
X003027Y016267D01*
X002940Y016180D01*
X002680Y016180D01*
X004227Y014440D02*
X004574Y014440D01*
X004743Y014180D02*
X005090Y014440D01*
X004743Y014700D01*
X005774Y014700D02*
X005774Y014267D01*
X005861Y014180D01*
X006034Y014180D01*
X006121Y014267D01*
X006121Y014700D01*
X006289Y014527D02*
X006550Y014527D01*
X006636Y014440D01*
X006636Y014267D01*
X006550Y014180D01*
X006289Y014180D01*
X006289Y014007D02*
X006289Y014527D01*
X006805Y014440D02*
X006892Y014527D01*
X007152Y014527D01*
X007321Y014440D02*
X007407Y014527D01*
X007581Y014527D01*
X007668Y014440D01*
X007668Y014180D01*
X007836Y014180D02*
X008010Y014180D01*
X007923Y014180D02*
X007923Y014527D01*
X007836Y014527D01*
X007923Y014700D02*
X007923Y014787D01*
X008267Y014614D02*
X008354Y014700D01*
X008267Y014614D02*
X008267Y014180D01*
X008180Y014440D02*
X008354Y014440D01*
X008524Y014527D02*
X008697Y014527D01*
X008611Y014614D02*
X008611Y014267D01*
X008697Y014180D01*
X008954Y013787D02*
X008954Y013700D01*
X008954Y013527D02*
X008954Y013180D01*
X008868Y013180D02*
X009041Y013180D01*
X009298Y013180D02*
X009298Y013614D01*
X009385Y013700D01*
X009555Y013527D02*
X009729Y013527D01*
X009642Y013614D02*
X009642Y013267D01*
X009729Y013180D01*
X009385Y013440D02*
X009211Y013440D01*
X008954Y013527D02*
X008868Y013527D01*
X008699Y013440D02*
X008699Y013180D01*
X008699Y013440D02*
X008612Y013527D01*
X008439Y013527D01*
X008352Y013440D01*
X008183Y013527D02*
X007923Y013527D01*
X007836Y013440D01*
X007923Y013353D01*
X008097Y013353D01*
X008183Y013267D01*
X008097Y013180D01*
X007836Y013180D01*
X007668Y013180D02*
X007668Y013440D01*
X007581Y013527D01*
X007321Y013527D01*
X007321Y013180D01*
X007152Y013267D02*
X007152Y013527D01*
X006805Y013527D02*
X006805Y013267D01*
X006892Y013180D01*
X006979Y013267D01*
X007065Y013180D01*
X007152Y013267D01*
X006636Y013267D02*
X006636Y013440D01*
X006550Y013527D01*
X006376Y013527D01*
X006289Y013440D01*
X006289Y013267D01*
X006376Y013180D01*
X006550Y013180D01*
X006636Y013267D01*
X006121Y013267D02*
X006121Y013614D01*
X006034Y013700D01*
X005774Y013700D01*
X005774Y013180D01*
X006034Y013180D01*
X006121Y013267D01*
X005090Y013440D02*
X004743Y013180D01*
X004574Y013440D02*
X004227Y013440D01*
X004743Y013700D02*
X005090Y013440D01*
X006805Y014180D02*
X007065Y014180D01*
X007152Y014267D01*
X007065Y014353D01*
X006892Y014353D01*
X006805Y014440D01*
X007321Y014700D02*
X007321Y014180D01*
X008352Y013700D02*
X008352Y013180D01*
X008180Y015180D02*
X008527Y015180D01*
X008696Y015180D02*
X008696Y015527D01*
X008956Y015527D01*
X009043Y015440D01*
X009043Y015180D01*
X009211Y015267D02*
X009211Y015440D01*
X009298Y015527D01*
X009558Y015527D01*
X009558Y015700D02*
X009558Y015180D01*
X009298Y015180D01*
X009211Y015267D01*
X008527Y015700D02*
X008180Y015700D01*
X008180Y015180D01*
X008180Y015440D02*
X008354Y015440D01*
X007496Y015440D02*
X007496Y015353D01*
X007149Y015353D01*
X007149Y015267D02*
X007149Y015440D01*
X007236Y015527D01*
X007409Y015527D01*
X007496Y015440D01*
X007409Y015180D02*
X007236Y015180D01*
X007149Y015267D01*
X006980Y015180D02*
X006720Y015180D01*
X006633Y015267D01*
X006633Y015440D01*
X006720Y015527D01*
X006980Y015527D01*
X006980Y015700D02*
X006980Y015180D01*
X006463Y015180D02*
X006289Y015180D01*
X006376Y015180D02*
X006376Y015527D01*
X006289Y015527D01*
X006121Y015614D02*
X006121Y015440D01*
X006034Y015353D01*
X005774Y015353D01*
X005774Y015180D02*
X005774Y015700D01*
X006034Y015700D01*
X006121Y015614D01*
X006376Y015700D02*
X006376Y015787D01*
X006376Y016180D02*
X006376Y016527D01*
X006289Y016527D01*
X006121Y016614D02*
X006121Y016440D01*
X006034Y016353D01*
X005774Y016353D01*
X005774Y016180D02*
X005774Y016700D01*
X006034Y016700D01*
X006121Y016614D01*
X006376Y016700D02*
X006376Y016787D01*
X006720Y016527D02*
X006980Y016527D01*
X006980Y016700D02*
X006980Y016180D01*
X006720Y016180D01*
X006633Y016267D01*
X006633Y016440D01*
X006720Y016527D01*
X006463Y016180D02*
X006289Y016180D01*
X006121Y016180D02*
X005947Y016353D01*
X005947Y015353D02*
X006121Y015180D01*
X007149Y016267D02*
X007236Y016180D01*
X007409Y016180D01*
X007496Y016353D02*
X007149Y016353D01*
X007149Y016267D02*
X007149Y016440D01*
X007236Y016527D01*
X007409Y016527D01*
X007496Y016440D01*
X007496Y016353D01*
X008180Y016267D02*
X008267Y016180D01*
X008440Y016180D01*
X008527Y016267D01*
X008527Y016353D01*
X008440Y016440D01*
X008267Y016440D01*
X008180Y016527D01*
X008180Y016614D01*
X008267Y016700D01*
X008440Y016700D01*
X008527Y016614D01*
X008696Y016527D02*
X008869Y016527D01*
X008783Y016614D02*
X008783Y016267D01*
X008869Y016180D01*
X009040Y016267D02*
X009126Y016353D01*
X009387Y016353D01*
X009387Y016440D02*
X009300Y016527D01*
X009126Y016527D01*
X009040Y016267D02*
X009126Y016180D01*
X009387Y016180D01*
X009387Y016440D01*
X009555Y016353D02*
X009729Y016527D01*
X009815Y016527D01*
X009985Y016527D02*
X010158Y016527D01*
X010072Y016614D02*
X010072Y016267D01*
X010158Y016180D01*
X009555Y016180D02*
X009555Y016527D01*
X007926Y011200D02*
X007579Y011200D01*
X007579Y010940D01*
X007752Y011027D01*
X007839Y011027D01*
X007926Y010940D01*
X007926Y010767D01*
X007839Y010680D01*
X007665Y010680D01*
X007579Y010767D01*
X007410Y010680D02*
X007063Y010680D01*
X007236Y010680D02*
X007236Y011200D01*
X007063Y011027D01*
X006894Y011114D02*
X006547Y010767D01*
X006634Y010680D01*
X006808Y010680D01*
X006894Y010767D01*
X006894Y011114D01*
X006808Y011200D01*
X006634Y011200D01*
X006547Y011114D01*
X006547Y010767D01*
X006379Y010680D02*
X006032Y010680D01*
X006379Y011027D01*
X006379Y011114D01*
X006292Y011200D01*
X006118Y011200D01*
X006032Y011114D01*
X005347Y010593D02*
X005261Y010507D01*
X005174Y010507D01*
D12*
X013160Y003910D02*
X013160Y003410D01*
X017160Y003410D02*
X017160Y003910D01*
D13*
X002160Y004160D02*
X002160Y003160D01*
X012160Y003160D01*
X012160Y004160D01*
X002160Y004160D01*
X002160Y005660D02*
X002160Y006660D01*
X012160Y006660D01*
X012160Y005660D01*
X002160Y005660D01*
X014766Y008740D02*
X014768Y008779D01*
X014774Y008818D01*
X014784Y008856D01*
X014797Y008893D01*
X014814Y008928D01*
X014834Y008962D01*
X014858Y008993D01*
X014885Y009022D01*
X014914Y009048D01*
X014946Y009071D01*
X014980Y009091D01*
X015016Y009107D01*
X015053Y009119D01*
X015092Y009128D01*
X015131Y009133D01*
X015170Y009134D01*
X015209Y009131D01*
X015248Y009124D01*
X015285Y009113D01*
X015322Y009099D01*
X015357Y009081D01*
X015390Y009060D01*
X015421Y009035D01*
X015449Y009008D01*
X015474Y008978D01*
X015496Y008945D01*
X015515Y008911D01*
X015530Y008875D01*
X015542Y008837D01*
X015550Y008799D01*
X015554Y008760D01*
X015554Y008720D01*
X015550Y008681D01*
X015542Y008643D01*
X015530Y008605D01*
X015515Y008569D01*
X015496Y008535D01*
X015474Y008502D01*
X015449Y008472D01*
X015421Y008445D01*
X015390Y008420D01*
X015357Y008399D01*
X015322Y008381D01*
X015285Y008367D01*
X015248Y008356D01*
X015209Y008349D01*
X015170Y008346D01*
X015131Y008347D01*
X015092Y008352D01*
X015053Y008361D01*
X015016Y008373D01*
X014980Y008389D01*
X014946Y008409D01*
X014914Y008432D01*
X014885Y008458D01*
X014858Y008487D01*
X014834Y008518D01*
X014814Y008552D01*
X014797Y008587D01*
X014784Y008624D01*
X014774Y008662D01*
X014768Y008701D01*
X014766Y008740D01*
X018766Y008740D02*
X018768Y008779D01*
X018774Y008818D01*
X018784Y008856D01*
X018797Y008893D01*
X018814Y008928D01*
X018834Y008962D01*
X018858Y008993D01*
X018885Y009022D01*
X018914Y009048D01*
X018946Y009071D01*
X018980Y009091D01*
X019016Y009107D01*
X019053Y009119D01*
X019092Y009128D01*
X019131Y009133D01*
X019170Y009134D01*
X019209Y009131D01*
X019248Y009124D01*
X019285Y009113D01*
X019322Y009099D01*
X019357Y009081D01*
X019390Y009060D01*
X019421Y009035D01*
X019449Y009008D01*
X019474Y008978D01*
X019496Y008945D01*
X019515Y008911D01*
X019530Y008875D01*
X019542Y008837D01*
X019550Y008799D01*
X019554Y008760D01*
X019554Y008720D01*
X019550Y008681D01*
X019542Y008643D01*
X019530Y008605D01*
X019515Y008569D01*
X019496Y008535D01*
X019474Y008502D01*
X019449Y008472D01*
X019421Y008445D01*
X019390Y008420D01*
X019357Y008399D01*
X019322Y008381D01*
X019285Y008367D01*
X019248Y008356D01*
X019209Y008349D01*
X019170Y008346D01*
X019131Y008347D01*
X019092Y008352D01*
X019053Y008361D01*
X019016Y008373D01*
X018980Y008389D01*
X018946Y008409D01*
X018914Y008432D01*
X018885Y008458D01*
X018858Y008487D01*
X018834Y008518D01*
X018814Y008552D01*
X018797Y008587D01*
X018784Y008624D01*
X018774Y008662D01*
X018768Y008701D01*
X018766Y008740D01*
X018766Y013240D02*
X018768Y013279D01*
X018774Y013318D01*
X018784Y013356D01*
X018797Y013393D01*
X018814Y013428D01*
X018834Y013462D01*
X018858Y013493D01*
X018885Y013522D01*
X018914Y013548D01*
X018946Y013571D01*
X018980Y013591D01*
X019016Y013607D01*
X019053Y013619D01*
X019092Y013628D01*
X019131Y013633D01*
X019170Y013634D01*
X019209Y013631D01*
X019248Y013624D01*
X019285Y013613D01*
X019322Y013599D01*
X019357Y013581D01*
X019390Y013560D01*
X019421Y013535D01*
X019449Y013508D01*
X019474Y013478D01*
X019496Y013445D01*
X019515Y013411D01*
X019530Y013375D01*
X019542Y013337D01*
X019550Y013299D01*
X019554Y013260D01*
X019554Y013220D01*
X019550Y013181D01*
X019542Y013143D01*
X019530Y013105D01*
X019515Y013069D01*
X019496Y013035D01*
X019474Y013002D01*
X019449Y012972D01*
X019421Y012945D01*
X019390Y012920D01*
X019357Y012899D01*
X019322Y012881D01*
X019285Y012867D01*
X019248Y012856D01*
X019209Y012849D01*
X019170Y012846D01*
X019131Y012847D01*
X019092Y012852D01*
X019053Y012861D01*
X019016Y012873D01*
X018980Y012889D01*
X018946Y012909D01*
X018914Y012932D01*
X018885Y012958D01*
X018858Y012987D01*
X018834Y013018D01*
X018814Y013052D01*
X018797Y013087D01*
X018784Y013124D01*
X018774Y013162D01*
X018768Y013201D01*
X018766Y013240D01*
X014766Y013240D02*
X014768Y013279D01*
X014774Y013318D01*
X014784Y013356D01*
X014797Y013393D01*
X014814Y013428D01*
X014834Y013462D01*
X014858Y013493D01*
X014885Y013522D01*
X014914Y013548D01*
X014946Y013571D01*
X014980Y013591D01*
X015016Y013607D01*
X015053Y013619D01*
X015092Y013628D01*
X015131Y013633D01*
X015170Y013634D01*
X015209Y013631D01*
X015248Y013624D01*
X015285Y013613D01*
X015322Y013599D01*
X015357Y013581D01*
X015390Y013560D01*
X015421Y013535D01*
X015449Y013508D01*
X015474Y013478D01*
X015496Y013445D01*
X015515Y013411D01*
X015530Y013375D01*
X015542Y013337D01*
X015550Y013299D01*
X015554Y013260D01*
X015554Y013220D01*
X015550Y013181D01*
X015542Y013143D01*
X015530Y013105D01*
X015515Y013069D01*
X015496Y013035D01*
X015474Y013002D01*
X015449Y012972D01*
X015421Y012945D01*
X015390Y012920D01*
X015357Y012899D01*
X015322Y012881D01*
X015285Y012867D01*
X015248Y012856D01*
X015209Y012849D01*
X015170Y012846D01*
X015131Y012847D01*
X015092Y012852D01*
X015053Y012861D01*
X015016Y012873D01*
X014980Y012889D01*
X014946Y012909D01*
X014914Y012932D01*
X014885Y012958D01*
X014858Y012987D01*
X014834Y013018D01*
X014814Y013052D01*
X014797Y013087D01*
X014784Y013124D01*
X014774Y013162D01*
X014768Y013201D01*
X014766Y013240D01*
D14*
X014145Y013204D02*
X014145Y013107D01*
X014097Y013059D01*
X014000Y013107D02*
X014000Y013204D01*
X014048Y013252D01*
X014097Y013252D01*
X014145Y013204D01*
X014145Y013354D02*
X013855Y013354D01*
X013903Y013252D02*
X013855Y013204D01*
X013855Y013107D01*
X013903Y013059D01*
X013952Y013059D01*
X014000Y013107D01*
X014193Y012958D02*
X014193Y012764D01*
X014048Y012615D02*
X014048Y012470D01*
X014145Y012470D02*
X013855Y012470D01*
X013855Y012615D01*
X013903Y012663D01*
X014000Y012663D01*
X014048Y012615D01*
X014097Y012368D02*
X013855Y012368D01*
X013855Y012175D02*
X014097Y012175D01*
X014145Y012223D01*
X014145Y012320D01*
X014097Y012368D01*
X014000Y013354D02*
X014000Y013547D01*
X013855Y013547D02*
X014145Y013547D01*
X014145Y013648D02*
X014145Y013745D01*
X014145Y013697D02*
X013855Y013697D01*
X013855Y013745D02*
X013855Y013648D01*
X013855Y013845D02*
X013855Y014038D01*
X013855Y014139D02*
X013855Y014333D01*
X013855Y014236D02*
X014145Y014236D01*
X014000Y013941D02*
X014000Y013845D01*
X014145Y013845D02*
X013855Y013845D01*
X017855Y013845D02*
X018145Y014038D01*
X017855Y014038D01*
X017855Y014139D02*
X017855Y014284D01*
X017903Y014333D01*
X018097Y014333D01*
X018145Y014284D01*
X018145Y014139D01*
X017855Y014139D01*
X017855Y013845D02*
X018145Y013845D01*
X018145Y013744D02*
X018145Y013550D01*
X017855Y013550D01*
X017855Y013744D01*
X018000Y013647D02*
X018000Y013550D01*
X018193Y013449D02*
X018193Y013255D01*
X018145Y013154D02*
X018145Y012961D01*
X017855Y012961D01*
X017855Y013154D01*
X018000Y013057D02*
X018000Y012961D01*
X018097Y012860D02*
X017903Y012860D01*
X017855Y012811D01*
X017855Y012666D01*
X018145Y012666D01*
X018145Y012811D01*
X018097Y012860D01*
X018145Y012566D02*
X018145Y012470D01*
X018145Y012518D02*
X017855Y012518D01*
X017855Y012470D02*
X017855Y012566D01*
X017903Y012368D02*
X018000Y012368D01*
X018048Y012320D01*
X018048Y012175D01*
X018048Y012272D02*
X018145Y012368D01*
X018145Y012175D02*
X017855Y012175D01*
X017855Y012320D01*
X017903Y012368D01*
X017855Y010422D02*
X017855Y010229D01*
X017855Y010325D02*
X018145Y010325D01*
X018145Y010127D02*
X018048Y010031D01*
X018048Y010079D02*
X018048Y009934D01*
X018145Y009934D02*
X017855Y009934D01*
X017855Y010079D01*
X017903Y010127D01*
X018000Y010127D01*
X018048Y010079D01*
X018000Y009833D02*
X018000Y009639D01*
X017952Y009639D02*
X018145Y009639D01*
X017952Y009639D02*
X017855Y009736D01*
X017952Y009833D01*
X018145Y009833D01*
X017855Y009538D02*
X017855Y009345D01*
X017855Y009441D02*
X018145Y009441D01*
X018097Y009244D02*
X018145Y009195D01*
X018145Y009098D01*
X018097Y009050D01*
X018000Y009098D02*
X018000Y009195D01*
X018048Y009244D01*
X018097Y009244D01*
X018000Y009098D02*
X017952Y009050D01*
X017903Y009050D01*
X017855Y009098D01*
X017855Y009195D01*
X017903Y009244D01*
X018193Y008949D02*
X018193Y008755D01*
X018145Y008654D02*
X018145Y008461D01*
X017855Y008461D01*
X017855Y008654D01*
X018000Y008557D02*
X018000Y008461D01*
X018097Y008360D02*
X017903Y008360D01*
X017855Y008311D01*
X017855Y008166D01*
X018145Y008166D01*
X018145Y008311D01*
X018097Y008360D01*
X018145Y008066D02*
X018145Y007970D01*
X018145Y008018D02*
X017855Y008018D01*
X017855Y007970D02*
X017855Y008066D01*
X017903Y007868D02*
X018000Y007868D01*
X018048Y007820D01*
X018048Y007675D01*
X018048Y007772D02*
X018145Y007868D01*
X018145Y007675D02*
X017855Y007675D01*
X017855Y007820D01*
X017903Y007868D01*
X014145Y007820D02*
X014145Y007675D01*
X013855Y007675D01*
X013855Y007820D01*
X013903Y007868D01*
X014097Y007868D01*
X014145Y007820D01*
X014097Y007970D02*
X013903Y007970D01*
X013855Y008018D01*
X013855Y008115D01*
X013903Y008163D01*
X014097Y008163D01*
X014145Y008115D01*
X014145Y008018D01*
X014097Y007970D01*
X014145Y008264D02*
X013855Y008264D01*
X013855Y008458D02*
X014145Y008458D01*
X014048Y008361D01*
X014145Y008264D01*
X014145Y008559D02*
X013855Y008559D01*
X014145Y008752D01*
X013855Y008752D01*
X014193Y008854D02*
X014193Y009047D01*
X014097Y009148D02*
X014145Y009197D01*
X014145Y009293D01*
X014097Y009342D01*
X014048Y009342D01*
X014000Y009293D01*
X014000Y009197D01*
X013952Y009148D01*
X013903Y009148D01*
X013855Y009197D01*
X013855Y009293D01*
X013903Y009342D01*
X013855Y009443D02*
X014145Y009443D01*
X014000Y009443D02*
X014000Y009636D01*
X013855Y009636D02*
X014145Y009636D01*
X014145Y009738D02*
X014145Y009834D01*
X014145Y009786D02*
X013855Y009786D01*
X013855Y009738D02*
X013855Y009834D01*
X013855Y009934D02*
X013855Y010127D01*
X013855Y010229D02*
X013855Y010422D01*
X013855Y010325D02*
X014145Y010325D01*
X014000Y010031D02*
X014000Y009934D01*
X014145Y009934D02*
X013855Y009934D01*
M02*
