G75*
%MOIN*%
%OFA0B0*%
%FSLAX24Y24*%
%IPPOS*%
%LPD*%
%AMOC8*
5,1,8,0,0,1.08239X$1,22.5*
%
%ADD10C,0.0000*%
%ADD11C,0.0740*%
%ADD12R,0.0500X0.0500*%
%ADD13OC8,0.0700*%
%ADD14R,0.0315X0.0472*%
%ADD15C,0.0120*%
%ADD16R,0.0396X0.0396*%
D10*
X001160Y002160D02*
X001160Y018656D01*
X021530Y018656D01*
X021530Y002160D01*
X001160Y002160D01*
D11*
X013660Y003290D02*
X013660Y004030D01*
X014660Y004030D02*
X014660Y003290D01*
X015660Y003290D02*
X015660Y004030D01*
X016660Y004030D02*
X016660Y003290D01*
D12*
X015660Y007660D03*
X014660Y007660D03*
X014660Y009820D03*
X015660Y009820D03*
X015660Y012160D03*
X014660Y012160D03*
X014660Y014320D03*
X015660Y014320D03*
X018660Y014320D03*
X019660Y014320D03*
X019660Y012160D03*
X018660Y012160D03*
X018660Y009820D03*
X019660Y009820D03*
X019660Y007660D03*
X018660Y007660D03*
D13*
X011660Y006160D03*
X010660Y006160D03*
X009660Y006160D03*
X008660Y006160D03*
X007660Y006160D03*
X006660Y006160D03*
X005660Y006160D03*
X004660Y006160D03*
X003660Y006160D03*
X002660Y006160D03*
X002660Y003660D03*
X003660Y003660D03*
X004660Y003660D03*
X005660Y003660D03*
X006660Y003660D03*
X007660Y003660D03*
X008660Y003660D03*
X009660Y003660D03*
X010660Y003660D03*
X011660Y003660D03*
D14*
X018306Y003160D03*
X019014Y003160D03*
X019806Y003160D03*
X020514Y003160D03*
X020514Y004660D03*
X019806Y004660D03*
X019014Y004660D03*
X018306Y004660D03*
D15*
X018324Y004649D02*
X018717Y004649D01*
X018717Y004675D02*
X018717Y004366D01*
X018799Y004284D01*
X019210Y004284D01*
X019210Y003639D01*
X019108Y003536D01*
X018799Y003536D01*
X018717Y003454D01*
X018717Y002866D01*
X018799Y002784D01*
X019230Y002784D01*
X019312Y002866D01*
X019312Y003175D01*
X019488Y003351D01*
X019488Y003179D01*
X019787Y003179D01*
X019787Y003556D01*
X019627Y003556D01*
X019610Y003552D01*
X019610Y004268D01*
X019627Y004264D01*
X019787Y004264D01*
X019787Y004641D01*
X019824Y004641D01*
X019824Y004264D01*
X019984Y004264D01*
X020025Y004275D01*
X020061Y004296D01*
X020091Y004326D01*
X020112Y004362D01*
X020123Y004403D01*
X020123Y004641D01*
X019824Y004641D01*
X019824Y004679D01*
X019787Y004679D01*
X019787Y005056D01*
X019627Y005056D01*
X019610Y005052D01*
X019610Y005493D01*
X017360Y007743D01*
X017243Y007860D01*
X016050Y007860D01*
X016050Y007968D01*
X015968Y008050D01*
X015860Y008050D01*
X015860Y009430D01*
X015968Y009430D01*
X016050Y009512D01*
X016050Y010128D01*
X015968Y010210D01*
X015352Y010210D01*
X015270Y010128D01*
X015270Y009512D01*
X015352Y009430D01*
X015460Y009430D01*
X015460Y008050D01*
X015352Y008050D01*
X015270Y007968D01*
X015270Y007352D01*
X015352Y007270D01*
X015460Y007270D01*
X015460Y007243D01*
X013577Y005360D01*
X013460Y005243D01*
X013460Y004499D01*
X013371Y004462D01*
X013228Y004319D01*
X013150Y004131D01*
X013150Y003189D01*
X013228Y003001D01*
X013371Y002858D01*
X013559Y002780D01*
X013761Y002780D01*
X013949Y002858D01*
X014092Y003001D01*
X014160Y003164D01*
X014228Y003001D01*
X014371Y002858D01*
X014559Y002780D01*
X014761Y002780D01*
X014949Y002858D01*
X015092Y003001D01*
X015160Y003164D01*
X015228Y003001D01*
X015371Y002858D01*
X015559Y002780D01*
X015761Y002780D01*
X015949Y002858D01*
X016092Y003001D01*
X016160Y003164D01*
X016228Y003001D01*
X016371Y002858D01*
X016559Y002780D01*
X016761Y002780D01*
X016949Y002858D01*
X017092Y003001D01*
X017170Y003189D01*
X017170Y004131D01*
X017092Y004319D01*
X016949Y004462D01*
X016761Y004540D01*
X016559Y004540D01*
X016371Y004462D01*
X016228Y004319D01*
X016160Y004156D01*
X016092Y004319D01*
X015949Y004462D01*
X015761Y004540D01*
X015559Y004540D01*
X015371Y004462D01*
X015228Y004319D01*
X015160Y004156D01*
X015092Y004319D01*
X014949Y004462D01*
X014860Y004499D01*
X014860Y004577D01*
X015243Y004960D01*
X018000Y004960D01*
X017999Y004958D01*
X017988Y004917D01*
X017988Y004679D01*
X018287Y004679D01*
X018287Y004641D01*
X018324Y004641D01*
X018324Y004264D01*
X018484Y004264D01*
X018525Y004275D01*
X018561Y004296D01*
X018591Y004326D01*
X018612Y004362D01*
X018623Y004403D01*
X018623Y004641D01*
X018324Y004641D01*
X018324Y004679D01*
X018623Y004679D01*
X018623Y004768D01*
X018717Y004675D01*
X018624Y004767D02*
X018623Y004767D01*
X018623Y004530D02*
X018717Y004530D01*
X018717Y004412D02*
X018623Y004412D01*
X018557Y004293D02*
X018790Y004293D01*
X019014Y004660D02*
X018514Y005160D01*
X015160Y005160D01*
X014660Y004660D01*
X014660Y003660D01*
X015137Y003108D02*
X015183Y003108D01*
X015239Y002990D02*
X015081Y002990D01*
X014962Y002871D02*
X015358Y002871D01*
X015962Y002871D02*
X016358Y002871D01*
X016239Y002990D02*
X016081Y002990D01*
X016137Y003108D02*
X016183Y003108D01*
X016962Y002871D02*
X017997Y002871D01*
X017999Y002862D02*
X018020Y002826D01*
X018050Y002796D01*
X018086Y002775D01*
X018127Y002764D01*
X018287Y002764D01*
X018287Y003141D01*
X018324Y003141D01*
X018324Y002764D01*
X018484Y002764D01*
X018525Y002775D01*
X018561Y002796D01*
X018591Y002826D01*
X018612Y002862D01*
X018623Y002903D01*
X018623Y003141D01*
X018324Y003141D01*
X018324Y003179D01*
X018287Y003179D01*
X018287Y003556D01*
X018127Y003556D01*
X018086Y003545D01*
X018050Y003524D01*
X018020Y003494D01*
X017999Y003458D01*
X017988Y003417D01*
X017988Y003179D01*
X018287Y003179D01*
X018287Y003141D01*
X017988Y003141D01*
X017988Y002903D01*
X017999Y002862D01*
X017988Y002990D02*
X017081Y002990D01*
X017137Y003108D02*
X017988Y003108D01*
X017988Y003227D02*
X017170Y003227D01*
X017170Y003345D02*
X017988Y003345D01*
X018002Y003464D02*
X017170Y003464D01*
X017170Y003582D02*
X019153Y003582D01*
X019210Y003701D02*
X017170Y003701D01*
X017170Y003819D02*
X019210Y003819D01*
X019210Y003938D02*
X017170Y003938D01*
X017170Y004056D02*
X019210Y004056D01*
X019210Y004175D02*
X017152Y004175D01*
X017103Y004293D02*
X018055Y004293D01*
X018050Y004296D02*
X018086Y004275D01*
X018127Y004264D01*
X018287Y004264D01*
X018287Y004641D01*
X017988Y004641D01*
X017988Y004403D01*
X017999Y004362D01*
X018020Y004326D01*
X018050Y004296D01*
X017988Y004412D02*
X017000Y004412D01*
X016786Y004530D02*
X017988Y004530D01*
X017988Y004767D02*
X015050Y004767D01*
X015168Y004886D02*
X017988Y004886D01*
X018287Y004649D02*
X014931Y004649D01*
X014860Y004530D02*
X015534Y004530D01*
X015320Y004412D02*
X015000Y004412D01*
X015103Y004293D02*
X015217Y004293D01*
X015168Y004175D02*
X015152Y004175D01*
X015786Y004530D02*
X016534Y004530D01*
X016320Y004412D02*
X016000Y004412D01*
X016103Y004293D02*
X016217Y004293D01*
X016168Y004175D02*
X016152Y004175D01*
X014358Y002871D02*
X013962Y002871D01*
X014081Y002990D02*
X014239Y002990D01*
X014183Y003108D02*
X014137Y003108D01*
X013660Y003660D02*
X013660Y005160D01*
X015660Y007160D01*
X015660Y007660D01*
X017160Y007660D01*
X019410Y005410D01*
X019410Y003556D01*
X019014Y003160D01*
X018717Y003108D02*
X018623Y003108D01*
X018623Y003179D02*
X018623Y003417D01*
X018612Y003458D01*
X018591Y003494D01*
X018561Y003524D01*
X018525Y003545D01*
X018484Y003556D01*
X018324Y003556D01*
X018324Y003179D01*
X018623Y003179D01*
X018623Y003227D02*
X018717Y003227D01*
X018717Y003345D02*
X018623Y003345D01*
X018609Y003464D02*
X018726Y003464D01*
X018324Y003464D02*
X018287Y003464D01*
X018287Y003345D02*
X018324Y003345D01*
X018324Y003227D02*
X018287Y003227D01*
X018287Y003108D02*
X018324Y003108D01*
X018324Y002990D02*
X018287Y002990D01*
X018287Y002871D02*
X018324Y002871D01*
X018615Y002871D02*
X018717Y002871D01*
X018717Y002990D02*
X018623Y002990D01*
X019312Y002990D02*
X019488Y002990D01*
X019488Y002903D02*
X019499Y002862D01*
X019520Y002826D01*
X019550Y002796D01*
X019586Y002775D01*
X019627Y002764D01*
X019787Y002764D01*
X019787Y003141D01*
X019824Y003141D01*
X019824Y002764D01*
X019984Y002764D01*
X020025Y002775D01*
X020061Y002796D01*
X020091Y002826D01*
X020112Y002862D01*
X020123Y002903D01*
X020123Y003141D01*
X019824Y003141D01*
X019824Y003179D01*
X019787Y003179D01*
X019787Y003141D01*
X019488Y003141D01*
X019488Y002903D01*
X019497Y002871D02*
X019312Y002871D01*
X019312Y003108D02*
X019488Y003108D01*
X019488Y003227D02*
X019364Y003227D01*
X019482Y003345D02*
X019488Y003345D01*
X019610Y003582D02*
X020144Y003582D01*
X020154Y003572D02*
X020314Y003572D01*
X020314Y003536D01*
X020299Y003536D01*
X020217Y003454D01*
X020217Y002866D01*
X020299Y002784D01*
X020730Y002784D01*
X020812Y002866D01*
X020812Y003454D01*
X020730Y003536D01*
X020714Y003536D01*
X020714Y003620D01*
X020748Y003654D01*
X020748Y004166D01*
X020666Y004248D01*
X020154Y004248D01*
X020072Y004166D01*
X020072Y003654D01*
X020154Y003572D01*
X020091Y003494D02*
X020061Y003524D01*
X020025Y003545D01*
X019984Y003556D01*
X019824Y003556D01*
X019824Y003179D01*
X020123Y003179D01*
X020123Y003417D01*
X020112Y003458D01*
X020091Y003494D01*
X020109Y003464D02*
X020226Y003464D01*
X020217Y003345D02*
X020123Y003345D01*
X020123Y003227D02*
X020217Y003227D01*
X020217Y003108D02*
X020123Y003108D01*
X020123Y002990D02*
X020217Y002990D01*
X020217Y002871D02*
X020115Y002871D01*
X019824Y002871D02*
X019787Y002871D01*
X019787Y002990D02*
X019824Y002990D01*
X019824Y003108D02*
X019787Y003108D01*
X019787Y003227D02*
X019824Y003227D01*
X019824Y003345D02*
X019787Y003345D01*
X019787Y003464D02*
X019824Y003464D01*
X019610Y003701D02*
X020072Y003701D01*
X020072Y003819D02*
X019610Y003819D01*
X019610Y003938D02*
X020072Y003938D01*
X020072Y004056D02*
X019610Y004056D01*
X019610Y004175D02*
X020080Y004175D01*
X020057Y004293D02*
X020290Y004293D01*
X020299Y004284D02*
X020730Y004284D01*
X020812Y004366D01*
X020812Y004954D01*
X020730Y005036D01*
X020714Y005036D01*
X020714Y011389D01*
X020050Y012053D01*
X020050Y012468D01*
X019968Y012550D01*
X019860Y012550D01*
X019860Y013930D01*
X019968Y013930D01*
X020050Y014012D01*
X020050Y014628D01*
X019968Y014710D01*
X019352Y014710D01*
X019270Y014628D01*
X019270Y014012D01*
X019352Y013930D01*
X019460Y013930D01*
X019460Y012550D01*
X019352Y012550D01*
X019270Y012468D01*
X019270Y011852D01*
X019352Y011770D01*
X019460Y011770D01*
X019460Y010998D01*
X019404Y010998D01*
X019322Y010916D01*
X019322Y010404D01*
X019404Y010322D01*
X019916Y010322D01*
X019998Y010404D01*
X019998Y010916D01*
X019916Y010998D01*
X019860Y010998D01*
X019860Y011677D01*
X020314Y011223D01*
X020314Y005036D01*
X020299Y005036D01*
X020217Y004954D01*
X020217Y004366D01*
X020299Y004284D01*
X020217Y004412D02*
X020123Y004412D01*
X020123Y004530D02*
X020217Y004530D01*
X020217Y004649D02*
X019824Y004649D01*
X019824Y004679D02*
X020123Y004679D01*
X020123Y004917D01*
X020112Y004958D01*
X020091Y004994D01*
X020061Y005024D01*
X020025Y005045D01*
X019984Y005056D01*
X019824Y005056D01*
X019824Y004679D01*
X019824Y004767D02*
X019787Y004767D01*
X019787Y004886D02*
X019824Y004886D01*
X019824Y005004D02*
X019787Y005004D01*
X019610Y005123D02*
X020314Y005123D01*
X020314Y005241D02*
X019610Y005241D01*
X019610Y005360D02*
X020314Y005360D01*
X020314Y005478D02*
X019610Y005478D01*
X019506Y005597D02*
X020314Y005597D01*
X020314Y005715D02*
X019388Y005715D01*
X019404Y005822D02*
X019322Y005904D01*
X019322Y006416D01*
X019404Y006498D01*
X019460Y006498D01*
X019460Y007270D01*
X019352Y007270D01*
X019270Y007352D01*
X019270Y007968D01*
X019352Y008050D01*
X019460Y008050D01*
X019460Y009430D01*
X019352Y009430D01*
X019270Y009512D01*
X019270Y010128D01*
X019352Y010210D01*
X019968Y010210D01*
X020050Y010128D01*
X020050Y009512D01*
X019968Y009430D01*
X019860Y009430D01*
X019860Y008050D01*
X019968Y008050D01*
X020050Y007968D01*
X020050Y007352D01*
X019968Y007270D01*
X019860Y007270D01*
X019860Y006498D01*
X019916Y006498D01*
X019998Y006416D01*
X019998Y005904D01*
X019916Y005822D01*
X019404Y005822D01*
X019392Y005834D02*
X019269Y005834D01*
X019322Y005952D02*
X019151Y005952D01*
X019032Y006071D02*
X019322Y006071D01*
X019322Y006189D02*
X018914Y006189D01*
X018795Y006308D02*
X019322Y006308D01*
X019332Y006426D02*
X018677Y006426D01*
X018558Y006545D02*
X019460Y006545D01*
X019460Y006663D02*
X018440Y006663D01*
X018321Y006782D02*
X019460Y006782D01*
X019460Y006900D02*
X018203Y006900D01*
X018084Y007019D02*
X019460Y007019D01*
X019460Y007137D02*
X017966Y007137D01*
X017847Y007256D02*
X019460Y007256D01*
X019270Y007374D02*
X019050Y007374D01*
X019050Y007352D02*
X019050Y007968D01*
X018968Y008050D01*
X018860Y008050D01*
X018860Y009430D01*
X018968Y009430D01*
X019050Y009512D01*
X019050Y010128D01*
X018968Y010210D01*
X018860Y010210D01*
X018860Y011770D01*
X018968Y011770D01*
X019050Y011852D01*
X019050Y012468D01*
X018968Y012550D01*
X018860Y012550D01*
X018860Y013930D01*
X018968Y013930D01*
X019050Y014012D01*
X019050Y014628D01*
X018968Y014710D01*
X018860Y014710D01*
X018860Y015322D01*
X018916Y015322D01*
X018998Y015404D01*
X018998Y015916D01*
X018916Y015998D01*
X018404Y015998D01*
X018322Y015916D01*
X018322Y015404D01*
X018404Y015322D01*
X018460Y015322D01*
X018460Y014710D01*
X018352Y014710D01*
X018270Y014628D01*
X018270Y014012D01*
X018352Y013930D01*
X018460Y013930D01*
X018460Y012550D01*
X018352Y012550D01*
X018270Y012468D01*
X018270Y011852D01*
X018352Y011770D01*
X018460Y011770D01*
X018460Y010210D01*
X018352Y010210D01*
X018270Y010128D01*
X018270Y009512D01*
X018352Y009430D01*
X018460Y009430D01*
X018460Y008050D01*
X018352Y008050D01*
X018270Y007968D01*
X018270Y007352D01*
X018352Y007270D01*
X018968Y007270D01*
X019050Y007352D01*
X019050Y007493D02*
X019270Y007493D01*
X019270Y007611D02*
X019050Y007611D01*
X019050Y007730D02*
X019270Y007730D01*
X019270Y007848D02*
X019050Y007848D01*
X019050Y007967D02*
X019270Y007967D01*
X019460Y008085D02*
X018860Y008085D01*
X018860Y008204D02*
X019460Y008204D01*
X019460Y008322D02*
X018860Y008322D01*
X018860Y008441D02*
X019460Y008441D01*
X019460Y008559D02*
X018860Y008559D01*
X018860Y008678D02*
X019460Y008678D01*
X019460Y008796D02*
X018860Y008796D01*
X018860Y008915D02*
X019460Y008915D01*
X019460Y009033D02*
X018860Y009033D01*
X018860Y009152D02*
X019460Y009152D01*
X019460Y009270D02*
X018860Y009270D01*
X018860Y009389D02*
X019460Y009389D01*
X019275Y009507D02*
X019045Y009507D01*
X019050Y009626D02*
X019270Y009626D01*
X019270Y009744D02*
X019050Y009744D01*
X019050Y009863D02*
X019270Y009863D01*
X019270Y009981D02*
X019050Y009981D01*
X019050Y010100D02*
X019270Y010100D01*
X019389Y010337D02*
X018860Y010337D01*
X018860Y010455D02*
X019322Y010455D01*
X019322Y010574D02*
X018860Y010574D01*
X018860Y010692D02*
X019322Y010692D01*
X019322Y010811D02*
X018860Y010811D01*
X018860Y010929D02*
X019335Y010929D01*
X019460Y011048D02*
X018860Y011048D01*
X018860Y011166D02*
X019460Y011166D01*
X019460Y011285D02*
X018860Y011285D01*
X018860Y011403D02*
X019460Y011403D01*
X019460Y011522D02*
X018860Y011522D01*
X018860Y011640D02*
X019460Y011640D01*
X019460Y011759D02*
X018860Y011759D01*
X019050Y011877D02*
X019270Y011877D01*
X019270Y011996D02*
X019050Y011996D01*
X019050Y012114D02*
X019270Y012114D01*
X019270Y012233D02*
X019050Y012233D01*
X019050Y012351D02*
X019270Y012351D01*
X019272Y012470D02*
X019048Y012470D01*
X018860Y012588D02*
X019460Y012588D01*
X019460Y012707D02*
X018860Y012707D01*
X018860Y012825D02*
X019460Y012825D01*
X019460Y012944D02*
X018860Y012944D01*
X018860Y013062D02*
X019460Y013062D01*
X019460Y013181D02*
X018860Y013181D01*
X018860Y013299D02*
X019460Y013299D01*
X019460Y013418D02*
X018860Y013418D01*
X018860Y013536D02*
X019460Y013536D01*
X019460Y013655D02*
X018860Y013655D01*
X018860Y013773D02*
X019460Y013773D01*
X019460Y013892D02*
X018860Y013892D01*
X019048Y014010D02*
X019272Y014010D01*
X019270Y014129D02*
X019050Y014129D01*
X019050Y014247D02*
X019270Y014247D01*
X019270Y014366D02*
X019050Y014366D01*
X019050Y014484D02*
X019270Y014484D01*
X019270Y014603D02*
X019050Y014603D01*
X018860Y014721D02*
X021070Y014721D01*
X021070Y014603D02*
X020050Y014603D01*
X020050Y014484D02*
X021070Y014484D01*
X021070Y014366D02*
X020050Y014366D01*
X020050Y014247D02*
X021070Y014247D01*
X021070Y014129D02*
X020050Y014129D01*
X020048Y014010D02*
X021070Y014010D01*
X021070Y013892D02*
X019860Y013892D01*
X019860Y013773D02*
X021070Y013773D01*
X021070Y013655D02*
X019860Y013655D01*
X019860Y013536D02*
X021070Y013536D01*
X021070Y013418D02*
X019860Y013418D01*
X019860Y013299D02*
X021070Y013299D01*
X021070Y013181D02*
X019860Y013181D01*
X019860Y013062D02*
X021070Y013062D01*
X021070Y012944D02*
X019860Y012944D01*
X019860Y012825D02*
X021070Y012825D01*
X021070Y012707D02*
X019860Y012707D01*
X019860Y012588D02*
X021070Y012588D01*
X021070Y012470D02*
X020048Y012470D01*
X020050Y012351D02*
X021070Y012351D01*
X021070Y012233D02*
X020050Y012233D01*
X020050Y012114D02*
X021070Y012114D01*
X021070Y011996D02*
X020107Y011996D01*
X020226Y011877D02*
X021070Y011877D01*
X021070Y011759D02*
X020344Y011759D01*
X020463Y011640D02*
X021070Y011640D01*
X021070Y011522D02*
X020581Y011522D01*
X020700Y011403D02*
X021070Y011403D01*
X021070Y011285D02*
X020714Y011285D01*
X020714Y011166D02*
X021070Y011166D01*
X021070Y011048D02*
X020714Y011048D01*
X020714Y010929D02*
X021070Y010929D01*
X021070Y010811D02*
X020714Y010811D01*
X020714Y010692D02*
X021070Y010692D01*
X021070Y010574D02*
X020714Y010574D01*
X020714Y010455D02*
X021070Y010455D01*
X021070Y010337D02*
X020714Y010337D01*
X020714Y010218D02*
X021070Y010218D01*
X021070Y010100D02*
X020714Y010100D01*
X020714Y009981D02*
X021070Y009981D01*
X021070Y009863D02*
X020714Y009863D01*
X020714Y009744D02*
X021070Y009744D01*
X021070Y009626D02*
X020714Y009626D01*
X020714Y009507D02*
X021070Y009507D01*
X021070Y009389D02*
X020714Y009389D01*
X020714Y009270D02*
X021070Y009270D01*
X021070Y009152D02*
X020714Y009152D01*
X020714Y009033D02*
X021070Y009033D01*
X021070Y008915D02*
X020714Y008915D01*
X020714Y008796D02*
X021070Y008796D01*
X021070Y008678D02*
X020714Y008678D01*
X020714Y008559D02*
X021070Y008559D01*
X021070Y008441D02*
X020714Y008441D01*
X020714Y008322D02*
X021070Y008322D01*
X021070Y008204D02*
X020714Y008204D01*
X020714Y008085D02*
X021070Y008085D01*
X021070Y007967D02*
X020714Y007967D01*
X020714Y007848D02*
X021070Y007848D01*
X021070Y007730D02*
X020714Y007730D01*
X020714Y007611D02*
X021070Y007611D01*
X021070Y007493D02*
X020714Y007493D01*
X020714Y007374D02*
X021070Y007374D01*
X021070Y007256D02*
X020714Y007256D01*
X020714Y007137D02*
X021070Y007137D01*
X021070Y007019D02*
X020714Y007019D01*
X020714Y006900D02*
X021070Y006900D01*
X021070Y006782D02*
X020714Y006782D01*
X020714Y006663D02*
X021070Y006663D01*
X021070Y006545D02*
X020714Y006545D01*
X020714Y006426D02*
X021070Y006426D01*
X021070Y006308D02*
X020714Y006308D01*
X020714Y006189D02*
X021070Y006189D01*
X021070Y006071D02*
X020714Y006071D01*
X020714Y005952D02*
X021070Y005952D01*
X021070Y005834D02*
X020714Y005834D01*
X020714Y005715D02*
X021070Y005715D01*
X021070Y005597D02*
X020714Y005597D01*
X020714Y005478D02*
X021070Y005478D01*
X021070Y005360D02*
X020714Y005360D01*
X020714Y005241D02*
X021070Y005241D01*
X021070Y005123D02*
X020714Y005123D01*
X020762Y005004D02*
X021070Y005004D01*
X021070Y004886D02*
X020812Y004886D01*
X020812Y004767D02*
X021070Y004767D01*
X021070Y004649D02*
X020812Y004649D01*
X020812Y004530D02*
X021070Y004530D01*
X021070Y004412D02*
X020812Y004412D01*
X020739Y004293D02*
X021070Y004293D01*
X021070Y004175D02*
X020740Y004175D01*
X020748Y004056D02*
X021070Y004056D01*
X021070Y003938D02*
X020748Y003938D01*
X020748Y003819D02*
X021070Y003819D01*
X021070Y003701D02*
X020748Y003701D01*
X020714Y003582D02*
X021070Y003582D01*
X021070Y003464D02*
X020803Y003464D01*
X020812Y003345D02*
X021070Y003345D01*
X021070Y003227D02*
X020812Y003227D01*
X020812Y003108D02*
X021070Y003108D01*
X021070Y002990D02*
X020812Y002990D01*
X020812Y002871D02*
X021070Y002871D01*
X021070Y002753D02*
X001620Y002753D01*
X001620Y002871D02*
X013358Y002871D01*
X013239Y002990D02*
X001620Y002990D01*
X001620Y003108D02*
X013183Y003108D01*
X013150Y003227D02*
X011919Y003227D01*
X011863Y003170D02*
X012150Y003457D01*
X012150Y003863D01*
X011863Y004150D01*
X011860Y004150D01*
X011860Y005670D01*
X011863Y005670D01*
X012150Y005957D01*
X012150Y006363D01*
X011863Y006650D01*
X011457Y006650D01*
X011170Y006363D01*
X011170Y005957D01*
X011457Y005670D01*
X011460Y005670D01*
X011460Y004150D01*
X011457Y004150D01*
X011170Y003863D01*
X011170Y003457D01*
X011457Y003170D01*
X011863Y003170D01*
X012038Y003345D02*
X013150Y003345D01*
X013150Y003464D02*
X012150Y003464D01*
X012150Y003582D02*
X013150Y003582D01*
X013150Y003701D02*
X012150Y003701D01*
X012150Y003819D02*
X013150Y003819D01*
X013150Y003938D02*
X012075Y003938D01*
X011957Y004056D02*
X013150Y004056D01*
X013168Y004175D02*
X011860Y004175D01*
X011860Y004293D02*
X013217Y004293D01*
X013320Y004412D02*
X011860Y004412D01*
X011860Y004530D02*
X013460Y004530D01*
X013460Y004649D02*
X011860Y004649D01*
X011860Y004767D02*
X013460Y004767D01*
X013460Y004886D02*
X011860Y004886D01*
X011860Y005004D02*
X013460Y005004D01*
X013460Y005123D02*
X011860Y005123D01*
X011860Y005241D02*
X013460Y005241D01*
X013577Y005360D02*
X011860Y005360D01*
X011860Y005478D02*
X013695Y005478D01*
X013814Y005597D02*
X011860Y005597D01*
X011908Y005715D02*
X013932Y005715D01*
X014051Y005834D02*
X012026Y005834D01*
X012145Y005952D02*
X014169Y005952D01*
X014288Y006071D02*
X012150Y006071D01*
X012150Y006189D02*
X014406Y006189D01*
X014525Y006308D02*
X012150Y006308D01*
X012087Y006426D02*
X014643Y006426D01*
X014762Y006545D02*
X011968Y006545D01*
X011660Y006160D02*
X011660Y003660D01*
X011282Y003345D02*
X011038Y003345D01*
X011150Y003457D02*
X010863Y003170D01*
X010457Y003170D01*
X010170Y003457D01*
X010170Y003863D01*
X010457Y004150D01*
X010460Y004150D01*
X010460Y005670D01*
X010457Y005670D01*
X010170Y005957D01*
X010170Y006363D01*
X010457Y006650D01*
X010863Y006650D01*
X011150Y006363D01*
X011150Y005957D01*
X010863Y005670D01*
X010860Y005670D01*
X010860Y004150D01*
X010863Y004150D01*
X011150Y003863D01*
X011150Y003457D01*
X011150Y003464D02*
X011170Y003464D01*
X011170Y003582D02*
X011150Y003582D01*
X011150Y003701D02*
X011170Y003701D01*
X011170Y003819D02*
X011150Y003819D01*
X011075Y003938D02*
X011245Y003938D01*
X011363Y004056D02*
X010957Y004056D01*
X010860Y004175D02*
X011460Y004175D01*
X011460Y004293D02*
X010860Y004293D01*
X010860Y004412D02*
X011460Y004412D01*
X011460Y004530D02*
X010860Y004530D01*
X010860Y004649D02*
X011460Y004649D01*
X011460Y004767D02*
X010860Y004767D01*
X010860Y004886D02*
X011460Y004886D01*
X011460Y005004D02*
X010860Y005004D01*
X010860Y005123D02*
X011460Y005123D01*
X011460Y005241D02*
X010860Y005241D01*
X010860Y005360D02*
X011460Y005360D01*
X011460Y005478D02*
X010860Y005478D01*
X010860Y005597D02*
X011460Y005597D01*
X011412Y005715D02*
X010908Y005715D01*
X011026Y005834D02*
X011294Y005834D01*
X011175Y005952D02*
X011145Y005952D01*
X011150Y006071D02*
X011170Y006071D01*
X011170Y006189D02*
X011150Y006189D01*
X011150Y006308D02*
X011170Y006308D01*
X011233Y006426D02*
X011087Y006426D01*
X010968Y006545D02*
X011352Y006545D01*
X010660Y006160D02*
X010660Y003660D01*
X010282Y003345D02*
X010038Y003345D01*
X010150Y003457D02*
X010150Y003863D01*
X009863Y004150D01*
X009860Y004150D01*
X009860Y005670D01*
X009863Y005670D01*
X010150Y005957D01*
X010150Y006363D01*
X009863Y006650D01*
X009457Y006650D01*
X009170Y006363D01*
X009170Y005957D01*
X009457Y005670D01*
X009460Y005670D01*
X009460Y004150D01*
X009457Y004150D01*
X009170Y003863D01*
X009170Y003457D01*
X009457Y003170D01*
X009863Y003170D01*
X010150Y003457D01*
X010150Y003464D02*
X010170Y003464D01*
X010170Y003582D02*
X010150Y003582D01*
X010150Y003701D02*
X010170Y003701D01*
X010170Y003819D02*
X010150Y003819D01*
X010075Y003938D02*
X010245Y003938D01*
X010363Y004056D02*
X009957Y004056D01*
X009860Y004175D02*
X010460Y004175D01*
X010460Y004293D02*
X009860Y004293D01*
X009860Y004412D02*
X010460Y004412D01*
X010460Y004530D02*
X009860Y004530D01*
X009860Y004649D02*
X010460Y004649D01*
X010460Y004767D02*
X009860Y004767D01*
X009860Y004886D02*
X010460Y004886D01*
X010460Y005004D02*
X009860Y005004D01*
X009860Y005123D02*
X010460Y005123D01*
X010460Y005241D02*
X009860Y005241D01*
X009860Y005360D02*
X010460Y005360D01*
X010460Y005478D02*
X009860Y005478D01*
X009860Y005597D02*
X010460Y005597D01*
X010412Y005715D02*
X009908Y005715D01*
X010026Y005834D02*
X010294Y005834D01*
X010175Y005952D02*
X010145Y005952D01*
X010150Y006071D02*
X010170Y006071D01*
X010170Y006189D02*
X010150Y006189D01*
X010150Y006308D02*
X010170Y006308D01*
X010233Y006426D02*
X010087Y006426D01*
X009968Y006545D02*
X010352Y006545D01*
X009660Y006160D02*
X009660Y003660D01*
X009170Y003701D02*
X009150Y003701D01*
X009150Y003819D02*
X009170Y003819D01*
X009150Y003863D02*
X008863Y004150D01*
X008860Y004150D01*
X008860Y005670D01*
X008863Y005670D01*
X009150Y005957D01*
X009150Y006363D01*
X008863Y006650D01*
X008457Y006650D01*
X008170Y006363D01*
X008170Y005957D01*
X008457Y005670D01*
X008460Y005670D01*
X008460Y004150D01*
X008457Y004150D01*
X008170Y003863D01*
X008170Y003457D01*
X008457Y003170D01*
X008863Y003170D01*
X009150Y003457D01*
X009150Y003863D01*
X009075Y003938D02*
X009245Y003938D01*
X009363Y004056D02*
X008957Y004056D01*
X008860Y004175D02*
X009460Y004175D01*
X009460Y004293D02*
X008860Y004293D01*
X008860Y004412D02*
X009460Y004412D01*
X009460Y004530D02*
X008860Y004530D01*
X008860Y004649D02*
X009460Y004649D01*
X009460Y004767D02*
X008860Y004767D01*
X008860Y004886D02*
X009460Y004886D01*
X009460Y005004D02*
X008860Y005004D01*
X008860Y005123D02*
X009460Y005123D01*
X009460Y005241D02*
X008860Y005241D01*
X008860Y005360D02*
X009460Y005360D01*
X009460Y005478D02*
X008860Y005478D01*
X008860Y005597D02*
X009460Y005597D01*
X009412Y005715D02*
X008908Y005715D01*
X009026Y005834D02*
X009294Y005834D01*
X009175Y005952D02*
X009145Y005952D01*
X009150Y006071D02*
X009170Y006071D01*
X009170Y006189D02*
X009150Y006189D01*
X009150Y006308D02*
X009170Y006308D01*
X009233Y006426D02*
X009087Y006426D01*
X008968Y006545D02*
X009352Y006545D01*
X008660Y006160D02*
X008660Y003660D01*
X009038Y003345D02*
X009282Y003345D01*
X009170Y003464D02*
X009150Y003464D01*
X009150Y003582D02*
X009170Y003582D01*
X009401Y003227D02*
X008919Y003227D01*
X008401Y003227D02*
X007919Y003227D01*
X007863Y003170D02*
X008150Y003457D01*
X008150Y003863D01*
X007863Y004150D01*
X007860Y004150D01*
X007860Y005670D01*
X007863Y005670D01*
X008150Y005957D01*
X008150Y006363D01*
X007863Y006650D01*
X007457Y006650D01*
X007170Y006363D01*
X007170Y005957D01*
X007457Y005670D01*
X007460Y005670D01*
X007460Y004150D01*
X007457Y004150D01*
X007170Y003863D01*
X007170Y003457D01*
X007457Y003170D01*
X007863Y003170D01*
X008038Y003345D02*
X008282Y003345D01*
X008170Y003464D02*
X008150Y003464D01*
X008150Y003582D02*
X008170Y003582D01*
X008170Y003701D02*
X008150Y003701D01*
X008150Y003819D02*
X008170Y003819D01*
X008245Y003938D02*
X008075Y003938D01*
X007957Y004056D02*
X008363Y004056D01*
X008460Y004175D02*
X007860Y004175D01*
X007860Y004293D02*
X008460Y004293D01*
X008460Y004412D02*
X007860Y004412D01*
X007860Y004530D02*
X008460Y004530D01*
X008460Y004649D02*
X007860Y004649D01*
X007860Y004767D02*
X008460Y004767D01*
X008460Y004886D02*
X007860Y004886D01*
X007860Y005004D02*
X008460Y005004D01*
X008460Y005123D02*
X007860Y005123D01*
X007860Y005241D02*
X008460Y005241D01*
X008460Y005360D02*
X007860Y005360D01*
X007860Y005478D02*
X008460Y005478D01*
X008460Y005597D02*
X007860Y005597D01*
X007908Y005715D02*
X008412Y005715D01*
X008294Y005834D02*
X008026Y005834D01*
X008145Y005952D02*
X008175Y005952D01*
X008170Y006071D02*
X008150Y006071D01*
X008150Y006189D02*
X008170Y006189D01*
X008170Y006308D02*
X008150Y006308D01*
X008087Y006426D02*
X008233Y006426D01*
X008352Y006545D02*
X007968Y006545D01*
X007660Y006160D02*
X007660Y003660D01*
X007282Y003345D02*
X007038Y003345D01*
X007150Y003457D02*
X006863Y003170D01*
X006457Y003170D01*
X006170Y003457D01*
X006170Y003863D01*
X006457Y004150D01*
X006460Y004150D01*
X006460Y005670D01*
X006457Y005670D01*
X006170Y005957D01*
X006170Y006363D01*
X006457Y006650D01*
X006863Y006650D01*
X007150Y006363D01*
X007150Y005957D01*
X006863Y005670D01*
X006860Y005670D01*
X006860Y004150D01*
X006863Y004150D01*
X007150Y003863D01*
X007150Y003457D01*
X007150Y003464D02*
X007170Y003464D01*
X007170Y003582D02*
X007150Y003582D01*
X007150Y003701D02*
X007170Y003701D01*
X007170Y003819D02*
X007150Y003819D01*
X007075Y003938D02*
X007245Y003938D01*
X007363Y004056D02*
X006957Y004056D01*
X006860Y004175D02*
X007460Y004175D01*
X007460Y004293D02*
X006860Y004293D01*
X006860Y004412D02*
X007460Y004412D01*
X007460Y004530D02*
X006860Y004530D01*
X006860Y004649D02*
X007460Y004649D01*
X007460Y004767D02*
X006860Y004767D01*
X006860Y004886D02*
X007460Y004886D01*
X007460Y005004D02*
X006860Y005004D01*
X006860Y005123D02*
X007460Y005123D01*
X007460Y005241D02*
X006860Y005241D01*
X006860Y005360D02*
X007460Y005360D01*
X007460Y005478D02*
X006860Y005478D01*
X006860Y005597D02*
X007460Y005597D01*
X007412Y005715D02*
X006908Y005715D01*
X007026Y005834D02*
X007294Y005834D01*
X007175Y005952D02*
X007145Y005952D01*
X007150Y006071D02*
X007170Y006071D01*
X007170Y006189D02*
X007150Y006189D01*
X007150Y006308D02*
X007170Y006308D01*
X007233Y006426D02*
X007087Y006426D01*
X006968Y006545D02*
X007352Y006545D01*
X006660Y006160D02*
X006660Y003660D01*
X006170Y003701D02*
X006150Y003701D01*
X006150Y003819D02*
X006170Y003819D01*
X006150Y003863D02*
X005863Y004150D01*
X005860Y004150D01*
X005860Y005670D01*
X005863Y005670D01*
X006150Y005957D01*
X006150Y006363D01*
X005863Y006650D01*
X005457Y006650D01*
X005170Y006363D01*
X005170Y005957D01*
X005457Y005670D01*
X005460Y005670D01*
X005460Y004150D01*
X005457Y004150D01*
X005170Y003863D01*
X005170Y003457D01*
X005457Y003170D01*
X005863Y003170D01*
X006150Y003457D01*
X006150Y003863D01*
X006075Y003938D02*
X006245Y003938D01*
X006363Y004056D02*
X005957Y004056D01*
X005860Y004175D02*
X006460Y004175D01*
X006460Y004293D02*
X005860Y004293D01*
X005860Y004412D02*
X006460Y004412D01*
X006460Y004530D02*
X005860Y004530D01*
X005860Y004649D02*
X006460Y004649D01*
X006460Y004767D02*
X005860Y004767D01*
X005860Y004886D02*
X006460Y004886D01*
X006460Y005004D02*
X005860Y005004D01*
X005860Y005123D02*
X006460Y005123D01*
X006460Y005241D02*
X005860Y005241D01*
X005860Y005360D02*
X006460Y005360D01*
X006460Y005478D02*
X005860Y005478D01*
X005860Y005597D02*
X006460Y005597D01*
X006412Y005715D02*
X005908Y005715D01*
X006026Y005834D02*
X006294Y005834D01*
X006175Y005952D02*
X006145Y005952D01*
X006150Y006071D02*
X006170Y006071D01*
X006170Y006189D02*
X006150Y006189D01*
X006150Y006308D02*
X006170Y006308D01*
X006233Y006426D02*
X006087Y006426D01*
X005968Y006545D02*
X006352Y006545D01*
X005660Y006160D02*
X005660Y003660D01*
X006038Y003345D02*
X006282Y003345D01*
X006170Y003464D02*
X006150Y003464D01*
X006150Y003582D02*
X006170Y003582D01*
X006401Y003227D02*
X005919Y003227D01*
X005401Y003227D02*
X004919Y003227D01*
X004863Y003170D02*
X005150Y003457D01*
X005150Y003863D01*
X004863Y004150D01*
X004860Y004150D01*
X004860Y005670D01*
X004863Y005670D01*
X005150Y005957D01*
X005150Y006363D01*
X004863Y006650D01*
X004457Y006650D01*
X004170Y006363D01*
X004170Y005957D01*
X004457Y005670D01*
X004460Y005670D01*
X004460Y004150D01*
X004457Y004150D01*
X004170Y003863D01*
X004170Y003457D01*
X004457Y003170D01*
X004863Y003170D01*
X005038Y003345D02*
X005282Y003345D01*
X005170Y003464D02*
X005150Y003464D01*
X005150Y003582D02*
X005170Y003582D01*
X005170Y003701D02*
X005150Y003701D01*
X005150Y003819D02*
X005170Y003819D01*
X005245Y003938D02*
X005075Y003938D01*
X004957Y004056D02*
X005363Y004056D01*
X005460Y004175D02*
X004860Y004175D01*
X004860Y004293D02*
X005460Y004293D01*
X005460Y004412D02*
X004860Y004412D01*
X004860Y004530D02*
X005460Y004530D01*
X005460Y004649D02*
X004860Y004649D01*
X004860Y004767D02*
X005460Y004767D01*
X005460Y004886D02*
X004860Y004886D01*
X004860Y005004D02*
X005460Y005004D01*
X005460Y005123D02*
X004860Y005123D01*
X004860Y005241D02*
X005460Y005241D01*
X005460Y005360D02*
X004860Y005360D01*
X004860Y005478D02*
X005460Y005478D01*
X005460Y005597D02*
X004860Y005597D01*
X004908Y005715D02*
X005412Y005715D01*
X005294Y005834D02*
X005026Y005834D01*
X005145Y005952D02*
X005175Y005952D01*
X005170Y006071D02*
X005150Y006071D01*
X005150Y006189D02*
X005170Y006189D01*
X005170Y006308D02*
X005150Y006308D01*
X005087Y006426D02*
X005233Y006426D01*
X005352Y006545D02*
X004968Y006545D01*
X004660Y006160D02*
X004660Y003660D01*
X004282Y003345D02*
X004066Y003345D01*
X004170Y003449D02*
X004170Y003620D01*
X003700Y003620D01*
X003700Y003700D01*
X003620Y003700D01*
X003620Y004170D01*
X003449Y004170D01*
X003150Y003871D01*
X003150Y003700D01*
X003620Y003700D01*
X003620Y003620D01*
X003150Y003620D01*
X003150Y003449D01*
X003449Y003150D01*
X003620Y003150D01*
X003620Y003620D01*
X003700Y003620D01*
X003700Y003150D01*
X003871Y003150D01*
X004170Y003449D01*
X004170Y003464D02*
X004170Y003464D01*
X004170Y003582D02*
X004170Y003582D01*
X004170Y003700D02*
X004170Y003871D01*
X003871Y004170D01*
X003700Y004170D01*
X003700Y003700D01*
X004170Y003700D01*
X004170Y003701D02*
X004170Y003701D01*
X004170Y003819D02*
X004170Y003819D01*
X004104Y003938D02*
X004245Y003938D01*
X004363Y004056D02*
X003985Y004056D01*
X003700Y004056D02*
X003620Y004056D01*
X003620Y003938D02*
X003700Y003938D01*
X003700Y003819D02*
X003620Y003819D01*
X003620Y003701D02*
X003700Y003701D01*
X003660Y003660D02*
X003660Y006160D01*
X003700Y006189D02*
X004170Y006189D01*
X004170Y006200D02*
X004170Y006371D01*
X003871Y006670D01*
X003700Y006670D01*
X003700Y006200D01*
X003620Y006200D01*
X003620Y006670D01*
X003449Y006670D01*
X003150Y006371D01*
X003150Y006200D01*
X003620Y006200D01*
X003620Y006120D01*
X003150Y006120D01*
X003150Y005949D01*
X003449Y005650D01*
X003620Y005650D01*
X003620Y006120D01*
X003700Y006120D01*
X003700Y006200D01*
X004170Y006200D01*
X004170Y006120D02*
X003700Y006120D01*
X003700Y005650D01*
X003871Y005650D01*
X004170Y005949D01*
X004170Y006120D01*
X004170Y006071D02*
X004170Y006071D01*
X004170Y005952D02*
X004175Y005952D01*
X004294Y005834D02*
X004055Y005834D01*
X003936Y005715D02*
X004412Y005715D01*
X004460Y005597D02*
X001620Y005597D01*
X001620Y005715D02*
X002412Y005715D01*
X002457Y005670D02*
X002863Y005670D01*
X003150Y005957D01*
X003150Y006363D01*
X002863Y006650D01*
X002457Y006650D01*
X002170Y006363D01*
X002170Y005957D01*
X002457Y005670D01*
X002294Y005834D02*
X001620Y005834D01*
X001620Y005952D02*
X002175Y005952D01*
X002170Y006071D02*
X001620Y006071D01*
X001620Y006189D02*
X002170Y006189D01*
X002170Y006308D02*
X001620Y006308D01*
X001620Y006426D02*
X002233Y006426D01*
X002352Y006545D02*
X001620Y006545D01*
X001620Y006663D02*
X003442Y006663D01*
X003323Y006545D02*
X002968Y006545D01*
X003087Y006426D02*
X003205Y006426D01*
X003150Y006308D02*
X003150Y006308D01*
X003150Y006189D02*
X003620Y006189D01*
X003620Y006071D02*
X003700Y006071D01*
X003700Y005952D02*
X003620Y005952D01*
X003620Y005834D02*
X003700Y005834D01*
X003700Y005715D02*
X003620Y005715D01*
X003384Y005715D02*
X002908Y005715D01*
X003026Y005834D02*
X003265Y005834D01*
X003150Y005952D02*
X003145Y005952D01*
X003150Y006071D02*
X003150Y006071D01*
X003620Y006308D02*
X003700Y006308D01*
X003700Y006426D02*
X003620Y006426D01*
X003620Y006545D02*
X003700Y006545D01*
X003700Y006663D02*
X003620Y006663D01*
X003878Y006663D02*
X014880Y006663D01*
X014999Y006782D02*
X001620Y006782D01*
X001620Y006900D02*
X015117Y006900D01*
X015236Y007019D02*
X001620Y007019D01*
X001620Y007137D02*
X015354Y007137D01*
X015460Y007256D02*
X001620Y007256D01*
X001620Y007374D02*
X014270Y007374D01*
X014270Y007352D02*
X014352Y007270D01*
X014968Y007270D01*
X015050Y007352D01*
X015050Y007968D01*
X014968Y008050D01*
X014860Y008050D01*
X014860Y009430D01*
X014968Y009430D01*
X015050Y009512D01*
X015050Y010128D01*
X014968Y010210D01*
X014860Y010210D01*
X014860Y011770D01*
X014968Y011770D01*
X015050Y011852D01*
X015050Y012468D01*
X014968Y012550D01*
X014860Y012550D01*
X014860Y013930D01*
X014968Y013930D01*
X015050Y014012D01*
X015050Y014628D01*
X014968Y014710D01*
X014860Y014710D01*
X014860Y015322D01*
X014916Y015322D01*
X014998Y015404D01*
X014998Y015916D01*
X014916Y015998D01*
X014404Y015998D01*
X014322Y015916D01*
X014322Y015404D01*
X014404Y015322D01*
X014460Y015322D01*
X014460Y014710D01*
X014352Y014710D01*
X014270Y014628D01*
X014270Y014012D01*
X014352Y013930D01*
X014460Y013930D01*
X014460Y012550D01*
X014352Y012550D01*
X014270Y012468D01*
X014270Y011852D01*
X014352Y011770D01*
X014460Y011770D01*
X014460Y010210D01*
X014352Y010210D01*
X014270Y010128D01*
X014270Y009512D01*
X014352Y009430D01*
X014460Y009430D01*
X014460Y008050D01*
X014352Y008050D01*
X014270Y007968D01*
X014270Y007352D01*
X014270Y007493D02*
X001620Y007493D01*
X001620Y007611D02*
X014270Y007611D01*
X014270Y007730D02*
X001620Y007730D01*
X001620Y007848D02*
X014270Y007848D01*
X014270Y007967D02*
X001620Y007967D01*
X001620Y008085D02*
X014460Y008085D01*
X014460Y008204D02*
X001620Y008204D01*
X001620Y008322D02*
X014460Y008322D01*
X014460Y008441D02*
X001620Y008441D01*
X001620Y008559D02*
X014460Y008559D01*
X014460Y008678D02*
X001620Y008678D01*
X001620Y008796D02*
X014460Y008796D01*
X014460Y008915D02*
X001620Y008915D01*
X001620Y009033D02*
X014460Y009033D01*
X014460Y009152D02*
X001620Y009152D01*
X001620Y009270D02*
X014460Y009270D01*
X014460Y009389D02*
X001620Y009389D01*
X001620Y009507D02*
X014275Y009507D01*
X014270Y009626D02*
X001620Y009626D01*
X001620Y009744D02*
X014270Y009744D01*
X014270Y009863D02*
X001620Y009863D01*
X001620Y009981D02*
X014270Y009981D01*
X014270Y010100D02*
X001620Y010100D01*
X001620Y010218D02*
X014460Y010218D01*
X014460Y010337D02*
X001620Y010337D01*
X001620Y010455D02*
X014460Y010455D01*
X014460Y010574D02*
X001620Y010574D01*
X001620Y010692D02*
X014460Y010692D01*
X014460Y010811D02*
X001620Y010811D01*
X001620Y010929D02*
X014460Y010929D01*
X014460Y011048D02*
X001620Y011048D01*
X001620Y011166D02*
X014460Y011166D01*
X014460Y011285D02*
X001620Y011285D01*
X001620Y011403D02*
X014460Y011403D01*
X014460Y011522D02*
X001620Y011522D01*
X001620Y011640D02*
X014460Y011640D01*
X014460Y011759D02*
X001620Y011759D01*
X001620Y011877D02*
X014270Y011877D01*
X014270Y011996D02*
X001620Y011996D01*
X001620Y012114D02*
X014270Y012114D01*
X014270Y012233D02*
X001620Y012233D01*
X001620Y012351D02*
X014270Y012351D01*
X014272Y012470D02*
X001620Y012470D01*
X001620Y012588D02*
X014460Y012588D01*
X014460Y012707D02*
X001620Y012707D01*
X001620Y012825D02*
X014460Y012825D01*
X014460Y012944D02*
X001620Y012944D01*
X001620Y013062D02*
X014460Y013062D01*
X014460Y013181D02*
X001620Y013181D01*
X001620Y013299D02*
X014460Y013299D01*
X014460Y013418D02*
X001620Y013418D01*
X001620Y013536D02*
X014460Y013536D01*
X014460Y013655D02*
X001620Y013655D01*
X001620Y013773D02*
X014460Y013773D01*
X014460Y013892D02*
X001620Y013892D01*
X001620Y014010D02*
X014272Y014010D01*
X014270Y014129D02*
X001620Y014129D01*
X001620Y014247D02*
X014270Y014247D01*
X014270Y014366D02*
X001620Y014366D01*
X001620Y014484D02*
X014270Y014484D01*
X014270Y014603D02*
X001620Y014603D01*
X001620Y014721D02*
X014460Y014721D01*
X014460Y014840D02*
X001620Y014840D01*
X001620Y014958D02*
X014460Y014958D01*
X014460Y015077D02*
X001620Y015077D01*
X001620Y015195D02*
X014460Y015195D01*
X014460Y015314D02*
X001620Y015314D01*
X001620Y015432D02*
X014322Y015432D01*
X014322Y015551D02*
X001620Y015551D01*
X001620Y015669D02*
X014322Y015669D01*
X014322Y015788D02*
X001620Y015788D01*
X001620Y015906D02*
X014322Y015906D01*
X014660Y015660D02*
X014660Y014320D01*
X014660Y012160D01*
X014660Y009820D01*
X014660Y007660D01*
X015050Y007611D02*
X015270Y007611D01*
X015270Y007493D02*
X015050Y007493D01*
X015050Y007374D02*
X015270Y007374D01*
X015270Y007730D02*
X015050Y007730D01*
X015050Y007848D02*
X015270Y007848D01*
X015270Y007967D02*
X015050Y007967D01*
X014860Y008085D02*
X015460Y008085D01*
X015460Y008204D02*
X014860Y008204D01*
X014860Y008322D02*
X015460Y008322D01*
X015460Y008441D02*
X014860Y008441D01*
X014860Y008559D02*
X015460Y008559D01*
X015460Y008678D02*
X014860Y008678D01*
X014860Y008796D02*
X015460Y008796D01*
X015460Y008915D02*
X014860Y008915D01*
X014860Y009033D02*
X015460Y009033D01*
X015460Y009152D02*
X014860Y009152D01*
X014860Y009270D02*
X015460Y009270D01*
X015460Y009389D02*
X014860Y009389D01*
X015045Y009507D02*
X015275Y009507D01*
X015270Y009626D02*
X015050Y009626D01*
X015050Y009744D02*
X015270Y009744D01*
X015270Y009863D02*
X015050Y009863D01*
X015050Y009981D02*
X015270Y009981D01*
X015270Y010100D02*
X015050Y010100D01*
X014860Y010218D02*
X018460Y010218D01*
X018460Y010337D02*
X014860Y010337D01*
X014860Y010455D02*
X018460Y010455D01*
X018460Y010574D02*
X014860Y010574D01*
X014860Y010692D02*
X018460Y010692D01*
X018460Y010811D02*
X014860Y010811D01*
X014860Y010929D02*
X015322Y010929D01*
X015322Y010904D02*
X015404Y010822D01*
X015916Y010822D01*
X015998Y010904D01*
X015998Y011416D01*
X015916Y011498D01*
X015860Y011498D01*
X015860Y011770D01*
X015968Y011770D01*
X016050Y011852D01*
X016050Y012468D01*
X015968Y012550D01*
X015860Y012550D01*
X015860Y013930D01*
X015968Y013930D01*
X016050Y014012D01*
X016050Y014628D01*
X015968Y014710D01*
X015352Y014710D01*
X015270Y014628D01*
X015270Y014012D01*
X015352Y013930D01*
X015460Y013930D01*
X015460Y012550D01*
X015352Y012550D01*
X015270Y012468D01*
X015270Y011852D01*
X015352Y011770D01*
X015460Y011770D01*
X015460Y011498D01*
X015404Y011498D01*
X015322Y011416D01*
X015322Y010904D01*
X015322Y011048D02*
X014860Y011048D01*
X014860Y011166D02*
X015322Y011166D01*
X015322Y011285D02*
X014860Y011285D01*
X014860Y011403D02*
X015322Y011403D01*
X015460Y011522D02*
X014860Y011522D01*
X014860Y011640D02*
X015460Y011640D01*
X015460Y011759D02*
X014860Y011759D01*
X015050Y011877D02*
X015270Y011877D01*
X015270Y011996D02*
X015050Y011996D01*
X015050Y012114D02*
X015270Y012114D01*
X015270Y012233D02*
X015050Y012233D01*
X015050Y012351D02*
X015270Y012351D01*
X015272Y012470D02*
X015048Y012470D01*
X014860Y012588D02*
X015460Y012588D01*
X015460Y012707D02*
X014860Y012707D01*
X014860Y012825D02*
X015460Y012825D01*
X015460Y012944D02*
X014860Y012944D01*
X014860Y013062D02*
X015460Y013062D01*
X015460Y013181D02*
X014860Y013181D01*
X014860Y013299D02*
X015460Y013299D01*
X015460Y013418D02*
X014860Y013418D01*
X014860Y013536D02*
X015460Y013536D01*
X015460Y013655D02*
X014860Y013655D01*
X014860Y013773D02*
X015460Y013773D01*
X015460Y013892D02*
X014860Y013892D01*
X015048Y014010D02*
X015272Y014010D01*
X015270Y014129D02*
X015050Y014129D01*
X015050Y014247D02*
X015270Y014247D01*
X015270Y014366D02*
X015050Y014366D01*
X015050Y014484D02*
X015270Y014484D01*
X015270Y014603D02*
X015050Y014603D01*
X014860Y014721D02*
X018460Y014721D01*
X018460Y014840D02*
X014860Y014840D01*
X014860Y014958D02*
X018460Y014958D01*
X018460Y015077D02*
X014860Y015077D01*
X014860Y015195D02*
X018460Y015195D01*
X018460Y015314D02*
X014860Y015314D01*
X014998Y015432D02*
X018322Y015432D01*
X018322Y015551D02*
X014998Y015551D01*
X014998Y015669D02*
X018322Y015669D01*
X018322Y015788D02*
X014998Y015788D01*
X014998Y015906D02*
X018322Y015906D01*
X018660Y015660D02*
X018660Y014320D01*
X018660Y012160D01*
X018660Y009820D01*
X018660Y007660D01*
X018270Y007611D02*
X017492Y007611D01*
X017610Y007493D02*
X018270Y007493D01*
X018270Y007374D02*
X017729Y007374D01*
X017373Y007730D02*
X018270Y007730D01*
X018270Y007848D02*
X017255Y007848D01*
X018270Y007967D02*
X016050Y007967D01*
X015860Y008085D02*
X018460Y008085D01*
X018460Y008204D02*
X015860Y008204D01*
X015860Y008322D02*
X018460Y008322D01*
X018460Y008441D02*
X015860Y008441D01*
X015860Y008559D02*
X018460Y008559D01*
X018460Y008678D02*
X015860Y008678D01*
X015860Y008796D02*
X018460Y008796D01*
X018460Y008915D02*
X015860Y008915D01*
X015860Y009033D02*
X018460Y009033D01*
X018460Y009152D02*
X015860Y009152D01*
X015860Y009270D02*
X018460Y009270D01*
X018460Y009389D02*
X015860Y009389D01*
X016045Y009507D02*
X018275Y009507D01*
X018270Y009626D02*
X016050Y009626D01*
X016050Y009744D02*
X018270Y009744D01*
X018270Y009863D02*
X016050Y009863D01*
X016050Y009981D02*
X018270Y009981D01*
X018270Y010100D02*
X016050Y010100D01*
X015660Y009820D02*
X015660Y007660D01*
X018860Y010218D02*
X020314Y010218D01*
X020314Y010100D02*
X020050Y010100D01*
X020050Y009981D02*
X020314Y009981D01*
X020314Y009863D02*
X020050Y009863D01*
X020050Y009744D02*
X020314Y009744D01*
X020314Y009626D02*
X020050Y009626D01*
X020045Y009507D02*
X020314Y009507D01*
X020314Y009389D02*
X019860Y009389D01*
X019860Y009270D02*
X020314Y009270D01*
X020314Y009152D02*
X019860Y009152D01*
X019860Y009033D02*
X020314Y009033D01*
X020314Y008915D02*
X019860Y008915D01*
X019860Y008796D02*
X020314Y008796D01*
X020314Y008678D02*
X019860Y008678D01*
X019860Y008559D02*
X020314Y008559D01*
X020314Y008441D02*
X019860Y008441D01*
X019860Y008322D02*
X020314Y008322D01*
X020314Y008204D02*
X019860Y008204D01*
X019860Y008085D02*
X020314Y008085D01*
X020314Y007967D02*
X020050Y007967D01*
X020050Y007848D02*
X020314Y007848D01*
X020314Y007730D02*
X020050Y007730D01*
X020050Y007611D02*
X020314Y007611D01*
X020314Y007493D02*
X020050Y007493D01*
X020050Y007374D02*
X020314Y007374D01*
X020314Y007256D02*
X019860Y007256D01*
X019860Y007137D02*
X020314Y007137D01*
X020314Y007019D02*
X019860Y007019D01*
X019860Y006900D02*
X020314Y006900D01*
X020314Y006782D02*
X019860Y006782D01*
X019860Y006663D02*
X020314Y006663D01*
X020314Y006545D02*
X019860Y006545D01*
X019988Y006426D02*
X020314Y006426D01*
X020314Y006308D02*
X019998Y006308D01*
X019998Y006189D02*
X020314Y006189D01*
X020314Y006071D02*
X019998Y006071D01*
X019998Y005952D02*
X020314Y005952D01*
X020314Y005834D02*
X019928Y005834D01*
X019660Y006160D02*
X019660Y007660D01*
X019660Y009820D01*
X019931Y010337D02*
X020314Y010337D01*
X020314Y010455D02*
X019998Y010455D01*
X019998Y010574D02*
X020314Y010574D01*
X020314Y010692D02*
X019998Y010692D01*
X019998Y010811D02*
X020314Y010811D01*
X020314Y010929D02*
X019985Y010929D01*
X019860Y011048D02*
X020314Y011048D01*
X020314Y011166D02*
X019860Y011166D01*
X019860Y011285D02*
X020253Y011285D01*
X020134Y011403D02*
X019860Y011403D01*
X019860Y011522D02*
X020016Y011522D01*
X019897Y011640D02*
X019860Y011640D01*
X019660Y012160D02*
X019660Y010660D01*
X020514Y011306D02*
X019660Y012160D01*
X019660Y014320D01*
X018860Y014840D02*
X021070Y014840D01*
X021070Y014958D02*
X018860Y014958D01*
X018860Y015077D02*
X021070Y015077D01*
X021070Y015195D02*
X018860Y015195D01*
X018860Y015314D02*
X021070Y015314D01*
X021070Y015432D02*
X018998Y015432D01*
X018998Y015551D02*
X021070Y015551D01*
X021070Y015669D02*
X018998Y015669D01*
X018998Y015788D02*
X021070Y015788D01*
X021070Y015906D02*
X018998Y015906D01*
X018270Y014603D02*
X016050Y014603D01*
X016050Y014484D02*
X018270Y014484D01*
X018270Y014366D02*
X016050Y014366D01*
X016050Y014247D02*
X018270Y014247D01*
X018270Y014129D02*
X016050Y014129D01*
X016048Y014010D02*
X018272Y014010D01*
X018460Y013892D02*
X015860Y013892D01*
X015860Y013773D02*
X018460Y013773D01*
X018460Y013655D02*
X015860Y013655D01*
X015860Y013536D02*
X018460Y013536D01*
X018460Y013418D02*
X015860Y013418D01*
X015860Y013299D02*
X018460Y013299D01*
X018460Y013181D02*
X015860Y013181D01*
X015860Y013062D02*
X018460Y013062D01*
X018460Y012944D02*
X015860Y012944D01*
X015860Y012825D02*
X018460Y012825D01*
X018460Y012707D02*
X015860Y012707D01*
X015860Y012588D02*
X018460Y012588D01*
X018272Y012470D02*
X016048Y012470D01*
X016050Y012351D02*
X018270Y012351D01*
X018270Y012233D02*
X016050Y012233D01*
X016050Y012114D02*
X018270Y012114D01*
X018270Y011996D02*
X016050Y011996D01*
X016050Y011877D02*
X018270Y011877D01*
X018460Y011759D02*
X015860Y011759D01*
X015860Y011640D02*
X018460Y011640D01*
X018460Y011522D02*
X015860Y011522D01*
X015998Y011403D02*
X018460Y011403D01*
X018460Y011285D02*
X015998Y011285D01*
X015998Y011166D02*
X018460Y011166D01*
X018460Y011048D02*
X015998Y011048D01*
X015998Y010929D02*
X018460Y010929D01*
X020514Y011306D02*
X020514Y004660D01*
X020217Y004767D02*
X020123Y004767D01*
X020123Y004886D02*
X020217Y004886D01*
X020267Y005004D02*
X020082Y005004D01*
X019824Y004530D02*
X019787Y004530D01*
X019787Y004412D02*
X019824Y004412D01*
X019824Y004293D02*
X019787Y004293D01*
X020410Y003910D02*
X020514Y003806D01*
X020514Y003160D01*
X021070Y002634D02*
X001620Y002634D01*
X001620Y002620D02*
X001620Y018196D01*
X021070Y018196D01*
X021070Y002620D01*
X001620Y002620D01*
X001620Y003227D02*
X002401Y003227D01*
X002457Y003170D02*
X002863Y003170D01*
X003150Y003457D01*
X003150Y003863D01*
X002863Y004150D01*
X002457Y004150D01*
X002170Y003863D01*
X002170Y003457D01*
X002457Y003170D01*
X002282Y003345D02*
X001620Y003345D01*
X001620Y003464D02*
X002170Y003464D01*
X002170Y003582D02*
X001620Y003582D01*
X001620Y003701D02*
X002170Y003701D01*
X002170Y003819D02*
X001620Y003819D01*
X001620Y003938D02*
X002245Y003938D01*
X002363Y004056D02*
X001620Y004056D01*
X001620Y004175D02*
X004460Y004175D01*
X004460Y004293D02*
X001620Y004293D01*
X001620Y004412D02*
X004460Y004412D01*
X004460Y004530D02*
X001620Y004530D01*
X001620Y004649D02*
X004460Y004649D01*
X004460Y004767D02*
X001620Y004767D01*
X001620Y004886D02*
X004460Y004886D01*
X004460Y005004D02*
X001620Y005004D01*
X001620Y005123D02*
X004460Y005123D01*
X004460Y005241D02*
X001620Y005241D01*
X001620Y005360D02*
X004460Y005360D01*
X004460Y005478D02*
X001620Y005478D01*
X002957Y004056D02*
X003335Y004056D01*
X003216Y003938D02*
X003075Y003938D01*
X003150Y003819D02*
X003150Y003819D01*
X003150Y003701D02*
X003150Y003701D01*
X003150Y003582D02*
X003150Y003582D01*
X003150Y003464D02*
X003150Y003464D01*
X003254Y003345D02*
X003038Y003345D01*
X002919Y003227D02*
X003372Y003227D01*
X003620Y003227D02*
X003700Y003227D01*
X003700Y003345D02*
X003620Y003345D01*
X003620Y003464D02*
X003700Y003464D01*
X003700Y003582D02*
X003620Y003582D01*
X003948Y003227D02*
X004401Y003227D01*
X006919Y003227D02*
X007401Y003227D01*
X009919Y003227D02*
X010401Y003227D01*
X010919Y003227D02*
X011401Y003227D01*
X018287Y004293D02*
X018324Y004293D01*
X018324Y004412D02*
X018287Y004412D01*
X018287Y004530D02*
X018324Y004530D01*
X015660Y011160D02*
X015660Y012160D01*
X015660Y014320D01*
X021070Y016025D02*
X001620Y016025D01*
X001620Y016143D02*
X021070Y016143D01*
X021070Y016262D02*
X001620Y016262D01*
X001620Y016380D02*
X021070Y016380D01*
X021070Y016499D02*
X001620Y016499D01*
X001620Y016617D02*
X021070Y016617D01*
X021070Y016736D02*
X001620Y016736D01*
X001620Y016854D02*
X021070Y016854D01*
X021070Y016973D02*
X001620Y016973D01*
X001620Y017091D02*
X021070Y017091D01*
X021070Y017210D02*
X001620Y017210D01*
X001620Y017328D02*
X021070Y017328D01*
X021070Y017447D02*
X001620Y017447D01*
X001620Y017565D02*
X021070Y017565D01*
X021070Y017684D02*
X001620Y017684D01*
X001620Y017802D02*
X021070Y017802D01*
X021070Y017921D02*
X001620Y017921D01*
X001620Y018039D02*
X021070Y018039D01*
X021070Y018158D02*
X001620Y018158D01*
X003997Y006545D02*
X004352Y006545D01*
X004233Y006426D02*
X004115Y006426D01*
X004170Y006308D02*
X004170Y006308D01*
D16*
X014660Y003660D03*
X019660Y006160D03*
X020410Y003910D03*
X019660Y010660D03*
X015660Y011160D03*
X014660Y015660D03*
X018660Y015660D03*
M02*
