%
M48
M72
T01C0.0236
T02C0.0400
T03C0.0440
%
T01
X14660Y3660
X19660Y6160
X20410Y3910
X19660Y10660
X15660Y11160
X14660Y15660
X18660Y15660
T02
X2660Y3660
X3660Y3660
X4660Y3660
X5660Y3660
X6660Y3660
X7660Y3660
X8660Y3660
X9660Y3660
X10660Y3660
X11660Y3660
X11660Y6160
X10660Y6160
X9660Y6160
X8660Y6160
X7660Y6160
X6660Y6160
X5660Y6160
X4660Y6160
X3660Y6160
X2660Y6160
T03
X13660Y3660
X14660Y3660
X15660Y3660
X16660Y3660
M30
