G75*
%MOIN*%
%OFA0B0*%
%FSLAX24Y24*%
%IPPOS*%
%LPD*%
%AMOC8*
5,1,8,0,0,1.08239X$1,22.5*
%
%ADD10C,0.0820*%
%ADD11R,0.0580X0.0580*%
%ADD12OC8,0.0780*%
%ADD13R,0.0395X0.0552*%
%ADD14R,0.0476X0.0476*%
D10*
X013660Y003290D02*
X013660Y004030D01*
X014660Y004030D02*
X014660Y003290D01*
X015660Y003290D02*
X015660Y004030D01*
X016660Y004030D02*
X016660Y003290D01*
D11*
X015660Y007660D03*
X014660Y007660D03*
X014660Y009820D03*
X015660Y009820D03*
X015660Y012160D03*
X014660Y012160D03*
X014660Y014320D03*
X015660Y014320D03*
X018660Y014320D03*
X019660Y014320D03*
X019660Y012160D03*
X018660Y012160D03*
X018660Y009820D03*
X019660Y009820D03*
X019660Y007660D03*
X018660Y007660D03*
D12*
X002660Y003660D03*
X003660Y003660D03*
X004660Y003660D03*
X005660Y003660D03*
X006660Y003660D03*
X007660Y003660D03*
X008660Y003660D03*
X009660Y003660D03*
X010660Y003660D03*
X011660Y003660D03*
X011660Y006160D03*
X010660Y006160D03*
X009660Y006160D03*
X008660Y006160D03*
X007660Y006160D03*
X006660Y006160D03*
X005660Y006160D03*
X004660Y006160D03*
X003660Y006160D03*
X002660Y006160D03*
D13*
X018306Y004660D03*
X019014Y004660D03*
X019806Y004660D03*
X020514Y004660D03*
X020514Y003160D03*
X019806Y003160D03*
X019014Y003160D03*
X018306Y003160D03*
D14*
X020410Y003910D03*
X019660Y006160D03*
X014660Y003660D03*
X019660Y010660D03*
X015660Y011160D03*
X014660Y015660D03*
X018660Y015660D03*
M02*
