G75*
%MOIN*%
%OFA0B0*%
%FSLAX24Y24*%
%IPPOS*%
%LPD*%
%AMOC8*
5,1,8,0,0,1.08239X$1,22.5*
%
%ADD10R,0.0591X0.0512*%
%ADD11R,0.0709X0.0551*%
%ADD12R,0.0591X0.0118*%
%ADD13R,0.0118X0.0591*%
%ADD14R,0.0472X0.0472*%
%ADD15R,0.0512X0.0591*%
%ADD16R,0.0300X0.0600*%
%ADD17R,0.0276X0.0787*%
D10*
X002286Y009996D03*
X002286Y010665D03*
X002287Y012507D03*
X002287Y013176D03*
X002287Y014607D03*
X002287Y015276D03*
X004305Y015326D03*
X004305Y014657D03*
X004305Y013326D03*
X004305Y012657D03*
X006187Y012657D03*
X006187Y013326D03*
X006187Y014657D03*
X006187Y015326D03*
X006187Y010826D03*
X006187Y010157D03*
D11*
X004305Y009822D03*
X004305Y011161D03*
D12*
X014282Y012582D03*
X014282Y012778D03*
X014282Y012975D03*
X014282Y013172D03*
X014282Y013369D03*
X014282Y013566D03*
X014282Y013763D03*
X014282Y013960D03*
X014282Y014156D03*
X014282Y014353D03*
X014282Y014550D03*
X014282Y014747D03*
X014282Y014944D03*
X014282Y015141D03*
X014282Y015337D03*
X014282Y015534D03*
X014282Y015731D03*
X014282Y015928D03*
X014282Y016125D03*
X014282Y016322D03*
X014282Y016519D03*
X014282Y016715D03*
X014282Y016912D03*
X014282Y017109D03*
X014282Y017306D03*
X020582Y017306D03*
X020582Y017109D03*
X020582Y016912D03*
X020582Y016715D03*
X020582Y016519D03*
X020582Y016322D03*
X020582Y016125D03*
X020582Y015928D03*
X020582Y015731D03*
X020582Y015534D03*
X020582Y015337D03*
X020582Y015141D03*
X020582Y014944D03*
X020582Y014747D03*
X020582Y014550D03*
X020582Y014353D03*
X020582Y014156D03*
X020582Y013960D03*
X020582Y013763D03*
X020582Y013566D03*
X020582Y013369D03*
X020582Y013172D03*
X020582Y012975D03*
X020582Y012778D03*
X020582Y012582D03*
D13*
X019794Y011794D03*
X019597Y011794D03*
X019400Y011794D03*
X019204Y011794D03*
X019007Y011794D03*
X018810Y011794D03*
X018613Y011794D03*
X018416Y011794D03*
X018219Y011794D03*
X018023Y011794D03*
X017826Y011794D03*
X017629Y011794D03*
X017432Y011794D03*
X017235Y011794D03*
X017038Y011794D03*
X016841Y011794D03*
X016645Y011794D03*
X016448Y011794D03*
X016251Y011794D03*
X016054Y011794D03*
X015857Y011794D03*
X015660Y011794D03*
X015463Y011794D03*
X015267Y011794D03*
X015070Y011794D03*
X015070Y018093D03*
X015267Y018093D03*
X015463Y018093D03*
X015660Y018093D03*
X015857Y018093D03*
X016054Y018093D03*
X016251Y018093D03*
X016448Y018093D03*
X016645Y018093D03*
X016841Y018093D03*
X017038Y018093D03*
X017235Y018093D03*
X017432Y018093D03*
X017629Y018093D03*
X017826Y018093D03*
X018023Y018093D03*
X018219Y018093D03*
X018416Y018093D03*
X018613Y018093D03*
X018810Y018093D03*
X019007Y018093D03*
X019204Y018093D03*
X019400Y018093D03*
X019597Y018093D03*
X019794Y018093D03*
D14*
X014519Y007621D03*
X013692Y007621D03*
X013497Y005963D03*
X014324Y005963D03*
D15*
X014245Y004632D03*
X013576Y004632D03*
X015507Y007635D03*
X016176Y007635D03*
X014508Y009711D03*
X013839Y009711D03*
X006822Y016841D03*
X006152Y016841D03*
X004822Y016841D03*
X004152Y016841D03*
D16*
X004461Y006151D03*
X005961Y006151D03*
X005961Y008351D03*
X004461Y008351D03*
D17*
X015487Y009582D03*
X015881Y009582D03*
X016274Y009582D03*
M02*
