G75*
%MOIN*%
%OFA0B0*%
%FSLAX24Y24*%
%IPPOS*%
%LPD*%
%AMOC8*
5,1,8,0,0,1.08239X$1,22.5*
%
%ADD10C,0.0847*%
%ADD11R,0.0651X0.0572*%
%ADD12R,0.0769X0.0611*%
%ADD13R,0.0651X0.0178*%
%ADD14R,0.0178X0.0651*%
%ADD15OC8,0.0720*%
%ADD16C,0.0620*%
%ADD17C,0.0660*%
%ADD18OC8,0.0670*%
%ADD19R,0.0532X0.0532*%
%ADD20R,0.0572X0.0651*%
%ADD21R,0.0360X0.0660*%
%ADD22R,0.0336X0.0847*%
%ADD23R,0.0436X0.0436*%
D10*
X001809Y006109D03*
X001704Y018989D03*
X025889Y001594D03*
D11*
X006187Y010157D03*
X006187Y010826D03*
X006187Y012657D03*
X006187Y013326D03*
X006187Y014657D03*
X006187Y015326D03*
X004305Y015326D03*
X004305Y014657D03*
X004305Y013326D03*
X004305Y012657D03*
X002287Y012507D03*
X002287Y013176D03*
X002287Y014607D03*
X002287Y015276D03*
X002286Y010665D03*
X002286Y009996D03*
D12*
X004305Y009822D03*
X004305Y011161D03*
D13*
X014282Y012582D03*
X014282Y012778D03*
X014282Y012975D03*
X014282Y013172D03*
X014282Y013369D03*
X014282Y013566D03*
X014282Y013763D03*
X014282Y013960D03*
X014282Y014156D03*
X014282Y014353D03*
X014282Y014550D03*
X014282Y014747D03*
X014282Y014944D03*
X014282Y015141D03*
X014282Y015337D03*
X014282Y015534D03*
X014282Y015731D03*
X014282Y015928D03*
X014282Y016125D03*
X014282Y016322D03*
X014282Y016519D03*
X014282Y016715D03*
X014282Y016912D03*
X014282Y017109D03*
X014282Y017306D03*
X020582Y017306D03*
X020582Y017109D03*
X020582Y016912D03*
X020582Y016715D03*
X020582Y016519D03*
X020582Y016322D03*
X020582Y016125D03*
X020582Y015928D03*
X020582Y015731D03*
X020582Y015534D03*
X020582Y015337D03*
X020582Y015141D03*
X020582Y014944D03*
X020582Y014747D03*
X020582Y014550D03*
X020582Y014353D03*
X020582Y014156D03*
X020582Y013960D03*
X020582Y013763D03*
X020582Y013566D03*
X020582Y013369D03*
X020582Y013172D03*
X020582Y012975D03*
X020582Y012778D03*
X020582Y012582D03*
D14*
X019794Y011794D03*
X019597Y011794D03*
X019400Y011794D03*
X019204Y011794D03*
X019007Y011794D03*
X018810Y011794D03*
X018613Y011794D03*
X018416Y011794D03*
X018219Y011794D03*
X018023Y011794D03*
X017826Y011794D03*
X017629Y011794D03*
X017432Y011794D03*
X017235Y011794D03*
X017038Y011794D03*
X016841Y011794D03*
X016645Y011794D03*
X016448Y011794D03*
X016251Y011794D03*
X016054Y011794D03*
X015857Y011794D03*
X015660Y011794D03*
X015463Y011794D03*
X015267Y011794D03*
X015070Y011794D03*
X015070Y018093D03*
X015267Y018093D03*
X015463Y018093D03*
X015660Y018093D03*
X015857Y018093D03*
X016054Y018093D03*
X016251Y018093D03*
X016448Y018093D03*
X016645Y018093D03*
X016841Y018093D03*
X017038Y018093D03*
X017235Y018093D03*
X017432Y018093D03*
X017629Y018093D03*
X017826Y018093D03*
X018023Y018093D03*
X018219Y018093D03*
X018416Y018093D03*
X018613Y018093D03*
X018810Y018093D03*
X019007Y018093D03*
X019204Y018093D03*
X019400Y018093D03*
X019597Y018093D03*
X019794Y018093D03*
D15*
X024204Y018353D03*
X025204Y018353D03*
X025204Y019353D03*
X024204Y019353D03*
X024204Y020353D03*
X025204Y020353D03*
X025204Y017353D03*
X024204Y017353D03*
X024204Y016353D03*
X025204Y016353D03*
X025204Y015353D03*
X024204Y015353D03*
X024204Y014353D03*
X025204Y014353D03*
X025204Y013353D03*
X025204Y012353D03*
X024204Y012353D03*
X024204Y013353D03*
X024204Y011353D03*
X025204Y011353D03*
X025204Y010353D03*
X024204Y010353D03*
X024204Y009353D03*
X025204Y009353D03*
X025204Y008353D03*
X025204Y007353D03*
X024204Y007353D03*
X024204Y008353D03*
X024204Y006353D03*
X025204Y006353D03*
X025204Y005353D03*
X025204Y004353D03*
X024204Y004353D03*
X024204Y005353D03*
X024204Y003353D03*
X025204Y003353D03*
D16*
X021283Y003468D02*
X021283Y002908D01*
X020283Y002908D02*
X020283Y003468D01*
X019283Y003468D02*
X019283Y002908D01*
X018283Y002908D02*
X018283Y003468D01*
X017283Y003468D02*
X017283Y002908D01*
X016283Y002908D02*
X016283Y003468D01*
X015283Y003468D02*
X015283Y002908D01*
X014283Y002908D02*
X014283Y003468D01*
X008946Y010331D02*
X008386Y010331D01*
X008386Y011331D02*
X008946Y011331D01*
X008946Y012331D02*
X008386Y012331D01*
X008386Y013331D02*
X008946Y013331D01*
X008946Y014331D02*
X008386Y014331D01*
X008386Y015331D02*
X008946Y015331D01*
X008946Y016331D02*
X008386Y016331D01*
X008386Y017331D02*
X008946Y017331D01*
X010392Y017341D02*
X010952Y017341D01*
X010952Y016341D02*
X010392Y016341D01*
X010392Y015341D02*
X010952Y015341D01*
X010952Y014341D02*
X010392Y014341D01*
X010392Y013341D02*
X010952Y013341D01*
X010952Y012341D02*
X010392Y012341D01*
X010392Y011341D02*
X010952Y011341D01*
X010952Y010341D02*
X010392Y010341D01*
D17*
X004078Y004039D02*
X004078Y003439D01*
X005078Y003439D02*
X005078Y004039D01*
X006078Y004039D02*
X006078Y003439D01*
X007078Y003439D02*
X007078Y004039D01*
X008078Y004039D02*
X008078Y003439D01*
X009078Y003439D02*
X009078Y004039D01*
X010078Y004039D02*
X010078Y003439D01*
X011078Y003439D02*
X011078Y004039D01*
X012078Y004039D02*
X012078Y003439D01*
X020314Y009379D02*
X020314Y009979D01*
X021314Y009979D02*
X021314Y009379D01*
X021298Y019553D02*
X021298Y020153D01*
X020298Y020153D02*
X020298Y019553D01*
X019298Y019553D02*
X019298Y020153D01*
X018298Y020153D02*
X018298Y019553D01*
X017298Y019553D02*
X017298Y020153D01*
X016298Y020153D02*
X016298Y019553D01*
X015298Y019553D02*
X015298Y020153D01*
X014298Y020153D02*
X014298Y019553D01*
X013298Y019553D02*
X013298Y020153D01*
X011404Y020193D02*
X011404Y019593D01*
X010404Y019593D02*
X010404Y020193D01*
X009404Y020193D02*
X009404Y019593D01*
X008404Y019593D02*
X008404Y020193D01*
X006196Y020153D02*
X006196Y019553D01*
X005196Y019553D02*
X005196Y020153D01*
X004196Y020153D02*
X004196Y019553D01*
X003196Y019553D02*
X003196Y020153D01*
X002571Y017684D02*
X001971Y017684D01*
X001971Y016684D02*
X002571Y016684D01*
D18*
X009048Y008115D03*
X009048Y007115D03*
X010048Y007115D03*
X010048Y008115D03*
X010048Y006115D03*
X009048Y006115D03*
D19*
X013497Y005963D03*
X014324Y005963D03*
X014519Y007621D03*
X013692Y007621D03*
D20*
X015507Y007635D03*
X016176Y007635D03*
X014508Y009711D03*
X013839Y009711D03*
X013576Y004632D03*
X014245Y004632D03*
X006822Y016841D03*
X006152Y016841D03*
X004822Y016841D03*
X004152Y016841D03*
D21*
X004461Y008351D03*
X005961Y008351D03*
X005961Y006151D03*
X004461Y006151D03*
D22*
X015487Y009582D03*
X015881Y009582D03*
X016274Y009582D03*
D23*
X015849Y008566D03*
X014865Y008211D03*
X011873Y009471D03*
X013408Y011794D03*
X013448Y012345D03*
X015180Y010810D03*
X015889Y010967D03*
X015634Y012654D03*
X015574Y013211D03*
X015456Y014078D03*
X016514Y013164D03*
X018093Y012463D03*
X019407Y013650D03*
X018967Y014159D03*
X018723Y014739D03*
X016914Y015939D03*
X017244Y016539D03*
X017909Y016679D03*
X015179Y015759D03*
X014989Y016764D03*
X012414Y016489D03*
X011519Y014432D03*
X009629Y012818D03*
X007700Y012188D03*
X006204Y011637D03*
X003251Y012503D03*
X007227Y015298D03*
X006794Y016046D03*
X007109Y018172D03*
X007857Y018605D03*
X009353Y018133D03*
X004944Y018211D03*
X004117Y016125D03*
X003244Y015874D03*
X003164Y008489D03*
X005101Y005416D03*
X004235Y004944D03*
X005789Y002789D03*
X007464Y002789D03*
X012789Y005364D03*
X015298Y004944D03*
X016715Y004629D03*
X018290Y004629D03*
X018448Y005731D03*
X017975Y006361D03*
X020416Y007070D03*
X023022Y012045D03*
X019826Y013074D03*
X022089Y015314D03*
X022975Y016243D03*
X023172Y017778D03*
X020692Y018093D03*
M02*
