G75*
%MOIN*%
%OFA0B0*%
%FSLAX24Y24*%
%IPPOS*%
%LPD*%
%AMOC8*
5,1,8,0,0,1.08239X$1,22.5*
%
%ADD10C,0.0847*%
%ADD11OC8,0.0720*%
%ADD12C,0.0620*%
%ADD13C,0.0660*%
%ADD14OC8,0.0670*%
%ADD15R,0.0436X0.0436*%
D10*
X001809Y006109D03*
X001704Y018989D03*
X025889Y001594D03*
D11*
X025204Y003353D03*
X024204Y003353D03*
X024204Y004353D03*
X025204Y004353D03*
X025204Y005353D03*
X024204Y005353D03*
X024204Y006353D03*
X025204Y006353D03*
X025204Y007353D03*
X025204Y008353D03*
X024204Y008353D03*
X024204Y007353D03*
X024204Y009353D03*
X025204Y009353D03*
X025204Y010353D03*
X025204Y011353D03*
X024204Y011353D03*
X024204Y010353D03*
X024204Y012353D03*
X025204Y012353D03*
X025204Y013353D03*
X024204Y013353D03*
X024204Y014353D03*
X025204Y014353D03*
X025204Y015353D03*
X025204Y016353D03*
X024204Y016353D03*
X024204Y015353D03*
X024204Y017353D03*
X025204Y017353D03*
X025204Y018353D03*
X025204Y019353D03*
X024204Y019353D03*
X024204Y018353D03*
X024204Y020353D03*
X025204Y020353D03*
D12*
X010952Y017341D02*
X010392Y017341D01*
X010392Y016341D02*
X010952Y016341D01*
X010952Y015341D02*
X010392Y015341D01*
X010392Y014341D02*
X010952Y014341D01*
X010952Y013341D02*
X010392Y013341D01*
X010392Y012341D02*
X010952Y012341D01*
X010952Y011341D02*
X010392Y011341D01*
X010392Y010341D02*
X010952Y010341D01*
X008946Y010331D02*
X008386Y010331D01*
X008386Y011331D02*
X008946Y011331D01*
X008946Y012331D02*
X008386Y012331D01*
X008386Y013331D02*
X008946Y013331D01*
X008946Y014331D02*
X008386Y014331D01*
X008386Y015331D02*
X008946Y015331D01*
X008946Y016331D02*
X008386Y016331D01*
X008386Y017331D02*
X008946Y017331D01*
X014283Y003468D02*
X014283Y002908D01*
X015283Y002908D02*
X015283Y003468D01*
X016283Y003468D02*
X016283Y002908D01*
X017283Y002908D02*
X017283Y003468D01*
X018283Y003468D02*
X018283Y002908D01*
X019283Y002908D02*
X019283Y003468D01*
X020283Y003468D02*
X020283Y002908D01*
X021283Y002908D02*
X021283Y003468D01*
D13*
X004078Y003439D02*
X004078Y004039D01*
X005078Y004039D02*
X005078Y003439D01*
X006078Y003439D02*
X006078Y004039D01*
X007078Y004039D02*
X007078Y003439D01*
X008078Y003439D02*
X008078Y004039D01*
X009078Y004039D02*
X009078Y003439D01*
X010078Y003439D02*
X010078Y004039D01*
X011078Y004039D02*
X011078Y003439D01*
X012078Y003439D02*
X012078Y004039D01*
X020314Y009379D02*
X020314Y009979D01*
X021314Y009979D02*
X021314Y009379D01*
X021298Y019553D02*
X021298Y020153D01*
X020298Y020153D02*
X020298Y019553D01*
X019298Y019553D02*
X019298Y020153D01*
X018298Y020153D02*
X018298Y019553D01*
X017298Y019553D02*
X017298Y020153D01*
X016298Y020153D02*
X016298Y019553D01*
X015298Y019553D02*
X015298Y020153D01*
X014298Y020153D02*
X014298Y019553D01*
X013298Y019553D02*
X013298Y020153D01*
X011404Y020193D02*
X011404Y019593D01*
X010404Y019593D02*
X010404Y020193D01*
X009404Y020193D02*
X009404Y019593D01*
X008404Y019593D02*
X008404Y020193D01*
X006196Y020153D02*
X006196Y019553D01*
X005196Y019553D02*
X005196Y020153D01*
X004196Y020153D02*
X004196Y019553D01*
X003196Y019553D02*
X003196Y020153D01*
X002571Y017684D02*
X001971Y017684D01*
X001971Y016684D02*
X002571Y016684D01*
D14*
X009048Y008115D03*
X009048Y007115D03*
X010048Y007115D03*
X010048Y008115D03*
X010048Y006115D03*
X009048Y006115D03*
D15*
X012789Y005364D03*
X015298Y004944D03*
X016715Y004629D03*
X018290Y004629D03*
X018448Y005731D03*
X017975Y006361D03*
X020416Y007070D03*
X015849Y008566D03*
X014865Y008211D03*
X011873Y009471D03*
X013408Y011794D03*
X013448Y012345D03*
X015180Y010810D03*
X015889Y010967D03*
X015634Y012654D03*
X015574Y013211D03*
X015456Y014078D03*
X016514Y013164D03*
X018093Y012463D03*
X019407Y013650D03*
X018967Y014159D03*
X018723Y014739D03*
X016914Y015939D03*
X017244Y016539D03*
X017909Y016679D03*
X015179Y015759D03*
X014989Y016764D03*
X012414Y016489D03*
X011519Y014432D03*
X009629Y012818D03*
X007700Y012188D03*
X006204Y011637D03*
X003251Y012503D03*
X007227Y015298D03*
X006794Y016046D03*
X007109Y018172D03*
X007857Y018605D03*
X009353Y018133D03*
X004944Y018211D03*
X004117Y016125D03*
X003244Y015874D03*
X003164Y008489D03*
X005101Y005416D03*
X004235Y004944D03*
X005789Y002789D03*
X007464Y002789D03*
X019826Y013074D03*
X022089Y015314D03*
X022975Y016243D03*
X023172Y017778D03*
X020692Y018093D03*
X023022Y012045D03*
M02*
