G75*
%MOIN*%
%OFA0B0*%
%FSLAX24Y24*%
%IPPOS*%
%LPD*%
%AMOC8*
5,1,8,0,0,1.08239X$1,22.5*
%
%ADD10C,0.0030*%
%ADD11C,0.0040*%
%ADD12C,0.0010*%
%ADD13C,0.0080*%
%ADD14R,0.0620X0.0240*%
%ADD15C,0.0100*%
%ADD16C,0.0060*%
%ADD17R,0.0118X0.0059*%
%ADD18R,0.0118X0.0118*%
%ADD19C,0.0050*%
%ADD20C,0.0087*%
D10*
X007604Y005954D02*
X007604Y006244D01*
X007749Y006244D01*
X007797Y006196D01*
X007797Y006099D01*
X007749Y006051D01*
X007604Y006051D01*
X007701Y006051D02*
X007797Y005954D01*
X007899Y006002D02*
X007947Y005954D01*
X008044Y005954D01*
X008092Y006002D01*
X008092Y006051D01*
X008044Y006099D01*
X007947Y006099D01*
X007899Y006147D01*
X007899Y006196D01*
X007947Y006244D01*
X008044Y006244D01*
X008092Y006196D01*
X008193Y006244D02*
X008387Y006244D01*
X008290Y006244D02*
X008290Y005954D01*
X008218Y007079D02*
X008218Y007369D01*
X008117Y007321D02*
X008069Y007369D01*
X007972Y007369D01*
X007924Y007321D01*
X007924Y007127D01*
X007972Y007079D01*
X008069Y007079D01*
X008117Y007127D01*
X008218Y007176D02*
X008412Y007369D01*
X008267Y007224D02*
X008412Y007079D01*
X007822Y007127D02*
X007774Y007079D01*
X007677Y007079D01*
X007629Y007127D01*
X007677Y007224D02*
X007774Y007224D01*
X007822Y007176D01*
X007822Y007127D01*
X007677Y007224D02*
X007629Y007272D01*
X007629Y007321D01*
X007677Y007369D01*
X007774Y007369D01*
X007822Y007321D01*
X007845Y007979D02*
X007749Y007979D01*
X007797Y007979D02*
X007797Y008269D01*
X007749Y008269D02*
X007845Y008269D01*
X007945Y008221D02*
X007945Y008172D01*
X007993Y008124D01*
X008090Y008124D01*
X008138Y008076D01*
X008138Y008027D01*
X008090Y007979D01*
X007993Y007979D01*
X007945Y008027D01*
X007945Y008221D02*
X007993Y008269D01*
X008090Y008269D01*
X008138Y008221D01*
X008240Y008221D02*
X008240Y008027D01*
X008288Y007979D01*
X008385Y007979D01*
X008433Y008027D01*
X008433Y008221D01*
X008385Y008269D01*
X008288Y008269D01*
X008240Y008221D01*
X007647Y008269D02*
X007647Y007979D01*
X007454Y007979D02*
X007454Y008269D01*
X007551Y008172D01*
X007647Y008269D01*
X009359Y010079D02*
X009504Y010079D01*
X009455Y010176D01*
X009455Y010224D01*
X009504Y010272D01*
X009600Y010272D01*
X009649Y010224D01*
X009649Y010127D01*
X009600Y010079D01*
X009359Y010079D02*
X009359Y010272D01*
X009359Y010374D02*
X009552Y010374D01*
X009649Y010470D01*
X009552Y010567D01*
X009359Y010567D01*
X007899Y011277D02*
X007850Y011229D01*
X007899Y011277D02*
X007899Y011374D01*
X007850Y011422D01*
X007754Y011422D01*
X007705Y011374D01*
X007705Y011326D01*
X007754Y011229D01*
X007609Y011229D01*
X007609Y011422D01*
X007609Y011524D02*
X007802Y011524D01*
X007899Y011620D01*
X007802Y011717D01*
X007609Y011717D01*
X007654Y013129D02*
X007509Y013129D01*
X007509Y013322D01*
X007509Y013424D02*
X007702Y013424D01*
X007799Y013520D01*
X007702Y013617D01*
X007509Y013617D01*
X007654Y013322D02*
X007750Y013322D01*
X007799Y013274D01*
X007799Y013177D01*
X007750Y013129D01*
X007654Y013129D02*
X007605Y013226D01*
X007605Y013274D01*
X007654Y013322D01*
X009384Y012637D02*
X009384Y012443D01*
X009384Y012540D02*
X009674Y012540D01*
X009625Y012342D02*
X009674Y012294D01*
X009674Y012197D01*
X009625Y012149D01*
X009529Y012197D02*
X009529Y012294D01*
X009577Y012342D01*
X009625Y012342D01*
X009529Y012197D02*
X009480Y012149D01*
X009432Y012149D01*
X009384Y012197D01*
X009384Y012294D01*
X009432Y012342D01*
X009432Y012047D02*
X009384Y011999D01*
X009384Y011854D01*
X009674Y011854D01*
X009577Y011854D02*
X009577Y011999D01*
X009529Y012047D01*
X009432Y012047D01*
X009577Y011951D02*
X009674Y012047D01*
X011479Y012327D02*
X011527Y012279D01*
X011624Y012279D01*
X011672Y012327D01*
X011672Y012424D01*
X011624Y012472D01*
X011576Y012472D01*
X011479Y012424D01*
X011479Y012569D01*
X011672Y012569D01*
X011624Y013279D02*
X011624Y013569D01*
X011479Y013424D01*
X011672Y013424D01*
X011977Y014304D02*
X011929Y014352D01*
X011977Y014304D02*
X012074Y014304D01*
X012122Y014352D01*
X012122Y014401D01*
X012074Y014449D01*
X012026Y014449D01*
X012074Y014449D02*
X012122Y014497D01*
X012122Y014546D01*
X012074Y014594D01*
X011977Y014594D01*
X011929Y014546D01*
X011847Y015254D02*
X011654Y015254D01*
X011847Y015447D01*
X011847Y015496D01*
X011799Y015544D01*
X011702Y015544D01*
X011654Y015496D01*
X011629Y016204D02*
X011822Y016204D01*
X011726Y016204D02*
X011726Y016494D01*
X011629Y016397D01*
X011677Y017254D02*
X011629Y017302D01*
X011822Y017496D01*
X011822Y017302D01*
X011774Y017254D01*
X011677Y017254D01*
X011629Y017302D02*
X011629Y017496D01*
X011677Y017544D01*
X011774Y017544D01*
X011822Y017496D01*
X011742Y018804D02*
X011549Y019094D01*
X011447Y019046D02*
X011447Y018949D01*
X011399Y018901D01*
X011254Y018901D01*
X011351Y018901D02*
X011447Y018804D01*
X011549Y018804D02*
X011742Y019094D01*
X011447Y019046D02*
X011399Y019094D01*
X011254Y019094D01*
X011254Y018804D01*
X010642Y018779D02*
X010449Y019069D01*
X010347Y019069D02*
X010154Y019069D01*
X010251Y019069D02*
X010251Y018779D01*
X010449Y018779D02*
X010642Y019069D01*
X009669Y019037D02*
X009669Y018791D01*
X009607Y018729D01*
X009484Y018729D01*
X009422Y018791D01*
X009669Y019037D01*
X009607Y019099D01*
X009484Y019099D01*
X009422Y019037D01*
X009422Y018791D01*
X009301Y018729D02*
X009054Y018729D01*
X009301Y018976D01*
X009301Y019037D01*
X009239Y019099D01*
X009116Y019099D01*
X009054Y019037D01*
X008646Y019049D02*
X008646Y018679D01*
X008769Y018679D02*
X008522Y018679D01*
X008401Y018679D02*
X008154Y018679D01*
X008401Y018926D01*
X008401Y018987D01*
X008339Y019049D01*
X008216Y019049D01*
X008154Y018987D01*
X008522Y018926D02*
X008646Y019049D01*
X007800Y017812D02*
X007607Y017812D01*
X007559Y017763D01*
X007559Y017618D01*
X007849Y017618D01*
X007849Y017763D01*
X007800Y017812D01*
X007849Y017517D02*
X007559Y017517D01*
X007559Y017324D02*
X007849Y017517D01*
X007849Y017324D02*
X007559Y017324D01*
X007607Y017222D02*
X007559Y017174D01*
X007559Y017077D01*
X007607Y017029D01*
X007800Y017029D01*
X007849Y017077D01*
X007849Y017174D01*
X007800Y017222D01*
X007704Y017222D01*
X007704Y017126D01*
X007632Y015762D02*
X007584Y015713D01*
X007584Y015568D01*
X007874Y015568D01*
X007874Y015713D01*
X007825Y015762D01*
X007632Y015762D01*
X007584Y015467D02*
X007874Y015467D01*
X007584Y015274D01*
X007874Y015274D01*
X007825Y015172D02*
X007729Y015172D01*
X007729Y015076D01*
X007825Y015172D02*
X007874Y015124D01*
X007874Y015027D01*
X007825Y014979D01*
X007632Y014979D01*
X007584Y015027D01*
X007584Y015124D01*
X007632Y015172D01*
X009434Y014688D02*
X009434Y014543D01*
X009724Y014543D01*
X009724Y014688D01*
X009675Y014737D01*
X009482Y014737D01*
X009434Y014688D01*
X009434Y014442D02*
X009724Y014442D01*
X009434Y014249D01*
X009724Y014249D01*
X009675Y014147D02*
X009579Y014147D01*
X009579Y014051D01*
X009675Y014147D02*
X009724Y014099D01*
X009724Y014002D01*
X009675Y013954D01*
X009482Y013954D01*
X009434Y014002D01*
X009434Y014099D01*
X009482Y014147D01*
X009482Y015979D02*
X009675Y015979D01*
X009724Y016027D01*
X009724Y016124D01*
X009675Y016172D01*
X009579Y016172D01*
X009579Y016076D01*
X009482Y016172D02*
X009434Y016124D01*
X009434Y016027D01*
X009482Y015979D01*
X009434Y016274D02*
X009724Y016467D01*
X009434Y016467D01*
X009434Y016568D02*
X009434Y016713D01*
X009482Y016762D01*
X009675Y016762D01*
X009724Y016713D01*
X009724Y016568D01*
X009434Y016568D01*
X009434Y016274D02*
X009724Y016274D01*
X006417Y018851D02*
X006417Y019044D01*
X006417Y018851D02*
X006320Y018754D01*
X006224Y018851D01*
X006224Y019044D01*
X006122Y019044D02*
X005929Y019044D01*
X005929Y018899D01*
X006026Y018947D01*
X006074Y018947D01*
X006122Y018899D01*
X006122Y018802D01*
X006074Y018754D01*
X005977Y018754D01*
X005929Y018802D01*
X005587Y018802D02*
X005587Y018996D01*
X005538Y019044D01*
X005393Y019044D01*
X005393Y018754D01*
X005538Y018754D01*
X005587Y018802D01*
X005292Y018754D02*
X005292Y019044D01*
X005099Y019044D02*
X005099Y018754D01*
X004997Y018802D02*
X004997Y018899D01*
X004901Y018899D01*
X004997Y018996D02*
X004949Y019044D01*
X004852Y019044D01*
X004804Y018996D01*
X004804Y018802D01*
X004852Y018754D01*
X004949Y018754D01*
X004997Y018802D01*
X005099Y019044D02*
X005292Y018754D01*
X004367Y018804D02*
X004174Y019094D01*
X004072Y019094D02*
X003879Y019094D01*
X003976Y019094D02*
X003976Y018804D01*
X004174Y018804D02*
X004367Y019094D01*
X003492Y019094D02*
X003299Y018804D01*
X003197Y018804D02*
X003101Y018901D01*
X003149Y018901D02*
X003004Y018901D01*
X003004Y018804D02*
X003004Y019094D01*
X003149Y019094D01*
X003197Y019046D01*
X003197Y018949D01*
X003149Y018901D01*
X003299Y019094D02*
X003492Y018804D01*
X003374Y017892D02*
X003084Y017699D01*
X003132Y017597D02*
X003229Y017597D01*
X003277Y017549D01*
X003277Y017404D01*
X003277Y017501D02*
X003374Y017597D01*
X003374Y017699D02*
X003084Y017892D01*
X003132Y017597D02*
X003084Y017549D01*
X003084Y017404D01*
X003374Y017404D01*
X003374Y016917D02*
X003084Y016724D01*
X003084Y016622D02*
X003084Y016429D01*
X003084Y016526D02*
X003374Y016526D01*
X003374Y016724D02*
X003084Y016917D01*
X011504Y011374D02*
X011649Y011374D01*
X011697Y011326D01*
X011697Y011277D01*
X011649Y011229D01*
X011552Y011229D01*
X011504Y011277D01*
X011504Y011374D01*
X011601Y011471D01*
X011697Y011519D01*
X011722Y010494D02*
X011529Y010494D01*
X011722Y010494D02*
X011722Y010446D01*
X011529Y010252D01*
X011529Y010204D01*
X011292Y008369D02*
X011292Y008176D01*
X011195Y008079D01*
X011099Y008176D01*
X011099Y008369D01*
X010997Y008369D02*
X010804Y008369D01*
X010804Y008224D01*
X010901Y008272D01*
X010949Y008272D01*
X010997Y008224D01*
X010997Y008127D01*
X010949Y008079D01*
X010852Y008079D01*
X010804Y008127D01*
X010804Y007344D02*
X010901Y007247D01*
X010997Y007344D01*
X010997Y007054D01*
X011099Y007102D02*
X011099Y007296D01*
X011147Y007344D01*
X011244Y007344D01*
X011292Y007296D01*
X011292Y007102D01*
X011244Y007054D01*
X011147Y007054D01*
X011099Y007102D01*
X011393Y007102D02*
X011442Y007054D01*
X011538Y007054D01*
X011587Y007102D01*
X011587Y007151D01*
X011538Y007199D01*
X011442Y007199D01*
X011393Y007247D01*
X011393Y007296D01*
X011442Y007344D01*
X011538Y007344D01*
X011587Y007296D01*
X011688Y007344D02*
X011785Y007344D01*
X011736Y007344D02*
X011736Y007054D01*
X011688Y007054D02*
X011785Y007054D01*
X011538Y006269D02*
X011393Y006269D01*
X011393Y005979D01*
X011538Y005979D01*
X011587Y006027D01*
X011587Y006221D01*
X011538Y006269D01*
X011292Y006269D02*
X011292Y005979D01*
X011099Y006269D01*
X011099Y005979D01*
X010997Y006027D02*
X010997Y006124D01*
X010901Y006124D01*
X010997Y006221D02*
X010949Y006269D01*
X010852Y006269D01*
X010804Y006221D01*
X010804Y006027D01*
X010852Y005979D01*
X010949Y005979D01*
X010997Y006027D01*
X010804Y007054D02*
X010804Y007344D01*
X010829Y002853D02*
X011022Y002853D01*
X011119Y002756D01*
X011022Y002659D01*
X010829Y002659D01*
X010829Y002558D02*
X010829Y002365D01*
X010974Y002365D01*
X010925Y002461D01*
X010925Y002510D01*
X010974Y002558D01*
X011070Y002558D01*
X011119Y002510D01*
X011119Y002413D01*
X011070Y002365D01*
X010974Y002263D02*
X010974Y002070D01*
X011070Y002167D02*
X010877Y002167D01*
X011959Y002177D02*
X012007Y002129D01*
X012200Y002129D01*
X012249Y002177D01*
X012249Y002274D01*
X012200Y002322D01*
X012104Y002322D01*
X012104Y002226D01*
X012007Y002322D02*
X011959Y002274D01*
X011959Y002177D01*
X011959Y002424D02*
X012249Y002617D01*
X011959Y002617D01*
X011959Y002718D02*
X011959Y002863D01*
X012007Y002912D01*
X012200Y002912D01*
X012249Y002863D01*
X012249Y002718D01*
X011959Y002718D01*
X011959Y002424D02*
X012249Y002424D01*
X014054Y002228D02*
X014247Y002228D01*
X014344Y002131D01*
X014247Y002034D01*
X014054Y002034D01*
X014054Y001933D02*
X014054Y001740D01*
X014199Y001740D01*
X014150Y001836D01*
X014150Y001885D01*
X014199Y001933D01*
X014295Y001933D01*
X014344Y001885D01*
X014344Y001788D01*
X014295Y001740D01*
X014199Y001638D02*
X014199Y001445D01*
X014295Y001542D02*
X014102Y001542D01*
X016159Y001602D02*
X016207Y001554D01*
X016400Y001554D01*
X016449Y001602D01*
X016449Y001699D01*
X016400Y001747D01*
X016304Y001747D01*
X016304Y001651D01*
X016207Y001747D02*
X016159Y001699D01*
X016159Y001602D01*
X016159Y001849D02*
X016449Y002042D01*
X016159Y002042D01*
X016159Y002143D02*
X016159Y002288D01*
X016207Y002337D01*
X016400Y002337D01*
X016449Y002288D01*
X016449Y002143D01*
X016159Y002143D01*
X016159Y001849D02*
X016449Y001849D01*
X017184Y001874D02*
X017474Y001874D01*
X017474Y002067D01*
X017474Y002168D02*
X017184Y002168D01*
X017329Y002217D02*
X017474Y002362D01*
X017377Y002168D02*
X017184Y002362D01*
X017232Y001772D02*
X017184Y001724D01*
X017184Y001627D01*
X017232Y001579D01*
X017425Y001579D01*
X017474Y001627D01*
X017474Y001724D01*
X017425Y001772D01*
X018159Y001749D02*
X018159Y001604D01*
X018449Y001604D01*
X018449Y001749D01*
X018400Y001797D01*
X018207Y001797D01*
X018159Y001749D01*
X018207Y001899D02*
X018400Y001899D01*
X018449Y001947D01*
X018449Y002044D01*
X018400Y002092D01*
X018207Y002092D01*
X018159Y002044D01*
X018159Y001947D01*
X018207Y001899D01*
X019159Y001899D02*
X019159Y001995D01*
X019159Y001947D02*
X019449Y001947D01*
X019449Y001899D02*
X019449Y001995D01*
X019400Y001797D02*
X019207Y001797D01*
X019159Y001749D01*
X019159Y001604D01*
X019449Y001604D01*
X019449Y001749D01*
X019400Y001797D01*
X020209Y001699D02*
X020209Y001602D01*
X020257Y001554D01*
X020450Y001554D01*
X020499Y001602D01*
X020499Y001699D01*
X020450Y001747D01*
X020450Y001849D02*
X020499Y001897D01*
X020499Y001994D01*
X020450Y002042D01*
X020402Y002042D01*
X020354Y001994D01*
X020354Y001897D01*
X020305Y001849D01*
X020257Y001849D01*
X020209Y001897D01*
X020209Y001994D01*
X020257Y002042D01*
X020257Y001747D02*
X020209Y001699D01*
X022829Y004216D02*
X022891Y004154D01*
X023014Y004154D01*
X023076Y004216D01*
X023076Y004339D01*
X023014Y004401D01*
X022952Y004401D01*
X022829Y004339D01*
X022829Y004524D01*
X023076Y004524D01*
X023197Y004462D02*
X023259Y004524D01*
X023382Y004524D01*
X023444Y004462D01*
X023444Y004401D01*
X023197Y004154D01*
X023444Y004154D01*
X023357Y005229D02*
X023234Y005229D01*
X023172Y005291D01*
X023419Y005537D01*
X023419Y005291D01*
X023357Y005229D01*
X023172Y005291D02*
X023172Y005537D01*
X023234Y005599D01*
X023357Y005599D01*
X023419Y005537D01*
X023051Y005599D02*
X022804Y005599D01*
X022804Y005414D01*
X022927Y005476D01*
X022989Y005476D01*
X023051Y005414D01*
X023051Y005291D01*
X022989Y005229D01*
X022866Y005229D01*
X022804Y005291D01*
X022989Y006229D02*
X022989Y006599D01*
X022804Y006414D01*
X023051Y006414D01*
X023172Y006352D02*
X023234Y006414D01*
X023357Y006414D01*
X023419Y006352D01*
X023419Y006291D01*
X023357Y006229D01*
X023234Y006229D01*
X023172Y006291D01*
X023172Y006352D01*
X023234Y006414D02*
X023172Y006476D01*
X023172Y006537D01*
X023234Y006599D01*
X023357Y006599D01*
X023419Y006537D01*
X023419Y006476D01*
X023357Y006414D01*
X023357Y007179D02*
X023419Y007241D01*
X023419Y007302D01*
X023357Y007364D01*
X023172Y007364D01*
X023172Y007241D01*
X023234Y007179D01*
X023357Y007179D01*
X023172Y007364D02*
X023296Y007487D01*
X023419Y007549D01*
X023051Y007364D02*
X022804Y007364D01*
X022989Y007549D01*
X022989Y007179D01*
X022989Y008154D02*
X022989Y008524D01*
X022804Y008339D01*
X023051Y008339D01*
X023172Y008339D02*
X023357Y008524D01*
X023357Y008154D01*
X023419Y008339D02*
X023172Y008339D01*
X023172Y009154D02*
X023419Y009401D01*
X023419Y009462D01*
X023357Y009524D01*
X023234Y009524D01*
X023172Y009462D01*
X023051Y009339D02*
X022804Y009339D01*
X022989Y009524D01*
X022989Y009154D01*
X023172Y009154D02*
X023419Y009154D01*
X022142Y009532D02*
X022142Y009726D01*
X022094Y009774D01*
X021997Y009774D01*
X021949Y009726D01*
X021949Y009677D01*
X021997Y009629D01*
X022142Y009629D01*
X022142Y009532D02*
X022094Y009484D01*
X021997Y009484D01*
X021949Y009532D01*
X022754Y010364D02*
X023001Y010364D01*
X023122Y010241D02*
X023122Y010487D01*
X023184Y010549D01*
X023307Y010549D01*
X023369Y010487D01*
X023122Y010241D01*
X023184Y010179D01*
X023307Y010179D01*
X023369Y010241D01*
X023369Y010487D01*
X022939Y010549D02*
X022939Y010179D01*
X022754Y010364D02*
X022939Y010549D01*
X022891Y011129D02*
X022829Y011191D01*
X022891Y011129D02*
X023014Y011129D01*
X023076Y011191D01*
X023076Y011252D01*
X023014Y011314D01*
X022952Y011314D01*
X023014Y011314D02*
X023076Y011376D01*
X023076Y011437D01*
X023014Y011499D01*
X022891Y011499D01*
X022829Y011437D01*
X023197Y011437D02*
X023197Y011376D01*
X023259Y011314D01*
X023382Y011314D01*
X023444Y011252D01*
X023444Y011191D01*
X023382Y011129D01*
X023259Y011129D01*
X023197Y011191D01*
X023197Y011252D01*
X023259Y011314D01*
X023382Y011314D02*
X023444Y011376D01*
X023444Y011437D01*
X023382Y011499D01*
X023259Y011499D01*
X023197Y011437D01*
X022419Y011966D02*
X022419Y012027D01*
X022357Y012089D01*
X022172Y012089D01*
X022172Y011966D01*
X022234Y011904D01*
X022357Y011904D01*
X022419Y011966D01*
X022296Y012212D02*
X022172Y012089D01*
X022051Y012027D02*
X022051Y011966D01*
X021989Y011904D01*
X021866Y011904D01*
X021804Y011966D01*
X021927Y012089D02*
X021989Y012089D01*
X022051Y012027D01*
X021989Y012089D02*
X022051Y012151D01*
X022051Y012212D01*
X021989Y012274D01*
X021866Y012274D01*
X021804Y012212D01*
X022296Y012212D02*
X022419Y012274D01*
X022891Y013204D02*
X022829Y013266D01*
X022891Y013204D02*
X023014Y013204D01*
X023076Y013266D01*
X023076Y013327D01*
X023014Y013389D01*
X022952Y013389D01*
X023014Y013389D02*
X023076Y013451D01*
X023076Y013512D01*
X023014Y013574D01*
X022891Y013574D01*
X022829Y013512D01*
X023197Y013389D02*
X023444Y013389D01*
X023382Y013204D02*
X023382Y013574D01*
X023197Y013389D01*
X023197Y014154D02*
X023444Y014401D01*
X023444Y014462D01*
X023382Y014524D01*
X023259Y014524D01*
X023197Y014462D01*
X023076Y014462D02*
X023076Y014401D01*
X023014Y014339D01*
X023076Y014277D01*
X023076Y014216D01*
X023014Y014154D01*
X022891Y014154D01*
X022829Y014216D01*
X022952Y014339D02*
X023014Y014339D01*
X023076Y014462D02*
X023014Y014524D01*
X022891Y014524D01*
X022829Y014462D01*
X023197Y014154D02*
X023444Y014154D01*
X023382Y015179D02*
X023259Y015179D01*
X023197Y015241D01*
X023444Y015487D01*
X023444Y015241D01*
X023382Y015179D01*
X023197Y015241D02*
X023197Y015487D01*
X023259Y015549D01*
X023382Y015549D01*
X023444Y015487D01*
X023076Y015487D02*
X023076Y015426D01*
X023014Y015364D01*
X023076Y015302D01*
X023076Y015241D01*
X023014Y015179D01*
X022891Y015179D01*
X022829Y015241D01*
X022952Y015364D02*
X023014Y015364D01*
X023076Y015487D02*
X023014Y015549D01*
X022891Y015549D01*
X022829Y015487D01*
X022257Y016129D02*
X022134Y016129D01*
X022072Y016191D01*
X022072Y016252D01*
X022134Y016314D01*
X022257Y016314D01*
X022319Y016252D01*
X022319Y016191D01*
X022257Y016129D01*
X022257Y016314D02*
X022319Y016376D01*
X022319Y016437D01*
X022257Y016499D01*
X022134Y016499D01*
X022072Y016437D01*
X022072Y016376D01*
X022134Y016314D01*
X021951Y016376D02*
X021951Y016437D01*
X021889Y016499D01*
X021766Y016499D01*
X021704Y016437D01*
X021951Y016376D02*
X021704Y016129D01*
X021951Y016129D01*
X022829Y017054D02*
X023076Y017301D01*
X023076Y017362D01*
X023014Y017424D01*
X022891Y017424D01*
X022829Y017362D01*
X022829Y017054D02*
X023076Y017054D01*
X023197Y017116D02*
X023197Y017239D01*
X023382Y017239D01*
X023444Y017177D01*
X023444Y017116D01*
X023382Y017054D01*
X023259Y017054D01*
X023197Y017116D01*
X023197Y017239D02*
X023321Y017362D01*
X023444Y017424D01*
X023432Y018279D02*
X023432Y018649D01*
X023247Y018464D01*
X023494Y018464D01*
X023126Y018526D02*
X023126Y018587D01*
X023064Y018649D01*
X022941Y018649D01*
X022879Y018587D01*
X023126Y018526D02*
X022879Y018279D01*
X023126Y018279D01*
X023201Y019179D02*
X022954Y019179D01*
X023201Y019426D01*
X023201Y019487D01*
X023139Y019549D01*
X023016Y019549D01*
X022954Y019487D01*
X023322Y019487D02*
X023384Y019549D01*
X023507Y019549D01*
X023569Y019487D01*
X023569Y019426D01*
X023322Y019179D01*
X023569Y019179D01*
X025929Y018512D02*
X025991Y018574D01*
X026114Y018574D01*
X026176Y018512D01*
X026176Y018451D01*
X025929Y018204D01*
X026176Y018204D01*
X026297Y018266D02*
X026359Y018204D01*
X026482Y018204D01*
X026544Y018266D01*
X026544Y018389D01*
X026482Y018451D01*
X026421Y018451D01*
X026297Y018389D01*
X026297Y018574D01*
X026544Y018574D01*
X026544Y017649D02*
X026297Y017649D01*
X026176Y017587D02*
X026114Y017649D01*
X025991Y017649D01*
X025929Y017587D01*
X026176Y017587D02*
X026176Y017526D01*
X025929Y017279D01*
X026176Y017279D01*
X026297Y017279D02*
X026297Y017341D01*
X026544Y017587D01*
X026544Y017649D01*
X026532Y016599D02*
X026409Y016599D01*
X026347Y016537D01*
X026347Y016476D01*
X026409Y016414D01*
X026594Y016414D01*
X026594Y016291D02*
X026594Y016537D01*
X026532Y016599D01*
X026226Y016537D02*
X026164Y016599D01*
X026041Y016599D01*
X025979Y016537D01*
X026226Y016537D02*
X026226Y016476D01*
X025979Y016229D01*
X026226Y016229D01*
X026347Y016291D02*
X026409Y016229D01*
X026532Y016229D01*
X026594Y016291D01*
X026396Y015649D02*
X026396Y015279D01*
X026519Y015279D02*
X026272Y015279D01*
X026151Y015341D02*
X026089Y015279D01*
X025966Y015279D01*
X025904Y015341D01*
X026027Y015464D02*
X026089Y015464D01*
X026151Y015402D01*
X026151Y015341D01*
X026089Y015464D02*
X026151Y015526D01*
X026151Y015587D01*
X026089Y015649D01*
X025966Y015649D01*
X025904Y015587D01*
X026272Y015526D02*
X026396Y015649D01*
X026359Y014624D02*
X026482Y014624D01*
X026544Y014562D01*
X026544Y014501D01*
X026482Y014439D01*
X026544Y014377D01*
X026544Y014316D01*
X026482Y014254D01*
X026359Y014254D01*
X026297Y014316D01*
X026176Y014316D02*
X026114Y014254D01*
X025991Y014254D01*
X025929Y014316D01*
X026052Y014439D02*
X026114Y014439D01*
X026176Y014377D01*
X026176Y014316D01*
X026114Y014439D02*
X026176Y014501D01*
X026176Y014562D01*
X026114Y014624D01*
X025991Y014624D01*
X025929Y014562D01*
X026297Y014562D02*
X026359Y014624D01*
X026421Y014439D02*
X026482Y014439D01*
X026544Y013624D02*
X026297Y013624D01*
X026297Y013439D01*
X026421Y013501D01*
X026482Y013501D01*
X026544Y013439D01*
X026544Y013316D01*
X026482Y013254D01*
X026359Y013254D01*
X026297Y013316D01*
X026176Y013316D02*
X026114Y013254D01*
X025991Y013254D01*
X025929Y013316D01*
X026052Y013439D02*
X026114Y013439D01*
X026176Y013377D01*
X026176Y013316D01*
X026114Y013439D02*
X026176Y013501D01*
X026176Y013562D01*
X026114Y013624D01*
X025991Y013624D01*
X025929Y013562D01*
X025991Y012499D02*
X026114Y012499D01*
X026176Y012437D01*
X026176Y012376D01*
X026114Y012314D01*
X026176Y012252D01*
X026176Y012191D01*
X026114Y012129D01*
X025991Y012129D01*
X025929Y012191D01*
X026052Y012314D02*
X026114Y012314D01*
X026297Y012191D02*
X026297Y012129D01*
X026297Y012191D02*
X026544Y012437D01*
X026544Y012499D01*
X026297Y012499D01*
X025991Y012499D02*
X025929Y012437D01*
X025991Y011549D02*
X026114Y011549D01*
X026176Y011487D01*
X026176Y011426D01*
X026114Y011364D01*
X026176Y011302D01*
X026176Y011241D01*
X026114Y011179D01*
X025991Y011179D01*
X025929Y011241D01*
X026052Y011364D02*
X026114Y011364D01*
X026297Y011426D02*
X026359Y011364D01*
X026544Y011364D01*
X026544Y011241D02*
X026544Y011487D01*
X026482Y011549D01*
X026359Y011549D01*
X026297Y011487D01*
X026297Y011426D01*
X026297Y011241D02*
X026359Y011179D01*
X026482Y011179D01*
X026544Y011241D01*
X025991Y011549D02*
X025929Y011487D01*
X026089Y010624D02*
X025904Y010439D01*
X026151Y010439D01*
X026272Y010501D02*
X026396Y010624D01*
X026396Y010254D01*
X026519Y010254D02*
X026272Y010254D01*
X026089Y010254D02*
X026089Y010624D01*
X026039Y009474D02*
X025854Y009289D01*
X026101Y009289D01*
X026222Y009166D02*
X026284Y009104D01*
X026407Y009104D01*
X026469Y009166D01*
X026469Y009227D01*
X026407Y009289D01*
X026346Y009289D01*
X026407Y009289D02*
X026469Y009351D01*
X026469Y009412D01*
X026407Y009474D01*
X026284Y009474D01*
X026222Y009412D01*
X026039Y009474D02*
X026039Y009104D01*
X026039Y008474D02*
X025854Y008289D01*
X026101Y008289D01*
X026222Y008289D02*
X026222Y008474D01*
X026469Y008474D01*
X026407Y008351D02*
X026346Y008351D01*
X026222Y008289D01*
X026222Y008166D02*
X026284Y008104D01*
X026407Y008104D01*
X026469Y008166D01*
X026469Y008289D01*
X026407Y008351D01*
X026039Y008474D02*
X026039Y008104D01*
X026039Y007549D02*
X025854Y007364D01*
X026101Y007364D01*
X026222Y007241D02*
X026222Y007179D01*
X026222Y007241D02*
X026469Y007487D01*
X026469Y007549D01*
X026222Y007549D01*
X026039Y007549D02*
X026039Y007179D01*
X026039Y006599D02*
X025854Y006414D01*
X026101Y006414D01*
X026222Y006476D02*
X026284Y006414D01*
X026469Y006414D01*
X026469Y006291D02*
X026469Y006537D01*
X026407Y006599D01*
X026284Y006599D01*
X026222Y006537D01*
X026222Y006476D01*
X026222Y006291D02*
X026284Y006229D01*
X026407Y006229D01*
X026469Y006291D01*
X026039Y006229D02*
X026039Y006599D01*
X026076Y005574D02*
X025829Y005574D01*
X025829Y005389D01*
X025952Y005451D01*
X026014Y005451D01*
X026076Y005389D01*
X026076Y005266D01*
X026014Y005204D01*
X025891Y005204D01*
X025829Y005266D01*
X026197Y005204D02*
X026444Y005204D01*
X026321Y005204D02*
X026321Y005574D01*
X026197Y005451D01*
X026284Y004524D02*
X026407Y004524D01*
X026469Y004462D01*
X026469Y004401D01*
X026407Y004339D01*
X026469Y004277D01*
X026469Y004216D01*
X026407Y004154D01*
X026284Y004154D01*
X026222Y004216D01*
X026101Y004216D02*
X026101Y004339D01*
X026039Y004401D01*
X025977Y004401D01*
X025854Y004339D01*
X025854Y004524D01*
X026101Y004524D01*
X026222Y004462D02*
X026284Y004524D01*
X026346Y004339D02*
X026407Y004339D01*
X026101Y004216D02*
X026039Y004154D01*
X025916Y004154D01*
X025854Y004216D01*
X019692Y009532D02*
X019644Y009484D01*
X019547Y009484D01*
X019499Y009532D01*
X019499Y009581D01*
X019547Y009629D01*
X019644Y009629D01*
X019692Y009581D01*
X019692Y009532D01*
X019644Y009629D02*
X019692Y009677D01*
X019692Y009726D01*
X019644Y009774D01*
X019547Y009774D01*
X019499Y009726D01*
X019499Y009677D01*
X019547Y009629D01*
X017567Y018729D02*
X017374Y019019D01*
X017272Y019019D02*
X017079Y019019D01*
X017176Y019019D02*
X017176Y018729D01*
X017374Y018729D02*
X017567Y019019D01*
X018029Y019069D02*
X018029Y018779D01*
X018029Y018876D02*
X018174Y018876D01*
X018222Y018924D01*
X018222Y019021D01*
X018174Y019069D01*
X018029Y019069D01*
X018126Y018876D02*
X018222Y018779D01*
X018324Y018779D02*
X018517Y019069D01*
X018324Y019069D02*
X018517Y018779D01*
X018929Y018802D02*
X018977Y018754D01*
X019074Y018754D01*
X019122Y018802D01*
X019122Y018899D01*
X019026Y018899D01*
X019122Y018996D02*
X019074Y019044D01*
X018977Y019044D01*
X018929Y018996D01*
X018929Y018802D01*
X019224Y018754D02*
X019224Y019044D01*
X019417Y018754D01*
X019417Y019044D01*
X019518Y019044D02*
X019663Y019044D01*
X019712Y018996D01*
X019712Y018802D01*
X019663Y018754D01*
X019518Y018754D01*
X019518Y019044D01*
X020054Y019044D02*
X020054Y018899D01*
X020151Y018947D01*
X020199Y018947D01*
X020247Y018899D01*
X020247Y018802D01*
X020199Y018754D01*
X020102Y018754D01*
X020054Y018802D01*
X020054Y019044D02*
X020247Y019044D01*
X020349Y019044D02*
X020349Y018851D01*
X020445Y018754D01*
X020542Y018851D01*
X020542Y019044D01*
D11*
X025823Y019824D02*
X026084Y019824D01*
X025997Y019998D01*
X025997Y020085D01*
X026084Y020171D01*
X026257Y020171D01*
X026344Y020085D01*
X026344Y019911D01*
X026257Y019824D01*
X026084Y019656D02*
X026084Y019309D01*
X026257Y019482D02*
X025910Y019482D01*
X025823Y019824D02*
X025823Y020171D01*
X025823Y020340D02*
X026170Y020340D01*
X026344Y020514D01*
X026170Y020687D01*
X025823Y020687D01*
X025278Y002444D02*
X025018Y002444D01*
X025018Y001924D01*
X025278Y001924D01*
X025365Y002011D01*
X025365Y002358D01*
X025278Y002444D01*
X024850Y002444D02*
X024850Y001924D01*
X024503Y002444D01*
X024503Y001924D01*
X024334Y002011D02*
X024247Y001924D01*
X024074Y001924D01*
X023987Y002011D01*
X023987Y002358D01*
X024074Y002444D01*
X024247Y002444D01*
X024334Y002358D01*
X024334Y002184D02*
X024160Y002184D01*
X024334Y002184D02*
X024334Y002011D01*
X012794Y001209D02*
X012487Y001209D01*
X012640Y001209D02*
X012640Y001669D01*
X012487Y001516D01*
X012334Y001669D02*
X012334Y001362D01*
X012180Y001209D01*
X012027Y001362D01*
X012027Y001669D01*
X011413Y001669D02*
X011413Y001286D01*
X011336Y001209D01*
X011183Y001209D01*
X011106Y001286D01*
X011106Y001669D01*
X010952Y001593D02*
X010876Y001669D01*
X010722Y001669D01*
X010645Y001593D01*
X010645Y001286D01*
X010722Y001209D01*
X010876Y001209D01*
X010952Y001286D01*
X010492Y001209D02*
X010492Y001669D01*
X010339Y001516D01*
X010185Y001669D01*
X010185Y001209D01*
X009571Y001362D02*
X009264Y001362D01*
X009264Y001286D02*
X009264Y001439D01*
X009341Y001516D01*
X009494Y001516D01*
X009571Y001439D01*
X009571Y001362D01*
X009494Y001209D02*
X009341Y001209D01*
X009264Y001286D01*
X009111Y001209D02*
X008957Y001209D01*
X009034Y001209D02*
X009034Y001669D01*
X008957Y001669D01*
X008804Y001516D02*
X008574Y001516D01*
X008497Y001439D01*
X008497Y001286D01*
X008574Y001209D01*
X008804Y001209D01*
X008343Y001209D02*
X008113Y001209D01*
X008037Y001286D01*
X008037Y001516D01*
X007883Y001516D02*
X007653Y001516D01*
X007576Y001439D01*
X007576Y001286D01*
X007653Y001209D01*
X007883Y001209D01*
X008190Y001055D02*
X008267Y001055D01*
X008343Y001132D01*
X008343Y001516D01*
X007423Y001209D02*
X007269Y001209D01*
X007346Y001209D02*
X007346Y001516D01*
X007269Y001516D01*
X007116Y001516D02*
X007039Y001439D01*
X006809Y001439D01*
X007039Y001439D02*
X007116Y001362D01*
X007116Y001286D01*
X007039Y001209D01*
X006809Y001209D01*
X006809Y001669D01*
X007039Y001669D01*
X007116Y001593D01*
X007116Y001516D01*
X007346Y001669D02*
X007346Y001746D01*
D12*
X001159Y007457D02*
X001059Y007457D01*
X001009Y007507D01*
X001059Y007557D01*
X001159Y007557D01*
X001159Y007604D02*
X001059Y007604D01*
X001059Y007679D01*
X001084Y007704D01*
X001159Y007704D01*
X001159Y007752D02*
X001159Y007827D01*
X001134Y007852D01*
X001109Y007827D01*
X001109Y007777D01*
X001084Y007752D01*
X001059Y007777D01*
X001059Y007852D01*
X001084Y007899D02*
X001059Y007924D01*
X001059Y007974D01*
X001084Y007999D01*
X001159Y007999D01*
X001134Y008046D02*
X001159Y008071D01*
X001159Y008146D01*
X001059Y008146D01*
X001059Y008194D02*
X001059Y008219D01*
X001084Y008244D01*
X001059Y008269D01*
X001084Y008294D01*
X001159Y008294D01*
X001159Y008244D02*
X001084Y008244D01*
X001059Y008194D02*
X001159Y008194D01*
X001134Y008341D02*
X001109Y008366D01*
X001109Y008441D01*
X001084Y008441D02*
X001159Y008441D01*
X001159Y008366D01*
X001134Y008341D01*
X001059Y008366D02*
X001059Y008416D01*
X001084Y008441D01*
X001059Y008488D02*
X001159Y008488D01*
X001059Y008488D02*
X001059Y008563D01*
X001084Y008588D01*
X001159Y008588D01*
X001209Y008636D02*
X001159Y008686D01*
X001159Y008661D01*
X001134Y008661D01*
X001134Y008686D01*
X001159Y008686D01*
X001134Y008881D02*
X001034Y008881D01*
X001009Y008906D01*
X001009Y008956D01*
X001034Y008981D01*
X001084Y008981D02*
X001084Y008931D01*
X001084Y008981D02*
X001134Y008981D01*
X001159Y008956D01*
X001159Y008906D01*
X001134Y008881D01*
X001159Y009028D02*
X001159Y009079D01*
X001159Y009053D02*
X001059Y009053D01*
X001059Y009028D01*
X001009Y009053D02*
X000984Y009053D01*
X001034Y009152D02*
X001009Y009177D01*
X001034Y009152D02*
X001159Y009152D01*
X001084Y009127D02*
X001084Y009177D01*
X001059Y009225D02*
X001059Y009275D01*
X001034Y009250D02*
X001134Y009250D01*
X001159Y009275D01*
X001134Y009470D02*
X001109Y009495D01*
X001109Y009571D01*
X001084Y009571D02*
X001159Y009571D01*
X001159Y009495D01*
X001134Y009470D01*
X001059Y009495D02*
X001059Y009546D01*
X001084Y009571D01*
X001059Y009618D02*
X001159Y009618D01*
X001159Y009718D02*
X001084Y009718D01*
X001059Y009693D01*
X001059Y009618D01*
X001084Y009765D02*
X001059Y009790D01*
X001059Y009865D01*
X001009Y009865D02*
X001159Y009865D01*
X001159Y009790D01*
X001134Y009765D01*
X001084Y009765D01*
X001159Y010060D02*
X001009Y010060D01*
X001059Y010110D01*
X001009Y010160D01*
X001159Y010160D01*
X001159Y010207D02*
X001159Y010257D01*
X001159Y010232D02*
X001059Y010232D01*
X001059Y010207D01*
X001009Y010232D02*
X000984Y010232D01*
X001059Y010305D02*
X001059Y010380D01*
X001084Y010405D01*
X001159Y010405D01*
X001159Y010453D02*
X001009Y010453D01*
X001059Y010478D02*
X001059Y010528D01*
X001084Y010553D01*
X001159Y010553D01*
X001134Y010600D02*
X001109Y010625D01*
X001109Y010700D01*
X001084Y010700D02*
X001159Y010700D01*
X001159Y010625D01*
X001134Y010600D01*
X001059Y010625D02*
X001059Y010675D01*
X001084Y010700D01*
X001059Y010747D02*
X001059Y010847D01*
X001159Y010747D01*
X001159Y010847D01*
X001084Y011042D02*
X001084Y011142D01*
X001059Y011337D02*
X001084Y011362D01*
X001084Y011412D01*
X001109Y011437D01*
X001134Y011437D01*
X001159Y011412D01*
X001159Y011362D01*
X001134Y011337D01*
X001059Y011337D02*
X001034Y011337D01*
X001009Y011362D01*
X001009Y011412D01*
X001034Y011437D01*
X001059Y011484D02*
X001059Y011559D01*
X001084Y011584D01*
X001134Y011584D01*
X001159Y011559D01*
X001159Y011484D01*
X001209Y011484D02*
X001059Y011484D01*
X001059Y011631D02*
X001159Y011631D01*
X001109Y011631D02*
X001059Y011681D01*
X001059Y011706D01*
X001059Y011754D02*
X001059Y011779D01*
X001159Y011779D01*
X001159Y011754D02*
X001159Y011804D01*
X001159Y011852D02*
X001059Y011852D01*
X001059Y011927D01*
X001084Y011952D01*
X001159Y011952D01*
X001134Y012000D02*
X001159Y012025D01*
X001159Y012100D01*
X001184Y012100D02*
X001059Y012100D01*
X001059Y012025D01*
X001084Y012000D01*
X001134Y012000D01*
X001209Y012050D02*
X001209Y012075D01*
X001184Y012100D01*
X001159Y012294D02*
X001159Y012394D01*
X001159Y012344D02*
X001009Y012344D01*
X001059Y012294D01*
X001084Y012442D02*
X001059Y012492D01*
X001059Y012517D01*
X001084Y012542D01*
X001134Y012542D01*
X001159Y012517D01*
X001159Y012467D01*
X001134Y012442D01*
X001084Y012442D02*
X001009Y012442D01*
X001009Y012542D01*
X000984Y011779D02*
X001009Y011779D01*
X001059Y010478D02*
X001084Y010453D01*
X001059Y010305D02*
X001159Y010305D01*
X001134Y008046D02*
X001059Y008046D01*
X001009Y007899D02*
X001159Y007899D01*
X001084Y007557D02*
X001084Y007457D01*
D13*
X004211Y007857D02*
X004211Y006645D01*
X004723Y006251D02*
X005700Y006251D01*
X006211Y006645D02*
X006211Y007857D01*
X005711Y008251D02*
X004723Y008251D01*
X004711Y007251D02*
X004713Y007295D01*
X004719Y007339D01*
X004729Y007382D01*
X004742Y007424D01*
X004759Y007465D01*
X004780Y007504D01*
X004804Y007541D01*
X004831Y007576D01*
X004861Y007608D01*
X004894Y007638D01*
X004930Y007664D01*
X004967Y007688D01*
X005007Y007707D01*
X005048Y007724D01*
X005091Y007736D01*
X005134Y007745D01*
X005178Y007750D01*
X005222Y007751D01*
X005266Y007748D01*
X005310Y007741D01*
X005353Y007730D01*
X005395Y007716D01*
X005435Y007698D01*
X005474Y007676D01*
X005510Y007652D01*
X005544Y007624D01*
X005576Y007593D01*
X005605Y007559D01*
X005631Y007523D01*
X005653Y007485D01*
X005672Y007445D01*
X005687Y007403D01*
X005699Y007361D01*
X005707Y007317D01*
X005711Y007273D01*
X005711Y007229D01*
X005707Y007185D01*
X005699Y007141D01*
X005687Y007099D01*
X005672Y007057D01*
X005653Y007017D01*
X005631Y006979D01*
X005605Y006943D01*
X005576Y006909D01*
X005544Y006878D01*
X005510Y006850D01*
X005474Y006826D01*
X005435Y006804D01*
X005395Y006786D01*
X005353Y006772D01*
X005310Y006761D01*
X005266Y006754D01*
X005222Y006751D01*
X005178Y006752D01*
X005134Y006757D01*
X005091Y006766D01*
X005048Y006778D01*
X005007Y006795D01*
X004967Y006814D01*
X004930Y006838D01*
X004894Y006864D01*
X004861Y006894D01*
X004831Y006926D01*
X004804Y006961D01*
X004780Y006998D01*
X004759Y007037D01*
X004742Y007078D01*
X004729Y007120D01*
X004719Y007163D01*
X004713Y007207D01*
X004711Y007251D01*
X004305Y010295D02*
X004502Y010688D01*
X004108Y010688D01*
X004305Y010295D01*
D14*
X004305Y010271D03*
D15*
X014676Y012286D02*
X014774Y012188D01*
X020089Y012188D01*
X020188Y012286D01*
X020188Y017601D01*
X020089Y017700D01*
X014971Y017700D01*
X014676Y017404D01*
X014676Y012286D01*
X014972Y017306D02*
X014974Y017325D01*
X014979Y017344D01*
X014989Y017360D01*
X015001Y017375D01*
X015016Y017387D01*
X015032Y017397D01*
X015051Y017402D01*
X015070Y017404D01*
X015089Y017402D01*
X015108Y017397D01*
X015124Y017387D01*
X015139Y017375D01*
X015151Y017360D01*
X015161Y017344D01*
X015166Y017325D01*
X015168Y017306D01*
X015166Y017287D01*
X015161Y017268D01*
X015151Y017252D01*
X015139Y017237D01*
X015124Y017225D01*
X015108Y017215D01*
X015089Y017210D01*
X015070Y017208D01*
X015051Y017210D01*
X015032Y017215D01*
X015016Y017225D01*
X015001Y017237D01*
X014989Y017252D01*
X014979Y017268D01*
X014974Y017287D01*
X014972Y017306D01*
D16*
X003578Y003489D02*
X003828Y003239D01*
X004328Y003239D01*
X004578Y003489D01*
X004578Y003989D01*
X004328Y004239D01*
X003828Y004239D01*
X003578Y003989D01*
X003578Y003489D01*
X004578Y003489D02*
X004828Y003239D01*
X005328Y003239D01*
X005578Y003489D01*
X005578Y003989D01*
X005328Y004239D01*
X004828Y004239D01*
X004578Y003989D01*
X005578Y003989D02*
X005828Y004239D01*
X006328Y004239D01*
X006578Y003989D01*
X006828Y004239D01*
X007328Y004239D01*
X007578Y003989D01*
X007828Y004239D01*
X008328Y004239D01*
X008578Y003989D01*
X008828Y004239D01*
X009328Y004239D01*
X009578Y003989D01*
X009828Y004239D01*
X010328Y004239D01*
X010578Y003989D01*
X010828Y004239D01*
X011328Y004239D01*
X011578Y003989D01*
X011828Y004239D01*
X012328Y004239D01*
X012578Y003989D01*
X012578Y003489D01*
X012328Y003239D01*
X011828Y003239D01*
X011578Y003489D01*
X011328Y003239D01*
X010828Y003239D01*
X010578Y003489D01*
X010578Y003989D01*
X010578Y003489D02*
X010328Y003239D01*
X009828Y003239D01*
X009578Y003489D01*
X009328Y003239D01*
X008828Y003239D01*
X008578Y003489D01*
X008328Y003239D01*
X007828Y003239D01*
X007578Y003489D01*
X007578Y003989D01*
X007578Y003489D02*
X007328Y003239D01*
X006828Y003239D01*
X006578Y003489D01*
X006328Y003239D01*
X005828Y003239D01*
X005578Y003489D01*
X006578Y003489D02*
X006578Y003989D01*
X008578Y003989D02*
X008578Y003489D01*
X009578Y003489D02*
X009578Y003989D01*
X011578Y003989D02*
X011578Y003489D01*
X013783Y003438D02*
X013783Y002938D01*
X014033Y002688D01*
X014533Y002688D01*
X014783Y002938D01*
X014783Y003438D01*
X014533Y003688D01*
X014033Y003688D01*
X013783Y003438D01*
X014783Y003438D02*
X015033Y003688D01*
X015533Y003688D01*
X015783Y003438D01*
X016033Y003688D01*
X016533Y003688D01*
X016783Y003438D01*
X017033Y003688D01*
X017533Y003688D01*
X017783Y003438D01*
X018033Y003688D01*
X018533Y003688D01*
X018783Y003438D01*
X019033Y003688D01*
X019533Y003688D01*
X019783Y003438D01*
X020033Y003688D01*
X020533Y003688D01*
X020783Y003438D01*
X021033Y003688D01*
X021533Y003688D01*
X021783Y003438D01*
X021783Y002938D01*
X021533Y002688D01*
X021033Y002688D01*
X020783Y002938D01*
X020533Y002688D01*
X020033Y002688D01*
X019783Y002938D01*
X019783Y003438D01*
X019783Y002938D02*
X019533Y002688D01*
X019033Y002688D01*
X018783Y002938D01*
X018533Y002688D01*
X018033Y002688D01*
X017783Y002938D01*
X017533Y002688D01*
X017033Y002688D01*
X016783Y002938D01*
X016783Y003438D01*
X016783Y002938D02*
X016533Y002688D01*
X016033Y002688D01*
X015783Y002938D01*
X015533Y002688D01*
X015033Y002688D01*
X014783Y002938D01*
X015783Y002938D02*
X015783Y003438D01*
X017783Y003438D02*
X017783Y002938D01*
X018783Y002938D02*
X018783Y003438D01*
X020783Y003438D02*
X020783Y002938D01*
X023704Y003103D02*
X023954Y002853D01*
X025454Y002853D01*
X025704Y003103D01*
X025704Y003603D01*
X025454Y003853D01*
X023954Y003853D01*
X023704Y004103D01*
X023704Y004603D01*
X023954Y004853D01*
X025454Y004853D01*
X025704Y004603D01*
X025704Y004103D01*
X025454Y003853D01*
X025454Y004853D02*
X025704Y005103D01*
X025704Y005603D01*
X025454Y005853D01*
X023954Y005853D01*
X023704Y006103D01*
X023704Y006603D01*
X023954Y006853D01*
X025454Y006853D01*
X025704Y006603D01*
X025704Y006103D01*
X025454Y005853D01*
X025454Y006853D02*
X025704Y007103D01*
X025704Y007603D01*
X025454Y007853D01*
X023954Y007853D01*
X023704Y008103D01*
X023704Y008603D01*
X023954Y008853D01*
X025454Y008853D01*
X025704Y008603D01*
X025704Y008103D01*
X025454Y007853D01*
X025454Y008853D02*
X025704Y009103D01*
X025704Y009603D01*
X025454Y009853D01*
X023954Y009853D01*
X023704Y010103D01*
X023704Y010603D01*
X023954Y010853D01*
X025454Y010853D01*
X025704Y010603D01*
X025704Y010103D01*
X025454Y009853D01*
X025454Y010853D02*
X025704Y011103D01*
X025704Y011603D01*
X025454Y011853D01*
X023954Y011853D01*
X023704Y012103D01*
X023704Y012603D01*
X023954Y012853D01*
X025454Y012853D01*
X025704Y012603D01*
X025704Y012103D01*
X025454Y011853D01*
X025454Y012853D02*
X025704Y013103D01*
X025704Y013603D01*
X025454Y013853D01*
X023954Y013853D01*
X023704Y014103D01*
X023704Y014603D01*
X023954Y014853D01*
X025454Y014853D01*
X025704Y014603D01*
X025704Y014103D01*
X025454Y013853D01*
X025454Y014853D02*
X025704Y015103D01*
X025704Y015603D01*
X025454Y015853D01*
X023954Y015853D01*
X023704Y015603D01*
X023704Y015103D01*
X023954Y014853D01*
X023954Y013853D02*
X023704Y013603D01*
X023704Y013103D01*
X023954Y012853D01*
X023954Y011853D02*
X023704Y011603D01*
X023704Y011103D01*
X023954Y010853D01*
X023954Y009853D02*
X023704Y009603D01*
X023704Y009103D01*
X023954Y008853D01*
X023954Y007853D02*
X023704Y007603D01*
X023704Y007103D01*
X023954Y006853D01*
X023954Y005853D02*
X023704Y005603D01*
X023704Y005103D01*
X023954Y004853D01*
X023954Y003853D02*
X023704Y003603D01*
X023704Y003103D01*
X021564Y009179D02*
X021064Y009179D01*
X020814Y009429D01*
X020564Y009179D01*
X020064Y009179D01*
X019814Y009429D01*
X019814Y009929D01*
X020064Y010179D01*
X020564Y010179D01*
X020814Y009929D01*
X021064Y010179D01*
X021564Y010179D01*
X021814Y009929D01*
X021814Y009429D01*
X021564Y009179D01*
X020814Y009429D02*
X020814Y009929D01*
X023954Y015853D02*
X023704Y016103D01*
X023704Y016603D01*
X023954Y016853D01*
X025454Y016853D01*
X025704Y016603D01*
X025704Y016103D01*
X025454Y015853D01*
X025454Y016853D02*
X025704Y017103D01*
X025704Y017603D01*
X025454Y017853D01*
X023954Y017853D01*
X023704Y017603D01*
X023704Y017103D01*
X023954Y016853D01*
X023954Y017853D02*
X023704Y018103D01*
X023704Y018603D01*
X023954Y018853D01*
X025454Y018853D01*
X025704Y018603D01*
X025704Y018103D01*
X025454Y017853D01*
X025454Y018853D02*
X025704Y019103D01*
X025704Y019603D01*
X025454Y019853D01*
X023954Y019853D01*
X023704Y019603D01*
X023704Y019103D01*
X023954Y018853D01*
X023954Y019853D02*
X023704Y020103D01*
X023704Y020603D01*
X023954Y020853D01*
X025454Y020853D01*
X025704Y020603D01*
X025704Y020103D01*
X025454Y019853D01*
X021798Y019603D02*
X021548Y019353D01*
X021048Y019353D01*
X020798Y019603D01*
X020548Y019353D01*
X020048Y019353D01*
X019798Y019603D01*
X019548Y019353D01*
X019048Y019353D01*
X018798Y019603D01*
X018548Y019353D01*
X018048Y019353D01*
X017798Y019603D01*
X017548Y019353D01*
X017048Y019353D01*
X016798Y019603D01*
X016548Y019353D01*
X016048Y019353D01*
X015798Y019603D01*
X015548Y019353D01*
X015048Y019353D01*
X014798Y019603D01*
X014548Y019353D01*
X014048Y019353D01*
X013798Y019603D01*
X013548Y019353D01*
X013048Y019353D01*
X012798Y019603D01*
X012798Y020103D01*
X013048Y020353D01*
X013548Y020353D01*
X013798Y020103D01*
X014048Y020353D01*
X014548Y020353D01*
X014798Y020103D01*
X014798Y019603D01*
X014798Y020103D02*
X015048Y020353D01*
X015548Y020353D01*
X015798Y020103D01*
X016048Y020353D01*
X016548Y020353D01*
X016798Y020103D01*
X017048Y020353D01*
X017548Y020353D01*
X017798Y020103D01*
X017798Y019603D01*
X017798Y020103D02*
X018048Y020353D01*
X018548Y020353D01*
X018798Y020103D01*
X019048Y020353D01*
X019548Y020353D01*
X019798Y020103D01*
X020048Y020353D01*
X020548Y020353D01*
X020798Y020103D01*
X021048Y020353D01*
X021548Y020353D01*
X021798Y020103D01*
X021798Y019603D01*
X020798Y019603D02*
X020798Y020103D01*
X019798Y020103D02*
X019798Y019603D01*
X018798Y019603D02*
X018798Y020103D01*
X016798Y020103D02*
X016798Y019603D01*
X015798Y019603D02*
X015798Y020103D01*
X013798Y020103D02*
X013798Y019603D01*
X011904Y019643D02*
X011654Y019393D01*
X011154Y019393D01*
X010904Y019643D01*
X010654Y019393D01*
X010154Y019393D01*
X009904Y019643D01*
X009654Y019393D01*
X009154Y019393D01*
X008904Y019643D01*
X008654Y019393D01*
X008154Y019393D01*
X007904Y019643D01*
X007904Y020143D01*
X008154Y020393D01*
X008654Y020393D01*
X008904Y020143D01*
X009154Y020393D01*
X009654Y020393D01*
X009904Y020143D01*
X009904Y019643D01*
X009904Y020143D02*
X010154Y020393D01*
X010654Y020393D01*
X010904Y020143D01*
X011154Y020393D01*
X011654Y020393D01*
X011904Y020143D01*
X011904Y019643D01*
X010904Y019643D02*
X010904Y020143D01*
X008904Y020143D02*
X008904Y019643D01*
X008916Y017831D02*
X008416Y017831D01*
X008166Y017581D01*
X008166Y017081D01*
X008416Y016831D01*
X008916Y016831D01*
X009166Y017081D01*
X009166Y017581D01*
X008916Y017831D01*
X008916Y016831D02*
X009166Y016581D01*
X009166Y016081D01*
X008916Y015831D01*
X009166Y015581D01*
X009166Y015081D01*
X008916Y014831D01*
X009166Y014581D01*
X009166Y014081D01*
X008916Y013831D01*
X009166Y013581D01*
X009166Y013081D01*
X008916Y012831D01*
X009166Y012581D01*
X009166Y012081D01*
X008916Y011831D01*
X009166Y011581D01*
X009166Y011081D01*
X008916Y010831D01*
X009166Y010581D01*
X009166Y010081D01*
X008916Y009831D01*
X008416Y009831D01*
X008166Y010081D01*
X008166Y010581D01*
X008416Y010831D01*
X008166Y011081D01*
X008166Y011581D01*
X008416Y011831D01*
X008916Y011831D01*
X008416Y011831D02*
X008166Y012081D01*
X008166Y012581D01*
X008416Y012831D01*
X008166Y013081D01*
X008166Y013581D01*
X008416Y013831D01*
X008166Y014081D01*
X008166Y014581D01*
X008416Y014831D01*
X008916Y014831D01*
X008416Y014831D02*
X008166Y015081D01*
X008166Y015581D01*
X008416Y015831D01*
X008166Y016081D01*
X008166Y016581D01*
X008416Y016831D01*
X008416Y015831D02*
X008916Y015831D01*
X010172Y015591D02*
X010172Y015091D01*
X010422Y014841D01*
X010172Y014591D01*
X010172Y014091D01*
X010422Y013841D01*
X010172Y013591D01*
X010172Y013091D01*
X010422Y012841D01*
X010922Y012841D01*
X011172Y013091D01*
X011172Y013591D01*
X010922Y013841D01*
X010422Y013841D01*
X010922Y013841D02*
X011172Y014091D01*
X011172Y014591D01*
X010922Y014841D01*
X010422Y014841D01*
X010922Y014841D02*
X011172Y015091D01*
X011172Y015591D01*
X010922Y015841D01*
X010422Y015841D01*
X010172Y016091D01*
X010172Y016591D01*
X010422Y016841D01*
X010172Y017091D01*
X010172Y017591D01*
X010422Y017841D01*
X010922Y017841D01*
X011172Y017591D01*
X011172Y017091D01*
X010922Y016841D01*
X011172Y016591D01*
X011172Y016091D01*
X010922Y015841D01*
X010422Y015841D02*
X010172Y015591D01*
X010422Y016841D02*
X010922Y016841D01*
X008916Y013831D02*
X008416Y013831D01*
X008416Y012831D02*
X008916Y012831D01*
X010172Y012591D02*
X010172Y012091D01*
X010422Y011841D01*
X010172Y011591D01*
X010172Y011091D01*
X010422Y010841D01*
X010172Y010591D01*
X010172Y010091D01*
X010422Y009841D01*
X010922Y009841D01*
X011172Y010091D01*
X011172Y010591D01*
X010922Y010841D01*
X010422Y010841D01*
X010922Y010841D02*
X011172Y011091D01*
X011172Y011591D01*
X010922Y011841D01*
X010422Y011841D01*
X010922Y011841D02*
X011172Y012091D01*
X011172Y012591D01*
X010922Y012841D01*
X010422Y012841D02*
X010172Y012591D01*
X008916Y010831D02*
X008416Y010831D01*
X008798Y008615D02*
X010298Y008615D01*
X010548Y008365D01*
X010548Y007865D01*
X010298Y007615D01*
X008798Y007615D01*
X008548Y007365D01*
X008548Y006865D01*
X008798Y006615D01*
X008548Y006365D01*
X008548Y005865D01*
X008798Y005615D01*
X010298Y005615D01*
X010548Y005865D01*
X010548Y006365D01*
X010298Y006615D01*
X008798Y006615D01*
X008798Y007615D02*
X008548Y007865D01*
X008548Y008365D01*
X008798Y008615D01*
X010298Y007615D02*
X010548Y007365D01*
X010548Y006865D01*
X010298Y006615D01*
X002521Y016184D02*
X002021Y016184D01*
X001771Y016434D01*
X001771Y016934D01*
X002021Y017184D01*
X001771Y017434D01*
X001771Y017934D01*
X002021Y018184D01*
X002521Y018184D01*
X002771Y017934D01*
X002771Y017434D01*
X002521Y017184D01*
X002771Y016934D01*
X002771Y016434D01*
X002521Y016184D01*
X002521Y017184D02*
X002021Y017184D01*
X002946Y019353D02*
X003446Y019353D01*
X003696Y019603D01*
X003946Y019353D01*
X004446Y019353D01*
X004696Y019603D01*
X004946Y019353D01*
X005446Y019353D01*
X005696Y019603D01*
X005946Y019353D01*
X006446Y019353D01*
X006696Y019603D01*
X006696Y020103D01*
X006446Y020353D01*
X005946Y020353D01*
X005696Y020103D01*
X005446Y020353D01*
X004946Y020353D01*
X004696Y020103D01*
X004446Y020353D01*
X003946Y020353D01*
X003696Y020103D01*
X003446Y020353D01*
X002946Y020353D01*
X002696Y020103D01*
X002696Y019603D01*
X002946Y019353D01*
D17*
X014164Y007857D03*
X014164Y007385D03*
X013852Y006199D03*
X013852Y005727D03*
D18*
X013852Y005963D03*
X014164Y007621D03*
D19*
X007046Y019628D02*
X007046Y020079D01*
X006821Y019853D01*
X007121Y019853D01*
X002571Y019628D02*
X002271Y019628D01*
X002421Y019628D02*
X002421Y020079D01*
X002271Y019928D01*
D20*
X015251Y009897D02*
X015251Y009267D01*
X016511Y009267D02*
X016511Y009897D01*
M02*
