%
M48
M72
T01C0.0236
T02C0.0335
T03C0.0374
T04C0.0400
T05C0.0787
%
T01
X5789Y2789
X7464Y2789
X4235Y4944
X5101Y5416
X3164Y8489
X6204Y11637
X7700Y12188
X9629Y12818
X11519Y14432
X13448Y12345
X13408Y11794
X15180Y10810
X15889Y10967
X15634Y12654
X15574Y13211
X15456Y14078
X16514Y13164
X18093Y12463
X19407Y13650
X18967Y14159
X18723Y14739
X16914Y15939
X17244Y16539
X17909Y16679
X15179Y15759
X14989Y16764
X12414Y16489
X9353Y18133
X7857Y18605
X7109Y18172
X4944Y18211
X4117Y16125
X3244Y15874
X6794Y16046
X7227Y15298
X3251Y12503
X11873Y9471
X14865Y8211
X15849Y8566
X17975Y6361
X18448Y5731
X18290Y4629
X16715Y4629
X15298Y4944
X12789Y5364
X20416Y7070
X23022Y12045
X19826Y13074
X22089Y15314
X22975Y16243
X23172Y17778
X20692Y18093
T02
X10672Y17341
X10672Y16341
X10672Y15341
X10672Y14341
X10672Y13341
X10672Y12341
X10672Y11341
X10672Y10341
X8666Y10331
X8666Y11331
X8666Y12331
X8666Y13331
X8666Y14331
X8666Y15331
X8666Y16331
X8666Y17331
X14283Y3188
X15283Y3188
X16283Y3188
X17283Y3188
X18283Y3188
X19283Y3188
X20283Y3188
X21283Y3188
T03
X24204Y3353
X25204Y3353
X25204Y4353
X25204Y5353
X24204Y5353
X24204Y4353
X24204Y6353
X25204Y6353
X25204Y7353
X25204Y8353
X24204Y8353
X24204Y7353
X24204Y9353
X25204Y9353
X25204Y10353
X25204Y11353
X24204Y11353
X24204Y10353
X24204Y12353
X25204Y12353
X25204Y13353
X24204Y13353
X24204Y14353
X25204Y14353
X25204Y15353
X25204Y16353
X24204Y16353
X24204Y15353
X24204Y17353
X25204Y17353
X25204Y18353
X25204Y19353
X24204Y19353
X24204Y18353
X24204Y20353
X25204Y20353
X10048Y8115
X10048Y7115
X9048Y7115
X9048Y8115
X9048Y6115
X10048Y6115
T04
X4078Y3739
X5078Y3739
X6078Y3739
X7078Y3739
X8078Y3739
X9078Y3739
X10078Y3739
X11078Y3739
X12078Y3739
X20314Y9679
X21314Y9679
X21298Y19853
X20298Y19853
X19298Y19853
X18298Y19853
X17298Y19853
X16298Y19853
X15298Y19853
X14298Y19853
X13298Y19853
X11404Y19893
X10404Y19893
X9404Y19893
X8404Y19893
X6196Y19853
X5196Y19853
X4196Y19853
X3196Y19853
X2271Y17684
X2271Y16684
T05
X1704Y18989
X1809Y6109
X25889Y1594
M30
