G75*
%MOIN*%
%OFA0B0*%
%FSLAX24Y24*%
%IPPOS*%
%LPD*%
%AMOC8*
5,1,8,0,0,1.08239X$1,22.5*
%
%ADD10C,0.0080*%
%ADD11C,0.0000*%
%ADD12R,0.0591X0.0512*%
%ADD13R,0.0709X0.0551*%
%ADD14R,0.0591X0.0118*%
%ADD15R,0.0118X0.0591*%
%ADD16OC8,0.0660*%
%ADD17C,0.0560*%
%ADD18C,0.0600*%
%ADD19OC8,0.0610*%
%ADD20R,0.0472X0.0472*%
%ADD21R,0.0512X0.0591*%
%ADD22R,0.0300X0.0600*%
%ADD23R,0.0276X0.0787*%
%ADD24C,0.0160*%
%ADD25R,0.0376X0.0376*%
%ADD26C,0.0120*%
D10*
X005078Y002723D02*
X005810Y001991D01*
X018015Y001991D01*
X018283Y002260D01*
X018283Y003188D01*
X018283Y003992D01*
X019550Y005259D01*
X024109Y005259D01*
X024204Y005353D01*
X024660Y005810D02*
X025204Y006353D01*
X024684Y006834D02*
X025204Y007353D01*
X024747Y007897D02*
X025204Y008353D01*
X024747Y007897D02*
X023920Y007897D01*
X023723Y008093D01*
X019314Y008093D01*
X017629Y009778D01*
X017629Y011794D01*
X017826Y011794D02*
X017826Y009857D01*
X019235Y008448D01*
X024109Y008448D01*
X024204Y008353D01*
X024692Y008841D02*
X019196Y008841D01*
X018023Y010015D01*
X018023Y011794D01*
X018219Y011794D02*
X018219Y011293D01*
X018924Y010589D01*
X022354Y010589D01*
X023589Y009353D01*
X024204Y009353D01*
X023960Y009865D02*
X025456Y009865D01*
X025849Y010259D01*
X025849Y010456D01*
X025456Y010849D01*
X024983Y010849D01*
X024471Y011361D01*
X024211Y011361D01*
X024204Y011353D01*
X024708Y010849D02*
X023605Y010849D01*
X021873Y012582D01*
X020582Y012582D01*
X020582Y012778D02*
X022463Y012778D01*
X023022Y012045D01*
X023881Y011873D02*
X024723Y011873D01*
X025204Y012353D01*
X024708Y012857D02*
X025204Y013353D01*
X024708Y012857D02*
X023920Y012857D01*
X023408Y013369D01*
X020582Y013369D01*
X020582Y013566D02*
X023991Y013566D01*
X024204Y013353D01*
X023841Y013763D02*
X023920Y013841D01*
X024692Y013841D01*
X025204Y014353D01*
X024676Y014826D02*
X025204Y015353D01*
X025495Y015810D02*
X022700Y015810D01*
X022188Y016322D01*
X020582Y016322D01*
X020582Y016519D02*
X022700Y016519D01*
X022975Y016243D01*
X023364Y016689D02*
X021014Y016689D01*
X020989Y016714D01*
X020583Y016714D01*
X020582Y016715D01*
X020582Y016912D02*
X023815Y016912D01*
X023889Y016839D01*
X024689Y016839D01*
X025204Y017353D01*
X024204Y017353D02*
X023960Y017109D01*
X020582Y017109D01*
X020582Y017306D02*
X022700Y017306D01*
X023172Y017778D01*
X022660Y017857D02*
X021715Y017857D01*
X021400Y017542D01*
X019708Y017542D01*
X019589Y017660D01*
X019589Y018086D01*
X019597Y018093D01*
X019400Y018093D02*
X019389Y018105D01*
X019389Y018564D01*
X019430Y018605D01*
X022975Y018605D01*
X023723Y019353D01*
X024204Y019353D01*
X023645Y018841D02*
X022660Y017857D01*
X023364Y016689D02*
X023699Y016353D01*
X024204Y016353D01*
X024204Y015353D02*
X023991Y015141D01*
X022716Y015141D01*
X021939Y014364D01*
X020939Y014364D01*
X020928Y014353D01*
X020582Y014353D01*
X020570Y014539D02*
X020582Y014550D01*
X020570Y014539D02*
X019889Y014539D01*
X020582Y014747D02*
X021522Y014747D01*
X020582Y014156D02*
X022897Y014156D01*
X023566Y014826D01*
X024676Y014826D01*
X024204Y014353D02*
X023810Y013960D01*
X020582Y013960D01*
X020582Y013763D02*
X023841Y013763D01*
X022778Y012975D02*
X023881Y011873D01*
X022746Y011079D02*
X020079Y011079D01*
X019794Y011364D01*
X019794Y011794D01*
X019007Y011794D02*
X019007Y012235D01*
X019196Y012424D01*
X019826Y013074D01*
X019407Y013147D02*
X019407Y013650D01*
X018967Y013534D02*
X018967Y014159D01*
X018408Y013999D02*
X018723Y014739D01*
X018408Y013999D02*
X018408Y011802D01*
X018416Y011794D01*
X018613Y011794D02*
X018613Y013180D01*
X018967Y013534D01*
X019407Y013147D02*
X018810Y012550D01*
X018810Y011794D01*
X018093Y012463D02*
X018093Y013487D01*
X017818Y013763D01*
X014282Y013763D01*
X014282Y013566D02*
X015101Y013566D01*
X015456Y013211D01*
X015574Y013211D01*
X015634Y012654D02*
X014747Y013369D01*
X014282Y013369D01*
X014282Y013172D02*
X013672Y013172D01*
X012814Y012314D01*
X012814Y011014D01*
X011114Y009314D01*
X010314Y009314D01*
X009115Y008115D01*
X009048Y008115D01*
X005078Y004145D01*
X005078Y003739D01*
X005078Y002723D01*
X006078Y003456D02*
X007149Y002385D01*
X016558Y002385D01*
X017283Y003110D01*
X017283Y003188D01*
X017283Y003622D01*
X018290Y004629D01*
X017345Y004629D02*
X018448Y005731D01*
X017975Y005889D02*
X017975Y006361D01*
X017975Y005889D02*
X017030Y004944D01*
X015298Y004944D01*
X014245Y004632D02*
X014245Y005884D01*
X014324Y005963D01*
X013211Y006676D02*
X018999Y006676D01*
X019865Y005810D01*
X024660Y005810D01*
X025204Y005353D02*
X026164Y004393D01*
X026164Y002897D01*
X025416Y002149D01*
X020652Y002149D01*
X020416Y002385D01*
X020180Y002385D01*
X019377Y003188D01*
X019283Y003188D01*
X020283Y003188D02*
X020283Y003148D01*
X021046Y002385D01*
X025180Y002385D01*
X025889Y003093D01*
X025889Y003668D01*
X025204Y004353D01*
X024204Y006353D02*
X024156Y006400D01*
X019629Y006400D01*
X017030Y008999D01*
X017030Y011912D01*
X017038Y011904D01*
X017038Y011794D01*
X016841Y011794D02*
X016841Y008834D01*
X018999Y006676D01*
X019589Y007070D02*
X020298Y007070D01*
X020416Y007070D01*
X023723Y007070D01*
X023960Y006834D01*
X024684Y006834D01*
X024204Y007353D02*
X024093Y007463D01*
X019589Y007463D01*
X017432Y009621D01*
X017432Y011794D01*
X017235Y011794D02*
X017235Y009424D01*
X019589Y007070D01*
X017345Y004629D02*
X016715Y004629D01*
X013211Y006676D02*
X011597Y005062D01*
X009353Y005062D01*
X008078Y003786D01*
X008078Y003739D01*
X007078Y003739D02*
X007078Y004873D01*
X008763Y006558D01*
X009490Y006558D01*
X010048Y007115D01*
X010252Y007614D02*
X009714Y007614D01*
X009215Y007115D01*
X009048Y007115D01*
X006078Y004145D01*
X006078Y003739D01*
X006078Y003456D01*
X005101Y005416D02*
X005101Y005511D01*
X004461Y006151D01*
X004461Y008351D01*
X004461Y008674D01*
X004726Y008939D01*
X008739Y008939D01*
X009589Y009789D01*
X009589Y011407D01*
X008666Y012331D01*
X008330Y012818D02*
X009629Y012818D01*
X010641Y013341D02*
X009944Y014038D01*
X009944Y017503D01*
X010377Y017936D01*
X013652Y017936D01*
X013814Y017774D01*
X013814Y017364D01*
X013872Y017306D01*
X014282Y017306D01*
X014282Y017109D02*
X013605Y017109D01*
X013373Y017341D01*
X010672Y017341D01*
X011282Y016912D02*
X014282Y016912D01*
X014282Y016519D02*
X012444Y016519D01*
X012414Y016489D01*
X013164Y016314D02*
X013514Y016314D01*
X013522Y016322D01*
X014282Y016322D01*
X014282Y016125D02*
X014271Y016114D01*
X013914Y016114D01*
X013714Y015914D01*
X013414Y015914D01*
X012314Y014814D01*
X010914Y014814D01*
X010672Y014572D01*
X010672Y014341D01*
X011519Y014432D02*
X011519Y013054D01*
X010806Y012341D01*
X010672Y012341D01*
X011489Y011814D02*
X012914Y013239D01*
X012914Y013914D01*
X013014Y014014D01*
X013066Y014066D01*
X013550Y014550D01*
X014282Y014550D01*
X014282Y014353D02*
X013802Y014353D01*
X013814Y014341D01*
X013814Y013714D01*
X012314Y012214D01*
X012314Y011014D01*
X011641Y010341D01*
X010672Y010341D01*
X010672Y011341D02*
X011191Y011341D01*
X011489Y011639D01*
X011489Y011814D01*
X010672Y013341D02*
X010641Y013341D01*
X008330Y012818D02*
X007857Y013290D01*
X007857Y018605D01*
X007109Y018172D02*
X007109Y017582D01*
X007463Y017227D01*
X007463Y015652D01*
X007582Y015534D01*
X007582Y012306D01*
X007700Y012188D01*
X006204Y011637D02*
X005298Y011637D01*
X005040Y011895D01*
X005101Y011957D01*
X005101Y013133D01*
X004908Y013326D01*
X004305Y013326D01*
X003024Y014607D01*
X002287Y014607D01*
X004305Y015326D02*
X004395Y015416D01*
X004471Y015416D01*
X005495Y016440D01*
X005495Y017542D01*
X007845Y019893D01*
X008404Y019893D01*
X009404Y019893D02*
X009404Y018184D01*
X009353Y018133D01*
X010711Y016341D02*
X011282Y016912D01*
X010711Y016341D02*
X010672Y016341D01*
X010672Y015341D02*
X012191Y015341D01*
X013164Y016314D01*
X014282Y015534D02*
X014303Y015514D01*
X014644Y015514D01*
X014899Y015769D01*
X015169Y015769D01*
X015179Y015759D01*
X014790Y015337D02*
X014282Y015337D01*
X014989Y016764D02*
X014864Y016889D01*
X014864Y017344D01*
X015070Y017550D01*
X015070Y018093D01*
X015267Y018093D02*
X015267Y017461D01*
X015456Y017627D02*
X015634Y017449D01*
X015879Y017449D01*
X016389Y016939D01*
X016389Y015011D01*
X015456Y014078D01*
X015589Y014211D01*
X016054Y012704D02*
X016054Y011794D01*
X016243Y011786D02*
X016251Y011794D01*
X016243Y011786D02*
X016243Y011361D01*
X015889Y011007D01*
X015857Y011487D02*
X015180Y010810D01*
X015062Y011361D02*
X015062Y011786D01*
X015070Y011794D01*
X013408Y011794D01*
X013448Y012345D02*
X013684Y012582D01*
X014282Y012582D01*
X015857Y011794D02*
X015857Y011487D01*
X016440Y011786D02*
X016440Y010967D01*
X015487Y010015D01*
X015487Y009582D01*
X015487Y008245D01*
X015507Y007635D01*
X016176Y007635D02*
X016176Y009484D01*
X016274Y009582D01*
X016645Y009952D01*
X016645Y011794D01*
X016448Y011794D02*
X016440Y011786D01*
X015062Y011361D02*
X014508Y010807D01*
X014508Y009711D01*
X013839Y009711D02*
X013839Y007768D01*
X013692Y007621D01*
X011873Y009471D02*
X010534Y008133D01*
X010534Y007897D01*
X010252Y007614D01*
X005040Y011895D02*
X004305Y011161D01*
X003251Y012503D02*
X002291Y012503D01*
X002287Y012507D01*
X006187Y015326D02*
X006215Y015298D01*
X007227Y015298D01*
X006794Y016046D02*
X006822Y016074D01*
X006822Y016841D01*
X004944Y016963D02*
X004944Y018211D01*
X004152Y018897D02*
X004152Y016841D01*
X004117Y016806D01*
X004117Y016125D01*
X004822Y016841D02*
X004944Y016963D01*
X004152Y018897D02*
X003196Y019853D01*
X002424Y020967D02*
X000692Y019235D01*
X000692Y005456D01*
X005434Y000796D01*
X026665Y000792D01*
X026694Y020967D01*
X002424Y020967D01*
X015267Y018792D02*
X015267Y018093D01*
X015456Y018086D02*
X015456Y017627D01*
X015456Y018086D02*
X015463Y018093D01*
X015267Y018792D02*
X015289Y018814D01*
X017235Y018093D02*
X017244Y016539D01*
X017432Y017156D02*
X017909Y016679D01*
X017432Y017156D02*
X017432Y018093D01*
X018810Y018093D02*
X018810Y019365D01*
X018999Y018101D02*
X019007Y018093D01*
X019007Y015989D01*
X018957Y015939D01*
X019794Y018093D02*
X020692Y018093D01*
X023645Y018841D02*
X024983Y018841D01*
X025204Y019062D01*
X025204Y019353D01*
X025495Y015810D02*
X025849Y015456D01*
X025849Y011991D01*
X025211Y011353D01*
X025204Y011353D01*
X024708Y010849D02*
X025204Y010353D01*
X025204Y009353D02*
X024692Y008841D01*
X023960Y009865D02*
X022746Y011079D01*
X022778Y012975D02*
X020582Y012975D01*
D11*
X025495Y001594D02*
X025497Y001633D01*
X025503Y001672D01*
X025513Y001710D01*
X025526Y001747D01*
X025543Y001782D01*
X025563Y001816D01*
X025587Y001847D01*
X025614Y001876D01*
X025643Y001902D01*
X025675Y001925D01*
X025709Y001945D01*
X025745Y001961D01*
X025782Y001973D01*
X025821Y001982D01*
X025860Y001987D01*
X025899Y001988D01*
X025938Y001985D01*
X025977Y001978D01*
X026014Y001967D01*
X026051Y001953D01*
X026086Y001935D01*
X026119Y001914D01*
X026150Y001889D01*
X026178Y001862D01*
X026203Y001832D01*
X026225Y001799D01*
X026244Y001765D01*
X026259Y001729D01*
X026271Y001691D01*
X026279Y001653D01*
X026283Y001614D01*
X026283Y001574D01*
X026279Y001535D01*
X026271Y001497D01*
X026259Y001459D01*
X026244Y001423D01*
X026225Y001389D01*
X026203Y001356D01*
X026178Y001326D01*
X026150Y001299D01*
X026119Y001274D01*
X026086Y001253D01*
X026051Y001235D01*
X026014Y001221D01*
X025977Y001210D01*
X025938Y001203D01*
X025899Y001200D01*
X025860Y001201D01*
X025821Y001206D01*
X025782Y001215D01*
X025745Y001227D01*
X025709Y001243D01*
X025675Y001263D01*
X025643Y001286D01*
X025614Y001312D01*
X025587Y001341D01*
X025563Y001372D01*
X025543Y001406D01*
X025526Y001441D01*
X025513Y001478D01*
X025503Y001516D01*
X025497Y001555D01*
X025495Y001594D01*
X001415Y006109D02*
X001417Y006148D01*
X001423Y006187D01*
X001433Y006225D01*
X001446Y006262D01*
X001463Y006297D01*
X001483Y006331D01*
X001507Y006362D01*
X001534Y006391D01*
X001563Y006417D01*
X001595Y006440D01*
X001629Y006460D01*
X001665Y006476D01*
X001702Y006488D01*
X001741Y006497D01*
X001780Y006502D01*
X001819Y006503D01*
X001858Y006500D01*
X001897Y006493D01*
X001934Y006482D01*
X001971Y006468D01*
X002006Y006450D01*
X002039Y006429D01*
X002070Y006404D01*
X002098Y006377D01*
X002123Y006347D01*
X002145Y006314D01*
X002164Y006280D01*
X002179Y006244D01*
X002191Y006206D01*
X002199Y006168D01*
X002203Y006129D01*
X002203Y006089D01*
X002199Y006050D01*
X002191Y006012D01*
X002179Y005974D01*
X002164Y005938D01*
X002145Y005904D01*
X002123Y005871D01*
X002098Y005841D01*
X002070Y005814D01*
X002039Y005789D01*
X002006Y005768D01*
X001971Y005750D01*
X001934Y005736D01*
X001897Y005725D01*
X001858Y005718D01*
X001819Y005715D01*
X001780Y005716D01*
X001741Y005721D01*
X001702Y005730D01*
X001665Y005742D01*
X001629Y005758D01*
X001595Y005778D01*
X001563Y005801D01*
X001534Y005827D01*
X001507Y005856D01*
X001483Y005887D01*
X001463Y005921D01*
X001446Y005956D01*
X001433Y005993D01*
X001423Y006031D01*
X001417Y006070D01*
X001415Y006109D01*
X001310Y018989D02*
X001312Y019028D01*
X001318Y019067D01*
X001328Y019105D01*
X001341Y019142D01*
X001358Y019177D01*
X001378Y019211D01*
X001402Y019242D01*
X001429Y019271D01*
X001458Y019297D01*
X001490Y019320D01*
X001524Y019340D01*
X001560Y019356D01*
X001597Y019368D01*
X001636Y019377D01*
X001675Y019382D01*
X001714Y019383D01*
X001753Y019380D01*
X001792Y019373D01*
X001829Y019362D01*
X001866Y019348D01*
X001901Y019330D01*
X001934Y019309D01*
X001965Y019284D01*
X001993Y019257D01*
X002018Y019227D01*
X002040Y019194D01*
X002059Y019160D01*
X002074Y019124D01*
X002086Y019086D01*
X002094Y019048D01*
X002098Y019009D01*
X002098Y018969D01*
X002094Y018930D01*
X002086Y018892D01*
X002074Y018854D01*
X002059Y018818D01*
X002040Y018784D01*
X002018Y018751D01*
X001993Y018721D01*
X001965Y018694D01*
X001934Y018669D01*
X001901Y018648D01*
X001866Y018630D01*
X001829Y018616D01*
X001792Y018605D01*
X001753Y018598D01*
X001714Y018595D01*
X001675Y018596D01*
X001636Y018601D01*
X001597Y018610D01*
X001560Y018622D01*
X001524Y018638D01*
X001490Y018658D01*
X001458Y018681D01*
X001429Y018707D01*
X001402Y018736D01*
X001378Y018767D01*
X001358Y018801D01*
X001341Y018836D01*
X001328Y018873D01*
X001318Y018911D01*
X001312Y018950D01*
X001310Y018989D01*
D12*
X004305Y015326D03*
X004305Y014657D03*
X004305Y013326D03*
X004305Y012657D03*
X006187Y012657D03*
X006187Y013326D03*
X006187Y014657D03*
X006187Y015326D03*
X002287Y015276D03*
X002287Y014607D03*
X002287Y013176D03*
X002287Y012507D03*
X002286Y010665D03*
X002286Y009996D03*
X006187Y010157D03*
X006187Y010826D03*
D13*
X004305Y011161D03*
X004305Y009822D03*
D14*
X014282Y012582D03*
X014282Y012778D03*
X014282Y012975D03*
X014282Y013172D03*
X014282Y013369D03*
X014282Y013566D03*
X014282Y013763D03*
X014282Y013960D03*
X014282Y014156D03*
X014282Y014353D03*
X014282Y014550D03*
X014282Y014747D03*
X014282Y014944D03*
X014282Y015141D03*
X014282Y015337D03*
X014282Y015534D03*
X014282Y015731D03*
X014282Y015928D03*
X014282Y016125D03*
X014282Y016322D03*
X014282Y016519D03*
X014282Y016715D03*
X014282Y016912D03*
X014282Y017109D03*
X014282Y017306D03*
X020582Y017306D03*
X020582Y017109D03*
X020582Y016912D03*
X020582Y016715D03*
X020582Y016519D03*
X020582Y016322D03*
X020582Y016125D03*
X020582Y015928D03*
X020582Y015731D03*
X020582Y015534D03*
X020582Y015337D03*
X020582Y015141D03*
X020582Y014944D03*
X020582Y014747D03*
X020582Y014550D03*
X020582Y014353D03*
X020582Y014156D03*
X020582Y013960D03*
X020582Y013763D03*
X020582Y013566D03*
X020582Y013369D03*
X020582Y013172D03*
X020582Y012975D03*
X020582Y012778D03*
X020582Y012582D03*
D15*
X019794Y011794D03*
X019597Y011794D03*
X019400Y011794D03*
X019204Y011794D03*
X019007Y011794D03*
X018810Y011794D03*
X018613Y011794D03*
X018416Y011794D03*
X018219Y011794D03*
X018023Y011794D03*
X017826Y011794D03*
X017629Y011794D03*
X017432Y011794D03*
X017235Y011794D03*
X017038Y011794D03*
X016841Y011794D03*
X016645Y011794D03*
X016448Y011794D03*
X016251Y011794D03*
X016054Y011794D03*
X015857Y011794D03*
X015660Y011794D03*
X015463Y011794D03*
X015267Y011794D03*
X015070Y011794D03*
X015070Y018093D03*
X015267Y018093D03*
X015463Y018093D03*
X015660Y018093D03*
X015857Y018093D03*
X016054Y018093D03*
X016251Y018093D03*
X016448Y018093D03*
X016645Y018093D03*
X016841Y018093D03*
X017038Y018093D03*
X017235Y018093D03*
X017432Y018093D03*
X017629Y018093D03*
X017826Y018093D03*
X018023Y018093D03*
X018219Y018093D03*
X018416Y018093D03*
X018613Y018093D03*
X018810Y018093D03*
X019007Y018093D03*
X019204Y018093D03*
X019400Y018093D03*
X019597Y018093D03*
X019794Y018093D03*
D16*
X024204Y018353D03*
X025204Y018353D03*
X025204Y019353D03*
X024204Y019353D03*
X024204Y020353D03*
X025204Y020353D03*
X025204Y017353D03*
X024204Y017353D03*
X024204Y016353D03*
X025204Y016353D03*
X025204Y015353D03*
X024204Y015353D03*
X024204Y014353D03*
X025204Y014353D03*
X025204Y013353D03*
X025204Y012353D03*
X024204Y012353D03*
X024204Y013353D03*
X024204Y011353D03*
X025204Y011353D03*
X025204Y010353D03*
X024204Y010353D03*
X024204Y009353D03*
X025204Y009353D03*
X025204Y008353D03*
X025204Y007353D03*
X024204Y007353D03*
X024204Y008353D03*
X024204Y006353D03*
X025204Y006353D03*
X025204Y005353D03*
X025204Y004353D03*
X024204Y004353D03*
X024204Y005353D03*
X024204Y003353D03*
X025204Y003353D03*
D17*
X021283Y003468D02*
X021283Y002908D01*
X020283Y002908D02*
X020283Y003468D01*
X019283Y003468D02*
X019283Y002908D01*
X018283Y002908D02*
X018283Y003468D01*
X017283Y003468D02*
X017283Y002908D01*
X016283Y002908D02*
X016283Y003468D01*
X015283Y003468D02*
X015283Y002908D01*
X014283Y002908D02*
X014283Y003468D01*
X008946Y010331D02*
X008386Y010331D01*
X008386Y011331D02*
X008946Y011331D01*
X008946Y012331D02*
X008386Y012331D01*
X008386Y013331D02*
X008946Y013331D01*
X008946Y014331D02*
X008386Y014331D01*
X008386Y015331D02*
X008946Y015331D01*
X008946Y016331D02*
X008386Y016331D01*
X008386Y017331D02*
X008946Y017331D01*
X010392Y017341D02*
X010952Y017341D01*
X010952Y016341D02*
X010392Y016341D01*
X010392Y015341D02*
X010952Y015341D01*
X010952Y014341D02*
X010392Y014341D01*
X010392Y013341D02*
X010952Y013341D01*
X010952Y012341D02*
X010392Y012341D01*
X010392Y011341D02*
X010952Y011341D01*
X010952Y010341D02*
X010392Y010341D01*
D18*
X002571Y016684D02*
X001971Y016684D01*
X001971Y017684D02*
X002571Y017684D01*
X003196Y019553D02*
X003196Y020153D01*
X004196Y020153D02*
X004196Y019553D01*
X005196Y019553D02*
X005196Y020153D01*
X006196Y020153D02*
X006196Y019553D01*
X008404Y019593D02*
X008404Y020193D01*
X009404Y020193D02*
X009404Y019593D01*
X010404Y019593D02*
X010404Y020193D01*
X011404Y020193D02*
X011404Y019593D01*
X013298Y019553D02*
X013298Y020153D01*
X014298Y020153D02*
X014298Y019553D01*
X015298Y019553D02*
X015298Y020153D01*
X016298Y020153D02*
X016298Y019553D01*
X017298Y019553D02*
X017298Y020153D01*
X018298Y020153D02*
X018298Y019553D01*
X019298Y019553D02*
X019298Y020153D01*
X020298Y020153D02*
X020298Y019553D01*
X021298Y019553D02*
X021298Y020153D01*
X021314Y009979D02*
X021314Y009379D01*
X020314Y009379D02*
X020314Y009979D01*
X012078Y004039D02*
X012078Y003439D01*
X011078Y003439D02*
X011078Y004039D01*
X010078Y004039D02*
X010078Y003439D01*
X009078Y003439D02*
X009078Y004039D01*
X008078Y004039D02*
X008078Y003439D01*
X007078Y003439D02*
X007078Y004039D01*
X006078Y004039D02*
X006078Y003439D01*
X005078Y003439D02*
X005078Y004039D01*
X004078Y004039D02*
X004078Y003439D01*
D19*
X009048Y006115D03*
X010048Y006115D03*
X010048Y007115D03*
X009048Y007115D03*
X009048Y008115D03*
X010048Y008115D03*
D20*
X013692Y007621D03*
X014519Y007621D03*
X014324Y005963D03*
X013497Y005963D03*
D21*
X013576Y004632D03*
X014245Y004632D03*
X015507Y007635D03*
X016176Y007635D03*
X014508Y009711D03*
X013839Y009711D03*
X006822Y016841D03*
X006152Y016841D03*
X004822Y016841D03*
X004152Y016841D03*
D22*
X004461Y008351D03*
X005961Y008351D03*
X005961Y006151D03*
X004461Y006151D03*
D23*
X015487Y009582D03*
X015881Y009582D03*
X016274Y009582D03*
D24*
X004878Y002873D02*
X003706Y002873D01*
X003817Y003049D02*
X003688Y003178D01*
X003618Y003348D01*
X003222Y003348D01*
X003383Y003190D02*
X003683Y003190D01*
X003618Y003348D02*
X003618Y004131D01*
X003688Y004300D01*
X003817Y004429D01*
X003986Y004499D01*
X004169Y004499D01*
X004338Y004429D01*
X004468Y004300D01*
X004538Y004131D01*
X004538Y003348D01*
X004618Y003348D01*
X004688Y003178D01*
X004817Y003049D01*
X004878Y003024D01*
X004878Y002640D01*
X005727Y001791D01*
X018097Y001791D01*
X018215Y001908D01*
X018483Y002177D01*
X018483Y002514D01*
X018532Y002535D01*
X018656Y002659D01*
X018723Y002820D01*
X018723Y003555D01*
X018656Y003717D01*
X018532Y003841D01*
X018483Y003861D01*
X018483Y003909D01*
X019633Y005059D01*
X023805Y005059D01*
X024001Y004863D01*
X024407Y004863D01*
X024694Y005150D01*
X024694Y005556D01*
X024640Y005610D01*
X024743Y005610D01*
X024999Y005865D01*
X025001Y005863D01*
X025407Y005863D01*
X025694Y006150D01*
X025694Y006556D01*
X025407Y006843D01*
X025001Y006843D01*
X024714Y006556D01*
X024714Y006150D01*
X024716Y006148D01*
X024577Y006010D01*
X024553Y006010D01*
X024694Y006150D01*
X024694Y006556D01*
X024616Y006634D01*
X024767Y006634D01*
X024999Y006865D01*
X025001Y006863D01*
X025407Y006863D01*
X025694Y007150D01*
X025694Y007556D01*
X025407Y007843D01*
X025001Y007843D01*
X024714Y007556D01*
X024714Y007150D01*
X024716Y007148D01*
X024601Y007034D01*
X024577Y007034D01*
X024694Y007150D01*
X024694Y007556D01*
X024553Y007697D01*
X024830Y007697D01*
X024999Y007865D01*
X025001Y007863D01*
X025407Y007863D01*
X025694Y008150D01*
X025694Y008556D01*
X025407Y008843D01*
X025001Y008843D01*
X024714Y008556D01*
X024714Y008150D01*
X024716Y008148D01*
X024664Y008097D01*
X024640Y008097D01*
X024694Y008150D01*
X024694Y008556D01*
X024608Y008641D01*
X024775Y008641D01*
X024892Y008759D01*
X024999Y008865D01*
X025001Y008863D01*
X025407Y008863D01*
X025694Y009150D01*
X025694Y009556D01*
X025562Y009688D01*
X026408Y009688D01*
X026407Y009530D02*
X025694Y009530D01*
X025694Y009371D02*
X026407Y009371D01*
X026407Y009213D02*
X025694Y009213D01*
X025598Y009054D02*
X026407Y009054D01*
X026406Y008896D02*
X025439Y008896D01*
X025512Y008737D02*
X026406Y008737D01*
X026406Y008579D02*
X025671Y008579D01*
X025694Y008420D02*
X026406Y008420D01*
X026405Y008262D02*
X025694Y008262D01*
X025647Y008103D02*
X026405Y008103D01*
X026405Y007945D02*
X025488Y007945D01*
X025463Y007786D02*
X026405Y007786D01*
X026405Y007628D02*
X025622Y007628D01*
X025694Y007469D02*
X026404Y007469D01*
X026404Y007311D02*
X025694Y007311D01*
X025694Y007152D02*
X026404Y007152D01*
X026404Y006994D02*
X025537Y006994D01*
X025414Y006835D02*
X026403Y006835D01*
X026403Y006677D02*
X025573Y006677D01*
X025694Y006518D02*
X026403Y006518D01*
X026403Y006360D02*
X025694Y006360D01*
X025694Y006201D02*
X026403Y006201D01*
X026402Y006043D02*
X025586Y006043D01*
X025428Y005884D02*
X026402Y005884D01*
X026402Y005726D02*
X025524Y005726D01*
X025407Y005843D02*
X025001Y005843D01*
X024714Y005556D01*
X024714Y005150D01*
X025001Y004863D01*
X025407Y004863D01*
X025409Y004865D01*
X025964Y004310D01*
X025964Y003875D01*
X025692Y004148D01*
X025694Y004150D01*
X025694Y004556D01*
X025407Y004843D01*
X025001Y004843D01*
X024714Y004556D01*
X024714Y004150D01*
X025001Y003863D01*
X025407Y003863D01*
X025409Y003865D01*
X025411Y003863D01*
X025217Y003863D01*
X025217Y003367D01*
X025190Y003367D01*
X025190Y003863D01*
X024992Y003863D01*
X024704Y003574D01*
X024415Y003863D01*
X024217Y003863D01*
X024217Y003367D01*
X024190Y003367D01*
X024190Y003863D01*
X023992Y003863D01*
X023694Y003564D01*
X023694Y003367D01*
X024190Y003367D01*
X024190Y003340D01*
X023694Y003340D01*
X023694Y003142D01*
X023992Y002843D01*
X024190Y002843D01*
X024190Y003340D01*
X024217Y003340D01*
X024217Y003367D01*
X025190Y003367D01*
X025190Y003340D01*
X024694Y003340D01*
X024217Y003340D01*
X024217Y002843D01*
X024415Y002843D01*
X024704Y003132D01*
X024992Y002843D01*
X025190Y002843D01*
X025190Y003340D01*
X025217Y003340D01*
X025217Y002843D01*
X025356Y002843D01*
X025097Y002585D01*
X021582Y002585D01*
X021656Y002659D01*
X021723Y002820D01*
X021723Y003555D01*
X021656Y003717D01*
X021532Y003841D01*
X021371Y003908D01*
X021196Y003908D01*
X021034Y003841D01*
X020910Y003717D01*
X020843Y003555D01*
X020843Y002871D01*
X020723Y002991D01*
X020723Y003555D01*
X020656Y003717D01*
X020532Y003841D01*
X020371Y003908D01*
X020196Y003908D01*
X020034Y003841D01*
X019910Y003717D01*
X019843Y003555D01*
X019843Y003004D01*
X019723Y003124D01*
X019723Y003555D01*
X019656Y003717D01*
X019532Y003841D01*
X019371Y003908D01*
X019196Y003908D01*
X019034Y003841D01*
X018910Y003717D01*
X018843Y003555D01*
X018843Y002820D01*
X018910Y002659D01*
X019034Y002535D01*
X019196Y002468D01*
X019371Y002468D01*
X019532Y002535D01*
X019640Y002642D01*
X019980Y002302D01*
X020097Y002185D01*
X020333Y002185D01*
X020452Y002066D01*
X020570Y001949D01*
X025361Y001949D01*
X025360Y001947D01*
X025265Y001718D01*
X025265Y001470D01*
X025360Y001241D01*
X025536Y001065D01*
X025542Y001063D01*
X005545Y001066D01*
X000962Y005569D01*
X000962Y019123D01*
X001171Y019333D01*
X001080Y019113D01*
X001080Y018865D01*
X001175Y018636D01*
X001351Y018460D01*
X001580Y018365D01*
X001828Y018365D01*
X002057Y018460D01*
X002233Y018636D01*
X002328Y018865D01*
X002328Y019113D01*
X002233Y019342D01*
X002057Y019518D01*
X001828Y019613D01*
X001580Y019613D01*
X001360Y019522D01*
X002536Y020697D01*
X023855Y020697D01*
X023714Y020556D01*
X023714Y020150D01*
X024001Y019863D01*
X024407Y019863D01*
X024657Y020113D01*
X024751Y020113D01*
X025001Y019863D01*
X025407Y019863D01*
X025694Y020150D01*
X025694Y020556D01*
X025552Y020697D01*
X026423Y020697D01*
X026397Y001968D01*
X026242Y002123D01*
X026013Y002218D01*
X025768Y002218D01*
X026247Y002697D01*
X026364Y002814D01*
X026364Y004475D01*
X025692Y005148D01*
X025694Y005150D01*
X025694Y005556D01*
X025407Y005843D01*
X025682Y005567D02*
X026402Y005567D01*
X026401Y005409D02*
X025694Y005409D01*
X025694Y005250D02*
X026401Y005250D01*
X026401Y005092D02*
X025748Y005092D01*
X025906Y004933D02*
X026401Y004933D01*
X026401Y004775D02*
X026065Y004775D01*
X026223Y004616D02*
X026400Y004616D01*
X026400Y004458D02*
X026364Y004458D01*
X026364Y004299D02*
X026400Y004299D01*
X026400Y004141D02*
X026364Y004141D01*
X026364Y003982D02*
X026399Y003982D01*
X026399Y003824D02*
X026364Y003824D01*
X026364Y003665D02*
X026399Y003665D01*
X026399Y003507D02*
X026364Y003507D01*
X026364Y003348D02*
X026398Y003348D01*
X026398Y003190D02*
X026364Y003190D01*
X026364Y003031D02*
X026398Y003031D01*
X026398Y002873D02*
X026364Y002873D01*
X026398Y002714D02*
X026265Y002714D01*
X026397Y002556D02*
X026106Y002556D01*
X025948Y002397D02*
X026397Y002397D01*
X026397Y002239D02*
X025789Y002239D01*
X026284Y002080D02*
X026397Y002080D01*
X025350Y001922D02*
X018228Y001922D01*
X018387Y002080D02*
X020438Y002080D01*
X020043Y002239D02*
X018483Y002239D01*
X018483Y002397D02*
X019885Y002397D01*
X019726Y002556D02*
X019553Y002556D01*
X019013Y002556D02*
X018553Y002556D01*
X018679Y002714D02*
X018887Y002714D01*
X018843Y002873D02*
X018723Y002873D01*
X018723Y003031D02*
X018843Y003031D01*
X018843Y003190D02*
X018723Y003190D01*
X018723Y003348D02*
X018843Y003348D01*
X018843Y003507D02*
X018723Y003507D01*
X018678Y003665D02*
X018889Y003665D01*
X019017Y003824D02*
X018549Y003824D01*
X018557Y003982D02*
X023882Y003982D01*
X024001Y003863D02*
X023714Y004150D01*
X023714Y004556D01*
X024001Y004843D01*
X024407Y004843D01*
X024694Y004556D01*
X024694Y004150D01*
X024407Y003863D01*
X024001Y003863D01*
X023953Y003824D02*
X021549Y003824D01*
X021678Y003665D02*
X023795Y003665D01*
X023694Y003507D02*
X021723Y003507D01*
X021723Y003348D02*
X024190Y003348D01*
X024204Y003353D02*
X025204Y003353D01*
X025190Y003348D02*
X024217Y003348D01*
X024217Y003190D02*
X024190Y003190D01*
X024190Y003031D02*
X024217Y003031D01*
X024217Y002873D02*
X024190Y002873D01*
X023963Y002873D02*
X021723Y002873D01*
X021723Y003031D02*
X023804Y003031D01*
X023694Y003190D02*
X021723Y003190D01*
X021679Y002714D02*
X025227Y002714D01*
X025217Y002873D02*
X025190Y002873D01*
X025190Y003031D02*
X025217Y003031D01*
X025217Y003190D02*
X025190Y003190D01*
X024963Y002873D02*
X024445Y002873D01*
X024603Y003031D02*
X024804Y003031D01*
X025190Y003507D02*
X025217Y003507D01*
X025217Y003665D02*
X025190Y003665D01*
X025190Y003824D02*
X025217Y003824D01*
X024953Y003824D02*
X024454Y003824D01*
X024526Y003982D02*
X024882Y003982D01*
X024723Y004141D02*
X024684Y004141D01*
X024694Y004299D02*
X024714Y004299D01*
X024714Y004458D02*
X024694Y004458D01*
X024633Y004616D02*
X024774Y004616D01*
X024932Y004775D02*
X024475Y004775D01*
X024477Y004933D02*
X024931Y004933D01*
X024772Y005092D02*
X024635Y005092D01*
X024694Y005250D02*
X024714Y005250D01*
X024714Y005409D02*
X024694Y005409D01*
X024682Y005567D02*
X024725Y005567D01*
X024859Y005726D02*
X024883Y005726D01*
X024610Y006043D02*
X024586Y006043D01*
X024694Y006201D02*
X024714Y006201D01*
X024714Y006360D02*
X024694Y006360D01*
X024694Y006518D02*
X024714Y006518D01*
X024810Y006677D02*
X024834Y006677D01*
X024969Y006835D02*
X024993Y006835D01*
X024714Y007152D02*
X024694Y007152D01*
X024694Y007311D02*
X024714Y007311D01*
X024714Y007469D02*
X024694Y007469D01*
X024622Y007628D02*
X024785Y007628D01*
X024920Y007786D02*
X024944Y007786D01*
X024671Y008103D02*
X024647Y008103D01*
X024694Y008262D02*
X024714Y008262D01*
X024714Y008420D02*
X024694Y008420D01*
X024671Y008579D02*
X024736Y008579D01*
X024871Y008737D02*
X024895Y008737D01*
X025562Y009688D02*
X025932Y010059D01*
X026049Y010176D01*
X026049Y010538D01*
X025656Y010932D01*
X025566Y011022D01*
X025694Y011150D01*
X025694Y011553D01*
X025932Y011791D01*
X026049Y011908D01*
X026049Y015538D01*
X025578Y016010D01*
X025553Y016010D01*
X025694Y016150D01*
X025694Y016556D01*
X025407Y016843D01*
X025001Y016843D01*
X024714Y016556D01*
X024714Y016150D01*
X024854Y016010D01*
X024553Y016010D01*
X024694Y016150D01*
X024694Y016556D01*
X024611Y016639D01*
X024772Y016639D01*
X024999Y016865D01*
X025001Y016863D01*
X025407Y016863D01*
X025694Y017150D01*
X025694Y017556D01*
X025407Y017843D01*
X025001Y017843D01*
X024714Y017556D01*
X024714Y017150D01*
X024716Y017148D01*
X024606Y017039D01*
X024582Y017039D01*
X024694Y017150D01*
X024694Y017556D01*
X024407Y017843D01*
X024001Y017843D01*
X023714Y017556D01*
X023714Y017309D01*
X022986Y017309D01*
X023107Y017430D01*
X023427Y017430D01*
X023520Y017524D01*
X023520Y018033D01*
X023427Y018127D01*
X023213Y018127D01*
X023727Y018641D01*
X023799Y018641D01*
X023714Y018556D01*
X023714Y018150D01*
X024001Y017863D01*
X024407Y017863D01*
X024694Y018150D01*
X024694Y018556D01*
X024608Y018641D01*
X024799Y018641D01*
X024714Y018556D01*
X024714Y018150D01*
X025001Y017863D01*
X025407Y017863D01*
X025694Y018150D01*
X025694Y018556D01*
X025407Y018843D01*
X025268Y018843D01*
X025288Y018863D01*
X025407Y018863D01*
X025694Y019150D01*
X025694Y019556D01*
X025407Y019843D01*
X025001Y019843D01*
X024714Y019556D01*
X024714Y019150D01*
X024822Y019041D01*
X024585Y019041D01*
X024694Y019150D01*
X024694Y019556D01*
X024407Y019843D01*
X024001Y019843D01*
X023714Y019556D01*
X023714Y019553D01*
X023640Y019553D01*
X022892Y018805D01*
X019347Y018805D01*
X019306Y018764D01*
X019189Y018647D01*
X019189Y018549D01*
X018952Y018549D01*
X018938Y018556D01*
X018893Y018569D01*
X018810Y018569D01*
X018810Y018477D01*
X018810Y018477D01*
X018810Y018477D01*
X018810Y018569D01*
X018727Y018569D01*
X018681Y018556D01*
X018668Y018549D01*
X015409Y018549D01*
X015395Y018556D01*
X015349Y018569D01*
X015267Y018569D01*
X015267Y018477D01*
X015267Y018477D01*
X015267Y018477D01*
X015267Y018569D01*
X015184Y018569D01*
X015138Y018556D01*
X015125Y018549D01*
X014944Y018549D01*
X014851Y018455D01*
X014851Y017732D01*
X014870Y017713D01*
X014870Y017633D01*
X014781Y017544D01*
X014703Y017466D01*
X014644Y017525D01*
X014014Y017525D01*
X014014Y017857D01*
X013735Y018136D01*
X010294Y018136D01*
X010177Y018019D01*
X009744Y017586D01*
X009744Y013955D01*
X009861Y013838D01*
X010064Y013635D01*
X010019Y013591D01*
X009952Y013429D01*
X009952Y013254D01*
X010019Y013092D01*
X010143Y012968D01*
X010305Y012901D01*
X011040Y012901D01*
X011114Y012932D01*
X010963Y012781D01*
X010305Y012781D01*
X010143Y012714D01*
X010019Y012591D01*
X009952Y012429D01*
X009952Y012254D01*
X010019Y012092D01*
X010143Y011968D01*
X010305Y011901D01*
X011040Y011901D01*
X011201Y011968D01*
X011325Y012092D01*
X011392Y012254D01*
X011392Y012429D01*
X011329Y012582D01*
X011601Y012854D01*
X011719Y012971D01*
X011719Y014084D01*
X011773Y014084D01*
X011867Y014178D01*
X011867Y014614D01*
X012397Y014614D01*
X013497Y015714D01*
X013797Y015714D01*
X013827Y015744D01*
X013827Y015479D01*
X013819Y015466D01*
X013807Y015420D01*
X013807Y015337D01*
X013807Y015255D01*
X013819Y015209D01*
X013827Y015196D01*
X013827Y014750D01*
X013467Y014750D01*
X013350Y014633D01*
X012931Y014214D01*
X012714Y013997D01*
X012714Y013322D01*
X011289Y011897D01*
X011289Y011722D01*
X011241Y011674D01*
X011201Y011714D01*
X011040Y011781D01*
X010305Y011781D01*
X010143Y011714D01*
X010019Y011591D01*
X009952Y011429D01*
X009952Y011254D01*
X010019Y011092D01*
X010143Y010968D01*
X010305Y010901D01*
X011040Y010901D01*
X011201Y010968D01*
X011325Y011092D01*
X011392Y011254D01*
X011392Y011259D01*
X011572Y011439D01*
X011689Y011556D01*
X011689Y011731D01*
X012114Y012156D01*
X012114Y011097D01*
X011559Y010541D01*
X011346Y010541D01*
X011325Y010591D01*
X011201Y010714D01*
X011040Y010781D01*
X010305Y010781D01*
X010143Y010714D01*
X010019Y010591D01*
X009952Y010429D01*
X009952Y010254D01*
X010019Y010092D01*
X010143Y009968D01*
X010305Y009901D01*
X011040Y009901D01*
X011201Y009968D01*
X011325Y010092D01*
X011346Y010141D01*
X011659Y010141D01*
X011031Y009514D01*
X010231Y009514D01*
X010114Y009397D01*
X009269Y008552D01*
X009240Y008581D01*
X008855Y008581D01*
X008583Y008308D01*
X008583Y007933D01*
X005148Y004499D01*
X004986Y004499D01*
X004817Y004429D01*
X004688Y004300D01*
X004618Y004131D01*
X004618Y003348D01*
X004538Y003348D02*
X004468Y003178D01*
X004338Y003049D01*
X004169Y002979D01*
X003986Y002979D01*
X003817Y003049D01*
X003860Y003031D02*
X003545Y003031D01*
X003867Y002714D02*
X004878Y002714D01*
X004962Y002556D02*
X004028Y002556D01*
X004190Y002397D02*
X005121Y002397D01*
X005279Y002239D02*
X004351Y002239D01*
X004512Y002080D02*
X005438Y002080D01*
X005596Y001922D02*
X004674Y001922D01*
X004835Y001763D02*
X025284Y001763D01*
X025265Y001605D02*
X004996Y001605D01*
X005158Y001446D02*
X025275Y001446D01*
X025341Y001288D02*
X005319Y001288D01*
X005480Y001129D02*
X025471Y001129D01*
X024217Y003507D02*
X024190Y003507D01*
X024190Y003665D02*
X024217Y003665D01*
X024217Y003824D02*
X024190Y003824D01*
X024613Y003665D02*
X024795Y003665D01*
X025699Y004141D02*
X025964Y004141D01*
X025964Y004299D02*
X025694Y004299D01*
X025694Y004458D02*
X025816Y004458D01*
X025658Y004616D02*
X025633Y004616D01*
X025499Y004775D02*
X025475Y004775D01*
X025857Y003982D02*
X025964Y003982D01*
X023932Y004775D02*
X019349Y004775D01*
X019508Y004933D02*
X023931Y004933D01*
X023774Y004616D02*
X019191Y004616D01*
X019032Y004458D02*
X023714Y004458D01*
X023714Y004299D02*
X018874Y004299D01*
X018715Y004141D02*
X023723Y004141D01*
X023714Y005459D02*
X019467Y005459D01*
X019350Y005342D01*
X018638Y004630D01*
X018638Y004883D01*
X018545Y004977D01*
X018036Y004977D01*
X017942Y004883D01*
X017942Y004564D01*
X017286Y003908D01*
X017196Y003908D01*
X017034Y003841D01*
X016910Y003717D01*
X016843Y003555D01*
X016843Y002953D01*
X016740Y002849D01*
X016743Y002872D01*
X016743Y003184D01*
X016287Y003184D01*
X016287Y003192D01*
X016279Y003192D01*
X016279Y003928D01*
X016247Y003928D01*
X016175Y003917D01*
X016107Y003894D01*
X016042Y003861D01*
X015983Y003819D01*
X015932Y003768D01*
X015890Y003709D01*
X015857Y003644D01*
X015834Y003576D01*
X015823Y003504D01*
X015823Y003192D01*
X016279Y003192D01*
X016279Y003184D01*
X015823Y003184D01*
X015823Y002872D01*
X015834Y002800D01*
X015857Y002731D01*
X015890Y002667D01*
X015932Y002608D01*
X015956Y002585D01*
X015582Y002585D01*
X015656Y002659D01*
X015723Y002820D01*
X015723Y003555D01*
X015656Y003717D01*
X015532Y003841D01*
X015371Y003908D01*
X015196Y003908D01*
X015034Y003841D01*
X014910Y003717D01*
X014843Y003555D01*
X014843Y002820D01*
X014910Y002659D01*
X014984Y002585D01*
X014582Y002585D01*
X014656Y002659D01*
X014723Y002820D01*
X014723Y003555D01*
X014656Y003717D01*
X014532Y003841D01*
X014371Y003908D01*
X014196Y003908D01*
X014034Y003841D01*
X014002Y003809D01*
X013816Y003994D01*
X013816Y004177D01*
X013898Y004177D01*
X013911Y004190D01*
X013923Y004177D01*
X014568Y004177D01*
X014661Y004271D01*
X014661Y004994D01*
X014568Y005088D01*
X014445Y005088D01*
X014445Y005567D01*
X014627Y005567D01*
X017371Y005567D01*
X017213Y005409D02*
X014445Y005409D01*
X014445Y005250D02*
X015002Y005250D01*
X015044Y005292D02*
X014950Y005198D01*
X014950Y004689D01*
X015044Y004596D01*
X015552Y004596D01*
X015646Y004689D01*
X015646Y004744D01*
X016367Y004744D01*
X016367Y004374D01*
X016461Y004281D01*
X016970Y004281D01*
X017064Y004374D01*
X017064Y004429D01*
X017428Y004429D01*
X018382Y005383D01*
X018702Y005383D01*
X018796Y005477D01*
X018796Y005986D01*
X018702Y006079D01*
X018296Y006079D01*
X018323Y006107D01*
X018323Y006476D01*
X018916Y006476D01*
X019665Y005727D01*
X019782Y005610D01*
X023767Y005610D01*
X023714Y005556D01*
X023714Y005459D01*
X023725Y005567D02*
X018796Y005567D01*
X018796Y005726D02*
X019666Y005726D01*
X019508Y005884D02*
X018796Y005884D01*
X018739Y006043D02*
X019349Y006043D01*
X019191Y006201D02*
X018323Y006201D01*
X018323Y006360D02*
X019032Y006360D01*
X018516Y006876D02*
X013129Y006876D01*
X013011Y006759D01*
X011514Y005262D01*
X009270Y005262D01*
X009153Y005145D01*
X008388Y004379D01*
X008338Y004429D01*
X008169Y004499D01*
X007986Y004499D01*
X007817Y004429D01*
X007688Y004300D01*
X007618Y004131D01*
X007618Y003348D01*
X007538Y003348D01*
X007538Y004131D01*
X007468Y004300D01*
X007338Y004429D01*
X007278Y004454D01*
X007278Y004790D01*
X008583Y006095D01*
X008583Y005923D01*
X008855Y005650D01*
X009240Y005650D01*
X009513Y005923D01*
X009513Y006308D01*
X009463Y006358D01*
X009573Y006358D01*
X009865Y006650D01*
X010240Y006650D01*
X010513Y006923D01*
X010513Y007308D01*
X010371Y007450D01*
X010452Y007531D01*
X010617Y007697D01*
X010734Y007814D01*
X010734Y008050D01*
X011808Y009123D01*
X012127Y009123D01*
X012221Y009217D01*
X012221Y009726D01*
X012127Y009819D01*
X011902Y009819D01*
X012897Y010814D01*
X013014Y010931D01*
X013014Y012231D01*
X013100Y012317D01*
X013100Y012091D01*
X013101Y012089D01*
X013060Y012049D01*
X013060Y011540D01*
X013154Y011446D01*
X013663Y011446D01*
X013756Y011540D01*
X013756Y011594D01*
X014851Y011594D01*
X014851Y011433D01*
X014308Y010890D01*
X014308Y010167D01*
X014186Y010167D01*
X014173Y010154D01*
X014161Y010167D01*
X013516Y010167D01*
X013423Y010073D01*
X013423Y009350D01*
X013516Y009256D01*
X013639Y009256D01*
X013639Y008017D01*
X013389Y008017D01*
X013296Y007923D01*
X013296Y007318D01*
X013389Y007225D01*
X013994Y007225D01*
X014088Y007318D01*
X014088Y007923D01*
X014039Y007973D01*
X014039Y009256D01*
X014161Y009256D01*
X014173Y009269D01*
X014186Y009256D01*
X014830Y009256D01*
X014924Y009350D01*
X014924Y010073D01*
X014830Y010167D01*
X014708Y010167D01*
X014708Y010724D01*
X014832Y010848D01*
X014832Y010556D01*
X014926Y010462D01*
X015434Y010462D01*
X015528Y010556D01*
X015528Y010875D01*
X015992Y011339D01*
X016109Y011339D01*
X016122Y011331D01*
X016168Y011319D01*
X016240Y011319D01*
X016240Y011050D01*
X015325Y010136D01*
X015283Y010136D01*
X015189Y010042D01*
X015189Y009122D01*
X015283Y009028D01*
X015287Y009028D01*
X015287Y008324D01*
X015285Y008322D01*
X015287Y008242D01*
X015287Y008163D01*
X015290Y008160D01*
X015292Y008090D01*
X015185Y008090D01*
X015091Y007997D01*
X015091Y007274D01*
X015185Y007180D01*
X015829Y007180D01*
X015841Y007192D01*
X015854Y007180D01*
X016498Y007180D01*
X016592Y007274D01*
X016592Y007997D01*
X016498Y008090D01*
X016376Y008090D01*
X016376Y009028D01*
X016479Y009028D01*
X016572Y009122D01*
X016572Y009597D01*
X016641Y009666D01*
X016641Y008751D01*
X018516Y006876D01*
X018398Y006994D02*
X010513Y006994D01*
X010513Y007152D02*
X018240Y007152D01*
X018081Y007311D02*
X016592Y007311D01*
X016592Y007469D02*
X017923Y007469D01*
X017764Y007628D02*
X016592Y007628D01*
X016592Y007786D02*
X017606Y007786D01*
X017447Y007945D02*
X016592Y007945D01*
X016376Y008103D02*
X017289Y008103D01*
X017130Y008262D02*
X016376Y008262D01*
X016376Y008420D02*
X016972Y008420D01*
X016813Y008579D02*
X016376Y008579D01*
X016376Y008737D02*
X016655Y008737D01*
X016641Y008896D02*
X016376Y008896D01*
X016505Y009054D02*
X016641Y009054D01*
X016641Y009213D02*
X016572Y009213D01*
X016572Y009371D02*
X016641Y009371D01*
X016641Y009530D02*
X016572Y009530D01*
X015881Y009530D02*
X015881Y009530D01*
X015881Y009582D02*
X015881Y009008D01*
X015976Y009008D01*
X015976Y008090D01*
X015854Y008090D01*
X015841Y008078D01*
X015829Y008090D01*
X015692Y008090D01*
X015687Y008249D01*
X015687Y009017D01*
X015719Y009008D01*
X015881Y009008D01*
X015881Y009582D01*
X015881Y009582D01*
X015881Y008889D01*
X015849Y008566D01*
X015976Y008579D02*
X015687Y008579D01*
X015687Y008737D02*
X015976Y008737D01*
X015976Y008896D02*
X015687Y008896D01*
X015881Y009054D02*
X015881Y009054D01*
X015881Y009213D02*
X015881Y009213D01*
X015881Y009371D02*
X015881Y009371D01*
X015189Y009371D02*
X014924Y009371D01*
X014924Y009530D02*
X015189Y009530D01*
X015189Y009688D02*
X014924Y009688D01*
X014924Y009847D02*
X015189Y009847D01*
X015189Y010005D02*
X014924Y010005D01*
X014833Y010164D02*
X015353Y010164D01*
X015512Y010322D02*
X014708Y010322D01*
X014708Y010481D02*
X014907Y010481D01*
X014832Y010639D02*
X014708Y010639D01*
X014782Y010798D02*
X014832Y010798D01*
X014533Y011115D02*
X013014Y011115D01*
X013014Y011273D02*
X014691Y011273D01*
X014850Y011432D02*
X013014Y011432D01*
X013014Y011590D02*
X013060Y011590D01*
X013060Y011749D02*
X013014Y011749D01*
X013014Y011907D02*
X013060Y011907D01*
X013078Y012066D02*
X013014Y012066D01*
X013014Y012224D02*
X013100Y012224D01*
X013756Y011590D02*
X014851Y011590D01*
X014374Y010956D02*
X013014Y010956D01*
X012881Y010798D02*
X014308Y010798D01*
X014308Y010639D02*
X012722Y010639D01*
X012564Y010481D02*
X014308Y010481D01*
X014308Y010322D02*
X012405Y010322D01*
X012247Y010164D02*
X013514Y010164D01*
X013423Y010005D02*
X012088Y010005D01*
X011930Y009847D02*
X013423Y009847D01*
X013423Y009688D02*
X012221Y009688D01*
X012221Y009530D02*
X013423Y009530D01*
X013423Y009371D02*
X012221Y009371D01*
X012217Y009213D02*
X013639Y009213D01*
X013639Y009054D02*
X011739Y009054D01*
X011580Y008896D02*
X013639Y008896D01*
X013639Y008737D02*
X011422Y008737D01*
X011263Y008579D02*
X013639Y008579D01*
X013639Y008420D02*
X011105Y008420D01*
X010946Y008262D02*
X013639Y008262D01*
X013639Y008103D02*
X010788Y008103D01*
X010734Y007945D02*
X013317Y007945D01*
X013296Y007786D02*
X010707Y007786D01*
X010549Y007628D02*
X013296Y007628D01*
X013296Y007469D02*
X010390Y007469D01*
X010452Y007531D02*
X010452Y007531D01*
X010510Y007311D02*
X013303Y007311D01*
X013088Y006835D02*
X010425Y006835D01*
X010267Y006677D02*
X012929Y006677D01*
X012771Y006518D02*
X010331Y006518D01*
X010249Y006601D02*
X010061Y006601D01*
X010061Y006129D01*
X010034Y006129D01*
X010034Y006102D01*
X009563Y006102D01*
X009563Y005914D01*
X009847Y005630D01*
X010034Y005630D01*
X010034Y006102D01*
X010061Y006102D01*
X010061Y005630D01*
X010249Y005630D01*
X010533Y005914D01*
X010533Y006102D01*
X010061Y006102D01*
X010061Y006129D01*
X010533Y006129D01*
X010533Y006316D01*
X010249Y006601D01*
X010061Y006518D02*
X010034Y006518D01*
X010034Y006601D02*
X009847Y006601D01*
X009563Y006316D01*
X009563Y006129D01*
X010034Y006129D01*
X010034Y006601D01*
X010034Y006360D02*
X010061Y006360D01*
X010061Y006201D02*
X010034Y006201D01*
X010034Y006043D02*
X010061Y006043D01*
X010061Y005884D02*
X010034Y005884D01*
X010034Y005726D02*
X010061Y005726D01*
X010344Y005726D02*
X011978Y005726D01*
X011820Y005567D02*
X008055Y005567D01*
X007896Y005409D02*
X011661Y005409D01*
X012069Y005250D02*
X014045Y005250D01*
X014045Y005092D02*
X011910Y005092D01*
X011752Y004933D02*
X013160Y004933D01*
X013160Y004994D02*
X013160Y004271D01*
X013254Y004177D01*
X013336Y004177D01*
X013336Y003847D01*
X013373Y003759D01*
X013440Y003691D01*
X013843Y003288D01*
X013843Y003087D01*
X013735Y002979D01*
X012215Y002979D01*
X012262Y002994D01*
X012329Y003029D01*
X012390Y003073D01*
X012444Y003126D01*
X012488Y003187D01*
X012522Y003255D01*
X012546Y003327D01*
X012558Y003401D01*
X012558Y003719D01*
X012098Y003719D01*
X012098Y003759D01*
X012558Y003759D01*
X012558Y004077D01*
X012546Y004151D01*
X012522Y004223D01*
X012488Y004291D01*
X012444Y004352D01*
X012390Y004405D01*
X012329Y004450D01*
X012262Y004484D01*
X012190Y004507D01*
X012115Y004519D01*
X012098Y004519D01*
X012098Y003759D01*
X012058Y003759D01*
X012058Y004519D01*
X012040Y004519D01*
X011965Y004507D01*
X011893Y004484D01*
X011826Y004450D01*
X011765Y004405D01*
X011712Y004352D01*
X011667Y004291D01*
X011633Y004223D01*
X011609Y004151D01*
X011598Y004077D01*
X011598Y003759D01*
X012058Y003759D01*
X012058Y003719D01*
X011598Y003719D01*
X011598Y003401D01*
X011604Y003364D01*
X011538Y003429D01*
X011538Y004131D01*
X011468Y004300D01*
X011338Y004429D01*
X011169Y004499D01*
X010986Y004499D01*
X010817Y004429D01*
X010688Y004300D01*
X010618Y004131D01*
X010618Y003618D01*
X010538Y003538D01*
X010538Y004131D01*
X010468Y004300D01*
X010338Y004429D01*
X010169Y004499D01*
X009986Y004499D01*
X009817Y004429D01*
X009688Y004300D01*
X009618Y004131D01*
X009618Y003348D01*
X009538Y003348D01*
X009538Y004131D01*
X009468Y004300D01*
X009338Y004429D01*
X009169Y004499D01*
X009073Y004499D01*
X009436Y004862D01*
X011680Y004862D01*
X013102Y006284D01*
X013093Y006269D01*
X013081Y006223D01*
X013081Y006001D01*
X013459Y006001D01*
X013459Y005925D01*
X013081Y005925D01*
X013081Y005703D01*
X013093Y005657D01*
X013117Y005616D01*
X013151Y005583D01*
X013192Y005559D01*
X013237Y005547D01*
X013459Y005547D01*
X013459Y005925D01*
X013535Y005925D01*
X013535Y005547D01*
X013757Y005547D01*
X013803Y005559D01*
X013844Y005583D01*
X013878Y005616D01*
X013901Y005657D01*
X013914Y005703D01*
X013914Y005925D01*
X013535Y005925D01*
X013535Y006001D01*
X013459Y006001D01*
X013459Y006379D01*
X013237Y006379D01*
X013192Y006367D01*
X013177Y006358D01*
X013294Y006476D01*
X017627Y006476D01*
X017627Y006107D01*
X017721Y006013D01*
X017775Y006013D01*
X017775Y005972D01*
X016948Y005144D01*
X015646Y005144D01*
X015646Y005198D01*
X015552Y005292D01*
X015044Y005292D01*
X014950Y005092D02*
X014445Y005092D01*
X014661Y004933D02*
X014950Y004933D01*
X014950Y004775D02*
X014661Y004775D01*
X014661Y004616D02*
X015023Y004616D01*
X014661Y004458D02*
X016367Y004458D01*
X016367Y004616D02*
X015573Y004616D01*
X015594Y005250D02*
X017054Y005250D01*
X017530Y005726D02*
X014720Y005726D01*
X014720Y005661D02*
X014720Y006266D01*
X014627Y006359D01*
X014022Y006359D01*
X013928Y006266D01*
X013928Y005661D01*
X014022Y005567D01*
X014045Y005567D01*
X014045Y005088D01*
X013923Y005088D01*
X013911Y005075D01*
X013898Y005088D01*
X013254Y005088D01*
X013160Y004994D01*
X013160Y004775D02*
X009349Y004775D01*
X009191Y004616D02*
X013160Y004616D01*
X013160Y004458D02*
X012313Y004458D01*
X012098Y004458D02*
X012058Y004458D01*
X012058Y004299D02*
X012098Y004299D01*
X012098Y004141D02*
X012058Y004141D01*
X012058Y003982D02*
X012098Y003982D01*
X012098Y003824D02*
X012058Y003824D01*
X011598Y003824D02*
X011538Y003824D01*
X011538Y003982D02*
X011598Y003982D01*
X011608Y004141D02*
X011533Y004141D01*
X011468Y004299D02*
X011673Y004299D01*
X011842Y004458D02*
X011269Y004458D01*
X010887Y004458D02*
X010269Y004458D01*
X010468Y004299D02*
X010688Y004299D01*
X010622Y004141D02*
X010533Y004141D01*
X010538Y003982D02*
X010618Y003982D01*
X010618Y003824D02*
X010538Y003824D01*
X010538Y003665D02*
X010618Y003665D01*
X011078Y003739D02*
X011078Y003550D01*
X011889Y002739D01*
X013834Y002739D01*
X014283Y003188D01*
X013576Y003895D01*
X013576Y004632D01*
X013160Y004299D02*
X012482Y004299D01*
X012547Y004141D02*
X013336Y004141D01*
X013336Y003982D02*
X012558Y003982D01*
X012558Y003824D02*
X013346Y003824D01*
X013466Y003665D02*
X012558Y003665D01*
X012558Y003507D02*
X013625Y003507D01*
X013783Y003348D02*
X012549Y003348D01*
X012489Y003190D02*
X013843Y003190D01*
X013787Y003031D02*
X012333Y003031D01*
X011598Y003507D02*
X011538Y003507D01*
X011538Y003665D02*
X011598Y003665D01*
X011078Y003739D02*
X010127Y002789D01*
X007464Y002789D01*
X007426Y003137D02*
X007468Y003178D01*
X007538Y003348D01*
X007618Y003348D02*
X007688Y003178D01*
X007817Y003049D01*
X007866Y003029D01*
X007812Y003029D01*
X007812Y003043D01*
X007718Y003137D01*
X007426Y003137D01*
X007472Y003190D02*
X007683Y003190D01*
X007812Y003031D02*
X007860Y003031D01*
X007618Y003507D02*
X007538Y003507D01*
X007538Y003665D02*
X007618Y003665D01*
X007618Y003824D02*
X007538Y003824D01*
X007538Y003982D02*
X007618Y003982D01*
X007622Y004141D02*
X007533Y004141D01*
X007468Y004299D02*
X007688Y004299D01*
X007887Y004458D02*
X007278Y004458D01*
X007278Y004616D02*
X008625Y004616D01*
X008466Y004458D02*
X008269Y004458D01*
X008783Y004775D02*
X007278Y004775D01*
X007421Y004933D02*
X008942Y004933D01*
X009100Y005092D02*
X007579Y005092D01*
X007738Y005250D02*
X009259Y005250D01*
X009316Y005726D02*
X009751Y005726D01*
X009593Y005884D02*
X009474Y005884D01*
X009513Y006043D02*
X009563Y006043D01*
X009563Y006201D02*
X009513Y006201D01*
X009575Y006360D02*
X009606Y006360D01*
X009734Y006518D02*
X009765Y006518D01*
X010489Y006360D02*
X012612Y006360D01*
X012454Y006201D02*
X010533Y006201D01*
X010533Y006043D02*
X012295Y006043D01*
X012137Y005884D02*
X010503Y005884D01*
X008779Y005726D02*
X008213Y005726D01*
X008372Y005884D02*
X008621Y005884D01*
X008583Y006043D02*
X008530Y006043D01*
X008264Y006864D02*
X008239Y006864D01*
X005589Y004214D01*
X005589Y002989D01*
X005789Y002789D01*
X004860Y003031D02*
X004295Y003031D01*
X004472Y003190D02*
X004683Y003190D01*
X004618Y003507D02*
X004538Y003507D01*
X004538Y003665D02*
X004618Y003665D01*
X004618Y003824D02*
X004538Y003824D01*
X004538Y003982D02*
X004618Y003982D01*
X004622Y004141D02*
X004533Y004141D01*
X004468Y004299D02*
X004688Y004299D01*
X004887Y004458D02*
X004269Y004458D01*
X004353Y004589D02*
X004235Y004708D01*
X004235Y004944D01*
X004353Y004589D02*
X005141Y004589D01*
X006046Y005495D01*
X006046Y006066D01*
X005961Y006151D01*
X005961Y006151D01*
X005631Y006151D01*
X005631Y006475D01*
X005644Y006520D01*
X005667Y006561D01*
X005701Y006595D01*
X005742Y006619D01*
X005788Y006631D01*
X005961Y006631D01*
X005961Y006151D01*
X005631Y006151D01*
X005631Y005827D01*
X005644Y005781D01*
X005667Y005740D01*
X005701Y005707D01*
X005742Y005683D01*
X005788Y005671D01*
X005961Y005671D01*
X005961Y006151D01*
X005962Y006151D01*
X006291Y006151D01*
X006291Y006475D01*
X006279Y006520D01*
X006256Y006561D01*
X006222Y006595D01*
X006181Y006619D01*
X006135Y006631D01*
X005962Y006631D01*
X005962Y006151D01*
X005962Y006151D01*
X006291Y006151D01*
X006291Y005827D01*
X006279Y005781D01*
X006256Y005740D01*
X006222Y005707D01*
X006181Y005683D01*
X006135Y005671D01*
X005962Y005671D01*
X005962Y006151D01*
X005961Y006151D01*
X005961Y006201D02*
X005962Y006201D01*
X005961Y006043D02*
X005962Y006043D01*
X005961Y005884D02*
X005962Y005884D01*
X005961Y005726D02*
X005962Y005726D01*
X006241Y005726D02*
X006375Y005726D01*
X006291Y005884D02*
X006534Y005884D01*
X006692Y006043D02*
X006291Y006043D01*
X006291Y006201D02*
X006851Y006201D01*
X007009Y006360D02*
X006291Y006360D01*
X006280Y006518D02*
X007168Y006518D01*
X007326Y006677D02*
X004661Y006677D01*
X004661Y006611D02*
X004661Y007891D01*
X004678Y007891D01*
X004771Y007985D01*
X004771Y008701D01*
X004809Y008739D01*
X005654Y008739D01*
X005644Y008720D01*
X005631Y008675D01*
X005631Y008351D01*
X005961Y008351D01*
X005961Y008351D01*
X005631Y008351D01*
X005631Y008027D01*
X005644Y007981D01*
X005667Y007940D01*
X005701Y007907D01*
X005742Y007883D01*
X005788Y007871D01*
X005961Y007871D01*
X005961Y008351D01*
X005962Y008351D01*
X006291Y008351D01*
X006291Y008675D01*
X006279Y008720D01*
X006269Y008739D01*
X008822Y008739D01*
X009672Y009589D01*
X009789Y009707D01*
X009789Y011490D01*
X009672Y011607D01*
X009258Y012021D01*
X009319Y012082D01*
X009386Y012243D01*
X009386Y012418D01*
X009358Y012487D01*
X009374Y012470D01*
X009883Y012470D01*
X009977Y012563D01*
X009977Y013072D01*
X009883Y013166D01*
X009374Y013166D01*
X009339Y013131D01*
X009386Y013243D01*
X009386Y013418D01*
X009319Y013580D01*
X009195Y013704D01*
X009033Y013771D01*
X008298Y013771D01*
X008137Y013704D01*
X008057Y013624D01*
X008057Y014009D01*
X008086Y013980D01*
X008145Y013937D01*
X008209Y013904D01*
X008278Y013882D01*
X008350Y013871D01*
X008662Y013871D01*
X008662Y014327D01*
X008669Y014327D01*
X008669Y013871D01*
X008982Y013871D01*
X009054Y013882D01*
X009122Y013904D01*
X009187Y013937D01*
X009245Y013980D01*
X009297Y014031D01*
X009339Y014090D01*
X009372Y014154D01*
X009394Y014223D01*
X009406Y014295D01*
X009406Y014327D01*
X008669Y014327D01*
X008669Y014334D01*
X008662Y014334D01*
X008662Y014791D01*
X008350Y014791D01*
X008278Y014779D01*
X008209Y014757D01*
X008145Y014724D01*
X008086Y014682D01*
X008057Y014653D01*
X008057Y015009D01*
X008086Y014980D01*
X008145Y014937D01*
X008209Y014904D01*
X008278Y014882D01*
X008350Y014871D01*
X008662Y014871D01*
X008662Y015327D01*
X008669Y015327D01*
X008669Y014871D01*
X008982Y014871D01*
X009054Y014882D01*
X009122Y014904D01*
X009187Y014937D01*
X009245Y014980D01*
X009297Y015031D01*
X009339Y015090D01*
X009372Y015154D01*
X009394Y015223D01*
X009406Y015295D01*
X009406Y015327D01*
X008669Y015327D01*
X008669Y015334D01*
X008662Y015334D01*
X008662Y015791D01*
X008350Y015791D01*
X008278Y015779D01*
X008209Y015757D01*
X008145Y015724D01*
X008086Y015682D01*
X008057Y015653D01*
X008057Y016009D01*
X008086Y015980D01*
X008145Y015937D01*
X008209Y015904D01*
X008278Y015882D01*
X008350Y015871D01*
X008662Y015871D01*
X008662Y016327D01*
X008669Y016327D01*
X008669Y015871D01*
X008982Y015871D01*
X009054Y015882D01*
X009122Y015904D01*
X009187Y015937D01*
X009245Y015980D01*
X009297Y016031D01*
X009339Y016090D01*
X009372Y016154D01*
X009394Y016223D01*
X009406Y016295D01*
X009406Y016327D01*
X008669Y016327D01*
X008669Y016334D01*
X008662Y016334D01*
X008662Y016791D01*
X008350Y016791D01*
X008278Y016779D01*
X008209Y016757D01*
X008145Y016724D01*
X008086Y016682D01*
X008057Y016653D01*
X008057Y017009D01*
X008086Y016980D01*
X008145Y016937D01*
X008209Y016904D01*
X008278Y016882D01*
X008350Y016871D01*
X008662Y016871D01*
X008662Y017327D01*
X008669Y017327D01*
X008669Y016871D01*
X008982Y016871D01*
X009054Y016882D01*
X009122Y016904D01*
X009187Y016937D01*
X009245Y016980D01*
X009297Y017031D01*
X009339Y017090D01*
X009372Y017154D01*
X009394Y017223D01*
X009406Y017295D01*
X009406Y017327D01*
X008669Y017327D01*
X008669Y017334D01*
X008662Y017334D01*
X008662Y017791D01*
X008350Y017791D01*
X008278Y017779D01*
X008209Y017757D01*
X008145Y017724D01*
X008086Y017682D01*
X008057Y017653D01*
X008057Y018257D01*
X008112Y018257D01*
X008205Y018351D01*
X008205Y018860D01*
X008112Y018953D01*
X007603Y018953D01*
X007509Y018860D01*
X007509Y018351D01*
X007603Y018257D01*
X007657Y018257D01*
X007657Y017316D01*
X007546Y017427D01*
X007309Y017664D01*
X007309Y017824D01*
X007364Y017824D01*
X007457Y017918D01*
X007457Y018427D01*
X007364Y018520D01*
X006855Y018520D01*
X006761Y018427D01*
X006761Y017918D01*
X006855Y017824D01*
X006909Y017824D01*
X006909Y017499D01*
X007111Y017297D01*
X006500Y017297D01*
X006497Y017294D01*
X006478Y017304D01*
X006432Y017317D01*
X006200Y017317D01*
X006200Y016889D01*
X006104Y016889D01*
X006104Y016793D01*
X006200Y016793D01*
X006200Y016366D01*
X006432Y016366D01*
X006478Y016378D01*
X006497Y016389D01*
X006500Y016386D01*
X006532Y016386D01*
X006446Y016301D01*
X006446Y015792D01*
X006496Y015742D01*
X005826Y015742D01*
X005732Y015648D01*
X005732Y015004D01*
X005744Y014991D01*
X005732Y014979D01*
X005732Y014897D01*
X004760Y014897D01*
X004760Y014979D01*
X004748Y014991D01*
X004760Y015004D01*
X004760Y015423D01*
X005578Y016240D01*
X005695Y016357D01*
X005695Y017459D01*
X007928Y019693D01*
X007944Y019693D01*
X007944Y019501D01*
X008014Y019332D01*
X008144Y019203D01*
X008313Y019133D01*
X008496Y019133D01*
X008665Y019203D01*
X008794Y019332D01*
X008864Y019501D01*
X008864Y020284D01*
X008794Y020453D01*
X008665Y020583D01*
X008496Y020653D01*
X008313Y020653D01*
X008144Y020583D01*
X008014Y020453D01*
X007944Y020284D01*
X007944Y020093D01*
X007763Y020093D01*
X007645Y019975D01*
X005295Y017625D01*
X005295Y016523D01*
X004514Y015742D01*
X003944Y015742D01*
X003850Y015648D01*
X003850Y015004D01*
X003862Y014991D01*
X003850Y014979D01*
X003850Y014897D01*
X003720Y014897D01*
X003484Y015133D01*
X003484Y015526D01*
X003498Y015526D01*
X003592Y015619D01*
X003592Y016128D01*
X003498Y016222D01*
X002989Y016222D01*
X002896Y016128D01*
X002896Y015619D01*
X002989Y015526D01*
X003004Y015526D01*
X003004Y014986D01*
X003040Y014898D01*
X003108Y014830D01*
X003485Y014453D01*
X003573Y014417D01*
X003850Y014417D01*
X003850Y014335D01*
X003944Y014241D01*
X004667Y014241D01*
X004760Y014335D01*
X004760Y014417D01*
X005732Y014417D01*
X005732Y014335D01*
X005826Y014241D01*
X006549Y014241D01*
X006642Y014335D01*
X006642Y014979D01*
X006630Y014991D01*
X006642Y015004D01*
X006642Y015098D01*
X006879Y015098D01*
X006879Y015044D01*
X006973Y014950D01*
X007382Y014950D01*
X007382Y012472D01*
X007352Y012442D01*
X007352Y011933D01*
X007445Y011840D01*
X007954Y011840D01*
X008048Y011933D01*
X008048Y012047D01*
X008137Y011958D01*
X008298Y011891D01*
X008823Y011891D01*
X008943Y011771D01*
X008298Y011771D01*
X008137Y011704D01*
X008013Y011580D01*
X007946Y011418D01*
X007946Y011243D01*
X007973Y011179D01*
X007404Y011179D01*
X007404Y011728D01*
X007367Y011816D01*
X007300Y011883D01*
X006642Y012541D01*
X006642Y012979D01*
X006639Y012982D01*
X006650Y013001D01*
X006662Y013046D01*
X006662Y013278D01*
X006235Y013278D01*
X006235Y013374D01*
X006139Y013374D01*
X006139Y013278D01*
X005712Y013278D01*
X005712Y013046D01*
X005724Y013001D01*
X005735Y012982D01*
X005732Y012979D01*
X005732Y012335D01*
X005826Y012241D01*
X006264Y012241D01*
X006924Y011581D01*
X006924Y011179D01*
X006612Y011179D01*
X006549Y011242D01*
X005826Y011242D01*
X005732Y011148D01*
X005732Y010504D01*
X005735Y010501D01*
X005724Y010482D01*
X005712Y010436D01*
X005712Y010205D01*
X006139Y010205D01*
X006139Y010109D01*
X005712Y010109D01*
X005712Y009877D01*
X005724Y009831D01*
X005748Y009790D01*
X005781Y009757D01*
X005822Y009733D01*
X005868Y009721D01*
X006139Y009721D01*
X006139Y010109D01*
X006235Y010109D01*
X006235Y010205D01*
X006662Y010205D01*
X006662Y010436D01*
X006650Y010482D01*
X006639Y010501D01*
X006642Y010504D01*
X006642Y010699D01*
X008132Y010699D01*
X008013Y010580D01*
X007946Y010418D01*
X007946Y010243D01*
X008013Y010082D01*
X008137Y009958D01*
X008298Y009891D01*
X009033Y009891D01*
X009195Y009958D01*
X009319Y010082D01*
X009386Y010243D01*
X009386Y010418D01*
X009319Y010580D01*
X009195Y010704D01*
X009033Y010771D01*
X008906Y010771D01*
X008906Y010891D01*
X009033Y010891D01*
X009195Y010958D01*
X009319Y011082D01*
X009386Y011243D01*
X009386Y011328D01*
X009389Y011324D01*
X009389Y009872D01*
X008656Y009139D01*
X004643Y009139D01*
X004526Y009022D01*
X004315Y008811D01*
X004245Y008811D01*
X004151Y008717D01*
X004151Y007985D01*
X004245Y007891D01*
X004261Y007891D01*
X004261Y006611D01*
X004245Y006611D01*
X004151Y006517D01*
X004151Y005785D01*
X004245Y005691D01*
X004639Y005691D01*
X004753Y005576D01*
X004753Y005162D01*
X004847Y005068D01*
X005356Y005068D01*
X005449Y005162D01*
X005449Y005671D01*
X005356Y005764D01*
X005131Y005764D01*
X004771Y006124D01*
X004771Y006517D01*
X004678Y006611D01*
X004661Y006611D01*
X004770Y006518D02*
X005643Y006518D01*
X005631Y006360D02*
X004771Y006360D01*
X004771Y006201D02*
X005631Y006201D01*
X005631Y006043D02*
X004852Y006043D01*
X005011Y005884D02*
X005631Y005884D01*
X005682Y005726D02*
X005394Y005726D01*
X005449Y005567D02*
X006217Y005567D01*
X006058Y005409D02*
X005449Y005409D01*
X005449Y005250D02*
X005900Y005250D01*
X005741Y005092D02*
X005379Y005092D01*
X005583Y004933D02*
X001609Y004933D01*
X001770Y004775D02*
X005424Y004775D01*
X005266Y004616D02*
X001931Y004616D01*
X002093Y004458D02*
X003887Y004458D01*
X003688Y004299D02*
X002254Y004299D01*
X002415Y004141D02*
X003622Y004141D01*
X003618Y003982D02*
X002577Y003982D01*
X002738Y003824D02*
X003618Y003824D01*
X003618Y003665D02*
X002899Y003665D01*
X003061Y003507D02*
X003618Y003507D01*
X004823Y005092D02*
X001447Y005092D01*
X001286Y005250D02*
X004753Y005250D01*
X004753Y005409D02*
X001125Y005409D01*
X000963Y005567D02*
X001486Y005567D01*
X001456Y005580D02*
X001685Y005485D01*
X001933Y005485D01*
X002162Y005580D01*
X002338Y005756D01*
X002433Y005985D01*
X002433Y006233D01*
X002338Y006462D01*
X002162Y006638D01*
X001933Y006733D01*
X001685Y006733D01*
X001456Y006638D01*
X001280Y006462D01*
X001185Y006233D01*
X001185Y005985D01*
X001280Y005756D01*
X001456Y005580D01*
X001310Y005726D02*
X000962Y005726D01*
X000962Y005884D02*
X001227Y005884D01*
X001185Y006043D02*
X000962Y006043D01*
X000962Y006201D02*
X001185Y006201D01*
X001238Y006360D02*
X000962Y006360D01*
X000962Y006518D02*
X001336Y006518D01*
X001550Y006677D02*
X000962Y006677D01*
X000962Y006835D02*
X004261Y006835D01*
X004261Y006677D02*
X002067Y006677D01*
X002281Y006518D02*
X004153Y006518D01*
X004151Y006360D02*
X002380Y006360D01*
X002433Y006201D02*
X004151Y006201D01*
X004151Y006043D02*
X002433Y006043D01*
X002391Y005884D02*
X004151Y005884D01*
X004210Y005726D02*
X002308Y005726D01*
X002131Y005567D02*
X004753Y005567D01*
X005961Y006360D02*
X005962Y006360D01*
X005961Y006518D02*
X005962Y006518D01*
X004661Y006835D02*
X007485Y006835D01*
X007643Y006994D02*
X004661Y006994D01*
X004661Y007152D02*
X007802Y007152D01*
X007960Y007311D02*
X004661Y007311D01*
X004661Y007469D02*
X008119Y007469D01*
X008277Y007628D02*
X004661Y007628D01*
X004661Y007786D02*
X008436Y007786D01*
X008583Y007945D02*
X006258Y007945D01*
X006256Y007940D02*
X006279Y007981D01*
X006291Y008027D01*
X006291Y008351D01*
X005962Y008351D01*
X005962Y008351D01*
X005962Y007871D01*
X006135Y007871D01*
X006181Y007883D01*
X006222Y007907D01*
X006256Y007940D01*
X006291Y008103D02*
X008583Y008103D01*
X008583Y008262D02*
X006291Y008262D01*
X006291Y008420D02*
X008695Y008420D01*
X008853Y008579D02*
X006291Y008579D01*
X006269Y008737D02*
X009455Y008737D01*
X009613Y008896D02*
X008979Y008896D01*
X009137Y009054D02*
X009772Y009054D01*
X009930Y009213D02*
X009296Y009213D01*
X009454Y009371D02*
X010089Y009371D01*
X009771Y009688D02*
X011206Y009688D01*
X011364Y009847D02*
X009789Y009847D01*
X009789Y010005D02*
X010106Y010005D01*
X009989Y010164D02*
X009789Y010164D01*
X009789Y010322D02*
X009952Y010322D01*
X009974Y010481D02*
X009789Y010481D01*
X009789Y010639D02*
X010068Y010639D01*
X009789Y010798D02*
X011815Y010798D01*
X011974Y010956D02*
X011172Y010956D01*
X011335Y011115D02*
X012114Y011115D01*
X012114Y011273D02*
X011406Y011273D01*
X011565Y011432D02*
X012114Y011432D01*
X012114Y011590D02*
X011689Y011590D01*
X011707Y011749D02*
X012114Y011749D01*
X012114Y011907D02*
X011865Y011907D01*
X012024Y012066D02*
X012114Y012066D01*
X011775Y012383D02*
X011392Y012383D01*
X011380Y012224D02*
X011617Y012224D01*
X011458Y012066D02*
X011299Y012066D01*
X011300Y011907D02*
X011054Y011907D01*
X011118Y011749D02*
X011289Y011749D01*
X010290Y011907D02*
X009372Y011907D01*
X009303Y012066D02*
X010045Y012066D01*
X009964Y012224D02*
X009378Y012224D01*
X009386Y012383D02*
X009952Y012383D01*
X009955Y012541D02*
X009999Y012541D01*
X009977Y012700D02*
X010128Y012700D01*
X009977Y012858D02*
X011040Y012858D01*
X011447Y012700D02*
X012092Y012700D01*
X012251Y012858D02*
X011606Y012858D01*
X011719Y013017D02*
X012409Y013017D01*
X012568Y013175D02*
X011719Y013175D01*
X011719Y013334D02*
X012714Y013334D01*
X012714Y013492D02*
X011719Y013492D01*
X011719Y013651D02*
X012714Y013651D01*
X012714Y013809D02*
X011719Y013809D01*
X011719Y013968D02*
X012714Y013968D01*
X012844Y014126D02*
X011815Y014126D01*
X011867Y014285D02*
X013002Y014285D01*
X013161Y014443D02*
X011867Y014443D01*
X011867Y014602D02*
X013319Y014602D01*
X013827Y014760D02*
X012543Y014760D01*
X012702Y014919D02*
X013827Y014919D01*
X013827Y015077D02*
X012860Y015077D01*
X013019Y015236D02*
X013812Y015236D01*
X013807Y015337D02*
X013899Y015337D01*
X013899Y015337D01*
X013899Y015337D01*
X013807Y015337D01*
X013807Y015394D02*
X013177Y015394D01*
X013336Y015553D02*
X013827Y015553D01*
X013827Y015711D02*
X013494Y015711D01*
X014738Y015890D02*
X014738Y016416D01*
X015243Y016416D01*
X015337Y016509D01*
X015337Y017018D01*
X015243Y017112D01*
X015064Y017112D01*
X015064Y017261D01*
X015270Y017467D01*
X015270Y017530D01*
X015434Y017366D01*
X015551Y017249D01*
X015796Y017249D01*
X016189Y016856D01*
X016189Y015094D01*
X015521Y014426D01*
X015201Y014426D01*
X015107Y014332D01*
X015107Y013963D01*
X014738Y013963D01*
X014738Y014085D01*
X014738Y015196D01*
X014745Y015209D01*
X014758Y015255D01*
X014758Y015337D01*
X014750Y015337D01*
X014750Y015337D01*
X014758Y015337D01*
X014758Y015345D01*
X014874Y015461D01*
X014924Y015411D01*
X015433Y015411D01*
X015527Y015504D01*
X015527Y016013D01*
X015433Y016107D01*
X014924Y016107D01*
X014831Y016013D01*
X014831Y015969D01*
X014816Y015969D01*
X014738Y015890D01*
X014738Y016028D02*
X014846Y016028D01*
X014738Y016187D02*
X016189Y016187D01*
X016189Y016345D02*
X014738Y016345D01*
X015339Y016239D02*
X015339Y017389D01*
X015267Y017461D01*
X015258Y017455D02*
X015345Y017455D01*
X015503Y017296D02*
X015099Y017296D01*
X015064Y017138D02*
X015907Y017138D01*
X016065Y016979D02*
X015337Y016979D01*
X015337Y016821D02*
X016189Y016821D01*
X016189Y016662D02*
X015337Y016662D01*
X015331Y016504D02*
X016189Y016504D01*
X016189Y016028D02*
X015512Y016028D01*
X015527Y015870D02*
X016189Y015870D01*
X016189Y015711D02*
X015527Y015711D01*
X015527Y015553D02*
X016189Y015553D01*
X016189Y015394D02*
X014807Y015394D01*
X014790Y015337D02*
X015014Y015114D01*
X015589Y015114D01*
X015839Y015364D01*
X015839Y015739D01*
X015339Y016239D01*
X014753Y015236D02*
X016189Y015236D01*
X016173Y015077D02*
X014738Y015077D01*
X014738Y014919D02*
X016014Y014919D01*
X015856Y014760D02*
X014738Y014760D01*
X014738Y014602D02*
X015697Y014602D01*
X015539Y014443D02*
X014738Y014443D01*
X014738Y014285D02*
X015107Y014285D01*
X015107Y014126D02*
X014738Y014126D01*
X014738Y013968D02*
X015107Y013968D01*
X016054Y012704D02*
X016514Y013164D01*
X016240Y011273D02*
X015926Y011273D01*
X015768Y011115D02*
X016240Y011115D01*
X016146Y010956D02*
X015609Y010956D01*
X015528Y010798D02*
X015987Y010798D01*
X015889Y010967D02*
X015889Y011007D01*
X015829Y010639D02*
X015528Y010639D01*
X015453Y010481D02*
X015670Y010481D01*
X015189Y009213D02*
X014039Y009213D01*
X014039Y009054D02*
X015257Y009054D01*
X015287Y008896D02*
X014039Y008896D01*
X014039Y008737D02*
X015287Y008737D01*
X015287Y008579D02*
X014039Y008579D01*
X014039Y008420D02*
X015287Y008420D01*
X015286Y008262D02*
X014039Y008262D01*
X014039Y008103D02*
X015292Y008103D01*
X015091Y007945D02*
X014912Y007945D01*
X014923Y007927D02*
X014899Y007968D01*
X014865Y008001D01*
X014824Y008025D01*
X014779Y008037D01*
X014557Y008037D01*
X014557Y007659D01*
X014935Y007659D01*
X014935Y007881D01*
X014923Y007927D01*
X014935Y007786D02*
X015091Y007786D01*
X015091Y007628D02*
X014557Y007628D01*
X014557Y007659D02*
X014557Y007583D01*
X014935Y007583D01*
X014935Y007361D01*
X014923Y007315D01*
X014899Y007274D01*
X014865Y007241D01*
X014824Y007217D01*
X014779Y007205D01*
X014557Y007205D01*
X014557Y007583D01*
X014480Y007583D01*
X014102Y007583D01*
X014102Y007361D01*
X014115Y007315D01*
X014138Y007274D01*
X014172Y007241D01*
X014213Y007217D01*
X014259Y007205D01*
X014480Y007205D01*
X014480Y007583D01*
X014480Y007659D01*
X014102Y007659D01*
X014102Y007881D01*
X014115Y007927D01*
X014138Y007968D01*
X014172Y008001D01*
X014213Y008025D01*
X014259Y008037D01*
X014480Y008037D01*
X014480Y007659D01*
X014557Y007659D01*
X014519Y007621D02*
X014519Y007865D01*
X014865Y008211D01*
X014557Y007945D02*
X014480Y007945D01*
X014480Y007786D02*
X014557Y007786D01*
X014480Y007628D02*
X014088Y007628D01*
X014088Y007786D02*
X014102Y007786D01*
X014125Y007945D02*
X014067Y007945D01*
X014088Y007469D02*
X014102Y007469D01*
X014117Y007311D02*
X014080Y007311D01*
X014480Y007311D02*
X014557Y007311D01*
X014557Y007469D02*
X014480Y007469D01*
X014935Y007469D02*
X015091Y007469D01*
X015091Y007311D02*
X014920Y007311D01*
X015692Y008103D02*
X015976Y008103D01*
X015976Y008262D02*
X015687Y008262D01*
X015687Y008420D02*
X015976Y008420D01*
X014183Y010164D02*
X014164Y010164D01*
X011657Y010639D02*
X011276Y010639D01*
X011238Y010005D02*
X011523Y010005D01*
X011047Y009530D02*
X009613Y009530D01*
X009364Y009847D02*
X006654Y009847D01*
X006650Y009831D02*
X006662Y009877D01*
X006662Y010109D01*
X006235Y010109D01*
X006235Y009721D01*
X006506Y009721D01*
X006552Y009733D01*
X006593Y009757D01*
X006626Y009790D01*
X006650Y009831D01*
X006662Y010005D02*
X008089Y010005D01*
X007979Y010164D02*
X006235Y010164D01*
X006139Y010164D02*
X004820Y010164D01*
X004726Y010258D01*
X003885Y010258D01*
X003791Y010164D01*
X003791Y009647D01*
X003508Y009364D01*
X003508Y011520D01*
X004229Y012241D01*
X004667Y012241D01*
X004760Y012335D01*
X004760Y012979D01*
X004748Y012991D01*
X004760Y013004D01*
X004760Y013126D01*
X004825Y013126D01*
X004901Y013050D01*
X004901Y012040D01*
X004840Y011978D01*
X004458Y011596D01*
X003885Y011596D01*
X003791Y011503D01*
X003791Y010819D01*
X003885Y010725D01*
X004726Y010725D01*
X004820Y010819D01*
X004820Y011392D01*
X005040Y011612D01*
X005215Y011437D01*
X005856Y011437D01*
X005856Y011382D01*
X005949Y011289D01*
X006458Y011289D01*
X006552Y011382D01*
X006552Y011891D01*
X006458Y011985D01*
X005949Y011985D01*
X005856Y011891D01*
X005856Y011837D01*
X005381Y011837D01*
X005301Y011916D01*
X005301Y013216D01*
X005108Y013409D01*
X004991Y013526D01*
X004760Y013526D01*
X004760Y013648D01*
X004667Y013742D01*
X004172Y013742D01*
X003224Y014690D01*
X003107Y014807D01*
X002742Y014807D01*
X002742Y014929D01*
X002739Y014932D01*
X002750Y014951D01*
X002762Y014996D01*
X002762Y015228D01*
X002335Y015228D01*
X002335Y015324D01*
X002239Y015324D01*
X002239Y015228D01*
X001812Y015228D01*
X001812Y014996D01*
X001824Y014951D01*
X001835Y014932D01*
X001832Y014929D01*
X001832Y014285D01*
X000962Y014285D01*
X000962Y014443D02*
X001832Y014443D01*
X001832Y014285D02*
X001926Y014191D01*
X002649Y014191D01*
X002742Y014285D01*
X003064Y014285D01*
X002942Y014407D02*
X003850Y013498D01*
X003850Y013004D01*
X003862Y012991D01*
X003850Y012979D01*
X003850Y012541D01*
X003599Y012290D01*
X003599Y012757D01*
X003505Y012851D01*
X002996Y012851D01*
X002903Y012757D01*
X002903Y012703D01*
X002742Y012703D01*
X002742Y012829D01*
X002739Y012832D01*
X002750Y012851D01*
X002762Y012896D01*
X002762Y013128D01*
X002335Y013128D01*
X002335Y013224D01*
X002239Y013224D01*
X002239Y013128D01*
X001812Y013128D01*
X001812Y012896D01*
X001824Y012851D01*
X001835Y012832D01*
X001832Y012829D01*
X001832Y012185D01*
X001926Y012091D01*
X002649Y012091D01*
X002742Y012185D01*
X002742Y012303D01*
X002903Y012303D01*
X002903Y012248D01*
X002996Y012155D01*
X003464Y012155D01*
X003132Y011823D01*
X003064Y011755D01*
X003028Y011667D01*
X003028Y008964D01*
X002526Y009467D01*
X002526Y009580D01*
X002647Y009580D01*
X002741Y009674D01*
X002741Y010318D01*
X002738Y010321D01*
X002749Y010340D01*
X002761Y010385D01*
X002761Y010617D01*
X002333Y010617D01*
X002333Y010713D01*
X002238Y010713D01*
X002238Y011101D01*
X001967Y011101D01*
X001921Y011089D01*
X001880Y011065D01*
X001846Y011031D01*
X001823Y010990D01*
X001810Y010945D01*
X001810Y010713D01*
X002238Y010713D01*
X002238Y010617D01*
X001810Y010617D01*
X001810Y010385D01*
X001823Y010340D01*
X001833Y010321D01*
X001830Y010318D01*
X001830Y009674D01*
X001924Y009580D01*
X002046Y009580D01*
X002046Y009319D01*
X002082Y009231D01*
X002816Y008498D01*
X002816Y008234D01*
X002909Y008141D01*
X003418Y008141D01*
X003512Y008234D01*
X003512Y008689D01*
X004209Y009387D01*
X004726Y009387D01*
X004820Y009480D01*
X004820Y010164D01*
X004820Y010005D02*
X005712Y010005D01*
X005720Y009847D02*
X004820Y009847D01*
X004820Y009688D02*
X009206Y009688D01*
X009047Y009530D02*
X004820Y009530D01*
X004472Y009822D02*
X004305Y009822D01*
X003268Y008785D01*
X003268Y011619D01*
X004305Y012657D01*
X003850Y012700D02*
X003599Y012700D01*
X003599Y012541D02*
X003850Y012541D01*
X003692Y012383D02*
X003599Y012383D01*
X003375Y012066D02*
X000962Y012066D01*
X000962Y012224D02*
X001832Y012224D01*
X001832Y012383D02*
X000962Y012383D01*
X000962Y012541D02*
X001832Y012541D01*
X001832Y012700D02*
X000962Y012700D01*
X000962Y012858D02*
X001822Y012858D01*
X001812Y013017D02*
X000962Y013017D01*
X000962Y013175D02*
X002239Y013175D01*
X002239Y013224D02*
X001812Y013224D01*
X001812Y013456D01*
X001824Y013501D01*
X001848Y013542D01*
X001881Y013576D01*
X001922Y013600D01*
X001968Y013612D01*
X002239Y013612D01*
X002239Y013224D01*
X002335Y013224D02*
X002335Y013612D01*
X002606Y013612D01*
X002652Y013600D01*
X002693Y013576D01*
X002726Y013542D01*
X002750Y013501D01*
X002762Y013456D01*
X002762Y013224D01*
X002335Y013224D01*
X002335Y013175D02*
X003850Y013175D01*
X003850Y013017D02*
X002762Y013017D01*
X002752Y012858D02*
X003850Y012858D01*
X003850Y013334D02*
X002762Y013334D01*
X002753Y013492D02*
X003850Y013492D01*
X003698Y013651D02*
X000962Y013651D01*
X000962Y013809D02*
X003539Y013809D01*
X003381Y013968D02*
X000962Y013968D01*
X000962Y014126D02*
X003222Y014126D01*
X002942Y014407D02*
X002742Y014407D01*
X002742Y014285D01*
X003154Y014760D02*
X003178Y014760D01*
X003312Y014602D02*
X003336Y014602D01*
X003471Y014443D02*
X003509Y014443D01*
X003629Y014285D02*
X003900Y014285D01*
X003788Y014126D02*
X007382Y014126D01*
X007382Y013968D02*
X003946Y013968D01*
X004105Y013809D02*
X007382Y013809D01*
X007382Y013651D02*
X006650Y013651D01*
X006626Y013692D01*
X006593Y013726D01*
X006552Y013750D01*
X006506Y013762D01*
X006235Y013762D01*
X006235Y013374D01*
X006662Y013374D01*
X006662Y013606D01*
X006650Y013651D01*
X006662Y013492D02*
X007382Y013492D01*
X007382Y013334D02*
X006235Y013334D01*
X006139Y013334D02*
X005183Y013334D01*
X005301Y013175D02*
X005712Y013175D01*
X005720Y013017D02*
X005301Y013017D01*
X005301Y012858D02*
X005732Y012858D01*
X005732Y012700D02*
X005301Y012700D01*
X005301Y012541D02*
X005732Y012541D01*
X005732Y012383D02*
X005301Y012383D01*
X005301Y012224D02*
X006280Y012224D01*
X006439Y012066D02*
X005301Y012066D01*
X005310Y011907D02*
X005872Y011907D01*
X005856Y011432D02*
X004859Y011432D01*
X004820Y011273D02*
X006924Y011273D01*
X006924Y011432D02*
X006552Y011432D01*
X006552Y011590D02*
X006914Y011590D01*
X006756Y011749D02*
X006552Y011749D01*
X006535Y011907D02*
X006597Y011907D01*
X006959Y012224D02*
X007352Y012224D01*
X007352Y012066D02*
X007117Y012066D01*
X007276Y011907D02*
X007378Y011907D01*
X007395Y011749D02*
X008245Y011749D01*
X008258Y011907D02*
X008022Y011907D01*
X008023Y011590D02*
X007404Y011590D01*
X007404Y011432D02*
X007951Y011432D01*
X007946Y011273D02*
X007404Y011273D01*
X007164Y010939D02*
X007164Y011680D01*
X006187Y012657D01*
X006642Y012700D02*
X007382Y012700D01*
X007382Y012858D02*
X006642Y012858D01*
X006654Y013017D02*
X007382Y013017D01*
X007382Y013175D02*
X006662Y013175D01*
X006235Y013492D02*
X006139Y013492D01*
X006139Y013374D02*
X006139Y013762D01*
X005868Y013762D01*
X005822Y013750D01*
X005781Y013726D01*
X005748Y013692D01*
X005724Y013651D01*
X004758Y013651D01*
X005024Y013492D02*
X005712Y013492D01*
X005712Y013606D02*
X005712Y013374D01*
X006139Y013374D01*
X006139Y013651D02*
X006235Y013651D01*
X005724Y013651D02*
X005712Y013606D01*
X005782Y014285D02*
X004711Y014285D01*
X004305Y014657D02*
X006187Y014657D01*
X005732Y014919D02*
X004760Y014919D01*
X004760Y015077D02*
X005732Y015077D01*
X005732Y015236D02*
X004760Y015236D01*
X004760Y015394D02*
X005732Y015394D01*
X005732Y015553D02*
X004891Y015553D01*
X005049Y015711D02*
X005795Y015711D01*
X005366Y016028D02*
X006446Y016028D01*
X006446Y015870D02*
X005208Y015870D01*
X004959Y016187D02*
X004465Y016187D01*
X004465Y016345D02*
X005118Y016345D01*
X005144Y016386D02*
X005238Y016480D01*
X005238Y017203D01*
X005144Y017297D01*
X005144Y017297D01*
X005144Y017863D01*
X005198Y017863D01*
X005292Y017957D01*
X005292Y018466D01*
X005198Y018560D01*
X004689Y018560D01*
X004596Y018466D01*
X004596Y017957D01*
X004689Y017863D01*
X004744Y017863D01*
X004744Y017297D01*
X004500Y017297D01*
X004487Y017284D01*
X004475Y017297D01*
X004352Y017297D01*
X004352Y018979D01*
X004239Y019093D01*
X004287Y019093D01*
X004456Y019163D01*
X004586Y019293D01*
X004656Y019462D01*
X004656Y020245D01*
X004586Y020414D01*
X004456Y020543D01*
X004287Y020613D01*
X004104Y020613D01*
X003935Y020543D01*
X003806Y020414D01*
X003736Y020245D01*
X003736Y019596D01*
X003656Y019676D01*
X003656Y020245D01*
X003586Y020414D01*
X003456Y020543D01*
X003287Y020613D01*
X003104Y020613D01*
X002935Y020543D01*
X002806Y020414D01*
X002736Y020245D01*
X002736Y019462D01*
X002806Y019293D01*
X002935Y019163D01*
X003104Y019093D01*
X003287Y019093D01*
X003456Y019163D01*
X003530Y019237D01*
X003952Y018814D01*
X003952Y017297D01*
X003830Y017297D01*
X003737Y017203D01*
X003737Y016480D01*
X003803Y016413D01*
X003769Y016379D01*
X003769Y015870D01*
X003863Y015777D01*
X004371Y015777D01*
X004465Y015870D01*
X004642Y015870D01*
X004465Y015870D02*
X004465Y016379D01*
X004458Y016386D01*
X004475Y016386D01*
X004487Y016399D01*
X004500Y016386D01*
X005144Y016386D01*
X005238Y016504D02*
X005276Y016504D01*
X005295Y016662D02*
X005238Y016662D01*
X005238Y016821D02*
X005295Y016821D01*
X005295Y016979D02*
X005238Y016979D01*
X005238Y017138D02*
X005295Y017138D01*
X005295Y017296D02*
X005144Y017296D01*
X005144Y017455D02*
X005295Y017455D01*
X005295Y017613D02*
X005144Y017613D01*
X005144Y017772D02*
X005442Y017772D01*
X005600Y017930D02*
X005265Y017930D01*
X005292Y018089D02*
X005759Y018089D01*
X005917Y018247D02*
X005292Y018247D01*
X005292Y018406D02*
X006076Y018406D01*
X006234Y018564D02*
X004352Y018564D01*
X004352Y018406D02*
X004596Y018406D01*
X004596Y018247D02*
X004352Y018247D01*
X004352Y018089D02*
X004596Y018089D01*
X004622Y017930D02*
X004352Y017930D01*
X004352Y017772D02*
X004744Y017772D01*
X004744Y017613D02*
X004352Y017613D01*
X004352Y017455D02*
X004744Y017455D01*
X004499Y017296D02*
X004475Y017296D01*
X003952Y017455D02*
X002974Y017455D01*
X002961Y017423D02*
X003031Y017592D01*
X003031Y017775D01*
X002961Y017945D01*
X002831Y018074D01*
X002662Y018144D01*
X001879Y018144D01*
X001710Y018074D01*
X001581Y017945D01*
X001511Y017775D01*
X001511Y017592D01*
X001581Y017423D01*
X001710Y017294D01*
X001879Y017224D01*
X002662Y017224D01*
X002831Y017294D01*
X002961Y017423D01*
X002834Y017296D02*
X003830Y017296D01*
X003737Y017138D02*
X002677Y017138D01*
X002662Y017144D02*
X001879Y017144D01*
X001710Y017074D01*
X001581Y016945D01*
X001511Y016775D01*
X001511Y016592D01*
X001581Y016423D01*
X001710Y016294D01*
X001879Y016224D01*
X002662Y016224D01*
X002831Y016294D01*
X002961Y016423D01*
X003031Y016592D01*
X003031Y016775D01*
X002961Y016945D01*
X002831Y017074D01*
X002662Y017144D01*
X002926Y016979D02*
X003737Y016979D01*
X003737Y016821D02*
X003012Y016821D01*
X003031Y016662D02*
X003737Y016662D01*
X003737Y016504D02*
X002994Y016504D01*
X002883Y016345D02*
X003769Y016345D01*
X003769Y016187D02*
X003533Y016187D01*
X003592Y016028D02*
X003769Y016028D01*
X003770Y015870D02*
X003592Y015870D01*
X003592Y015711D02*
X003913Y015711D01*
X003850Y015553D02*
X003525Y015553D01*
X003484Y015394D02*
X003850Y015394D01*
X003850Y015236D02*
X003484Y015236D01*
X003540Y015077D02*
X003850Y015077D01*
X003850Y014919D02*
X003698Y014919D01*
X003621Y014657D02*
X003244Y015034D01*
X003244Y015874D01*
X002896Y015870D02*
X000962Y015870D01*
X000962Y016028D02*
X002896Y016028D01*
X002954Y016187D02*
X000962Y016187D01*
X000962Y016345D02*
X001659Y016345D01*
X001547Y016504D02*
X000962Y016504D01*
X000962Y016662D02*
X001511Y016662D01*
X001529Y016821D02*
X000962Y016821D01*
X000962Y016979D02*
X001615Y016979D01*
X001864Y017138D02*
X000962Y017138D01*
X000962Y017296D02*
X001708Y017296D01*
X001568Y017455D02*
X000962Y017455D01*
X000962Y017613D02*
X001511Y017613D01*
X001511Y017772D02*
X000962Y017772D01*
X000962Y017930D02*
X001575Y017930D01*
X001746Y018089D02*
X000962Y018089D01*
X000962Y018247D02*
X003952Y018247D01*
X003952Y018089D02*
X002795Y018089D01*
X002966Y017930D02*
X003952Y017930D01*
X003952Y017772D02*
X003031Y017772D01*
X003031Y017613D02*
X003952Y017613D01*
X003952Y018406D02*
X001926Y018406D01*
X002161Y018564D02*
X003952Y018564D01*
X003952Y018723D02*
X002269Y018723D01*
X002328Y018881D02*
X003885Y018881D01*
X003726Y019040D02*
X002328Y019040D01*
X002292Y019198D02*
X002900Y019198D01*
X002779Y019357D02*
X002218Y019357D01*
X002059Y019515D02*
X002736Y019515D01*
X002736Y019674D02*
X001512Y019674D01*
X001671Y019832D02*
X002736Y019832D01*
X002736Y019991D02*
X001829Y019991D01*
X001988Y020149D02*
X002736Y020149D01*
X002762Y020308D02*
X002146Y020308D01*
X002305Y020466D02*
X002858Y020466D01*
X002463Y020625D02*
X005105Y020625D01*
X005083Y020621D02*
X005011Y020598D01*
X004944Y020564D01*
X004883Y020519D01*
X004830Y020466D01*
X004785Y020405D01*
X004751Y020337D01*
X004728Y020266D01*
X004716Y020191D01*
X004716Y019873D01*
X005176Y019873D01*
X005176Y019833D01*
X005216Y019833D01*
X005216Y019873D01*
X005676Y019873D01*
X005676Y020191D01*
X005664Y020266D01*
X005641Y020337D01*
X005606Y020405D01*
X005562Y020466D01*
X005508Y020519D01*
X005447Y020564D01*
X005380Y020598D01*
X005308Y020621D01*
X005234Y020633D01*
X005216Y020633D01*
X005216Y019873D01*
X005176Y019873D01*
X005176Y020633D01*
X005158Y020633D01*
X005083Y020621D01*
X005176Y020625D02*
X005216Y020625D01*
X005286Y020625D02*
X008246Y020625D01*
X008028Y020466D02*
X006533Y020466D01*
X006586Y020414D02*
X006456Y020543D01*
X006287Y020613D01*
X006104Y020613D01*
X005935Y020543D01*
X005806Y020414D01*
X005736Y020245D01*
X005736Y019462D01*
X005806Y019293D01*
X005935Y019163D01*
X006104Y019093D01*
X006287Y019093D01*
X006456Y019163D01*
X006586Y019293D01*
X006656Y019462D01*
X006656Y020245D01*
X006586Y020414D01*
X006630Y020308D02*
X007954Y020308D01*
X007944Y020149D02*
X006656Y020149D01*
X006656Y019991D02*
X007661Y019991D01*
X007502Y019832D02*
X006656Y019832D01*
X006656Y019674D02*
X007344Y019674D01*
X007185Y019515D02*
X006656Y019515D01*
X006612Y019357D02*
X007027Y019357D01*
X006868Y019198D02*
X006491Y019198D01*
X006710Y019040D02*
X004292Y019040D01*
X004352Y018881D02*
X006551Y018881D01*
X006393Y018723D02*
X004352Y018723D01*
X004883Y019187D02*
X004944Y019143D01*
X005011Y019108D01*
X005083Y019085D01*
X005158Y019073D01*
X005176Y019073D01*
X005176Y019833D01*
X004716Y019833D01*
X004716Y019515D01*
X004656Y019515D01*
X004716Y019515D02*
X004728Y019441D01*
X004751Y019369D01*
X004785Y019302D01*
X004830Y019241D01*
X004883Y019187D01*
X004872Y019198D02*
X004491Y019198D01*
X004612Y019357D02*
X004757Y019357D01*
X004716Y019674D02*
X004656Y019674D01*
X004656Y019832D02*
X004716Y019832D01*
X004716Y019991D02*
X004656Y019991D01*
X004656Y020149D02*
X004716Y020149D01*
X004741Y020308D02*
X004630Y020308D01*
X004533Y020466D02*
X004830Y020466D01*
X005176Y020466D02*
X005216Y020466D01*
X005216Y020308D02*
X005176Y020308D01*
X005176Y020149D02*
X005216Y020149D01*
X005216Y019991D02*
X005176Y019991D01*
X005176Y019832D02*
X005216Y019832D01*
X005216Y019833D02*
X005216Y019073D01*
X005234Y019073D01*
X005308Y019085D01*
X005380Y019108D01*
X005447Y019143D01*
X005508Y019187D01*
X005562Y019241D01*
X005606Y019302D01*
X005641Y019369D01*
X005664Y019441D01*
X005676Y019515D01*
X005736Y019515D01*
X005676Y019515D02*
X005676Y019833D01*
X005216Y019833D01*
X005216Y019674D02*
X005176Y019674D01*
X005176Y019515D02*
X005216Y019515D01*
X005216Y019357D02*
X005176Y019357D01*
X005176Y019198D02*
X005216Y019198D01*
X005520Y019198D02*
X005900Y019198D01*
X005779Y019357D02*
X005634Y019357D01*
X005676Y019674D02*
X005736Y019674D01*
X005736Y019832D02*
X005676Y019832D01*
X005676Y019991D02*
X005736Y019991D01*
X005736Y020149D02*
X005676Y020149D01*
X005650Y020308D02*
X005762Y020308D01*
X005858Y020466D02*
X005561Y020466D01*
X003858Y020466D02*
X003533Y020466D01*
X003630Y020308D02*
X003762Y020308D01*
X003736Y020149D02*
X003656Y020149D01*
X003656Y019991D02*
X003736Y019991D01*
X003736Y019832D02*
X003656Y019832D01*
X003658Y019674D02*
X003736Y019674D01*
X003568Y019198D02*
X003491Y019198D01*
X001481Y018406D02*
X000962Y018406D01*
X000962Y018564D02*
X001246Y018564D01*
X001139Y018723D02*
X000962Y018723D01*
X000962Y018881D02*
X001080Y018881D01*
X001080Y019040D02*
X000962Y019040D01*
X001037Y019198D02*
X001116Y019198D01*
X004465Y016028D02*
X004801Y016028D01*
X005525Y016187D02*
X006446Y016187D01*
X006491Y016345D02*
X005683Y016345D01*
X005752Y016436D02*
X005786Y016402D01*
X005827Y016378D01*
X005873Y016366D01*
X006104Y016366D01*
X006104Y016793D01*
X005717Y016793D01*
X005717Y016522D01*
X005729Y016477D01*
X005752Y016436D01*
X005722Y016504D02*
X005695Y016504D01*
X005695Y016662D02*
X005717Y016662D01*
X005695Y016821D02*
X006104Y016821D01*
X006104Y016889D02*
X005717Y016889D01*
X005717Y017160D01*
X005729Y017206D01*
X005752Y017247D01*
X005786Y017281D01*
X005827Y017304D01*
X005873Y017317D01*
X006104Y017317D01*
X006104Y016889D01*
X006104Y016979D02*
X006200Y016979D01*
X006200Y017138D02*
X006104Y017138D01*
X006104Y017296D02*
X006200Y017296D01*
X006492Y017296D02*
X006499Y017296D01*
X006953Y017455D02*
X005695Y017455D01*
X005695Y017296D02*
X005813Y017296D01*
X005717Y017138D02*
X005695Y017138D01*
X005695Y016979D02*
X005717Y016979D01*
X006104Y016662D02*
X006200Y016662D01*
X006200Y016504D02*
X006104Y016504D01*
X005849Y017613D02*
X006909Y017613D01*
X006909Y017772D02*
X006007Y017772D01*
X006166Y017930D02*
X006761Y017930D01*
X006761Y018089D02*
X006324Y018089D01*
X006483Y018247D02*
X006761Y018247D01*
X006761Y018406D02*
X006641Y018406D01*
X006800Y018564D02*
X007509Y018564D01*
X007509Y018406D02*
X007457Y018406D01*
X007457Y018247D02*
X007657Y018247D01*
X007657Y018089D02*
X007457Y018089D01*
X007457Y017930D02*
X007657Y017930D01*
X007657Y017772D02*
X007309Y017772D01*
X007360Y017613D02*
X007657Y017613D01*
X007657Y017455D02*
X007519Y017455D01*
X008057Y017772D02*
X008255Y017772D01*
X008057Y017930D02*
X009005Y017930D01*
X009005Y017878D02*
X009099Y017785D01*
X009608Y017785D01*
X009701Y017878D01*
X009701Y018387D01*
X009608Y018481D01*
X009604Y018481D01*
X009604Y019178D01*
X009665Y019203D01*
X009794Y019332D01*
X009864Y019501D01*
X009864Y020284D01*
X009794Y020453D01*
X009665Y020583D01*
X009496Y020653D01*
X009313Y020653D01*
X009144Y020583D01*
X009014Y020453D01*
X008944Y020284D01*
X008944Y019501D01*
X009014Y019332D01*
X009144Y019203D01*
X009204Y019178D01*
X009204Y018481D01*
X009099Y018481D01*
X009005Y018387D01*
X009005Y017878D01*
X008982Y017791D02*
X008669Y017791D01*
X008669Y017334D01*
X009406Y017334D01*
X009406Y017367D01*
X009394Y017439D01*
X009372Y017507D01*
X009339Y017572D01*
X009297Y017630D01*
X009245Y017682D01*
X009187Y017724D01*
X009122Y017757D01*
X009054Y017779D01*
X008982Y017791D01*
X009077Y017772D02*
X009930Y017772D01*
X010088Y017930D02*
X009701Y017930D01*
X009701Y018089D02*
X010247Y018089D01*
X009701Y018247D02*
X014851Y018247D01*
X014851Y018089D02*
X013782Y018089D01*
X013941Y017930D02*
X014851Y017930D01*
X014851Y017772D02*
X014014Y017772D01*
X014014Y017613D02*
X014851Y017613D01*
X014851Y018406D02*
X009683Y018406D01*
X009604Y018564D02*
X015168Y018564D01*
X015267Y018564D02*
X015267Y018564D01*
X015365Y018564D02*
X018711Y018564D01*
X018810Y018564D02*
X018810Y018564D01*
X018909Y018564D02*
X019189Y018564D01*
X019265Y018723D02*
X009604Y018723D01*
X009604Y018881D02*
X022969Y018881D01*
X023127Y019040D02*
X009604Y019040D01*
X009655Y019198D02*
X010154Y019198D01*
X010144Y019203D02*
X010313Y019133D01*
X010496Y019133D01*
X010665Y019203D01*
X010794Y019332D01*
X010864Y019501D01*
X010864Y020284D01*
X010794Y020453D01*
X010665Y020583D01*
X010496Y020653D01*
X010313Y020653D01*
X010144Y020583D01*
X010014Y020453D01*
X009944Y020284D01*
X009944Y019501D01*
X010014Y019332D01*
X010144Y019203D01*
X010004Y019357D02*
X009805Y019357D01*
X009864Y019515D02*
X009944Y019515D01*
X009944Y019674D02*
X009864Y019674D01*
X009864Y019832D02*
X009944Y019832D01*
X009944Y019991D02*
X009864Y019991D01*
X009864Y020149D02*
X009944Y020149D01*
X009954Y020308D02*
X009855Y020308D01*
X009781Y020466D02*
X010028Y020466D01*
X010246Y020625D02*
X009563Y020625D01*
X009246Y020625D02*
X008563Y020625D01*
X008781Y020466D02*
X009028Y020466D01*
X008954Y020308D02*
X008855Y020308D01*
X008864Y020149D02*
X008944Y020149D01*
X008944Y019991D02*
X008864Y019991D01*
X008864Y019832D02*
X008944Y019832D01*
X008944Y019674D02*
X008864Y019674D01*
X008864Y019515D02*
X008944Y019515D01*
X009004Y019357D02*
X008805Y019357D01*
X008655Y019198D02*
X009154Y019198D01*
X009204Y019040D02*
X007275Y019040D01*
X007117Y018881D02*
X007531Y018881D01*
X007509Y018723D02*
X006958Y018723D01*
X007434Y019198D02*
X008154Y019198D01*
X008004Y019357D02*
X007592Y019357D01*
X007751Y019515D02*
X007944Y019515D01*
X007944Y019674D02*
X007909Y019674D01*
X008183Y018881D02*
X009204Y018881D01*
X009204Y018723D02*
X008205Y018723D01*
X008205Y018564D02*
X009204Y018564D01*
X009024Y018406D02*
X008205Y018406D01*
X008057Y018247D02*
X009005Y018247D01*
X009005Y018089D02*
X008057Y018089D01*
X008662Y017772D02*
X008669Y017772D01*
X008662Y017613D02*
X008669Y017613D01*
X008662Y017455D02*
X008669Y017455D01*
X008662Y017296D02*
X008669Y017296D01*
X008662Y017138D02*
X008669Y017138D01*
X008662Y016979D02*
X008669Y016979D01*
X008669Y016791D02*
X008669Y016334D01*
X009406Y016334D01*
X009406Y016367D01*
X009394Y016439D01*
X009372Y016507D01*
X009339Y016572D01*
X009297Y016630D01*
X009245Y016682D01*
X009187Y016724D01*
X009122Y016757D01*
X009054Y016779D01*
X008982Y016791D01*
X008669Y016791D01*
X008662Y016662D02*
X008669Y016662D01*
X008662Y016504D02*
X008669Y016504D01*
X008662Y016345D02*
X008669Y016345D01*
X008662Y016187D02*
X008669Y016187D01*
X008662Y016028D02*
X008669Y016028D01*
X008669Y015791D02*
X008669Y015334D01*
X009406Y015334D01*
X009406Y015367D01*
X009394Y015439D01*
X009372Y015507D01*
X009339Y015572D01*
X009297Y015630D01*
X009245Y015682D01*
X009187Y015724D01*
X009122Y015757D01*
X009054Y015779D01*
X008982Y015791D01*
X008669Y015791D01*
X008662Y015711D02*
X008669Y015711D01*
X008662Y015553D02*
X008669Y015553D01*
X008662Y015394D02*
X008669Y015394D01*
X008662Y015236D02*
X008669Y015236D01*
X008662Y015077D02*
X008669Y015077D01*
X008662Y014919D02*
X008669Y014919D01*
X008669Y014791D02*
X008669Y014334D01*
X009406Y014334D01*
X009406Y014367D01*
X009394Y014439D01*
X009372Y014507D01*
X009339Y014572D01*
X009297Y014630D01*
X009245Y014682D01*
X009187Y014724D01*
X009122Y014757D01*
X009054Y014779D01*
X008982Y014791D01*
X008669Y014791D01*
X008662Y014760D02*
X008669Y014760D01*
X008662Y014602D02*
X008669Y014602D01*
X008662Y014443D02*
X008669Y014443D01*
X008662Y014285D02*
X008669Y014285D01*
X008662Y014126D02*
X008669Y014126D01*
X008662Y013968D02*
X008669Y013968D01*
X009229Y013968D02*
X009744Y013968D01*
X009744Y014126D02*
X009358Y014126D01*
X009404Y014285D02*
X009744Y014285D01*
X009744Y014443D02*
X009393Y014443D01*
X009317Y014602D02*
X009744Y014602D01*
X009744Y014760D02*
X009112Y014760D01*
X009151Y014919D02*
X009744Y014919D01*
X009744Y015077D02*
X009330Y015077D01*
X009397Y015236D02*
X009744Y015236D01*
X009744Y015394D02*
X009401Y015394D01*
X009349Y015553D02*
X009744Y015553D01*
X009744Y015711D02*
X009205Y015711D01*
X009294Y016028D02*
X009744Y016028D01*
X009744Y015870D02*
X008057Y015870D01*
X008057Y015711D02*
X008127Y015711D01*
X008181Y014919D02*
X008057Y014919D01*
X008057Y014760D02*
X008219Y014760D01*
X007382Y014760D02*
X006642Y014760D01*
X006642Y014602D02*
X007382Y014602D01*
X007382Y014443D02*
X006642Y014443D01*
X006593Y014285D02*
X007382Y014285D01*
X008057Y013968D02*
X008103Y013968D01*
X008057Y013809D02*
X009890Y013809D01*
X010048Y013651D02*
X009248Y013651D01*
X009355Y013492D02*
X009978Y013492D01*
X009952Y013334D02*
X009386Y013334D01*
X009358Y013175D02*
X009985Y013175D01*
X009977Y013017D02*
X010094Y013017D01*
X011346Y012541D02*
X011934Y012541D01*
X010226Y011749D02*
X009531Y011749D01*
X009689Y011590D02*
X010019Y011590D01*
X009953Y011432D02*
X009789Y011432D01*
X009789Y011273D02*
X009952Y011273D01*
X010010Y011115D02*
X009789Y011115D01*
X009789Y010956D02*
X010172Y010956D01*
X009389Y010956D02*
X009192Y010956D01*
X009333Y011115D02*
X009389Y011115D01*
X009386Y011273D02*
X009389Y011273D01*
X009389Y010798D02*
X008906Y010798D01*
X008666Y010939D02*
X007164Y010939D01*
X006274Y010939D01*
X006174Y010839D01*
X006187Y010826D01*
X006200Y010839D01*
X006642Y010639D02*
X008072Y010639D01*
X007972Y010481D02*
X006650Y010481D01*
X006662Y010322D02*
X007946Y010322D01*
X008666Y010331D02*
X008666Y010939D01*
X008666Y011331D01*
X008664Y011329D01*
X008664Y011289D01*
X009259Y010639D02*
X009389Y010639D01*
X009389Y010481D02*
X009360Y010481D01*
X009386Y010322D02*
X009389Y010322D01*
X009389Y010164D02*
X009353Y010164D01*
X009389Y010005D02*
X009243Y010005D01*
X008889Y009371D02*
X004194Y009371D01*
X004035Y009213D02*
X008730Y009213D01*
X009242Y008579D02*
X009296Y008579D01*
X006235Y009847D02*
X006139Y009847D01*
X006139Y010005D02*
X006235Y010005D01*
X005712Y010322D02*
X003508Y010322D01*
X003508Y010164D02*
X003791Y010164D01*
X003791Y010005D02*
X003508Y010005D01*
X003508Y009847D02*
X003791Y009847D01*
X003791Y009688D02*
X003508Y009688D01*
X003508Y009530D02*
X003674Y009530D01*
X003515Y009371D02*
X003508Y009371D01*
X003877Y009054D02*
X004559Y009054D01*
X004400Y008896D02*
X003718Y008896D01*
X003560Y008737D02*
X004172Y008737D01*
X004151Y008579D02*
X003512Y008579D01*
X003512Y008420D02*
X004151Y008420D01*
X004151Y008262D02*
X003512Y008262D01*
X003164Y008489D02*
X003164Y008681D01*
X003268Y008785D01*
X003164Y008489D02*
X002286Y009367D01*
X002286Y009996D01*
X002741Y010005D02*
X003028Y010005D01*
X003028Y009847D02*
X002741Y009847D01*
X002741Y009688D02*
X003028Y009688D01*
X003028Y009530D02*
X002526Y009530D01*
X002621Y009371D02*
X003028Y009371D01*
X003028Y009213D02*
X002779Y009213D01*
X002938Y009054D02*
X003028Y009054D01*
X002576Y008737D02*
X000962Y008737D01*
X000962Y008579D02*
X002734Y008579D01*
X002816Y008420D02*
X000962Y008420D01*
X000962Y008262D02*
X002816Y008262D01*
X002417Y008896D02*
X000962Y008896D01*
X000962Y009054D02*
X002259Y009054D01*
X002100Y009213D02*
X000962Y009213D01*
X000962Y009371D02*
X002046Y009371D01*
X002046Y009530D02*
X000962Y009530D01*
X000962Y009688D02*
X001830Y009688D01*
X001830Y009847D02*
X000962Y009847D01*
X000962Y010005D02*
X001830Y010005D01*
X001830Y010164D02*
X000962Y010164D01*
X000962Y010322D02*
X001832Y010322D01*
X001810Y010481D02*
X000962Y010481D01*
X000962Y010639D02*
X002238Y010639D01*
X002333Y010639D02*
X003028Y010639D01*
X003028Y010481D02*
X002761Y010481D01*
X002739Y010322D02*
X003028Y010322D01*
X003028Y010164D02*
X002741Y010164D01*
X002761Y010713D02*
X002333Y010713D01*
X002333Y011101D01*
X002604Y011101D01*
X002650Y011089D01*
X002691Y011065D01*
X002725Y011031D01*
X002749Y010990D01*
X002761Y010945D01*
X002761Y010713D01*
X002761Y010798D02*
X003028Y010798D01*
X003028Y010956D02*
X002758Y010956D01*
X003028Y011115D02*
X000962Y011115D01*
X000962Y011273D02*
X003028Y011273D01*
X003028Y011432D02*
X000962Y011432D01*
X000962Y011590D02*
X003028Y011590D01*
X003062Y011749D02*
X000962Y011749D01*
X000962Y011907D02*
X003216Y011907D01*
X002927Y012224D02*
X002742Y012224D01*
X003578Y011590D02*
X003879Y011590D01*
X003791Y011432D02*
X003508Y011432D01*
X003508Y011273D02*
X003791Y011273D01*
X003791Y011115D02*
X003508Y011115D01*
X003508Y010956D02*
X003791Y010956D01*
X003812Y010798D02*
X003508Y010798D01*
X003508Y010639D02*
X005732Y010639D01*
X005724Y010481D02*
X003508Y010481D01*
X004799Y010798D02*
X005732Y010798D01*
X005732Y010956D02*
X004820Y010956D01*
X004820Y011115D02*
X005732Y011115D01*
X005062Y011590D02*
X005018Y011590D01*
X004611Y011749D02*
X003737Y011749D01*
X003895Y011907D02*
X004769Y011907D01*
X004840Y011978D02*
X004840Y011978D01*
X004901Y012066D02*
X004054Y012066D01*
X004212Y012224D02*
X004901Y012224D01*
X004901Y012383D02*
X004760Y012383D01*
X004760Y012541D02*
X004901Y012541D01*
X004901Y012700D02*
X004760Y012700D01*
X004760Y012858D02*
X004901Y012858D01*
X004901Y013017D02*
X004760Y013017D01*
X006642Y012541D02*
X007382Y012541D01*
X007352Y012383D02*
X006800Y012383D01*
X008057Y013651D02*
X008084Y013651D01*
X007382Y014919D02*
X006642Y014919D01*
X006642Y015077D02*
X006879Y015077D01*
X008057Y016662D02*
X008067Y016662D01*
X008057Y016821D02*
X009744Y016821D01*
X009744Y016979D02*
X009245Y016979D01*
X009364Y017138D02*
X009744Y017138D01*
X009744Y017296D02*
X009406Y017296D01*
X009389Y017455D02*
X009744Y017455D01*
X009771Y017613D02*
X009309Y017613D01*
X009265Y016662D02*
X009744Y016662D01*
X009744Y016504D02*
X009373Y016504D01*
X009406Y016345D02*
X009744Y016345D01*
X009744Y016187D02*
X009383Y016187D01*
X008087Y016979D02*
X008057Y016979D01*
X010655Y019198D02*
X011154Y019198D01*
X011144Y019203D02*
X011313Y019133D01*
X011496Y019133D01*
X011665Y019203D01*
X011794Y019332D01*
X011864Y019501D01*
X011864Y020284D01*
X011794Y020453D01*
X011665Y020583D01*
X011496Y020653D01*
X011313Y020653D01*
X011144Y020583D01*
X011014Y020453D01*
X010944Y020284D01*
X010944Y019501D01*
X011014Y019332D01*
X011144Y019203D01*
X011004Y019357D02*
X010805Y019357D01*
X010864Y019515D02*
X010944Y019515D01*
X010944Y019674D02*
X010864Y019674D01*
X010864Y019832D02*
X010944Y019832D01*
X010944Y019991D02*
X010864Y019991D01*
X010864Y020149D02*
X010944Y020149D01*
X010954Y020308D02*
X010855Y020308D01*
X010781Y020466D02*
X011028Y020466D01*
X011246Y020625D02*
X010563Y020625D01*
X011563Y020625D02*
X019208Y020625D01*
X019186Y020621D02*
X019114Y020598D01*
X019047Y020564D01*
X018985Y020519D01*
X018932Y020466D01*
X018888Y020405D01*
X018853Y020337D01*
X018830Y020266D01*
X018818Y020191D01*
X018818Y019873D01*
X019278Y019873D01*
X019278Y019833D01*
X019318Y019833D01*
X019318Y019073D01*
X019336Y019073D01*
X019411Y019085D01*
X019482Y019108D01*
X019550Y019143D01*
X019611Y019187D01*
X019664Y019241D01*
X019709Y019302D01*
X019743Y019369D01*
X019766Y019441D01*
X019778Y019515D01*
X019838Y019515D01*
X019838Y019462D02*
X019908Y019293D01*
X020038Y019163D01*
X020207Y019093D01*
X020390Y019093D01*
X020559Y019163D01*
X020688Y019293D01*
X020758Y019462D01*
X020758Y020245D01*
X020688Y020414D01*
X020559Y020543D01*
X020390Y020613D01*
X020207Y020613D01*
X020038Y020543D01*
X019908Y020414D01*
X019838Y020245D01*
X019838Y019462D01*
X019778Y019515D02*
X019778Y019833D01*
X019318Y019833D01*
X019318Y019873D01*
X019778Y019873D01*
X019778Y020191D01*
X019766Y020266D01*
X019743Y020337D01*
X019709Y020405D01*
X019664Y020466D01*
X019611Y020519D01*
X019550Y020564D01*
X019482Y020598D01*
X019411Y020621D01*
X019336Y020633D01*
X019318Y020633D01*
X019318Y019873D01*
X019278Y019873D01*
X019278Y020633D01*
X019260Y020633D01*
X019186Y020621D01*
X019278Y020625D02*
X019318Y020625D01*
X019388Y020625D02*
X023782Y020625D01*
X023714Y020466D02*
X021635Y020466D01*
X021688Y020414D02*
X021559Y020543D01*
X021390Y020613D01*
X021207Y020613D01*
X021038Y020543D01*
X020908Y020414D01*
X020838Y020245D01*
X020838Y019462D01*
X020908Y019293D01*
X021038Y019163D01*
X021207Y019093D01*
X021390Y019093D01*
X021559Y019163D01*
X021688Y019293D01*
X021758Y019462D01*
X021758Y020245D01*
X021688Y020414D01*
X021732Y020308D02*
X023714Y020308D01*
X023714Y020149D02*
X021758Y020149D01*
X021758Y019991D02*
X023873Y019991D01*
X023990Y019832D02*
X021758Y019832D01*
X021758Y019674D02*
X023831Y019674D01*
X023603Y019515D02*
X021758Y019515D01*
X021715Y019357D02*
X023444Y019357D01*
X023286Y019198D02*
X021594Y019198D01*
X021002Y019198D02*
X020594Y019198D01*
X020715Y019357D02*
X020882Y019357D01*
X020838Y019515D02*
X020758Y019515D01*
X020758Y019674D02*
X020838Y019674D01*
X020838Y019832D02*
X020758Y019832D01*
X020758Y019991D02*
X020838Y019991D01*
X020838Y020149D02*
X020758Y020149D01*
X020732Y020308D02*
X020864Y020308D01*
X020961Y020466D02*
X020635Y020466D01*
X019961Y020466D02*
X019664Y020466D01*
X019753Y020308D02*
X019864Y020308D01*
X019838Y020149D02*
X019778Y020149D01*
X019778Y019991D02*
X019838Y019991D01*
X019838Y019832D02*
X019778Y019832D01*
X019778Y019674D02*
X019838Y019674D01*
X019882Y019357D02*
X019737Y019357D01*
X019622Y019198D02*
X020002Y019198D01*
X019318Y019198D02*
X019278Y019198D01*
X019278Y019073D02*
X019278Y019833D01*
X018818Y019833D01*
X018818Y019515D01*
X018758Y019515D01*
X018758Y019462D02*
X018758Y020245D01*
X018688Y020414D01*
X018559Y020543D01*
X018390Y020613D01*
X018207Y020613D01*
X018038Y020543D01*
X017908Y020414D01*
X017838Y020245D01*
X017838Y019462D01*
X017908Y019293D01*
X018038Y019163D01*
X018207Y019093D01*
X018390Y019093D01*
X018559Y019163D01*
X018688Y019293D01*
X018758Y019462D01*
X018830Y019441D02*
X018853Y019369D01*
X018888Y019302D01*
X018932Y019241D01*
X018985Y019187D01*
X019047Y019143D01*
X019114Y019108D01*
X019186Y019085D01*
X019260Y019073D01*
X019278Y019073D01*
X019278Y019357D02*
X019318Y019357D01*
X019318Y019515D02*
X019278Y019515D01*
X019278Y019674D02*
X019318Y019674D01*
X019318Y019832D02*
X019278Y019832D01*
X019298Y019853D02*
X018810Y019365D01*
X018259Y018814D01*
X015289Y018814D01*
X015207Y019093D02*
X015038Y019163D01*
X014908Y019293D01*
X014838Y019462D01*
X014838Y020245D01*
X014908Y020414D01*
X015038Y020543D01*
X015207Y020613D01*
X015390Y020613D01*
X015559Y020543D01*
X015688Y020414D01*
X015758Y020245D01*
X015758Y019462D01*
X015688Y019293D01*
X015559Y019163D01*
X015390Y019093D01*
X015207Y019093D01*
X015002Y019198D02*
X014594Y019198D01*
X014559Y019163D02*
X014688Y019293D01*
X014758Y019462D01*
X014758Y020245D01*
X014688Y020414D01*
X014559Y020543D01*
X014390Y020613D01*
X014207Y020613D01*
X014038Y020543D01*
X013908Y020414D01*
X013838Y020245D01*
X013838Y019462D01*
X013908Y019293D01*
X014038Y019163D01*
X014207Y019093D01*
X014390Y019093D01*
X014559Y019163D01*
X014715Y019357D02*
X014882Y019357D01*
X014838Y019515D02*
X014758Y019515D01*
X014758Y019674D02*
X014838Y019674D01*
X014838Y019832D02*
X014758Y019832D01*
X014758Y019991D02*
X014838Y019991D01*
X014838Y020149D02*
X014758Y020149D01*
X014732Y020308D02*
X014864Y020308D01*
X014961Y020466D02*
X014635Y020466D01*
X013961Y020466D02*
X013635Y020466D01*
X013688Y020414D02*
X013559Y020543D01*
X013390Y020613D01*
X013207Y020613D01*
X013038Y020543D01*
X012908Y020414D01*
X012838Y020245D01*
X012838Y019462D01*
X012908Y019293D01*
X013038Y019163D01*
X013207Y019093D01*
X013390Y019093D01*
X013559Y019163D01*
X013688Y019293D01*
X013758Y019462D01*
X013758Y020245D01*
X013688Y020414D01*
X013732Y020308D02*
X013864Y020308D01*
X013838Y020149D02*
X013758Y020149D01*
X013758Y019991D02*
X013838Y019991D01*
X013838Y019832D02*
X013758Y019832D01*
X013758Y019674D02*
X013838Y019674D01*
X013838Y019515D02*
X013758Y019515D01*
X013715Y019357D02*
X013882Y019357D01*
X014002Y019198D02*
X013594Y019198D01*
X013002Y019198D02*
X011655Y019198D01*
X011805Y019357D02*
X012882Y019357D01*
X012838Y019515D02*
X011864Y019515D01*
X011864Y019674D02*
X012838Y019674D01*
X012838Y019832D02*
X011864Y019832D01*
X011864Y019991D02*
X012838Y019991D01*
X012838Y020149D02*
X011864Y020149D01*
X011855Y020308D02*
X012864Y020308D01*
X012961Y020466D02*
X011781Y020466D01*
X015594Y019198D02*
X016002Y019198D01*
X016038Y019163D02*
X015908Y019293D01*
X015838Y019462D01*
X015838Y020245D01*
X015908Y020414D01*
X016038Y020543D01*
X016207Y020613D01*
X016390Y020613D01*
X016559Y020543D01*
X016688Y020414D01*
X016758Y020245D01*
X016758Y019462D01*
X016688Y019293D01*
X016559Y019163D01*
X016390Y019093D01*
X016207Y019093D01*
X016038Y019163D01*
X015882Y019357D02*
X015715Y019357D01*
X015758Y019515D02*
X015838Y019515D01*
X015838Y019674D02*
X015758Y019674D01*
X015758Y019832D02*
X015838Y019832D01*
X015838Y019991D02*
X015758Y019991D01*
X015758Y020149D02*
X015838Y020149D01*
X015864Y020308D02*
X015732Y020308D01*
X015635Y020466D02*
X015961Y020466D01*
X016635Y020466D02*
X016961Y020466D01*
X016908Y020414D02*
X016838Y020245D01*
X016838Y019462D01*
X016908Y019293D01*
X017038Y019163D01*
X017207Y019093D01*
X017390Y019093D01*
X017559Y019163D01*
X017688Y019293D01*
X017758Y019462D01*
X017758Y020245D01*
X017688Y020414D01*
X017559Y020543D01*
X017390Y020613D01*
X017207Y020613D01*
X017038Y020543D01*
X016908Y020414D01*
X016864Y020308D02*
X016732Y020308D01*
X016758Y020149D02*
X016838Y020149D01*
X016838Y019991D02*
X016758Y019991D01*
X016758Y019832D02*
X016838Y019832D01*
X016838Y019674D02*
X016758Y019674D01*
X016758Y019515D02*
X016838Y019515D01*
X016882Y019357D02*
X016715Y019357D01*
X016594Y019198D02*
X017002Y019198D01*
X017594Y019198D02*
X018002Y019198D01*
X017882Y019357D02*
X017715Y019357D01*
X017758Y019515D02*
X017838Y019515D01*
X017838Y019674D02*
X017758Y019674D01*
X017758Y019832D02*
X017838Y019832D01*
X017838Y019991D02*
X017758Y019991D01*
X017758Y020149D02*
X017838Y020149D01*
X017864Y020308D02*
X017732Y020308D01*
X017635Y020466D02*
X017961Y020466D01*
X018635Y020466D02*
X018932Y020466D01*
X018844Y020308D02*
X018732Y020308D01*
X018758Y020149D02*
X018818Y020149D01*
X018818Y019991D02*
X018758Y019991D01*
X018758Y019832D02*
X018818Y019832D01*
X018818Y019674D02*
X018758Y019674D01*
X018818Y019515D02*
X018830Y019441D01*
X018859Y019357D02*
X018715Y019357D01*
X018594Y019198D02*
X018974Y019198D01*
X019278Y019991D02*
X019318Y019991D01*
X019318Y020149D02*
X019278Y020149D01*
X019278Y020308D02*
X019318Y020308D01*
X019318Y020466D02*
X019278Y020466D01*
X023333Y018247D02*
X023714Y018247D01*
X023714Y018406D02*
X023492Y018406D01*
X023650Y018564D02*
X023722Y018564D01*
X023775Y018089D02*
X023464Y018089D01*
X023520Y017930D02*
X023933Y017930D01*
X023929Y017772D02*
X023520Y017772D01*
X023520Y017613D02*
X023771Y017613D01*
X023714Y017455D02*
X023451Y017455D01*
X024478Y017772D02*
X024929Y017772D01*
X024933Y017930D02*
X024474Y017930D01*
X024632Y018089D02*
X024775Y018089D01*
X024714Y018247D02*
X024694Y018247D01*
X024694Y018406D02*
X024714Y018406D01*
X024722Y018564D02*
X024685Y018564D01*
X024694Y019198D02*
X024714Y019198D01*
X024714Y019357D02*
X024694Y019357D01*
X024694Y019515D02*
X024714Y019515D01*
X024831Y019674D02*
X024576Y019674D01*
X024417Y019832D02*
X024990Y019832D01*
X024873Y019991D02*
X024534Y019991D01*
X024204Y020353D02*
X025204Y020353D01*
X025534Y019991D02*
X026422Y019991D01*
X026422Y020149D02*
X025693Y020149D01*
X025694Y020308D02*
X026423Y020308D01*
X026423Y020466D02*
X025694Y020466D01*
X025625Y020625D02*
X026423Y020625D01*
X026422Y019832D02*
X025417Y019832D01*
X025576Y019674D02*
X026422Y019674D01*
X026422Y019515D02*
X025694Y019515D01*
X025694Y019357D02*
X026421Y019357D01*
X026421Y019198D02*
X025694Y019198D01*
X025583Y019040D02*
X026421Y019040D01*
X026421Y018881D02*
X025425Y018881D01*
X025527Y018723D02*
X026420Y018723D01*
X026420Y018564D02*
X025685Y018564D01*
X025694Y018406D02*
X026420Y018406D01*
X026420Y018247D02*
X025694Y018247D01*
X025632Y018089D02*
X026419Y018089D01*
X026419Y017930D02*
X025474Y017930D01*
X025478Y017772D02*
X026419Y017772D01*
X026419Y017613D02*
X025636Y017613D01*
X025694Y017455D02*
X026419Y017455D01*
X026418Y017296D02*
X025694Y017296D01*
X025681Y017138D02*
X026418Y017138D01*
X026418Y016979D02*
X025523Y016979D01*
X025429Y016821D02*
X026418Y016821D01*
X026417Y016662D02*
X025587Y016662D01*
X025694Y016504D02*
X026417Y016504D01*
X026417Y016345D02*
X025694Y016345D01*
X025694Y016187D02*
X026417Y016187D01*
X026417Y016028D02*
X025572Y016028D01*
X025718Y015870D02*
X026416Y015870D01*
X026416Y015711D02*
X025876Y015711D01*
X026035Y015553D02*
X026416Y015553D01*
X026416Y015394D02*
X026049Y015394D01*
X026049Y015236D02*
X026415Y015236D01*
X026415Y015077D02*
X026049Y015077D01*
X026049Y014919D02*
X026415Y014919D01*
X026415Y014760D02*
X026049Y014760D01*
X026049Y014602D02*
X026415Y014602D01*
X026414Y014443D02*
X026049Y014443D01*
X026049Y014285D02*
X026414Y014285D01*
X026414Y014126D02*
X026049Y014126D01*
X026049Y013968D02*
X026414Y013968D01*
X026413Y013809D02*
X026049Y013809D01*
X026049Y013651D02*
X026413Y013651D01*
X026413Y013492D02*
X026049Y013492D01*
X026049Y013334D02*
X026413Y013334D01*
X026412Y013175D02*
X026049Y013175D01*
X026049Y013017D02*
X026412Y013017D01*
X026412Y012858D02*
X026049Y012858D01*
X026049Y012700D02*
X026412Y012700D01*
X026412Y012541D02*
X026049Y012541D01*
X026049Y012383D02*
X026411Y012383D01*
X026411Y012224D02*
X026049Y012224D01*
X026049Y012066D02*
X026411Y012066D01*
X026411Y011907D02*
X026048Y011907D01*
X025890Y011749D02*
X026410Y011749D01*
X026410Y011590D02*
X025731Y011590D01*
X025694Y011432D02*
X026410Y011432D01*
X026410Y011273D02*
X025694Y011273D01*
X025658Y011115D02*
X026410Y011115D01*
X026409Y010956D02*
X025631Y010956D01*
X025790Y010798D02*
X026409Y010798D01*
X026409Y010639D02*
X025948Y010639D01*
X026049Y010481D02*
X026409Y010481D01*
X026408Y010322D02*
X026049Y010322D01*
X026037Y010164D02*
X026408Y010164D01*
X026408Y010005D02*
X025879Y010005D01*
X025720Y009847D02*
X026408Y009847D01*
X021856Y014564D02*
X021037Y014564D01*
X021037Y014605D01*
X021045Y014618D01*
X021057Y014664D01*
X021057Y014747D01*
X021057Y014830D01*
X021045Y014875D01*
X021037Y014889D01*
X021037Y016122D01*
X022105Y016122D01*
X022617Y015610D01*
X022783Y015610D01*
X023767Y015610D01*
X023714Y015556D01*
X023714Y015341D01*
X022633Y015341D01*
X021856Y014564D01*
X021894Y014602D02*
X021037Y014602D01*
X021057Y014747D02*
X020965Y014747D01*
X020965Y014747D01*
X020965Y014747D01*
X021057Y014747D01*
X021057Y014760D02*
X022053Y014760D01*
X022211Y014919D02*
X021037Y014919D01*
X021037Y015077D02*
X022370Y015077D01*
X022528Y015236D02*
X021037Y015236D01*
X021037Y015394D02*
X023714Y015394D01*
X023714Y015553D02*
X021037Y015553D01*
X021037Y015711D02*
X022515Y015711D01*
X022357Y015870D02*
X021037Y015870D01*
X021037Y016028D02*
X022198Y016028D01*
X022089Y015314D02*
X021522Y014747D01*
X019889Y014539D02*
X019007Y015421D01*
X019007Y015989D01*
X018957Y015939D02*
X016914Y015939D01*
X024572Y016028D02*
X024835Y016028D01*
X024714Y016187D02*
X024694Y016187D01*
X024694Y016345D02*
X024714Y016345D01*
X024714Y016504D02*
X024694Y016504D01*
X024796Y016662D02*
X024820Y016662D01*
X024954Y016821D02*
X024978Y016821D01*
X024705Y017138D02*
X024681Y017138D01*
X024694Y017296D02*
X024714Y017296D01*
X024714Y017455D02*
X024694Y017455D01*
X024636Y017613D02*
X024771Y017613D01*
X017627Y006360D02*
X013815Y006360D01*
X013803Y006367D02*
X013757Y006379D01*
X013535Y006379D01*
X013535Y006001D01*
X013914Y006001D01*
X013914Y006223D01*
X013901Y006269D01*
X013878Y006310D01*
X013844Y006343D01*
X013803Y006367D01*
X013914Y006201D02*
X013928Y006201D01*
X013914Y006043D02*
X013928Y006043D01*
X013914Y005884D02*
X013928Y005884D01*
X013914Y005726D02*
X013928Y005726D01*
X014021Y005567D02*
X013817Y005567D01*
X014045Y005409D02*
X012227Y005409D01*
X012386Y005567D02*
X013177Y005567D01*
X013081Y005726D02*
X012544Y005726D01*
X012703Y005884D02*
X013081Y005884D01*
X013081Y006043D02*
X012861Y006043D01*
X013020Y006201D02*
X013081Y006201D01*
X013178Y006360D02*
X013179Y006360D01*
X013459Y006360D02*
X013535Y006360D01*
X013535Y006201D02*
X013459Y006201D01*
X013459Y006043D02*
X013535Y006043D01*
X013497Y005963D02*
X013388Y005963D01*
X012789Y005364D01*
X013459Y005567D02*
X013535Y005567D01*
X013535Y005726D02*
X013459Y005726D01*
X013459Y005884D02*
X013535Y005884D01*
X014627Y005567D02*
X014720Y005661D01*
X014720Y005884D02*
X017688Y005884D01*
X017691Y006043D02*
X014720Y006043D01*
X014720Y006201D02*
X017627Y006201D01*
X018250Y005250D02*
X019259Y005250D01*
X019100Y005092D02*
X018091Y005092D01*
X017992Y004933D02*
X017933Y004933D01*
X017942Y004775D02*
X017774Y004775D01*
X017616Y004616D02*
X017942Y004616D01*
X017836Y004458D02*
X017457Y004458D01*
X017678Y004299D02*
X016988Y004299D01*
X017361Y003982D02*
X013828Y003982D01*
X013816Y004141D02*
X017519Y004141D01*
X017017Y003824D02*
X016576Y003824D01*
X016583Y003819D02*
X016524Y003861D01*
X016460Y003894D01*
X016391Y003917D01*
X016319Y003928D01*
X016287Y003928D01*
X016287Y003192D01*
X016743Y003192D01*
X016743Y003504D01*
X016732Y003576D01*
X016709Y003644D01*
X016677Y003709D01*
X016634Y003768D01*
X016583Y003819D01*
X016699Y003665D02*
X016889Y003665D01*
X016843Y003507D02*
X016743Y003507D01*
X016743Y003348D02*
X016843Y003348D01*
X016843Y003190D02*
X016287Y003190D01*
X016279Y003190D02*
X015723Y003190D01*
X015723Y003348D02*
X015823Y003348D01*
X015824Y003507D02*
X015723Y003507D01*
X015678Y003665D02*
X015868Y003665D01*
X015991Y003824D02*
X015549Y003824D01*
X015017Y003824D02*
X014549Y003824D01*
X014678Y003665D02*
X014889Y003665D01*
X014843Y003507D02*
X014723Y003507D01*
X014723Y003348D02*
X014843Y003348D01*
X014843Y003190D02*
X014723Y003190D01*
X014723Y003031D02*
X014843Y003031D01*
X014843Y002873D02*
X014723Y002873D01*
X014679Y002714D02*
X014887Y002714D01*
X015679Y002714D02*
X015865Y002714D01*
X015823Y002873D02*
X015723Y002873D01*
X015723Y003031D02*
X015823Y003031D01*
X016279Y003348D02*
X016287Y003348D01*
X016279Y003507D02*
X016287Y003507D01*
X016279Y003665D02*
X016287Y003665D01*
X016279Y003824D02*
X016287Y003824D01*
X016442Y004299D02*
X014661Y004299D01*
X014017Y003824D02*
X013987Y003824D01*
X016743Y003031D02*
X016843Y003031D01*
X016763Y002873D02*
X016743Y002873D01*
X018638Y004775D02*
X018783Y004775D01*
X018942Y004933D02*
X018588Y004933D01*
X018728Y005409D02*
X019417Y005409D01*
X019549Y003824D02*
X020017Y003824D01*
X019889Y003665D02*
X019678Y003665D01*
X019723Y003507D02*
X019843Y003507D01*
X019843Y003348D02*
X019723Y003348D01*
X019723Y003190D02*
X019843Y003190D01*
X019843Y003031D02*
X019816Y003031D01*
X020723Y003031D02*
X020843Y003031D01*
X020841Y002873D02*
X020843Y002873D01*
X020843Y003190D02*
X020723Y003190D01*
X020723Y003348D02*
X020843Y003348D01*
X020843Y003507D02*
X020723Y003507D01*
X020678Y003665D02*
X020889Y003665D01*
X021017Y003824D02*
X020549Y003824D01*
X009887Y004458D02*
X009269Y004458D01*
X009468Y004299D02*
X009688Y004299D01*
X009622Y004141D02*
X009533Y004141D01*
X009538Y003982D02*
X009618Y003982D01*
X009618Y003824D02*
X009538Y003824D01*
X009538Y003665D02*
X009618Y003665D01*
X009618Y003507D02*
X009538Y003507D01*
X009538Y003348D02*
X009468Y003178D01*
X009338Y003049D01*
X009289Y003029D01*
X009866Y003029D01*
X009817Y003049D01*
X009688Y003178D01*
X009618Y003348D01*
X009683Y003190D02*
X009472Y003190D01*
X009295Y003031D02*
X009860Y003031D01*
X004261Y006994D02*
X000962Y006994D01*
X000962Y007152D02*
X004261Y007152D01*
X004261Y007311D02*
X000962Y007311D01*
X000962Y007469D02*
X004261Y007469D01*
X004261Y007628D02*
X000962Y007628D01*
X000962Y007786D02*
X004261Y007786D01*
X004191Y007945D02*
X000962Y007945D01*
X000962Y008103D02*
X004151Y008103D01*
X004732Y007945D02*
X005665Y007945D01*
X005631Y008103D02*
X004771Y008103D01*
X004771Y008262D02*
X005631Y008262D01*
X005631Y008420D02*
X004771Y008420D01*
X004771Y008579D02*
X005631Y008579D01*
X005654Y008737D02*
X004808Y008737D01*
X005961Y008262D02*
X005962Y008262D01*
X005961Y008103D02*
X005962Y008103D01*
X005961Y007945D02*
X005962Y007945D01*
X002333Y010798D02*
X002238Y010798D01*
X002238Y010956D02*
X002333Y010956D01*
X001813Y010956D02*
X000962Y010956D01*
X000962Y010798D02*
X001810Y010798D01*
X001812Y013334D02*
X000962Y013334D01*
X000962Y013492D02*
X001822Y013492D01*
X002239Y013492D02*
X002335Y013492D01*
X002335Y013334D02*
X002239Y013334D01*
X001832Y014602D02*
X000962Y014602D01*
X000962Y014760D02*
X001832Y014760D01*
X001832Y014919D02*
X000962Y014919D01*
X000962Y015077D02*
X001812Y015077D01*
X001812Y015324D02*
X002239Y015324D01*
X002239Y015712D01*
X001968Y015712D01*
X001922Y015700D01*
X001881Y015676D01*
X001848Y015642D01*
X001824Y015601D01*
X001812Y015556D01*
X001812Y015324D01*
X001812Y015394D02*
X000962Y015394D01*
X000962Y015236D02*
X002239Y015236D01*
X002335Y015236D02*
X003004Y015236D01*
X003004Y015394D02*
X002762Y015394D01*
X002762Y015324D02*
X002762Y015556D01*
X002750Y015601D01*
X002726Y015642D01*
X002693Y015676D01*
X002652Y015700D01*
X002606Y015712D01*
X002335Y015712D01*
X002335Y015324D01*
X002762Y015324D01*
X002762Y015553D02*
X002962Y015553D01*
X002896Y015711D02*
X002608Y015711D01*
X002335Y015711D02*
X002239Y015711D01*
X002239Y015553D02*
X002335Y015553D01*
X002335Y015394D02*
X002239Y015394D01*
X001966Y015711D02*
X000962Y015711D01*
X000962Y015553D02*
X001812Y015553D01*
X002762Y015077D02*
X003004Y015077D01*
X003032Y014919D02*
X002742Y014919D01*
X003621Y014657D02*
X004305Y014657D01*
D25*
X003244Y015874D03*
X004117Y016125D03*
X004944Y018211D03*
X007109Y018172D03*
X007857Y018605D03*
X009353Y018133D03*
X006794Y016046D03*
X007227Y015298D03*
X009629Y012818D03*
X007700Y012188D03*
X006204Y011637D03*
X003251Y012503D03*
X003164Y008489D03*
X005101Y005416D03*
X004235Y004944D03*
X005789Y002789D03*
X007464Y002789D03*
X012789Y005364D03*
X015298Y004944D03*
X016715Y004629D03*
X018290Y004629D03*
X018448Y005731D03*
X017975Y006361D03*
X020416Y007070D03*
X015849Y008566D03*
X014865Y008211D03*
X011873Y009471D03*
X013408Y011794D03*
X013448Y012345D03*
X015180Y010810D03*
X015889Y010967D03*
X015634Y012654D03*
X015574Y013211D03*
X015456Y014078D03*
X016514Y013164D03*
X018093Y012463D03*
X019407Y013650D03*
X018967Y014159D03*
X018723Y014739D03*
X016914Y015939D03*
X017244Y016539D03*
X017909Y016679D03*
X015179Y015759D03*
X014989Y016764D03*
X012414Y016489D03*
X011519Y014432D03*
X019826Y013074D03*
X022089Y015314D03*
X022975Y016243D03*
X023172Y017778D03*
X020692Y018093D03*
X023022Y012045D03*
D26*
X023899Y012353D02*
X024204Y012353D01*
X023899Y012353D02*
X023081Y013172D01*
X020582Y013172D01*
X010048Y008115D02*
X009790Y008115D01*
X009289Y007614D01*
X008814Y007614D01*
X008539Y007339D01*
X008539Y007139D01*
X008264Y006864D01*
M02*
