G75*
%MOIN*%
%OFA0B0*%
%FSLAX24Y24*%
%IPPOS*%
%LPD*%
%AMOC8*
5,1,8,0,0,1.08239X$1,22.5*
%
%ADD10OC8,0.0660*%
%ADD11C,0.0560*%
%ADD12C,0.0600*%
%ADD13OC8,0.0610*%
%ADD14C,0.0160*%
%ADD15R,0.0376X0.0376*%
%ADD16C,0.0120*%
%ADD17C,0.0080*%
D10*
X024204Y003353D03*
X025204Y003353D03*
X025204Y004353D03*
X025204Y005353D03*
X024204Y005353D03*
X024204Y004353D03*
X024204Y006353D03*
X025204Y006353D03*
X025204Y007353D03*
X025204Y008353D03*
X024204Y008353D03*
X024204Y007353D03*
X024204Y009353D03*
X025204Y009353D03*
X025204Y010353D03*
X025204Y011353D03*
X024204Y011353D03*
X024204Y010353D03*
X024204Y012353D03*
X025204Y012353D03*
X025204Y013353D03*
X024204Y013353D03*
X024204Y014353D03*
X025204Y014353D03*
X025204Y015353D03*
X025204Y016353D03*
X024204Y016353D03*
X024204Y015353D03*
X024204Y017353D03*
X025204Y017353D03*
X025204Y018353D03*
X025204Y019353D03*
X024204Y019353D03*
X024204Y018353D03*
X024204Y020353D03*
X025204Y020353D03*
D11*
X010952Y017341D02*
X010392Y017341D01*
X010392Y016341D02*
X010952Y016341D01*
X010952Y015341D02*
X010392Y015341D01*
X010392Y014341D02*
X010952Y014341D01*
X010952Y013341D02*
X010392Y013341D01*
X010392Y012341D02*
X010952Y012341D01*
X010952Y011341D02*
X010392Y011341D01*
X010392Y010341D02*
X010952Y010341D01*
X008946Y010331D02*
X008386Y010331D01*
X008386Y011331D02*
X008946Y011331D01*
X008946Y012331D02*
X008386Y012331D01*
X008386Y013331D02*
X008946Y013331D01*
X008946Y014331D02*
X008386Y014331D01*
X008386Y015331D02*
X008946Y015331D01*
X008946Y016331D02*
X008386Y016331D01*
X008386Y017331D02*
X008946Y017331D01*
X014283Y003468D02*
X014283Y002908D01*
X015283Y002908D02*
X015283Y003468D01*
X016283Y003468D02*
X016283Y002908D01*
X017283Y002908D02*
X017283Y003468D01*
X018283Y003468D02*
X018283Y002908D01*
X019283Y002908D02*
X019283Y003468D01*
X020283Y003468D02*
X020283Y002908D01*
X021283Y002908D02*
X021283Y003468D01*
D12*
X021314Y009379D02*
X021314Y009979D01*
X020314Y009979D02*
X020314Y009379D01*
X012078Y004039D02*
X012078Y003439D01*
X011078Y003439D02*
X011078Y004039D01*
X010078Y004039D02*
X010078Y003439D01*
X009078Y003439D02*
X009078Y004039D01*
X008078Y004039D02*
X008078Y003439D01*
X007078Y003439D02*
X007078Y004039D01*
X006078Y004039D02*
X006078Y003439D01*
X005078Y003439D02*
X005078Y004039D01*
X004078Y004039D02*
X004078Y003439D01*
X002571Y016684D02*
X001971Y016684D01*
X001971Y017684D02*
X002571Y017684D01*
X003196Y019553D02*
X003196Y020153D01*
X004196Y020153D02*
X004196Y019553D01*
X005196Y019553D02*
X005196Y020153D01*
X006196Y020153D02*
X006196Y019553D01*
X008404Y019593D02*
X008404Y020193D01*
X009404Y020193D02*
X009404Y019593D01*
X010404Y019593D02*
X010404Y020193D01*
X011404Y020193D02*
X011404Y019593D01*
X013298Y019553D02*
X013298Y020153D01*
X014298Y020153D02*
X014298Y019553D01*
X015298Y019553D02*
X015298Y020153D01*
X016298Y020153D02*
X016298Y019553D01*
X017298Y019553D02*
X017298Y020153D01*
X018298Y020153D02*
X018298Y019553D01*
X019298Y019553D02*
X019298Y020153D01*
X020298Y020153D02*
X020298Y019553D01*
X021298Y019553D02*
X021298Y020153D01*
D13*
X010048Y008115D03*
X010048Y007115D03*
X009048Y007115D03*
X009048Y008115D03*
X009048Y006115D03*
X010048Y006115D03*
D14*
X007661Y002873D02*
X003706Y002873D01*
X003817Y003049D02*
X003688Y003178D01*
X003618Y003348D01*
X003222Y003348D01*
X003383Y003190D02*
X003683Y003190D01*
X003618Y003348D02*
X003618Y004131D01*
X003688Y004300D01*
X003817Y004429D01*
X003986Y004499D01*
X004169Y004499D01*
X004338Y004429D01*
X004468Y004300D01*
X004538Y004131D01*
X004538Y003348D01*
X004618Y003348D01*
X004688Y003178D01*
X004817Y003049D01*
X004986Y002979D01*
X005169Y002979D01*
X005338Y003049D01*
X005468Y003178D01*
X005538Y003348D01*
X005618Y003348D01*
X005688Y003178D01*
X005817Y003049D01*
X005986Y002979D01*
X006169Y002979D01*
X006338Y003049D01*
X006468Y003178D01*
X006538Y003348D01*
X006618Y003348D01*
X006688Y003178D01*
X006817Y003049D01*
X006986Y002979D01*
X007169Y002979D01*
X007338Y003049D01*
X007411Y003122D01*
X008507Y002027D01*
X018255Y002027D01*
X018372Y002144D01*
X018903Y002675D01*
X018910Y002659D01*
X019034Y002535D01*
X019196Y002468D01*
X019371Y002468D01*
X019532Y002535D01*
X019656Y002659D01*
X019723Y002820D01*
X019723Y003425D01*
X019843Y003305D01*
X019843Y002820D01*
X019910Y002659D01*
X020034Y002535D01*
X020196Y002468D01*
X020371Y002468D01*
X020532Y002535D01*
X020656Y002659D01*
X020723Y002820D01*
X020723Y003555D01*
X020656Y003717D01*
X020532Y003841D01*
X020371Y003908D01*
X020196Y003908D01*
X020034Y003841D01*
X019953Y003760D01*
X019553Y004160D01*
X019436Y004278D01*
X018137Y004278D01*
X018134Y004281D01*
X018545Y004281D01*
X018638Y004374D01*
X018638Y004429D01*
X023714Y004429D01*
X023714Y004150D01*
X024001Y003863D01*
X024407Y003863D01*
X024694Y004150D01*
X024694Y004556D01*
X024407Y004843D01*
X024001Y004843D01*
X023986Y004829D01*
X018638Y004829D01*
X018638Y004883D01*
X018545Y004977D01*
X018036Y004977D01*
X017942Y004883D01*
X017942Y004472D01*
X017506Y004909D01*
X017506Y012184D01*
X017625Y012303D01*
X017745Y012303D01*
X017745Y012209D01*
X017839Y012115D01*
X018348Y012115D01*
X018441Y012209D01*
X018441Y012713D01*
X020114Y011041D01*
X020114Y010394D01*
X020053Y010369D01*
X019924Y010239D01*
X019854Y010070D01*
X019854Y009287D01*
X019924Y009118D01*
X020053Y008989D01*
X020222Y008919D01*
X020405Y008919D01*
X020574Y008989D01*
X020704Y009118D01*
X020774Y009287D01*
X020774Y010070D01*
X020704Y010239D01*
X020574Y010369D01*
X020514Y010394D01*
X020514Y011207D01*
X017444Y014277D01*
X017444Y016191D01*
X017498Y016191D01*
X017592Y016284D01*
X017592Y016393D01*
X017654Y016331D01*
X017709Y016331D01*
X017709Y014076D01*
X021104Y010681D01*
X021104Y010390D01*
X021053Y010369D01*
X020924Y010239D01*
X020854Y010070D01*
X020854Y009287D01*
X020924Y009118D01*
X021053Y008989D01*
X021222Y008919D01*
X021405Y008919D01*
X021574Y008989D01*
X021704Y009118D01*
X021774Y009287D01*
X021774Y010070D01*
X021704Y010239D01*
X021574Y010369D01*
X021504Y010398D01*
X021504Y010847D01*
X021387Y010964D01*
X019625Y012726D01*
X020080Y012726D01*
X020174Y012820D01*
X020174Y013328D01*
X020080Y013422D01*
X020026Y013422D01*
X020026Y018409D01*
X019341Y019093D01*
X019390Y019093D01*
X019559Y019163D01*
X019688Y019293D01*
X019758Y019462D01*
X019758Y020245D01*
X019688Y020414D01*
X019559Y020543D01*
X019390Y020613D01*
X019207Y020613D01*
X019038Y020543D01*
X018908Y020414D01*
X018838Y020245D01*
X018838Y019596D01*
X018758Y019676D01*
X018758Y020245D01*
X018688Y020414D01*
X018559Y020543D01*
X018390Y020613D01*
X018207Y020613D01*
X018038Y020543D01*
X017964Y020470D01*
X017737Y020697D01*
X023827Y020697D01*
X023694Y020564D01*
X023694Y020367D01*
X024190Y020367D01*
X024190Y020340D01*
X023694Y020340D01*
X023694Y020142D01*
X023992Y019843D01*
X024190Y019843D01*
X024190Y020340D01*
X024217Y020340D01*
X024217Y020367D01*
X025190Y020367D01*
X025190Y020340D01*
X024694Y020340D01*
X024217Y020340D01*
X024217Y019843D01*
X024415Y019843D01*
X024704Y020132D01*
X024992Y019843D01*
X025190Y019843D01*
X025190Y020340D01*
X025217Y020340D01*
X025217Y020367D01*
X025714Y020367D01*
X025714Y020564D01*
X025581Y020697D01*
X026423Y020697D01*
X026414Y014403D01*
X026375Y014442D01*
X025762Y015055D01*
X025750Y015067D01*
X025662Y015104D01*
X025647Y015104D01*
X025694Y015150D01*
X025694Y015556D01*
X025407Y015843D01*
X025001Y015843D01*
X024714Y015556D01*
X024714Y015150D01*
X024793Y015071D01*
X024615Y015071D01*
X024694Y015150D01*
X024694Y015556D01*
X024601Y015649D01*
X024783Y015649D01*
X024999Y015865D01*
X025001Y015863D01*
X025407Y015863D01*
X025694Y016150D01*
X025694Y016556D01*
X025407Y016843D01*
X025001Y016843D01*
X024714Y016556D01*
X024714Y016150D01*
X024716Y016148D01*
X024617Y016049D01*
X024593Y016049D01*
X024694Y016150D01*
X024694Y016556D01*
X024407Y016843D01*
X024001Y016843D01*
X023714Y016556D01*
X023714Y016150D01*
X023815Y016049D01*
X023452Y016049D01*
X023323Y016178D01*
X023323Y016497D01*
X023230Y016591D01*
X022721Y016591D01*
X022627Y016497D01*
X022627Y015989D01*
X022721Y015895D01*
X023041Y015895D01*
X023169Y015766D01*
X023286Y015649D01*
X023807Y015649D01*
X023714Y015556D01*
X023714Y015150D01*
X023793Y015071D01*
X022671Y015071D01*
X022437Y015305D01*
X022437Y015568D01*
X022343Y015662D01*
X021834Y015662D01*
X021741Y015568D01*
X021741Y015059D01*
X021834Y014966D01*
X022098Y014966D01*
X022403Y014660D01*
X022451Y014640D01*
X022460Y014631D01*
X022473Y014631D01*
X022491Y014624D01*
X022587Y014624D01*
X022605Y014631D01*
X023789Y014631D01*
X023714Y014556D01*
X023714Y014150D01*
X024001Y013863D01*
X024407Y013863D01*
X024694Y014150D01*
X024694Y014556D01*
X024618Y014631D01*
X024789Y014631D01*
X024714Y014556D01*
X024714Y014150D01*
X025001Y013863D01*
X025407Y013863D01*
X025694Y014150D01*
X025694Y014445D01*
X025999Y014139D01*
X025999Y004488D01*
X025694Y004183D01*
X025694Y004556D01*
X025407Y004843D01*
X025001Y004843D01*
X024714Y004556D01*
X024714Y004150D01*
X025001Y003863D01*
X025374Y003863D01*
X025354Y003843D01*
X025001Y003843D01*
X024714Y003556D01*
X024714Y003150D01*
X025001Y002863D01*
X025407Y002863D01*
X025694Y003150D01*
X025694Y003504D01*
X026400Y004210D01*
X026397Y001968D01*
X026242Y002123D01*
X026013Y002218D01*
X025765Y002218D01*
X025536Y002123D01*
X025360Y001947D01*
X025265Y001718D01*
X025265Y001470D01*
X025360Y001241D01*
X025536Y001065D01*
X025542Y001063D01*
X005545Y001066D01*
X000962Y005569D01*
X000962Y019123D01*
X001171Y019333D01*
X001080Y019113D01*
X001080Y018865D01*
X001175Y018636D01*
X001351Y018460D01*
X001580Y018365D01*
X001828Y018365D01*
X002057Y018460D01*
X002233Y018636D01*
X002328Y018865D01*
X002328Y019113D01*
X002233Y019342D01*
X002057Y019518D01*
X001828Y019613D01*
X001580Y019613D01*
X001360Y019522D01*
X002536Y020697D01*
X004037Y020697D01*
X003996Y020657D01*
X003996Y020568D01*
X003935Y020543D01*
X003806Y020414D01*
X003736Y020245D01*
X003736Y019462D01*
X003744Y019441D01*
X002448Y018144D01*
X001879Y018144D01*
X001710Y018074D01*
X001581Y017945D01*
X001511Y017775D01*
X001511Y017592D01*
X001581Y017423D01*
X001710Y017294D01*
X001879Y017224D01*
X002662Y017224D01*
X002831Y017294D01*
X002961Y017423D01*
X003031Y017592D01*
X003031Y017775D01*
X002961Y017945D01*
X002887Y018018D01*
X004004Y019135D01*
X004104Y019093D01*
X004287Y019093D01*
X004456Y019163D01*
X004586Y019293D01*
X004656Y019462D01*
X004656Y020245D01*
X004586Y020414D01*
X004468Y020531D01*
X004923Y020531D01*
X004806Y020414D01*
X004736Y020245D01*
X004736Y019462D01*
X004806Y019293D01*
X004935Y019163D01*
X005104Y019093D01*
X005287Y019093D01*
X005456Y019163D01*
X005586Y019293D01*
X005656Y019462D01*
X005656Y020245D01*
X005586Y020414D01*
X005468Y020531D01*
X005899Y020531D01*
X005883Y020519D01*
X005830Y020466D01*
X005785Y020405D01*
X005751Y020337D01*
X005728Y020266D01*
X005716Y020191D01*
X005716Y019873D01*
X006176Y019873D01*
X006176Y019833D01*
X006216Y019833D01*
X006216Y019873D01*
X006676Y019873D01*
X006676Y020191D01*
X006664Y020266D01*
X006641Y020337D01*
X006606Y020405D01*
X006562Y020466D01*
X006508Y020519D01*
X006492Y020531D01*
X006633Y020531D01*
X006830Y020333D01*
X006830Y019349D01*
X007509Y018670D01*
X007509Y018351D01*
X007603Y018257D01*
X008112Y018257D01*
X008205Y018351D01*
X008205Y018860D01*
X008112Y018953D01*
X007792Y018953D01*
X007230Y019515D01*
X007230Y020499D01*
X007113Y020616D01*
X007032Y020697D01*
X012501Y020697D01*
X011896Y020093D01*
X011864Y020093D01*
X011864Y020284D01*
X011794Y020453D01*
X011665Y020583D01*
X011496Y020653D01*
X011313Y020653D01*
X011144Y020583D01*
X011014Y020453D01*
X010944Y020284D01*
X010944Y019501D01*
X011014Y019332D01*
X011144Y019203D01*
X011313Y019133D01*
X011496Y019133D01*
X011665Y019203D01*
X011794Y019332D01*
X011864Y019501D01*
X011864Y019693D01*
X012062Y019693D01*
X012822Y020452D01*
X012947Y020452D01*
X012908Y020414D01*
X012838Y020245D01*
X012838Y019462D01*
X012908Y019293D01*
X013038Y019163D01*
X013207Y019093D01*
X013390Y019093D01*
X013559Y019163D01*
X013688Y019293D01*
X013758Y019462D01*
X013758Y020245D01*
X013688Y020414D01*
X013649Y020452D01*
X013947Y020452D01*
X013908Y020414D01*
X013838Y020245D01*
X013838Y019462D01*
X013908Y019293D01*
X014038Y019163D01*
X014207Y019093D01*
X014390Y019093D01*
X014559Y019163D01*
X014688Y019293D01*
X014758Y019462D01*
X014758Y020245D01*
X014688Y020414D01*
X014649Y020452D01*
X014947Y020452D01*
X014908Y020414D01*
X014838Y020245D01*
X014838Y019462D01*
X014908Y019293D01*
X015038Y019163D01*
X015207Y019093D01*
X015390Y019093D01*
X015559Y019163D01*
X015688Y019293D01*
X015758Y019462D01*
X015758Y020245D01*
X015688Y020414D01*
X015649Y020452D01*
X015947Y020452D01*
X015908Y020414D01*
X015838Y020245D01*
X015838Y019462D01*
X015908Y019293D01*
X016038Y019163D01*
X016207Y019093D01*
X016255Y019093D01*
X016243Y019081D01*
X011208Y019081D01*
X010842Y019447D01*
X010864Y019501D01*
X010864Y020284D01*
X010794Y020453D01*
X010665Y020583D01*
X010496Y020653D01*
X010313Y020653D01*
X010144Y020583D01*
X010014Y020453D01*
X009944Y020284D01*
X009944Y019635D01*
X009864Y019715D01*
X009864Y020284D01*
X009794Y020453D01*
X009665Y020583D01*
X009496Y020653D01*
X009313Y020653D01*
X009144Y020583D01*
X009014Y020453D01*
X008944Y020284D01*
X008944Y019635D01*
X008864Y019715D01*
X008864Y020284D01*
X008794Y020453D01*
X008665Y020583D01*
X008496Y020653D01*
X008313Y020653D01*
X008144Y020583D01*
X008014Y020453D01*
X007944Y020284D01*
X007944Y019501D01*
X008014Y019332D01*
X008144Y019203D01*
X008313Y019133D01*
X008496Y019133D01*
X008665Y019203D01*
X008738Y019276D01*
X009533Y018481D01*
X009099Y018481D01*
X009005Y018387D01*
X009005Y017878D01*
X009099Y017785D01*
X009239Y017785D01*
X009239Y017660D01*
X009195Y017704D01*
X009033Y017771D01*
X008298Y017771D01*
X008137Y017704D01*
X008013Y017580D01*
X007946Y017418D01*
X007946Y017243D01*
X008013Y017082D01*
X008137Y016958D01*
X008298Y016891D01*
X009033Y016891D01*
X009195Y016958D01*
X009239Y017002D01*
X009239Y016660D01*
X009195Y016704D01*
X009033Y016771D01*
X008298Y016771D01*
X008137Y016704D01*
X008013Y016580D01*
X007946Y016418D01*
X007946Y016243D01*
X008013Y016082D01*
X008137Y015958D01*
X008298Y015891D01*
X009033Y015891D01*
X009195Y015958D01*
X009239Y016002D01*
X009239Y015660D01*
X009195Y015704D01*
X009033Y015771D01*
X008298Y015771D01*
X008137Y015704D01*
X008013Y015580D01*
X007946Y015418D01*
X007946Y015243D01*
X008013Y015082D01*
X008081Y015014D01*
X007794Y015014D01*
X007575Y015233D01*
X007575Y015552D01*
X007482Y015646D01*
X006973Y015646D01*
X006879Y015552D01*
X006879Y015044D01*
X006973Y014950D01*
X007293Y014950D01*
X007511Y014731D01*
X007629Y014614D01*
X008047Y014614D01*
X008013Y014580D01*
X007946Y014418D01*
X007946Y014243D01*
X008013Y014082D01*
X008053Y014041D01*
X007892Y014041D01*
X007790Y013939D01*
X005756Y013939D01*
X005639Y013822D01*
X005531Y013714D01*
X005531Y013570D01*
X004664Y012703D01*
X003599Y012703D01*
X003599Y012757D01*
X003505Y012851D01*
X002996Y012851D01*
X002903Y012757D01*
X002903Y012248D01*
X002996Y012155D01*
X003505Y012155D01*
X003599Y012248D01*
X003599Y012303D01*
X004830Y012303D01*
X004947Y012420D01*
X005814Y013287D01*
X005931Y013404D01*
X005931Y013539D01*
X007956Y013539D01*
X008003Y013586D01*
X007992Y013572D01*
X007960Y013507D01*
X007937Y013439D01*
X007926Y013367D01*
X007926Y013334D01*
X008662Y013334D01*
X005861Y013334D01*
X005931Y013492D02*
X007955Y013492D01*
X007926Y013327D02*
X007926Y013295D01*
X007937Y013223D01*
X007960Y013154D01*
X007992Y013090D01*
X008035Y013031D01*
X008086Y012980D01*
X008145Y012937D01*
X008209Y012904D01*
X008278Y012882D01*
X008350Y012871D01*
X008662Y012871D01*
X008662Y013327D01*
X007926Y013327D01*
X007953Y013175D02*
X005702Y013175D01*
X005544Y013017D02*
X008049Y013017D01*
X008058Y012978D02*
X007263Y012978D01*
X006269Y011985D01*
X005949Y011985D01*
X005856Y011891D01*
X005856Y011382D01*
X005949Y011289D01*
X006458Y011289D01*
X006552Y011382D01*
X006552Y011702D01*
X007428Y012578D01*
X007892Y012578D01*
X007935Y012536D01*
X007445Y012536D01*
X007352Y012442D01*
X007352Y011933D01*
X007445Y011840D01*
X007765Y011840D01*
X007893Y011711D01*
X008009Y011595D01*
X007992Y011572D01*
X007960Y011507D01*
X007937Y011439D01*
X007926Y011367D01*
X007926Y011334D01*
X008662Y011334D01*
X008662Y011327D01*
X007926Y011327D01*
X007926Y011295D01*
X007937Y011223D01*
X007960Y011154D01*
X007992Y011090D01*
X008035Y011031D01*
X008086Y010980D01*
X008145Y010937D01*
X008209Y010904D01*
X008278Y010882D01*
X008350Y010871D01*
X008662Y010871D01*
X008662Y011327D01*
X008669Y011327D01*
X008669Y010871D01*
X008982Y010871D01*
X009054Y010882D01*
X009122Y010904D01*
X009187Y010937D01*
X009245Y010980D01*
X009297Y011031D01*
X009339Y011090D01*
X009372Y011154D01*
X009394Y011223D01*
X009406Y011295D01*
X009406Y011327D01*
X008669Y011327D01*
X008669Y011334D01*
X009406Y011334D01*
X009406Y011367D01*
X009394Y011439D01*
X009372Y011507D01*
X009339Y011572D01*
X009323Y011594D01*
X010023Y011594D01*
X010019Y011591D01*
X009952Y011429D01*
X009952Y011254D01*
X010019Y011092D01*
X010143Y010968D01*
X010305Y010901D01*
X011040Y010901D01*
X011201Y010968D01*
X011325Y011092D01*
X011392Y011254D01*
X011392Y011429D01*
X011325Y011591D01*
X011322Y011594D01*
X013060Y011594D01*
X013060Y011540D01*
X013154Y011446D01*
X013525Y011446D01*
X011899Y009819D01*
X011619Y009819D01*
X011525Y009726D01*
X011525Y009217D01*
X011619Y009123D01*
X011890Y009123D01*
X010514Y007747D01*
X010514Y007522D01*
X010407Y007414D01*
X010240Y007581D01*
X009855Y007581D01*
X009583Y007308D01*
X009583Y006923D01*
X009669Y006837D01*
X009486Y006837D01*
X009230Y006581D01*
X008855Y006581D01*
X008590Y006315D01*
X005718Y006315D01*
X005600Y006198D01*
X005167Y005764D01*
X004847Y005764D01*
X004753Y005671D01*
X004753Y005184D01*
X004583Y005184D01*
X004583Y005198D01*
X004490Y005292D01*
X003981Y005292D01*
X003887Y005198D01*
X003887Y004689D01*
X003981Y004596D01*
X004490Y004596D01*
X004583Y004689D01*
X004583Y004704D01*
X008742Y004704D01*
X008830Y004740D01*
X008897Y004808D01*
X009797Y005708D01*
X009855Y005650D01*
X010173Y005650D01*
X010663Y005160D01*
X010752Y005124D01*
X012441Y005124D01*
X012441Y005109D01*
X012446Y005104D01*
X010176Y005104D01*
X010059Y004987D01*
X009419Y004348D01*
X009338Y004429D01*
X009169Y004499D01*
X008986Y004499D01*
X008817Y004429D01*
X008688Y004300D01*
X008618Y004131D01*
X008618Y003348D01*
X008538Y003348D01*
X008538Y004131D01*
X008468Y004300D01*
X008338Y004429D01*
X008169Y004499D01*
X007986Y004499D01*
X007817Y004429D01*
X007688Y004300D01*
X007618Y004131D01*
X007618Y003482D01*
X007538Y003562D01*
X007538Y004131D01*
X007468Y004300D01*
X007338Y004429D01*
X007169Y004499D01*
X006986Y004499D01*
X006817Y004429D01*
X006688Y004300D01*
X006618Y004131D01*
X006618Y003348D01*
X006538Y003348D02*
X006538Y004131D01*
X006468Y004300D01*
X006338Y004429D01*
X006169Y004499D01*
X005986Y004499D01*
X005817Y004429D01*
X005688Y004300D01*
X005618Y004131D01*
X005618Y003348D01*
X005538Y003348D02*
X005538Y004131D01*
X005468Y004300D01*
X005338Y004429D01*
X005169Y004499D01*
X004986Y004499D01*
X004817Y004429D01*
X004688Y004300D01*
X004618Y004131D01*
X004618Y003348D01*
X004538Y003348D02*
X004468Y003178D01*
X004338Y003049D01*
X004169Y002979D01*
X003986Y002979D01*
X003817Y003049D01*
X003860Y003031D02*
X003545Y003031D01*
X003867Y002714D02*
X007819Y002714D01*
X007978Y002556D02*
X004028Y002556D01*
X004190Y002397D02*
X008136Y002397D01*
X008295Y002239D02*
X004351Y002239D01*
X004512Y002080D02*
X008453Y002080D01*
X008672Y002427D02*
X008120Y002979D01*
X008169Y002979D01*
X008338Y003049D01*
X008468Y003178D01*
X008538Y003348D01*
X008618Y003348D02*
X008688Y003178D01*
X008817Y003049D01*
X008986Y002979D01*
X009169Y002979D01*
X009338Y003049D01*
X009468Y003178D01*
X009538Y003348D01*
X009618Y003348D01*
X009688Y003178D01*
X009817Y003049D01*
X009986Y002979D01*
X010169Y002979D01*
X010338Y003049D01*
X010468Y003178D01*
X010538Y003348D01*
X010606Y003348D01*
X010609Y003327D02*
X010633Y003255D01*
X010667Y003187D01*
X010712Y003126D01*
X010765Y003073D01*
X010826Y003029D01*
X010893Y002994D01*
X010965Y002971D01*
X011040Y002959D01*
X011058Y002959D01*
X011058Y003719D01*
X011098Y003719D01*
X011098Y003759D01*
X011558Y003759D01*
X011558Y004077D01*
X011546Y004151D01*
X011522Y004223D01*
X011488Y004291D01*
X011444Y004352D01*
X011390Y004405D01*
X011358Y004429D01*
X011817Y004429D01*
X011688Y004300D01*
X011618Y004131D01*
X011618Y003348D01*
X011549Y003348D01*
X011546Y003327D02*
X011558Y003401D01*
X011558Y003719D01*
X011098Y003719D01*
X011098Y002959D01*
X011115Y002959D01*
X011190Y002971D01*
X011262Y002994D01*
X011329Y003029D01*
X011390Y003073D01*
X011444Y003126D01*
X011488Y003187D01*
X011522Y003255D01*
X011546Y003327D01*
X011618Y003348D02*
X011688Y003178D01*
X011817Y003049D01*
X011986Y002979D01*
X012169Y002979D01*
X012338Y003049D01*
X012468Y003178D01*
X012538Y003348D01*
X013823Y003348D01*
X013823Y003504D02*
X013823Y003192D01*
X014279Y003192D01*
X014279Y003184D01*
X013823Y003184D01*
X013823Y002872D01*
X013834Y002800D01*
X013857Y002731D01*
X013890Y002667D01*
X013932Y002608D01*
X013983Y002557D01*
X014042Y002514D01*
X014107Y002482D01*
X014175Y002459D01*
X014247Y002448D01*
X014279Y002448D01*
X014279Y003184D01*
X014287Y003184D01*
X014287Y003192D01*
X014743Y003192D01*
X014743Y003504D01*
X014732Y003576D01*
X014709Y003644D01*
X014677Y003709D01*
X014634Y003768D01*
X014608Y003794D01*
X014987Y003794D01*
X014910Y003717D01*
X014843Y003555D01*
X014843Y002820D01*
X014910Y002659D01*
X015034Y002535D01*
X015196Y002468D01*
X015371Y002468D01*
X015532Y002535D01*
X015656Y002659D01*
X015723Y002820D01*
X015723Y003538D01*
X015843Y003418D01*
X015843Y002820D01*
X015910Y002659D01*
X016034Y002535D01*
X016196Y002468D01*
X016371Y002468D01*
X016532Y002535D01*
X016656Y002659D01*
X016723Y002820D01*
X016723Y003555D01*
X016656Y003717D01*
X016532Y003841D01*
X016371Y003908D01*
X016196Y003908D01*
X016040Y003844D01*
X015779Y004105D01*
X015650Y004234D01*
X012495Y004234D01*
X012468Y004300D01*
X012338Y004429D01*
X016367Y004429D01*
X016367Y004374D01*
X016461Y004281D01*
X016970Y004281D01*
X017064Y004374D01*
X017064Y004883D01*
X016970Y004977D01*
X016461Y004977D01*
X016367Y004883D01*
X016367Y004829D01*
X015646Y004829D01*
X015646Y005198D01*
X015552Y005292D01*
X015044Y005292D01*
X014950Y005198D01*
X014950Y005104D01*
X013132Y005104D01*
X013137Y005109D01*
X013137Y005618D01*
X013043Y005712D01*
X012534Y005712D01*
X012441Y005618D01*
X012441Y005604D01*
X010899Y005604D01*
X010513Y005990D01*
X010513Y006308D01*
X010384Y006437D01*
X010420Y006437D01*
X010537Y006554D01*
X012428Y008445D01*
X014517Y008445D01*
X014517Y007957D01*
X014611Y007863D01*
X015119Y007863D01*
X015213Y007957D01*
X015213Y007971D01*
X015543Y007971D01*
X015631Y008008D01*
X015698Y008076D01*
X015841Y008218D01*
X016104Y008218D01*
X016197Y008311D01*
X016197Y008820D01*
X016104Y008914D01*
X016095Y008914D01*
X016123Y010619D01*
X016143Y010619D01*
X016237Y010713D01*
X016237Y011222D01*
X016143Y011316D01*
X015634Y011316D01*
X015541Y011222D01*
X015541Y010713D01*
X015634Y010619D01*
X015643Y010619D01*
X015615Y008914D01*
X015595Y008914D01*
X015501Y008820D01*
X015501Y008557D01*
X015396Y008451D01*
X015213Y008451D01*
X015213Y008466D01*
X015119Y008560D01*
X014945Y008560D01*
X014947Y008562D01*
X015380Y008995D01*
X015380Y010462D01*
X015434Y010462D01*
X015528Y010556D01*
X015528Y011064D01*
X015434Y011158D01*
X014926Y011158D01*
X014832Y011064D01*
X014832Y010556D01*
X014926Y010462D01*
X014980Y010462D01*
X014980Y009160D01*
X014664Y008845D01*
X012263Y008845D01*
X010914Y007496D01*
X010914Y007581D01*
X014047Y010714D01*
X014164Y010831D01*
X014164Y011206D01*
X015296Y012338D01*
X015335Y012350D01*
X015379Y012306D01*
X015888Y012306D01*
X015982Y012399D01*
X015982Y012908D01*
X015922Y012968D01*
X015922Y013466D01*
X015828Y013560D01*
X015319Y013560D01*
X015226Y013466D01*
X015226Y013146D01*
X013756Y011677D01*
X013756Y012049D01*
X013755Y012050D01*
X013796Y012091D01*
X013796Y012600D01*
X013702Y012693D01*
X013382Y012693D01*
X013058Y013018D01*
X011251Y013018D01*
X011325Y013092D01*
X011392Y013254D01*
X011392Y013429D01*
X011325Y013591D01*
X011274Y013641D01*
X015302Y013641D01*
X015390Y013730D01*
X015710Y013730D01*
X015804Y013823D01*
X015804Y014332D01*
X015710Y014426D01*
X015201Y014426D01*
X015107Y014332D01*
X015107Y014041D01*
X011274Y014041D01*
X011317Y014084D01*
X011773Y014084D01*
X011867Y014178D01*
X011867Y014686D01*
X011773Y014780D01*
X011719Y014780D01*
X011719Y015511D01*
X012349Y016141D01*
X012668Y016141D01*
X012762Y016234D01*
X012762Y016743D01*
X012668Y016837D01*
X012159Y016837D01*
X012066Y016743D01*
X012066Y016424D01*
X011319Y015676D01*
X011319Y015597D01*
X011201Y015714D01*
X011040Y015781D01*
X010305Y015781D01*
X010143Y015714D01*
X010019Y015591D01*
X009952Y015429D01*
X009952Y015254D01*
X010019Y015092D01*
X010143Y014968D01*
X010305Y014901D01*
X011040Y014901D01*
X011201Y014968D01*
X011319Y015086D01*
X011319Y014780D01*
X011264Y014780D01*
X011199Y014715D01*
X011040Y014781D01*
X010305Y014781D01*
X010143Y014714D01*
X010019Y014591D01*
X009952Y014429D01*
X009952Y014254D01*
X010019Y014092D01*
X010070Y014041D01*
X009279Y014041D01*
X009319Y014082D01*
X009386Y014243D01*
X009386Y014418D01*
X009319Y014580D01*
X009285Y014614D01*
X009397Y014614D01*
X009522Y014739D01*
X009639Y014856D01*
X009639Y017816D01*
X009701Y017878D01*
X009701Y018313D01*
X009807Y018207D01*
X009924Y018090D01*
X013705Y018090D01*
X013756Y018039D01*
X013781Y018039D01*
X014814Y017006D01*
X014931Y016889D01*
X017561Y016889D01*
X017561Y016824D01*
X017498Y016887D01*
X016989Y016887D01*
X016896Y016793D01*
X016896Y016284D01*
X016989Y016191D01*
X017044Y016191D01*
X017044Y014111D01*
X017161Y013994D01*
X018343Y012812D01*
X017839Y012812D01*
X017745Y012718D01*
X017745Y012703D01*
X017459Y012703D01*
X017342Y012586D01*
X017106Y012349D01*
X017106Y004743D01*
X017223Y004626D01*
X017971Y003878D01*
X018123Y003878D01*
X018034Y003841D01*
X017910Y003717D01*
X017843Y003555D01*
X017843Y002820D01*
X017910Y002659D01*
X018034Y002535D01*
X018149Y002487D01*
X018089Y002427D01*
X008672Y002427D01*
X008544Y002556D02*
X013985Y002556D01*
X013865Y002714D02*
X008385Y002714D01*
X008227Y002873D02*
X013823Y002873D01*
X013823Y003031D02*
X012295Y003031D01*
X012472Y003190D02*
X014279Y003190D01*
X014287Y003190D02*
X014843Y003190D01*
X014743Y003184D02*
X014743Y002872D01*
X014732Y002800D01*
X014709Y002731D01*
X014677Y002667D01*
X014634Y002608D01*
X014583Y002557D01*
X014524Y002514D01*
X014460Y002482D01*
X014391Y002459D01*
X014319Y002448D01*
X014287Y002448D01*
X014287Y003184D01*
X014743Y003184D01*
X014743Y003031D02*
X014843Y003031D01*
X014843Y002873D02*
X014743Y002873D01*
X014701Y002714D02*
X014887Y002714D01*
X015013Y002556D02*
X014581Y002556D01*
X014287Y002556D02*
X014279Y002556D01*
X014279Y002714D02*
X014287Y002714D01*
X014279Y002873D02*
X014287Y002873D01*
X014279Y003031D02*
X014287Y003031D01*
X014743Y003348D02*
X014843Y003348D01*
X014843Y003507D02*
X014743Y003507D01*
X014699Y003665D02*
X014889Y003665D01*
X015723Y003507D02*
X015755Y003507D01*
X015723Y003348D02*
X015843Y003348D01*
X015843Y003190D02*
X015723Y003190D01*
X015723Y003031D02*
X015843Y003031D01*
X015843Y002873D02*
X015723Y002873D01*
X015679Y002714D02*
X015887Y002714D01*
X016013Y002556D02*
X015553Y002556D01*
X016553Y002556D02*
X017013Y002556D01*
X017034Y002535D02*
X017196Y002468D01*
X017371Y002468D01*
X017532Y002535D01*
X017656Y002659D01*
X017723Y002820D01*
X017723Y003555D01*
X017656Y003717D01*
X017532Y003841D01*
X017371Y003908D01*
X017196Y003908D01*
X017034Y003841D01*
X016910Y003717D01*
X016843Y003555D01*
X016843Y002820D01*
X016910Y002659D01*
X017034Y002535D01*
X016887Y002714D02*
X016679Y002714D01*
X016723Y002873D02*
X016843Y002873D01*
X016843Y003031D02*
X016723Y003031D01*
X016723Y003190D02*
X016843Y003190D01*
X016843Y003348D02*
X016723Y003348D01*
X016723Y003507D02*
X016843Y003507D01*
X016889Y003665D02*
X016678Y003665D01*
X016549Y003824D02*
X017017Y003824D01*
X016988Y004299D02*
X017549Y004299D01*
X017391Y004458D02*
X017064Y004458D01*
X017064Y004616D02*
X017232Y004616D01*
X017106Y004775D02*
X017064Y004775D01*
X017106Y004933D02*
X017013Y004933D01*
X017106Y005092D02*
X015646Y005092D01*
X015646Y004933D02*
X016417Y004933D01*
X016442Y004299D02*
X012468Y004299D01*
X012555Y003794D02*
X013959Y003794D01*
X013932Y003768D01*
X013890Y003709D01*
X013857Y003644D01*
X013834Y003576D01*
X013823Y003504D01*
X013824Y003507D02*
X012538Y003507D01*
X012538Y003665D02*
X013868Y003665D01*
X012555Y003794D02*
X012538Y003777D01*
X012538Y003348D01*
X011860Y003031D02*
X011333Y003031D01*
X011489Y003190D02*
X011683Y003190D01*
X011618Y003507D02*
X011558Y003507D01*
X011558Y003665D02*
X011618Y003665D01*
X011618Y003824D02*
X011558Y003824D01*
X011558Y003982D02*
X011618Y003982D01*
X011622Y004141D02*
X011547Y004141D01*
X011482Y004299D02*
X011688Y004299D01*
X011058Y003759D02*
X011058Y003719D01*
X010598Y003719D01*
X010598Y003401D01*
X010609Y003327D01*
X010538Y003348D02*
X010538Y004131D01*
X010497Y004230D01*
X010696Y004429D01*
X010797Y004429D01*
X010765Y004405D01*
X010712Y004352D01*
X010667Y004291D01*
X010633Y004223D01*
X010609Y004151D01*
X010598Y004077D01*
X010598Y003759D01*
X011058Y003759D01*
X011058Y003665D02*
X011098Y003665D01*
X011098Y003507D02*
X011058Y003507D01*
X011058Y003348D02*
X011098Y003348D01*
X011098Y003190D02*
X011058Y003190D01*
X011058Y003031D02*
X011098Y003031D01*
X010822Y003031D02*
X010295Y003031D01*
X010472Y003190D02*
X010666Y003190D01*
X010598Y003507D02*
X010538Y003507D01*
X010538Y003665D02*
X010598Y003665D01*
X010598Y003824D02*
X010538Y003824D01*
X010538Y003982D02*
X010598Y003982D01*
X010608Y004141D02*
X010533Y004141D01*
X010566Y004299D02*
X010673Y004299D01*
X010005Y004933D02*
X009023Y004933D01*
X008864Y004775D02*
X009846Y004775D01*
X009688Y004616D02*
X004510Y004616D01*
X004269Y004458D02*
X004887Y004458D01*
X004688Y004299D02*
X004468Y004299D01*
X004533Y004141D02*
X004622Y004141D01*
X004618Y003982D02*
X004538Y003982D01*
X004538Y003824D02*
X004618Y003824D01*
X004618Y003665D02*
X004538Y003665D01*
X004538Y003507D02*
X004618Y003507D01*
X004683Y003190D02*
X004472Y003190D01*
X004295Y003031D02*
X004860Y003031D01*
X005295Y003031D02*
X005860Y003031D01*
X005683Y003190D02*
X005472Y003190D01*
X005538Y003507D02*
X005618Y003507D01*
X005618Y003665D02*
X005538Y003665D01*
X005538Y003824D02*
X005618Y003824D01*
X005618Y003982D02*
X005538Y003982D01*
X005533Y004141D02*
X005622Y004141D01*
X005688Y004299D02*
X005468Y004299D01*
X005269Y004458D02*
X005887Y004458D01*
X006269Y004458D02*
X006887Y004458D01*
X006688Y004299D02*
X006468Y004299D01*
X006533Y004141D02*
X006622Y004141D01*
X006618Y003982D02*
X006538Y003982D01*
X006538Y003824D02*
X006618Y003824D01*
X006618Y003665D02*
X006538Y003665D01*
X006538Y003507D02*
X006618Y003507D01*
X006683Y003190D02*
X006472Y003190D01*
X006295Y003031D02*
X006860Y003031D01*
X007295Y003031D02*
X007502Y003031D01*
X007464Y002789D02*
X005789Y002789D01*
X004835Y001763D02*
X025284Y001763D01*
X025265Y001605D02*
X004996Y001605D01*
X005158Y001446D02*
X025275Y001446D01*
X025341Y001288D02*
X005319Y001288D01*
X005480Y001129D02*
X025471Y001129D01*
X025350Y001922D02*
X004674Y001922D01*
X003618Y003507D02*
X003061Y003507D01*
X002899Y003665D02*
X003618Y003665D01*
X003618Y003824D02*
X002738Y003824D01*
X002577Y003982D02*
X003618Y003982D01*
X003622Y004141D02*
X002415Y004141D01*
X002254Y004299D02*
X003688Y004299D01*
X003887Y004458D02*
X002093Y004458D01*
X001931Y004616D02*
X003960Y004616D01*
X003887Y004775D02*
X001770Y004775D01*
X001609Y004933D02*
X003887Y004933D01*
X003887Y005092D02*
X001447Y005092D01*
X001286Y005250D02*
X003939Y005250D01*
X004235Y004944D02*
X008694Y004944D01*
X009865Y006115D01*
X010048Y006115D01*
X010799Y005364D01*
X012789Y005364D01*
X013137Y005409D02*
X017106Y005409D01*
X017106Y005567D02*
X013137Y005567D01*
X013137Y005250D02*
X015002Y005250D01*
X015594Y005250D02*
X017106Y005250D01*
X017506Y005250D02*
X023714Y005250D01*
X023714Y005150D02*
X024001Y004863D01*
X024407Y004863D01*
X024694Y005150D01*
X024694Y005556D01*
X024407Y005843D01*
X024001Y005843D01*
X023714Y005556D01*
X023714Y005150D01*
X023772Y005092D02*
X017506Y005092D01*
X017506Y004933D02*
X017992Y004933D01*
X017942Y004775D02*
X017640Y004775D01*
X017798Y004616D02*
X017942Y004616D01*
X017708Y004141D02*
X015743Y004141D01*
X015901Y003982D02*
X017866Y003982D01*
X018017Y003824D02*
X017549Y003824D01*
X017678Y003665D02*
X017889Y003665D01*
X017843Y003507D02*
X017723Y003507D01*
X017723Y003348D02*
X017843Y003348D01*
X017843Y003190D02*
X017723Y003190D01*
X017723Y003031D02*
X017843Y003031D01*
X017843Y002873D02*
X017723Y002873D01*
X017679Y002714D02*
X017887Y002714D01*
X018013Y002556D02*
X017553Y002556D01*
X018308Y002080D02*
X025493Y002080D01*
X026284Y002080D02*
X026397Y002080D01*
X026397Y002239D02*
X018467Y002239D01*
X018625Y002397D02*
X026397Y002397D01*
X026397Y002556D02*
X021553Y002556D01*
X021532Y002535D02*
X021656Y002659D01*
X021723Y002820D01*
X021723Y003555D01*
X021656Y003717D01*
X021532Y003841D01*
X021371Y003908D01*
X021196Y003908D01*
X021034Y003841D01*
X020910Y003717D01*
X020843Y003555D01*
X020843Y002820D01*
X020910Y002659D01*
X021034Y002535D01*
X021196Y002468D01*
X021371Y002468D01*
X021532Y002535D01*
X021679Y002714D02*
X026398Y002714D01*
X026398Y002873D02*
X025416Y002873D01*
X025575Y003031D02*
X026398Y003031D01*
X026398Y003190D02*
X025694Y003190D01*
X025694Y003348D02*
X026398Y003348D01*
X026399Y003507D02*
X025696Y003507D01*
X025855Y003665D02*
X026399Y003665D01*
X026399Y003824D02*
X026013Y003824D01*
X026172Y003982D02*
X026399Y003982D01*
X026400Y004141D02*
X026330Y004141D01*
X026239Y004389D02*
X025204Y003354D01*
X025204Y003353D01*
X024833Y003031D02*
X024575Y003031D01*
X024694Y003150D02*
X024407Y002863D01*
X024001Y002863D01*
X023714Y003150D01*
X023714Y003556D01*
X024001Y003843D01*
X024407Y003843D01*
X024694Y003556D01*
X024694Y003150D01*
X024694Y003190D02*
X024714Y003190D01*
X024714Y003348D02*
X024694Y003348D01*
X024694Y003507D02*
X024714Y003507D01*
X024823Y003665D02*
X024584Y003665D01*
X024426Y003824D02*
X024981Y003824D01*
X024882Y003982D02*
X024526Y003982D01*
X024684Y004141D02*
X024723Y004141D01*
X024714Y004299D02*
X024694Y004299D01*
X024694Y004458D02*
X024714Y004458D01*
X024774Y004616D02*
X024633Y004616D01*
X024475Y004775D02*
X024932Y004775D01*
X025001Y004863D02*
X025407Y004863D01*
X025694Y005150D01*
X025694Y005556D01*
X025407Y005843D01*
X025001Y005843D01*
X024714Y005556D01*
X024714Y005150D01*
X025001Y004863D01*
X024931Y004933D02*
X024477Y004933D01*
X024635Y005092D02*
X024772Y005092D01*
X024714Y005250D02*
X024694Y005250D01*
X024694Y005409D02*
X024714Y005409D01*
X024725Y005567D02*
X024682Y005567D01*
X024524Y005726D02*
X024883Y005726D01*
X025001Y005863D02*
X025407Y005863D01*
X025694Y006150D01*
X025694Y006556D01*
X025407Y006843D01*
X025001Y006843D01*
X024714Y006556D01*
X024714Y006150D01*
X025001Y005863D01*
X024980Y005884D02*
X024428Y005884D01*
X024407Y005863D02*
X024694Y006150D01*
X024694Y006556D01*
X024407Y006843D01*
X024001Y006843D01*
X023714Y006556D01*
X023714Y006150D01*
X024001Y005863D01*
X024407Y005863D01*
X024586Y006043D02*
X024821Y006043D01*
X024714Y006201D02*
X024694Y006201D01*
X024694Y006360D02*
X024714Y006360D01*
X024714Y006518D02*
X024694Y006518D01*
X024573Y006677D02*
X024834Y006677D01*
X024993Y006835D02*
X024414Y006835D01*
X024407Y006863D02*
X024694Y007150D01*
X024694Y007556D01*
X024553Y007697D01*
X024830Y007697D01*
X024999Y007865D01*
X025001Y007863D01*
X025407Y007863D01*
X025694Y008150D01*
X025694Y008556D01*
X025407Y008843D01*
X025001Y008843D01*
X024714Y008556D01*
X024714Y008150D01*
X024716Y008148D01*
X024664Y008097D01*
X024640Y008097D01*
X024694Y008150D01*
X024694Y008556D01*
X024407Y008843D01*
X024001Y008843D01*
X023714Y008556D01*
X023714Y008150D01*
X023802Y008062D01*
X023720Y007979D01*
X021672Y005931D01*
X018796Y005931D01*
X018796Y005986D01*
X018702Y006079D01*
X018296Y006079D01*
X018323Y006107D01*
X018323Y006161D01*
X019790Y006161D01*
X020351Y006722D01*
X020671Y006722D01*
X020764Y006815D01*
X020764Y007324D01*
X020671Y007418D01*
X020162Y007418D01*
X020068Y007324D01*
X020068Y007004D01*
X019625Y006561D01*
X018323Y006561D01*
X018323Y006615D01*
X018230Y006709D01*
X017721Y006709D01*
X017627Y006615D01*
X017627Y006107D01*
X017721Y006013D01*
X018127Y006013D01*
X018100Y005986D01*
X018100Y005477D01*
X018193Y005383D01*
X018702Y005383D01*
X018796Y005477D01*
X018796Y005531D01*
X021838Y005531D01*
X023714Y007407D01*
X023714Y007150D01*
X024001Y006863D01*
X024407Y006863D01*
X024537Y006994D02*
X024870Y006994D01*
X025001Y006863D02*
X024714Y007150D01*
X024714Y007556D01*
X025001Y007843D01*
X025407Y007843D01*
X025694Y007556D01*
X025694Y007150D01*
X025407Y006863D01*
X025001Y006863D01*
X024714Y007152D02*
X024694Y007152D01*
X024694Y007311D02*
X024714Y007311D01*
X024714Y007469D02*
X024694Y007469D01*
X024622Y007628D02*
X024785Y007628D01*
X024920Y007786D02*
X024944Y007786D01*
X024671Y008103D02*
X024647Y008103D01*
X024694Y008262D02*
X024714Y008262D01*
X024714Y008420D02*
X024694Y008420D01*
X024671Y008579D02*
X024736Y008579D01*
X024895Y008737D02*
X024512Y008737D01*
X024407Y008863D02*
X024694Y009150D01*
X024694Y009556D01*
X024407Y009843D01*
X024001Y009843D01*
X023714Y009556D01*
X023714Y009150D01*
X024001Y008863D01*
X024407Y008863D01*
X024439Y008896D02*
X024968Y008896D01*
X025001Y008863D02*
X025407Y008863D01*
X025694Y009150D01*
X025694Y009556D01*
X025407Y009843D01*
X025001Y009843D01*
X024714Y009556D01*
X024714Y009150D01*
X025001Y008863D01*
X024810Y009054D02*
X024598Y009054D01*
X024694Y009213D02*
X024714Y009213D01*
X024714Y009371D02*
X024694Y009371D01*
X024694Y009530D02*
X024714Y009530D01*
X024846Y009688D02*
X024561Y009688D01*
X024407Y009863D02*
X024694Y010150D01*
X024694Y010556D01*
X024407Y010843D01*
X024067Y010843D01*
X024047Y010863D01*
X024407Y010863D01*
X024694Y011150D01*
X024694Y011556D01*
X024407Y011843D01*
X024001Y011843D01*
X023754Y011596D01*
X023672Y011678D01*
X023370Y011979D01*
X023370Y012299D01*
X023277Y012393D01*
X022768Y012393D01*
X022674Y012299D01*
X022674Y011790D01*
X022768Y011697D01*
X023087Y011697D01*
X023389Y011395D01*
X023389Y010956D01*
X023751Y010594D01*
X023714Y010556D01*
X023714Y010150D01*
X024001Y009863D01*
X024407Y009863D01*
X024549Y010005D02*
X024859Y010005D01*
X025001Y009863D02*
X024714Y010150D01*
X024714Y010556D01*
X025001Y010843D01*
X025407Y010843D01*
X025694Y010556D01*
X025694Y010150D01*
X025407Y009863D01*
X025001Y009863D01*
X024714Y010164D02*
X024694Y010164D01*
X024694Y010322D02*
X024714Y010322D01*
X024714Y010481D02*
X024694Y010481D01*
X024610Y010639D02*
X024797Y010639D01*
X024955Y010798D02*
X024452Y010798D01*
X024500Y010956D02*
X024908Y010956D01*
X025001Y010863D02*
X025407Y010863D01*
X025694Y011150D01*
X025694Y011556D01*
X025407Y011843D01*
X025001Y011843D01*
X024714Y011556D01*
X024714Y011150D01*
X025001Y010863D01*
X024749Y011115D02*
X024658Y011115D01*
X024694Y011273D02*
X024714Y011273D01*
X024714Y011432D02*
X024694Y011432D01*
X024659Y011590D02*
X024748Y011590D01*
X024906Y011749D02*
X024501Y011749D01*
X024407Y011863D02*
X024001Y011863D01*
X023714Y012150D01*
X023714Y012556D01*
X024001Y012843D01*
X024407Y012843D01*
X024694Y012556D01*
X024694Y012150D01*
X024407Y011863D01*
X024451Y011907D02*
X024956Y011907D01*
X025001Y011863D02*
X025407Y011863D01*
X025694Y012150D01*
X025694Y012556D01*
X025407Y012843D01*
X025001Y012843D01*
X024714Y012556D01*
X024714Y012150D01*
X025001Y011863D01*
X024798Y012066D02*
X024609Y012066D01*
X024694Y012224D02*
X024714Y012224D01*
X024714Y012383D02*
X024694Y012383D01*
X024694Y012541D02*
X024714Y012541D01*
X024857Y012700D02*
X024550Y012700D01*
X024407Y012863D02*
X024694Y013150D01*
X024694Y013556D01*
X024407Y013843D01*
X024001Y013843D01*
X023714Y013556D01*
X023714Y013150D01*
X024001Y012863D01*
X024407Y012863D01*
X024560Y013017D02*
X024847Y013017D01*
X024714Y013150D02*
X025001Y012863D01*
X025407Y012863D01*
X025694Y013150D01*
X025694Y013556D01*
X025407Y013843D01*
X025001Y013843D01*
X024714Y013556D01*
X024714Y013150D01*
X024714Y013175D02*
X024694Y013175D01*
X024694Y013334D02*
X024714Y013334D01*
X024714Y013492D02*
X024694Y013492D01*
X024599Y013651D02*
X024808Y013651D01*
X024967Y013809D02*
X024440Y013809D01*
X024511Y013968D02*
X024896Y013968D01*
X024737Y014126D02*
X024670Y014126D01*
X024694Y014285D02*
X024714Y014285D01*
X024714Y014443D02*
X024694Y014443D01*
X024648Y014602D02*
X024759Y014602D01*
X024786Y015077D02*
X024621Y015077D01*
X024694Y015236D02*
X024714Y015236D01*
X024714Y015394D02*
X024694Y015394D01*
X024694Y015553D02*
X024714Y015553D01*
X024845Y015711D02*
X024869Y015711D01*
X025413Y015870D02*
X026416Y015870D01*
X026417Y016028D02*
X025572Y016028D01*
X025694Y016187D02*
X026417Y016187D01*
X026417Y016345D02*
X025694Y016345D01*
X025694Y016504D02*
X026417Y016504D01*
X026417Y016662D02*
X025587Y016662D01*
X025429Y016821D02*
X026418Y016821D01*
X026418Y016979D02*
X025523Y016979D01*
X025407Y016863D02*
X025694Y017150D01*
X025694Y017556D01*
X025407Y017843D01*
X025001Y017843D01*
X024714Y017556D01*
X024714Y017150D01*
X025001Y016863D01*
X025407Y016863D01*
X025681Y017138D02*
X026418Y017138D01*
X026418Y017296D02*
X025694Y017296D01*
X025694Y017455D02*
X026419Y017455D01*
X026419Y017613D02*
X025636Y017613D01*
X025478Y017772D02*
X026419Y017772D01*
X026419Y017930D02*
X025474Y017930D01*
X025407Y017863D02*
X025694Y018150D01*
X025694Y018556D01*
X025407Y018843D01*
X025001Y018843D01*
X024714Y018556D01*
X024714Y018150D01*
X024716Y018148D01*
X024631Y018064D01*
X024607Y018064D01*
X024694Y018150D01*
X024694Y018556D01*
X024407Y018843D01*
X024001Y018843D01*
X023714Y018556D01*
X023714Y018553D01*
X020869Y018553D01*
X020757Y018441D01*
X020437Y018441D01*
X020344Y018348D01*
X020344Y017839D01*
X020437Y017745D01*
X020946Y017745D01*
X021040Y017839D01*
X021040Y018153D01*
X023714Y018153D01*
X023714Y018150D01*
X023800Y018064D01*
X023489Y018064D01*
X023427Y018127D01*
X022918Y018127D01*
X022824Y018033D01*
X022824Y017524D01*
X022918Y017430D01*
X023427Y017430D01*
X023520Y017524D01*
X023520Y017664D01*
X023821Y017664D01*
X023714Y017556D01*
X023714Y017150D01*
X024001Y016863D01*
X024407Y016863D01*
X024694Y017150D01*
X024694Y017556D01*
X024586Y017664D01*
X024797Y017664D01*
X024999Y017865D01*
X025001Y017863D01*
X025407Y017863D01*
X025632Y018089D02*
X026419Y018089D01*
X026420Y018247D02*
X025694Y018247D01*
X025694Y018406D02*
X026420Y018406D01*
X026420Y018564D02*
X025685Y018564D01*
X025527Y018723D02*
X026420Y018723D01*
X026421Y018881D02*
X025425Y018881D01*
X025407Y018863D02*
X025694Y019150D01*
X025694Y019556D01*
X025407Y019843D01*
X025001Y019843D01*
X024714Y019556D01*
X024714Y019150D01*
X025001Y018863D01*
X025407Y018863D01*
X025583Y019040D02*
X026421Y019040D01*
X026421Y019198D02*
X025694Y019198D01*
X025694Y019357D02*
X026421Y019357D01*
X026422Y019515D02*
X025694Y019515D01*
X025576Y019674D02*
X026422Y019674D01*
X026422Y019832D02*
X025417Y019832D01*
X025415Y019843D02*
X025714Y020142D01*
X025714Y020340D01*
X025217Y020340D01*
X025217Y019843D01*
X025415Y019843D01*
X025563Y019991D02*
X026422Y019991D01*
X026422Y020149D02*
X025714Y020149D01*
X025714Y020308D02*
X026423Y020308D01*
X026423Y020466D02*
X025714Y020466D01*
X025653Y020625D02*
X026423Y020625D01*
X025217Y020308D02*
X025190Y020308D01*
X025190Y020149D02*
X025217Y020149D01*
X025217Y019991D02*
X025190Y019991D01*
X024990Y019832D02*
X024417Y019832D01*
X024407Y019843D02*
X024001Y019843D01*
X023714Y019556D01*
X023714Y019150D01*
X024001Y018863D01*
X024407Y018863D01*
X024694Y019150D01*
X024694Y019556D01*
X024407Y019843D01*
X024563Y019991D02*
X024845Y019991D01*
X024831Y019674D02*
X024576Y019674D01*
X024694Y019515D02*
X024714Y019515D01*
X024714Y019357D02*
X024694Y019357D01*
X024694Y019198D02*
X024714Y019198D01*
X024824Y019040D02*
X024583Y019040D01*
X024425Y018881D02*
X024982Y018881D01*
X024880Y018723D02*
X024527Y018723D01*
X024685Y018564D02*
X024722Y018564D01*
X024714Y018406D02*
X024694Y018406D01*
X024694Y018247D02*
X024714Y018247D01*
X024656Y018089D02*
X024632Y018089D01*
X024905Y017772D02*
X024929Y017772D01*
X024771Y017613D02*
X024636Y017613D01*
X024694Y017455D02*
X024714Y017455D01*
X024714Y017296D02*
X024694Y017296D01*
X024681Y017138D02*
X024726Y017138D01*
X024884Y016979D02*
X024523Y016979D01*
X024429Y016821D02*
X024978Y016821D01*
X024820Y016662D02*
X024587Y016662D01*
X024694Y016504D02*
X024714Y016504D01*
X024714Y016345D02*
X024694Y016345D01*
X024694Y016187D02*
X024714Y016187D01*
X025538Y015711D02*
X026416Y015711D01*
X026416Y015553D02*
X025694Y015553D01*
X025694Y015394D02*
X026416Y015394D01*
X026415Y015236D02*
X025694Y015236D01*
X025725Y015077D02*
X026415Y015077D01*
X026415Y014919D02*
X025898Y014919D01*
X026057Y014760D02*
X026415Y014760D01*
X026415Y014602D02*
X026215Y014602D01*
X026374Y014443D02*
X026414Y014443D01*
X026239Y014239D02*
X026239Y004389D01*
X025968Y004458D02*
X025694Y004458D01*
X025694Y004299D02*
X025810Y004299D01*
X025633Y004616D02*
X025999Y004616D01*
X025999Y004775D02*
X025475Y004775D01*
X025477Y004933D02*
X025999Y004933D01*
X025999Y005092D02*
X025635Y005092D01*
X025694Y005250D02*
X025999Y005250D01*
X025999Y005409D02*
X025694Y005409D01*
X025682Y005567D02*
X025999Y005567D01*
X025999Y005726D02*
X025524Y005726D01*
X025428Y005884D02*
X025999Y005884D01*
X025999Y006043D02*
X025586Y006043D01*
X025694Y006201D02*
X025999Y006201D01*
X025999Y006360D02*
X025694Y006360D01*
X025694Y006518D02*
X025999Y006518D01*
X025999Y006677D02*
X025573Y006677D01*
X025414Y006835D02*
X025999Y006835D01*
X025999Y006994D02*
X025537Y006994D01*
X025694Y007152D02*
X025999Y007152D01*
X025999Y007311D02*
X025694Y007311D01*
X025694Y007469D02*
X025999Y007469D01*
X025999Y007628D02*
X025622Y007628D01*
X025463Y007786D02*
X025999Y007786D01*
X025999Y007945D02*
X025488Y007945D01*
X025647Y008103D02*
X025999Y008103D01*
X025999Y008262D02*
X025694Y008262D01*
X025694Y008420D02*
X025999Y008420D01*
X025999Y008579D02*
X025671Y008579D01*
X025512Y008737D02*
X025999Y008737D01*
X025999Y008896D02*
X025439Y008896D01*
X025598Y009054D02*
X025999Y009054D01*
X025999Y009213D02*
X025694Y009213D01*
X025694Y009371D02*
X025999Y009371D01*
X025999Y009530D02*
X025694Y009530D01*
X025561Y009688D02*
X025999Y009688D01*
X025999Y009847D02*
X021774Y009847D01*
X021774Y010005D02*
X023859Y010005D01*
X023714Y010164D02*
X021735Y010164D01*
X021621Y010322D02*
X023714Y010322D01*
X023714Y010481D02*
X021504Y010481D01*
X021504Y010639D02*
X023705Y010639D01*
X023547Y010798D02*
X021504Y010798D01*
X021394Y010956D02*
X023389Y010956D01*
X023389Y011115D02*
X021236Y011115D01*
X021077Y011273D02*
X023389Y011273D01*
X023352Y011432D02*
X020919Y011432D01*
X020760Y011590D02*
X023194Y011590D01*
X023601Y011749D02*
X023906Y011749D01*
X023956Y011907D02*
X023442Y011907D01*
X023370Y012066D02*
X023798Y012066D01*
X023714Y012224D02*
X023370Y012224D01*
X023286Y012383D02*
X023714Y012383D01*
X023714Y012541D02*
X019809Y012541D01*
X019968Y012383D02*
X022758Y012383D01*
X022674Y012224D02*
X020126Y012224D01*
X020285Y012066D02*
X022674Y012066D01*
X022674Y011907D02*
X020443Y011907D01*
X020602Y011749D02*
X022716Y011749D01*
X023857Y012700D02*
X019651Y012700D01*
X019402Y012383D02*
X019338Y012383D01*
X019243Y012541D02*
X019179Y012541D01*
X019085Y012700D02*
X019021Y012700D01*
X018926Y012858D02*
X018862Y012858D01*
X018768Y013017D02*
X018704Y013017D01*
X018609Y013175D02*
X018545Y013175D01*
X018451Y013334D02*
X018387Y013334D01*
X018292Y013492D02*
X018228Y013492D01*
X018134Y013651D02*
X018070Y013651D01*
X017975Y013809D02*
X017911Y013809D01*
X017817Y013968D02*
X017753Y013968D01*
X017709Y014126D02*
X017594Y014126D01*
X017709Y014285D02*
X017444Y014285D01*
X017444Y014443D02*
X017709Y014443D01*
X017709Y014602D02*
X017444Y014602D01*
X017444Y014760D02*
X017709Y014760D01*
X017709Y014919D02*
X017444Y014919D01*
X017444Y015077D02*
X017709Y015077D01*
X017709Y015236D02*
X017444Y015236D01*
X017444Y015394D02*
X017709Y015394D01*
X017709Y015553D02*
X017444Y015553D01*
X017444Y015711D02*
X017709Y015711D01*
X017709Y015870D02*
X017444Y015870D01*
X017444Y016028D02*
X017709Y016028D01*
X017709Y016187D02*
X017444Y016187D01*
X017592Y016345D02*
X017640Y016345D01*
X017044Y016187D02*
X012714Y016187D01*
X012762Y016345D02*
X016896Y016345D01*
X016896Y016504D02*
X012762Y016504D01*
X012762Y016662D02*
X016896Y016662D01*
X016923Y016821D02*
X012684Y016821D01*
X012143Y016821D02*
X009639Y016821D01*
X009639Y016979D02*
X010132Y016979D01*
X010143Y016968D02*
X010305Y016901D01*
X011040Y016901D01*
X011201Y016968D01*
X011325Y017092D01*
X011392Y017254D01*
X011392Y017429D01*
X011325Y017591D01*
X011201Y017714D01*
X011040Y017781D01*
X010305Y017781D01*
X010143Y017714D01*
X010019Y017591D01*
X009952Y017429D01*
X009952Y017254D01*
X010019Y017092D01*
X010143Y016968D01*
X010000Y017138D02*
X009639Y017138D01*
X009639Y017296D02*
X009952Y017296D01*
X009963Y017455D02*
X009639Y017455D01*
X009639Y017613D02*
X010042Y017613D01*
X010282Y017772D02*
X009639Y017772D01*
X009701Y017930D02*
X013889Y017930D01*
X014048Y017772D02*
X011063Y017772D01*
X011302Y017613D02*
X014206Y017613D01*
X014365Y017455D02*
X011381Y017455D01*
X011392Y017296D02*
X014523Y017296D01*
X014682Y017138D02*
X011344Y017138D01*
X011212Y016979D02*
X014840Y016979D01*
X014989Y016764D02*
X015189Y016764D01*
X015639Y015939D02*
X015179Y015759D01*
X015179Y015359D01*
X016514Y013814D01*
X016514Y013189D01*
X016514Y013164D01*
X016514Y013139D01*
X016539Y013139D01*
X016564Y013164D01*
X016539Y013164D01*
X016514Y013189D01*
X015922Y013175D02*
X017979Y013175D01*
X017821Y013334D02*
X015922Y013334D01*
X015895Y013492D02*
X017662Y013492D01*
X017504Y013651D02*
X015312Y013651D01*
X015252Y013492D02*
X011366Y013492D01*
X011392Y013334D02*
X015226Y013334D01*
X015226Y013175D02*
X011360Y013175D01*
X011815Y014126D02*
X015107Y014126D01*
X015107Y014285D02*
X011867Y014285D01*
X011867Y014443D02*
X017044Y014443D01*
X017044Y014285D02*
X015804Y014285D01*
X015804Y014126D02*
X017044Y014126D01*
X017187Y013968D02*
X015804Y013968D01*
X015790Y013809D02*
X017345Y013809D01*
X017044Y014602D02*
X011867Y014602D01*
X011793Y014760D02*
X017044Y014760D01*
X017044Y014919D02*
X011719Y014919D01*
X011719Y015077D02*
X017044Y015077D01*
X017044Y015236D02*
X011719Y015236D01*
X011719Y015394D02*
X017044Y015394D01*
X017044Y015553D02*
X011761Y015553D01*
X011919Y015711D02*
X017044Y015711D01*
X017044Y015870D02*
X012078Y015870D01*
X012236Y016028D02*
X017044Y016028D01*
X016914Y015939D02*
X015639Y015939D01*
X013706Y018089D02*
X009701Y018089D01*
X009701Y018247D02*
X009767Y018247D01*
X009807Y018207D02*
X009807Y018207D01*
X009450Y018564D02*
X008205Y018564D01*
X008205Y018406D02*
X009024Y018406D01*
X009005Y018247D02*
X007457Y018247D01*
X007457Y018089D02*
X009005Y018089D01*
X009005Y017930D02*
X007457Y017930D01*
X007457Y017918D02*
X007364Y017824D01*
X006855Y017824D01*
X006761Y017918D01*
X006761Y017972D01*
X005292Y017972D01*
X005292Y017957D01*
X005198Y017863D01*
X004879Y017863D01*
X004179Y017164D01*
X003672Y017164D01*
X002992Y016484D01*
X002986Y016484D01*
X002961Y016423D01*
X002831Y016294D01*
X002662Y016224D01*
X001879Y016224D01*
X001710Y016294D01*
X001581Y016423D01*
X001511Y016592D01*
X001511Y016775D01*
X001581Y016945D01*
X001710Y017074D01*
X001879Y017144D01*
X002662Y017144D01*
X002831Y017074D01*
X002924Y016981D01*
X003389Y017447D01*
X003506Y017564D01*
X004013Y017564D01*
X004596Y018146D01*
X004596Y018466D01*
X004689Y018560D01*
X005198Y018560D01*
X005292Y018466D01*
X005292Y018372D01*
X006761Y018372D01*
X006761Y018427D01*
X006855Y018520D01*
X007364Y018520D01*
X007457Y018427D01*
X007457Y017918D01*
X007457Y018406D02*
X007509Y018406D01*
X007509Y018564D02*
X003434Y018564D01*
X003275Y018406D02*
X004596Y018406D01*
X004596Y018247D02*
X003117Y018247D01*
X002958Y018089D02*
X004538Y018089D01*
X004380Y017930D02*
X002966Y017930D01*
X003031Y017772D02*
X004221Y017772D01*
X004063Y017613D02*
X003031Y017613D01*
X002974Y017455D02*
X003397Y017455D01*
X003239Y017296D02*
X002834Y017296D01*
X002677Y017138D02*
X003080Y017138D01*
X003329Y016821D02*
X009239Y016821D01*
X009239Y016979D02*
X009217Y016979D01*
X009236Y016662D02*
X009239Y016662D01*
X009639Y016662D02*
X010091Y016662D01*
X010143Y016714D02*
X010019Y016591D01*
X009952Y016429D01*
X009952Y016254D01*
X010019Y016092D01*
X010143Y015968D01*
X010305Y015901D01*
X011040Y015901D01*
X011201Y015968D01*
X011325Y016092D01*
X011392Y016254D01*
X011392Y016429D01*
X011325Y016591D01*
X011201Y016714D01*
X011040Y016781D01*
X010305Y016781D01*
X010143Y016714D01*
X009983Y016504D02*
X009639Y016504D01*
X009639Y016345D02*
X009952Y016345D01*
X009980Y016187D02*
X009639Y016187D01*
X009639Y016028D02*
X010083Y016028D01*
X010140Y015711D02*
X009639Y015711D01*
X009639Y015553D02*
X010003Y015553D01*
X009952Y015394D02*
X009639Y015394D01*
X009639Y015236D02*
X009960Y015236D01*
X010034Y015077D02*
X009639Y015077D01*
X009639Y014919D02*
X010262Y014919D01*
X010254Y014760D02*
X009543Y014760D01*
X009297Y014602D02*
X010030Y014602D01*
X009958Y014443D02*
X009375Y014443D01*
X009386Y014285D02*
X009952Y014285D01*
X010005Y014126D02*
X009337Y014126D01*
X009286Y013641D02*
X010070Y013641D01*
X010019Y013591D01*
X009952Y013429D01*
X009952Y013254D01*
X010019Y013092D01*
X010093Y013018D01*
X009977Y013018D01*
X009977Y013072D01*
X009883Y013166D01*
X009376Y013166D01*
X009394Y013223D01*
X009406Y013295D01*
X009406Y013327D01*
X008669Y013327D01*
X008669Y012871D01*
X008982Y012871D01*
X009054Y012882D01*
X009122Y012904D01*
X009187Y012937D01*
X009245Y012980D01*
X009281Y013015D01*
X009281Y012618D01*
X009195Y012704D01*
X009033Y012771D01*
X008298Y012771D01*
X008275Y012761D01*
X008175Y012861D01*
X008058Y012978D01*
X008178Y012858D02*
X009281Y012858D01*
X009281Y012700D02*
X009199Y012700D01*
X008669Y013017D02*
X008662Y013017D01*
X008662Y013175D02*
X008669Y013175D01*
X008662Y013327D02*
X008669Y013327D01*
X008669Y013334D01*
X009952Y013334D01*
X009978Y013492D02*
X009377Y013492D01*
X009372Y013507D02*
X009339Y013572D01*
X009297Y013630D01*
X009286Y013641D01*
X009372Y013507D02*
X009394Y013439D01*
X009406Y013367D01*
X009406Y013334D01*
X008669Y013334D01*
X008662Y013334D02*
X008662Y013327D01*
X009379Y013175D02*
X009985Y013175D01*
X011090Y014760D02*
X011245Y014760D01*
X011319Y014919D02*
X011082Y014919D01*
X011310Y015077D02*
X011319Y015077D01*
X011354Y015711D02*
X011204Y015711D01*
X011512Y015870D02*
X009639Y015870D01*
X009239Y015870D02*
X007142Y015870D01*
X007142Y015792D02*
X007142Y016301D01*
X007049Y016394D01*
X006540Y016394D01*
X006446Y016301D01*
X006446Y016246D01*
X004465Y016246D01*
X004465Y016379D01*
X004371Y016473D01*
X003863Y016473D01*
X003769Y016379D01*
X003769Y015870D01*
X003863Y015777D01*
X004371Y015777D01*
X004441Y015846D01*
X006446Y015846D01*
X006446Y015792D01*
X006540Y015698D01*
X007049Y015698D01*
X007142Y015792D01*
X007062Y015711D02*
X008155Y015711D01*
X008002Y015553D02*
X007575Y015553D01*
X007575Y015394D02*
X007946Y015394D01*
X007949Y015236D02*
X007575Y015236D01*
X007731Y015077D02*
X008017Y015077D01*
X008035Y014602D02*
X000962Y014602D01*
X000962Y014760D02*
X007482Y014760D01*
X007324Y014919D02*
X000962Y014919D01*
X000962Y015077D02*
X006879Y015077D01*
X006879Y015236D02*
X000962Y015236D01*
X000962Y015394D02*
X006879Y015394D01*
X006880Y015553D02*
X000962Y015553D01*
X000962Y015711D02*
X006526Y015711D01*
X007142Y016028D02*
X008066Y016028D01*
X007969Y016187D02*
X007142Y016187D01*
X007097Y016345D02*
X007946Y016345D01*
X007981Y016504D02*
X003012Y016504D01*
X002883Y016345D02*
X003769Y016345D01*
X003769Y016187D02*
X000962Y016187D01*
X000962Y016345D02*
X001659Y016345D01*
X001547Y016504D02*
X000962Y016504D01*
X000962Y016662D02*
X001511Y016662D01*
X001529Y016821D02*
X000962Y016821D01*
X000962Y016979D02*
X001615Y016979D01*
X001864Y017138D02*
X000962Y017138D01*
X000962Y017296D02*
X001708Y017296D01*
X001568Y017455D02*
X000962Y017455D01*
X000962Y017613D02*
X001511Y017613D01*
X001511Y017772D02*
X000962Y017772D01*
X000962Y017930D02*
X001575Y017930D01*
X001746Y018089D02*
X000962Y018089D01*
X000962Y018247D02*
X002551Y018247D01*
X002710Y018406D02*
X001926Y018406D01*
X002161Y018564D02*
X002868Y018564D01*
X003027Y018723D02*
X002269Y018723D01*
X002328Y018881D02*
X003185Y018881D01*
X003344Y019040D02*
X002328Y019040D01*
X002292Y019198D02*
X002900Y019198D01*
X002935Y019163D02*
X002806Y019293D01*
X002736Y019462D01*
X002736Y020245D01*
X002806Y020414D01*
X002935Y020543D01*
X003104Y020613D01*
X003287Y020613D01*
X003456Y020543D01*
X003586Y020414D01*
X003656Y020245D01*
X003656Y019462D01*
X003586Y019293D01*
X003456Y019163D01*
X003287Y019093D01*
X003104Y019093D01*
X002935Y019163D01*
X002779Y019357D02*
X002218Y019357D01*
X002059Y019515D02*
X002736Y019515D01*
X002736Y019674D02*
X001512Y019674D01*
X001671Y019832D02*
X002736Y019832D01*
X002736Y019991D02*
X001829Y019991D01*
X001988Y020149D02*
X002736Y020149D01*
X002762Y020308D02*
X002146Y020308D01*
X002305Y020466D02*
X002858Y020466D01*
X002463Y020625D02*
X003996Y020625D01*
X003858Y020466D02*
X003533Y020466D01*
X003630Y020308D02*
X003762Y020308D01*
X003736Y020149D02*
X003656Y020149D01*
X003656Y019991D02*
X003736Y019991D01*
X003736Y019832D02*
X003656Y019832D01*
X003656Y019674D02*
X003736Y019674D01*
X003736Y019515D02*
X003656Y019515D01*
X003661Y019357D02*
X003612Y019357D01*
X003502Y019198D02*
X003491Y019198D01*
X003751Y018881D02*
X007298Y018881D01*
X007457Y018723D02*
X003592Y018723D01*
X003909Y019040D02*
X007140Y019040D01*
X006981Y019198D02*
X006520Y019198D01*
X006508Y019187D02*
X006562Y019241D01*
X006606Y019302D01*
X006641Y019369D01*
X006664Y019441D01*
X006676Y019515D01*
X006830Y019515D01*
X006676Y019515D02*
X006676Y019833D01*
X006216Y019833D01*
X006216Y019073D01*
X006234Y019073D01*
X006308Y019085D01*
X006380Y019108D01*
X006447Y019143D01*
X006508Y019187D01*
X006634Y019357D02*
X006830Y019357D01*
X007230Y019515D02*
X007944Y019515D01*
X007944Y019674D02*
X007230Y019674D01*
X007230Y019832D02*
X007944Y019832D01*
X007944Y019991D02*
X007230Y019991D01*
X007230Y020149D02*
X007944Y020149D01*
X007954Y020308D02*
X007230Y020308D01*
X007230Y020466D02*
X008028Y020466D01*
X008246Y020625D02*
X007105Y020625D01*
X006830Y020308D02*
X006650Y020308D01*
X006676Y020149D02*
X006830Y020149D01*
X006830Y019991D02*
X006676Y019991D01*
X006676Y019832D02*
X006830Y019832D01*
X006830Y019674D02*
X006676Y019674D01*
X006216Y019674D02*
X006176Y019674D01*
X006176Y019832D02*
X006216Y019832D01*
X006176Y019833D02*
X006176Y019073D01*
X006158Y019073D01*
X006083Y019085D01*
X006011Y019108D01*
X005944Y019143D01*
X005883Y019187D01*
X005830Y019241D01*
X005785Y019302D01*
X005751Y019369D01*
X005728Y019441D01*
X005716Y019515D01*
X005656Y019515D01*
X005716Y019515D02*
X005716Y019833D01*
X006176Y019833D01*
X005716Y019832D02*
X005656Y019832D01*
X005656Y019674D02*
X005716Y019674D01*
X005716Y019991D02*
X005656Y019991D01*
X005656Y020149D02*
X005716Y020149D01*
X005741Y020308D02*
X005630Y020308D01*
X005533Y020466D02*
X005830Y020466D01*
X006561Y020466D02*
X006697Y020466D01*
X006216Y019515D02*
X006176Y019515D01*
X006176Y019357D02*
X006216Y019357D01*
X006216Y019198D02*
X006176Y019198D01*
X005872Y019198D02*
X005491Y019198D01*
X005612Y019357D02*
X005757Y019357D01*
X004900Y019198D02*
X004491Y019198D01*
X004612Y019357D02*
X004779Y019357D01*
X004736Y019515D02*
X004656Y019515D01*
X004656Y019674D02*
X004736Y019674D01*
X004736Y019832D02*
X004656Y019832D01*
X004656Y019991D02*
X004736Y019991D01*
X004736Y020149D02*
X004656Y020149D01*
X004630Y020308D02*
X004762Y020308D01*
X004858Y020466D02*
X004533Y020466D01*
X005292Y018406D02*
X006761Y018406D01*
X006761Y017930D02*
X005265Y017930D01*
X004787Y017772D02*
X009239Y017772D01*
X009291Y018723D02*
X008205Y018723D01*
X008183Y018881D02*
X009133Y018881D01*
X008974Y019040D02*
X007705Y019040D01*
X007547Y019198D02*
X008154Y019198D01*
X008004Y019357D02*
X007388Y019357D01*
X008655Y019198D02*
X008816Y019198D01*
X008906Y019674D02*
X008944Y019674D01*
X008944Y019832D02*
X008864Y019832D01*
X008864Y019991D02*
X008944Y019991D01*
X008944Y020149D02*
X008864Y020149D01*
X008855Y020308D02*
X008954Y020308D01*
X009028Y020466D02*
X008781Y020466D01*
X008563Y020625D02*
X009246Y020625D01*
X009563Y020625D02*
X010246Y020625D01*
X010028Y020466D02*
X009781Y020466D01*
X009855Y020308D02*
X009954Y020308D01*
X009944Y020149D02*
X009864Y020149D01*
X009864Y019991D02*
X009944Y019991D01*
X009944Y019832D02*
X009864Y019832D01*
X009906Y019674D02*
X009944Y019674D01*
X010864Y019674D02*
X010944Y019674D01*
X010944Y019832D02*
X010864Y019832D01*
X010864Y019991D02*
X010944Y019991D01*
X010944Y020149D02*
X010864Y020149D01*
X010855Y020308D02*
X010954Y020308D01*
X011028Y020466D02*
X010781Y020466D01*
X010563Y020625D02*
X011246Y020625D01*
X011563Y020625D02*
X012429Y020625D01*
X012270Y020466D02*
X011781Y020466D01*
X011855Y020308D02*
X012112Y020308D01*
X011953Y020149D02*
X011864Y020149D01*
X012202Y019832D02*
X012838Y019832D01*
X012838Y019674D02*
X011864Y019674D01*
X011864Y019515D02*
X012838Y019515D01*
X012882Y019357D02*
X011805Y019357D01*
X011655Y019198D02*
X013002Y019198D01*
X013594Y019198D02*
X014002Y019198D01*
X013882Y019357D02*
X013715Y019357D01*
X013758Y019515D02*
X013838Y019515D01*
X013838Y019674D02*
X013758Y019674D01*
X013758Y019832D02*
X013838Y019832D01*
X013838Y019991D02*
X013758Y019991D01*
X013758Y020149D02*
X013838Y020149D01*
X013864Y020308D02*
X013732Y020308D01*
X012864Y020308D02*
X012677Y020308D01*
X012519Y020149D02*
X012838Y020149D01*
X012838Y019991D02*
X012360Y019991D01*
X011154Y019198D02*
X011090Y019198D01*
X011004Y019357D02*
X010932Y019357D01*
X010944Y019515D02*
X010864Y019515D01*
X008046Y017613D02*
X004629Y017613D01*
X004470Y017455D02*
X007961Y017455D01*
X007946Y017296D02*
X004312Y017296D01*
X003646Y017138D02*
X007989Y017138D01*
X008115Y016979D02*
X003487Y016979D01*
X003170Y016662D02*
X008095Y016662D01*
X009177Y015711D02*
X009239Y015711D01*
X007956Y014443D02*
X000962Y014443D01*
X000962Y014285D02*
X007946Y014285D01*
X007994Y014126D02*
X000962Y014126D01*
X000962Y013968D02*
X007819Y013968D01*
X007142Y012858D02*
X005385Y012858D01*
X005227Y012700D02*
X006984Y012700D01*
X006825Y012541D02*
X005068Y012541D01*
X004910Y012383D02*
X006667Y012383D01*
X006508Y012224D02*
X003575Y012224D01*
X002927Y012224D02*
X000962Y012224D01*
X000962Y012066D02*
X006350Y012066D01*
X006599Y011749D02*
X007856Y011749D01*
X007893Y011711D02*
X007893Y011711D01*
X008006Y011590D02*
X006552Y011590D01*
X006552Y011432D02*
X007936Y011432D01*
X007929Y011273D02*
X000962Y011273D01*
X000962Y011115D02*
X007980Y011115D01*
X008119Y010956D02*
X000962Y010956D01*
X000962Y010798D02*
X012877Y010798D01*
X012719Y010639D02*
X011276Y010639D01*
X011325Y010591D02*
X011201Y010714D01*
X011040Y010781D01*
X010305Y010781D01*
X010143Y010714D01*
X010019Y010591D01*
X009952Y010429D01*
X009952Y010254D01*
X010019Y010092D01*
X010143Y009968D01*
X010305Y009901D01*
X011040Y009901D01*
X011201Y009968D01*
X011325Y010092D01*
X011392Y010254D01*
X011392Y010429D01*
X011325Y010591D01*
X011371Y010481D02*
X012560Y010481D01*
X012402Y010322D02*
X011392Y010322D01*
X011355Y010164D02*
X012243Y010164D01*
X012085Y010005D02*
X011238Y010005D01*
X011525Y009688D02*
X000962Y009688D01*
X000962Y009530D02*
X011525Y009530D01*
X011525Y009371D02*
X000962Y009371D01*
X000962Y009213D02*
X011529Y009213D01*
X011822Y009054D02*
X000962Y009054D01*
X000962Y008896D02*
X011663Y008896D01*
X011505Y008737D02*
X000962Y008737D01*
X000962Y008579D02*
X008853Y008579D01*
X008855Y008581D02*
X008583Y008308D01*
X008583Y007923D01*
X008855Y007650D01*
X009240Y007650D01*
X009513Y007923D01*
X009513Y008308D01*
X009240Y008581D01*
X008855Y008581D01*
X008695Y008420D02*
X000962Y008420D01*
X000962Y008262D02*
X008583Y008262D01*
X008583Y008103D02*
X000962Y008103D01*
X000962Y007945D02*
X008583Y007945D01*
X008719Y007786D02*
X000962Y007786D01*
X000962Y007628D02*
X010514Y007628D01*
X010554Y007786D02*
X010405Y007786D01*
X010533Y007914D02*
X010249Y007630D01*
X010061Y007630D01*
X010061Y008102D01*
X010034Y008102D01*
X009563Y008102D01*
X009563Y007914D01*
X009847Y007630D01*
X010034Y007630D01*
X010034Y008102D01*
X010034Y008129D01*
X009563Y008129D01*
X009563Y008316D01*
X009847Y008601D01*
X010034Y008601D01*
X010034Y008129D01*
X010061Y008129D01*
X010061Y008601D01*
X010249Y008601D01*
X010533Y008316D01*
X010533Y008129D01*
X010061Y008129D01*
X010061Y008102D01*
X010533Y008102D01*
X010533Y007914D01*
X010533Y007945D02*
X010712Y007945D01*
X010871Y008103D02*
X010061Y008103D01*
X010048Y008115D02*
X010048Y008949D01*
X008666Y010331D01*
X008669Y010334D02*
X008662Y010334D01*
X008662Y010327D01*
X007926Y010327D01*
X007926Y010295D01*
X007937Y010223D01*
X007960Y010154D01*
X007992Y010090D01*
X008035Y010031D01*
X008086Y009980D01*
X008145Y009937D01*
X008209Y009904D01*
X008278Y009882D01*
X008350Y009871D01*
X008662Y009871D01*
X008662Y010327D01*
X008669Y010327D01*
X008669Y009871D01*
X008982Y009871D01*
X009054Y009882D01*
X009122Y009904D01*
X009187Y009937D01*
X009245Y009980D01*
X009297Y010031D01*
X009339Y010090D01*
X009372Y010154D01*
X009394Y010223D01*
X009406Y010295D01*
X009406Y010327D01*
X008669Y010327D01*
X008669Y010334D01*
X008669Y010791D01*
X008982Y010791D01*
X009054Y010779D01*
X009122Y010757D01*
X009187Y010724D01*
X009245Y010682D01*
X009297Y010630D01*
X009339Y010572D01*
X009372Y010507D01*
X009394Y010439D01*
X009406Y010367D01*
X009406Y010334D01*
X008669Y010334D01*
X008662Y010334D02*
X008662Y010791D01*
X008350Y010791D01*
X008278Y010779D01*
X008209Y010757D01*
X008145Y010724D01*
X008086Y010682D01*
X008035Y010630D01*
X007992Y010572D01*
X007960Y010507D01*
X007937Y010439D01*
X007926Y010367D01*
X007926Y010334D01*
X008662Y010334D01*
X008662Y010322D02*
X008669Y010322D01*
X008662Y010164D02*
X008669Y010164D01*
X008662Y010005D02*
X008669Y010005D01*
X008662Y010481D02*
X008669Y010481D01*
X008662Y010639D02*
X008669Y010639D01*
X008662Y010956D02*
X008669Y010956D01*
X008662Y011115D02*
X008669Y011115D01*
X008662Y011273D02*
X008669Y011273D01*
X009213Y010956D02*
X010172Y010956D01*
X010010Y011115D02*
X009352Y011115D01*
X009402Y011273D02*
X009952Y011273D01*
X009953Y011432D02*
X009396Y011432D01*
X009326Y011590D02*
X010019Y011590D01*
X010068Y010639D02*
X009288Y010639D01*
X009381Y010481D02*
X009974Y010481D01*
X009952Y010322D02*
X009406Y010322D01*
X009375Y010164D02*
X009989Y010164D01*
X010106Y010005D02*
X009271Y010005D01*
X008061Y010005D02*
X000962Y010005D01*
X000962Y009847D02*
X011926Y009847D01*
X012546Y009213D02*
X014980Y009213D01*
X014980Y009371D02*
X012704Y009371D01*
X012863Y009530D02*
X014980Y009530D01*
X014980Y009688D02*
X013021Y009688D01*
X013180Y009847D02*
X014980Y009847D01*
X014980Y010005D02*
X013338Y010005D01*
X013497Y010164D02*
X014980Y010164D01*
X014980Y010322D02*
X013655Y010322D01*
X013814Y010481D02*
X014907Y010481D01*
X014832Y010639D02*
X013972Y010639D01*
X014131Y010798D02*
X014832Y010798D01*
X014832Y010956D02*
X014164Y010956D01*
X014164Y011115D02*
X014882Y011115D01*
X014548Y011590D02*
X017106Y011590D01*
X017106Y011432D02*
X014390Y011432D01*
X014231Y011273D02*
X015592Y011273D01*
X015541Y011115D02*
X015478Y011115D01*
X015528Y010956D02*
X015541Y010956D01*
X015528Y010798D02*
X015541Y010798D01*
X015528Y010639D02*
X015614Y010639D01*
X015641Y010481D02*
X015453Y010481D01*
X015380Y010322D02*
X015638Y010322D01*
X015635Y010164D02*
X015380Y010164D01*
X015380Y010005D02*
X015633Y010005D01*
X015630Y009847D02*
X015380Y009847D01*
X015380Y009688D02*
X015628Y009688D01*
X015625Y009530D02*
X015380Y009530D01*
X015380Y009371D02*
X015622Y009371D01*
X015620Y009213D02*
X015380Y009213D01*
X015380Y009054D02*
X015617Y009054D01*
X015577Y008896D02*
X015281Y008896D01*
X015123Y008737D02*
X015501Y008737D01*
X015501Y008579D02*
X014964Y008579D01*
X014865Y008211D02*
X015495Y008211D01*
X015849Y008566D01*
X015889Y010967D01*
X016237Y010956D02*
X017106Y010956D01*
X017106Y010798D02*
X016237Y010798D01*
X016163Y010639D02*
X017106Y010639D01*
X017106Y010481D02*
X016121Y010481D01*
X016118Y010322D02*
X017106Y010322D01*
X017106Y010164D02*
X016116Y010164D01*
X016113Y010005D02*
X017106Y010005D01*
X017106Y009847D02*
X016110Y009847D01*
X016108Y009688D02*
X017106Y009688D01*
X017106Y009530D02*
X016105Y009530D01*
X016103Y009371D02*
X017106Y009371D01*
X017106Y009213D02*
X016100Y009213D01*
X016097Y009054D02*
X017106Y009054D01*
X017106Y008896D02*
X016122Y008896D01*
X016197Y008737D02*
X017106Y008737D01*
X017106Y008579D02*
X016197Y008579D01*
X016197Y008420D02*
X017106Y008420D01*
X017106Y008262D02*
X016148Y008262D01*
X015726Y008103D02*
X017106Y008103D01*
X017106Y007945D02*
X015201Y007945D01*
X014529Y007945D02*
X011929Y007945D01*
X012087Y008103D02*
X014517Y008103D01*
X014517Y008262D02*
X012246Y008262D01*
X012404Y008420D02*
X014517Y008420D01*
X014715Y008896D02*
X012229Y008896D01*
X012155Y008737D02*
X012070Y008737D01*
X011997Y008579D02*
X011912Y008579D01*
X011838Y008420D02*
X011753Y008420D01*
X011680Y008262D02*
X011595Y008262D01*
X011521Y008103D02*
X011436Y008103D01*
X011363Y007945D02*
X011278Y007945D01*
X011204Y007786D02*
X011119Y007786D01*
X011046Y007628D02*
X010961Y007628D01*
X011295Y007311D02*
X017106Y007311D01*
X017106Y007469D02*
X011453Y007469D01*
X011612Y007628D02*
X017106Y007628D01*
X017106Y007786D02*
X011770Y007786D01*
X011188Y008420D02*
X010429Y008420D01*
X010533Y008262D02*
X011029Y008262D01*
X011346Y008579D02*
X010270Y008579D01*
X010061Y008579D02*
X010034Y008579D01*
X010034Y008420D02*
X010061Y008420D01*
X010061Y008262D02*
X010034Y008262D01*
X010034Y008103D02*
X009513Y008103D01*
X009513Y007945D02*
X009563Y007945D01*
X009691Y007786D02*
X009376Y007786D01*
X009240Y007581D02*
X008855Y007581D01*
X008583Y007308D01*
X008583Y006923D01*
X008855Y006650D01*
X009240Y006650D01*
X009513Y006923D01*
X009513Y007308D01*
X009240Y007581D01*
X009352Y007469D02*
X009744Y007469D01*
X009585Y007311D02*
X009510Y007311D01*
X009513Y007152D02*
X009583Y007152D01*
X009583Y006994D02*
X009513Y006994D01*
X009485Y006835D02*
X009425Y006835D01*
X009326Y006677D02*
X009267Y006677D01*
X008828Y006677D02*
X002067Y006677D01*
X002162Y006638D02*
X001933Y006733D01*
X001685Y006733D01*
X001456Y006638D01*
X001280Y006462D01*
X001185Y006233D01*
X001185Y005985D01*
X001280Y005756D01*
X001456Y005580D01*
X001685Y005485D01*
X001933Y005485D01*
X002162Y005580D01*
X002338Y005756D01*
X002433Y005985D01*
X002433Y006233D01*
X002338Y006462D01*
X002162Y006638D01*
X002281Y006518D02*
X008793Y006518D01*
X008634Y006360D02*
X002380Y006360D01*
X002433Y006201D02*
X005604Y006201D01*
X005600Y006198D02*
X005600Y006198D01*
X005445Y006043D02*
X002433Y006043D01*
X002391Y005884D02*
X005287Y005884D01*
X004808Y005726D02*
X002308Y005726D01*
X002131Y005567D02*
X004753Y005567D01*
X004753Y005409D02*
X001125Y005409D01*
X000963Y005567D02*
X001486Y005567D01*
X001310Y005726D02*
X000962Y005726D01*
X000962Y005884D02*
X001227Y005884D01*
X001185Y006043D02*
X000962Y006043D01*
X000962Y006201D02*
X001185Y006201D01*
X001238Y006360D02*
X000962Y006360D01*
X000962Y006518D02*
X001336Y006518D01*
X001550Y006677D02*
X000962Y006677D01*
X000962Y006835D02*
X008670Y006835D01*
X008583Y006994D02*
X000962Y006994D01*
X000962Y007152D02*
X008583Y007152D01*
X008585Y007311D02*
X000962Y007311D01*
X000962Y007469D02*
X008744Y007469D01*
X009513Y008262D02*
X009563Y008262D01*
X009667Y008420D02*
X009401Y008420D01*
X009242Y008579D02*
X009825Y008579D01*
X010034Y007945D02*
X010061Y007945D01*
X010061Y007786D02*
X010034Y007786D01*
X010352Y007469D02*
X010462Y007469D01*
X010978Y006994D02*
X017106Y006994D01*
X017106Y007152D02*
X011136Y007152D01*
X010819Y006835D02*
X017106Y006835D01*
X017106Y006677D02*
X010661Y006677D01*
X010502Y006518D02*
X017106Y006518D01*
X017106Y006360D02*
X010461Y006360D01*
X010513Y006201D02*
X017106Y006201D01*
X017106Y006043D02*
X010513Y006043D01*
X010618Y005884D02*
X017106Y005884D01*
X017106Y005726D02*
X010777Y005726D01*
X010415Y005409D02*
X009498Y005409D01*
X009340Y005250D02*
X010573Y005250D01*
X010256Y005567D02*
X009657Y005567D01*
X009181Y005092D02*
X010163Y005092D01*
X009529Y004458D02*
X009269Y004458D01*
X008887Y004458D02*
X008269Y004458D01*
X008468Y004299D02*
X008688Y004299D01*
X008622Y004141D02*
X008533Y004141D01*
X008538Y003982D02*
X008618Y003982D01*
X008618Y003824D02*
X008538Y003824D01*
X008538Y003665D02*
X008618Y003665D01*
X008618Y003507D02*
X008538Y003507D01*
X008472Y003190D02*
X008683Y003190D01*
X008860Y003031D02*
X008295Y003031D01*
X007618Y003507D02*
X007593Y003507D01*
X007618Y003665D02*
X007538Y003665D01*
X007538Y003824D02*
X007618Y003824D01*
X007618Y003982D02*
X007538Y003982D01*
X007533Y004141D02*
X007622Y004141D01*
X007688Y004299D02*
X007468Y004299D01*
X007269Y004458D02*
X007887Y004458D01*
X009538Y003900D02*
X009538Y003348D01*
X009618Y003348D02*
X009618Y003980D01*
X009538Y003900D01*
X009538Y003824D02*
X009618Y003824D01*
X009618Y003665D02*
X009538Y003665D01*
X009538Y003507D02*
X009618Y003507D01*
X009683Y003190D02*
X009472Y003190D01*
X009295Y003031D02*
X009860Y003031D01*
X004753Y005250D02*
X004531Y005250D01*
X003289Y008364D02*
X003164Y008489D01*
X000962Y010164D02*
X007956Y010164D01*
X007926Y010322D02*
X000962Y010322D01*
X000962Y010481D02*
X007951Y010481D01*
X008044Y010639D02*
X000962Y010639D01*
X000962Y011432D02*
X005856Y011432D01*
X005856Y011590D02*
X000962Y011590D01*
X000962Y011749D02*
X005856Y011749D01*
X005872Y011907D02*
X000962Y011907D01*
X000962Y012383D02*
X002903Y012383D01*
X002903Y012541D02*
X000962Y012541D01*
X000962Y012700D02*
X002903Y012700D01*
X004820Y012858D02*
X000962Y012858D01*
X000962Y013017D02*
X004978Y013017D01*
X005137Y013175D02*
X000962Y013175D01*
X000962Y013334D02*
X005295Y013334D01*
X005454Y013492D02*
X000962Y013492D01*
X000962Y013651D02*
X005531Y013651D01*
X005627Y013809D02*
X000962Y013809D01*
X000962Y015870D02*
X003770Y015870D01*
X003769Y016028D02*
X000962Y016028D01*
X003244Y016154D02*
X003244Y015874D01*
X004465Y016345D02*
X006491Y016345D01*
X007391Y012541D02*
X007929Y012541D01*
X007352Y012383D02*
X007233Y012383D01*
X007352Y012224D02*
X007074Y012224D01*
X006916Y012066D02*
X007352Y012066D01*
X007378Y011907D02*
X006757Y011907D01*
X011172Y010956D02*
X013036Y010956D01*
X013194Y011115D02*
X011335Y011115D01*
X011392Y011273D02*
X013353Y011273D01*
X013511Y011432D02*
X011391Y011432D01*
X011325Y011590D02*
X013060Y011590D01*
X013756Y011749D02*
X013828Y011749D01*
X013756Y011907D02*
X013987Y011907D01*
X014145Y012066D02*
X013771Y012066D01*
X013796Y012224D02*
X014304Y012224D01*
X014462Y012383D02*
X013796Y012383D01*
X013796Y012541D02*
X014621Y012541D01*
X014779Y012700D02*
X013376Y012700D01*
X013218Y012858D02*
X014938Y012858D01*
X015096Y013017D02*
X013059Y013017D01*
X014707Y011749D02*
X017106Y011749D01*
X017106Y011907D02*
X014865Y011907D01*
X015024Y012066D02*
X017106Y012066D01*
X017106Y012224D02*
X015182Y012224D01*
X015965Y012383D02*
X017139Y012383D01*
X017298Y012541D02*
X015982Y012541D01*
X015982Y012700D02*
X017456Y012700D01*
X017547Y012224D02*
X017745Y012224D01*
X017506Y012066D02*
X019089Y012066D01*
X018930Y012224D02*
X018441Y012224D01*
X018441Y012383D02*
X018772Y012383D01*
X018613Y012541D02*
X018441Y012541D01*
X018441Y012700D02*
X018455Y012700D01*
X018296Y012858D02*
X015982Y012858D01*
X015922Y013017D02*
X018138Y013017D01*
X017506Y011907D02*
X019247Y011907D01*
X019406Y011749D02*
X017506Y011749D01*
X017506Y011590D02*
X019564Y011590D01*
X019723Y011432D02*
X017506Y011432D01*
X017506Y011273D02*
X019881Y011273D01*
X020040Y011115D02*
X017506Y011115D01*
X017506Y010956D02*
X020114Y010956D01*
X020114Y010798D02*
X017506Y010798D01*
X017506Y010639D02*
X020114Y010639D01*
X020114Y010481D02*
X017506Y010481D01*
X017506Y010322D02*
X020007Y010322D01*
X019893Y010164D02*
X017506Y010164D01*
X017506Y010005D02*
X019854Y010005D01*
X019854Y009847D02*
X017506Y009847D01*
X017506Y009688D02*
X019854Y009688D01*
X019854Y009530D02*
X017506Y009530D01*
X017506Y009371D02*
X019854Y009371D01*
X019885Y009213D02*
X017506Y009213D01*
X017506Y009054D02*
X019988Y009054D01*
X020640Y009054D02*
X020988Y009054D01*
X020885Y009213D02*
X020743Y009213D01*
X020774Y009371D02*
X020854Y009371D01*
X020854Y009530D02*
X020774Y009530D01*
X020774Y009688D02*
X020854Y009688D01*
X020854Y009847D02*
X020774Y009847D01*
X020774Y010005D02*
X020854Y010005D01*
X020893Y010164D02*
X020735Y010164D01*
X020621Y010322D02*
X021007Y010322D01*
X021104Y010481D02*
X020514Y010481D01*
X020514Y010639D02*
X021104Y010639D01*
X020987Y010798D02*
X020514Y010798D01*
X020514Y010956D02*
X020828Y010956D01*
X020670Y011115D02*
X020514Y011115D01*
X020511Y011273D02*
X020447Y011273D01*
X020353Y011432D02*
X020289Y011432D01*
X020194Y011590D02*
X020130Y011590D01*
X020036Y011749D02*
X019972Y011749D01*
X019877Y011907D02*
X019813Y011907D01*
X019719Y012066D02*
X019655Y012066D01*
X019560Y012224D02*
X019496Y012224D01*
X020174Y012858D02*
X025999Y012858D01*
X025999Y012700D02*
X025550Y012700D01*
X025694Y012541D02*
X025999Y012541D01*
X025999Y012383D02*
X025694Y012383D01*
X025694Y012224D02*
X025999Y012224D01*
X025999Y012066D02*
X025609Y012066D01*
X025451Y011907D02*
X025999Y011907D01*
X025999Y011749D02*
X025501Y011749D01*
X025659Y011590D02*
X025999Y011590D01*
X025999Y011432D02*
X025694Y011432D01*
X025694Y011273D02*
X025999Y011273D01*
X025999Y011115D02*
X025658Y011115D01*
X025500Y010956D02*
X025999Y010956D01*
X025999Y010798D02*
X025452Y010798D01*
X025610Y010639D02*
X025999Y010639D01*
X025999Y010481D02*
X025694Y010481D01*
X025694Y010322D02*
X025999Y010322D01*
X025999Y010164D02*
X025694Y010164D01*
X025549Y010005D02*
X025999Y010005D01*
X023846Y009688D02*
X021774Y009688D01*
X021774Y009530D02*
X023714Y009530D01*
X023714Y009371D02*
X021774Y009371D01*
X021743Y009213D02*
X023714Y009213D01*
X023810Y009054D02*
X021640Y009054D01*
X023369Y007628D02*
X017506Y007628D01*
X017506Y007786D02*
X023527Y007786D01*
X023686Y007945D02*
X017506Y007945D01*
X017506Y008103D02*
X023761Y008103D01*
X023714Y008262D02*
X017506Y008262D01*
X017506Y008420D02*
X023714Y008420D01*
X023736Y008579D02*
X017506Y008579D01*
X017506Y008737D02*
X023895Y008737D01*
X023968Y008896D02*
X017506Y008896D01*
X017506Y007469D02*
X023210Y007469D01*
X023052Y007311D02*
X020764Y007311D01*
X020764Y007152D02*
X022893Y007152D01*
X022735Y006994D02*
X020764Y006994D01*
X020764Y006835D02*
X022576Y006835D01*
X022418Y006677D02*
X020306Y006677D01*
X020148Y006518D02*
X022259Y006518D01*
X022101Y006360D02*
X019989Y006360D01*
X019831Y006201D02*
X021942Y006201D01*
X021784Y006043D02*
X018739Y006043D01*
X018100Y005884D02*
X017506Y005884D01*
X017506Y005726D02*
X018100Y005726D01*
X018100Y005567D02*
X017506Y005567D01*
X017506Y005409D02*
X018168Y005409D01*
X018728Y005409D02*
X023714Y005409D01*
X023725Y005567D02*
X021874Y005567D01*
X022032Y005726D02*
X023883Y005726D01*
X023980Y005884D02*
X022191Y005884D01*
X022349Y006043D02*
X023821Y006043D01*
X023714Y006201D02*
X022508Y006201D01*
X022666Y006360D02*
X023714Y006360D01*
X023714Y006518D02*
X022825Y006518D01*
X022983Y006677D02*
X023834Y006677D01*
X023993Y006835D02*
X023142Y006835D01*
X023300Y006994D02*
X023870Y006994D01*
X023714Y007152D02*
X023459Y007152D01*
X023617Y007311D02*
X023714Y007311D01*
X023931Y004933D02*
X018588Y004933D01*
X018563Y004299D02*
X023714Y004299D01*
X023723Y004141D02*
X019573Y004141D01*
X019731Y003982D02*
X023882Y003982D01*
X023981Y003824D02*
X021549Y003824D01*
X021678Y003665D02*
X023823Y003665D01*
X023714Y003507D02*
X021723Y003507D01*
X021723Y003348D02*
X023714Y003348D01*
X023714Y003190D02*
X021723Y003190D01*
X021723Y003031D02*
X023833Y003031D01*
X023991Y002873D02*
X021723Y002873D01*
X021013Y002556D02*
X020553Y002556D01*
X020679Y002714D02*
X020887Y002714D01*
X020843Y002873D02*
X020723Y002873D01*
X020723Y003031D02*
X020843Y003031D01*
X020843Y003190D02*
X020723Y003190D01*
X020723Y003348D02*
X020843Y003348D01*
X020843Y003507D02*
X020723Y003507D01*
X020678Y003665D02*
X020889Y003665D01*
X021017Y003824D02*
X020549Y003824D01*
X020017Y003824D02*
X019890Y003824D01*
X019800Y003348D02*
X019723Y003348D01*
X019723Y003190D02*
X019843Y003190D01*
X019843Y003031D02*
X019723Y003031D01*
X019723Y002873D02*
X019843Y002873D01*
X019887Y002714D02*
X019679Y002714D01*
X019553Y002556D02*
X020013Y002556D01*
X019013Y002556D02*
X018784Y002556D01*
X017691Y006043D02*
X017506Y006043D01*
X017506Y006201D02*
X017627Y006201D01*
X017627Y006360D02*
X017506Y006360D01*
X017506Y006518D02*
X017627Y006518D01*
X017689Y006677D02*
X017506Y006677D01*
X017506Y006835D02*
X019899Y006835D01*
X019740Y006677D02*
X018262Y006677D01*
X017506Y006994D02*
X020057Y006994D01*
X020068Y007152D02*
X017506Y007152D01*
X017506Y007311D02*
X020068Y007311D01*
X017106Y011115D02*
X016237Y011115D01*
X016185Y011273D02*
X017106Y011273D01*
X014874Y009054D02*
X012387Y009054D01*
X020174Y013017D02*
X023847Y013017D01*
X023714Y013175D02*
X020174Y013175D01*
X020168Y013334D02*
X023714Y013334D01*
X023714Y013492D02*
X020026Y013492D01*
X020026Y013651D02*
X023808Y013651D01*
X023967Y013809D02*
X020026Y013809D01*
X020026Y013968D02*
X023896Y013968D01*
X023737Y014126D02*
X020026Y014126D01*
X020026Y014285D02*
X023714Y014285D01*
X023714Y014443D02*
X020026Y014443D01*
X020026Y014602D02*
X023759Y014602D01*
X023786Y015077D02*
X022665Y015077D01*
X022506Y015236D02*
X023714Y015236D01*
X023714Y015394D02*
X022437Y015394D01*
X022437Y015553D02*
X023714Y015553D01*
X023224Y015711D02*
X020026Y015711D01*
X020026Y015553D02*
X021741Y015553D01*
X021741Y015394D02*
X020026Y015394D01*
X020026Y015236D02*
X021741Y015236D01*
X021741Y015077D02*
X020026Y015077D01*
X020026Y014919D02*
X022144Y014919D01*
X022303Y014760D02*
X020026Y014760D01*
X020026Y015870D02*
X023066Y015870D01*
X022627Y016028D02*
X020026Y016028D01*
X020026Y016187D02*
X022627Y016187D01*
X022627Y016345D02*
X020026Y016345D01*
X020026Y016504D02*
X022634Y016504D01*
X023317Y016504D02*
X023714Y016504D01*
X023714Y016345D02*
X023323Y016345D01*
X023323Y016187D02*
X023714Y016187D01*
X023820Y016662D02*
X020026Y016662D01*
X020026Y016821D02*
X023978Y016821D01*
X023884Y016979D02*
X020026Y016979D01*
X020026Y017138D02*
X023726Y017138D01*
X023714Y017296D02*
X020026Y017296D01*
X020026Y017455D02*
X022893Y017455D01*
X022824Y017613D02*
X020026Y017613D01*
X020026Y017772D02*
X020411Y017772D01*
X020344Y017930D02*
X020026Y017930D01*
X020026Y018089D02*
X020344Y018089D01*
X020344Y018247D02*
X020026Y018247D01*
X020026Y018406D02*
X020402Y018406D01*
X019870Y018564D02*
X023722Y018564D01*
X023880Y018723D02*
X019711Y018723D01*
X019553Y018881D02*
X023982Y018881D01*
X023824Y019040D02*
X019394Y019040D01*
X019594Y019198D02*
X019974Y019198D01*
X019985Y019187D02*
X020047Y019143D01*
X020114Y019108D01*
X020186Y019085D01*
X020260Y019073D01*
X020278Y019073D01*
X020278Y019833D01*
X020318Y019833D01*
X020318Y019073D01*
X020336Y019073D01*
X020411Y019085D01*
X020482Y019108D01*
X020550Y019143D01*
X020611Y019187D01*
X020664Y019241D01*
X020709Y019302D01*
X020743Y019369D01*
X020766Y019441D01*
X020778Y019515D01*
X020838Y019515D01*
X020838Y019462D02*
X020908Y019293D01*
X021038Y019163D01*
X021207Y019093D01*
X021390Y019093D01*
X021559Y019163D01*
X021688Y019293D01*
X021758Y019462D01*
X021758Y020245D01*
X021688Y020414D01*
X021559Y020543D01*
X021390Y020613D01*
X021207Y020613D01*
X021038Y020543D01*
X020908Y020414D01*
X020838Y020245D01*
X020838Y019462D01*
X020778Y019515D02*
X020778Y019833D01*
X020318Y019833D01*
X020318Y019873D01*
X020778Y019873D01*
X020778Y020191D01*
X020766Y020266D01*
X020743Y020337D01*
X020709Y020405D01*
X020664Y020466D01*
X020611Y020519D01*
X020550Y020564D01*
X020482Y020598D01*
X020411Y020621D01*
X020336Y020633D01*
X020318Y020633D01*
X020318Y019873D01*
X020278Y019873D01*
X020278Y019833D01*
X019818Y019833D01*
X019818Y019515D01*
X019758Y019515D01*
X019818Y019515D02*
X019830Y019441D01*
X019853Y019369D01*
X019888Y019302D01*
X019932Y019241D01*
X019985Y019187D01*
X019859Y019357D02*
X019715Y019357D01*
X019758Y019674D02*
X019818Y019674D01*
X019818Y019832D02*
X019758Y019832D01*
X019818Y019873D02*
X020278Y019873D01*
X020278Y020633D01*
X020260Y020633D01*
X020186Y020621D01*
X020114Y020598D01*
X020047Y020564D01*
X019985Y020519D01*
X019932Y020466D01*
X019888Y020405D01*
X019853Y020337D01*
X019830Y020266D01*
X019818Y020191D01*
X019818Y019873D01*
X019818Y019991D02*
X019758Y019991D01*
X019758Y020149D02*
X019818Y020149D01*
X019844Y020308D02*
X019732Y020308D01*
X019635Y020466D02*
X019932Y020466D01*
X020208Y020625D02*
X017809Y020625D01*
X018635Y020466D02*
X018961Y020466D01*
X018864Y020308D02*
X018732Y020308D01*
X018758Y020149D02*
X018838Y020149D01*
X018838Y019991D02*
X018758Y019991D01*
X018758Y019832D02*
X018838Y019832D01*
X018838Y019674D02*
X018760Y019674D01*
X020278Y019674D02*
X020318Y019674D01*
X020318Y019832D02*
X020278Y019832D01*
X020278Y019991D02*
X020318Y019991D01*
X020318Y020149D02*
X020278Y020149D01*
X020278Y020308D02*
X020318Y020308D01*
X020318Y020466D02*
X020278Y020466D01*
X020278Y020625D02*
X020318Y020625D01*
X020388Y020625D02*
X023754Y020625D01*
X023694Y020466D02*
X021635Y020466D01*
X021732Y020308D02*
X023694Y020308D01*
X023694Y020149D02*
X021758Y020149D01*
X021758Y019991D02*
X023845Y019991D01*
X023990Y019832D02*
X021758Y019832D01*
X021758Y019674D02*
X023831Y019674D01*
X023714Y019515D02*
X021758Y019515D01*
X021715Y019357D02*
X023714Y019357D01*
X023714Y019198D02*
X021594Y019198D01*
X021002Y019198D02*
X020622Y019198D01*
X020737Y019357D02*
X020882Y019357D01*
X020838Y019674D02*
X020778Y019674D01*
X020778Y019832D02*
X020838Y019832D01*
X020838Y019991D02*
X020778Y019991D01*
X020778Y020149D02*
X020838Y020149D01*
X020864Y020308D02*
X020753Y020308D01*
X020664Y020466D02*
X020961Y020466D01*
X020318Y019515D02*
X020278Y019515D01*
X020278Y019357D02*
X020318Y019357D01*
X020318Y019198D02*
X020278Y019198D01*
X021040Y018089D02*
X022880Y018089D01*
X022824Y017930D02*
X021040Y017930D01*
X020973Y017772D02*
X022824Y017772D01*
X023451Y017455D02*
X023714Y017455D01*
X023771Y017613D02*
X023520Y017613D01*
X023464Y018089D02*
X023775Y018089D01*
X024190Y019991D02*
X024217Y019991D01*
X024217Y020149D02*
X024190Y020149D01*
X024190Y020308D02*
X024217Y020308D01*
X022089Y015314D02*
X022539Y014864D01*
X025440Y013809D02*
X025999Y013809D01*
X025999Y013651D02*
X025599Y013651D01*
X025694Y013492D02*
X025999Y013492D01*
X025999Y013334D02*
X025694Y013334D01*
X025694Y013175D02*
X025999Y013175D01*
X025999Y013017D02*
X025560Y013017D01*
X025511Y013968D02*
X025999Y013968D01*
X025999Y014126D02*
X025670Y014126D01*
X025694Y014285D02*
X025853Y014285D01*
X025695Y014443D02*
X025694Y014443D01*
X025626Y014851D02*
X026239Y014239D01*
X025626Y014851D02*
X025614Y014864D01*
X016002Y019198D02*
X015594Y019198D01*
X015715Y019357D02*
X015882Y019357D01*
X015838Y019515D02*
X015758Y019515D01*
X015758Y019674D02*
X015838Y019674D01*
X015838Y019832D02*
X015758Y019832D01*
X015758Y019991D02*
X015838Y019991D01*
X015838Y020149D02*
X015758Y020149D01*
X015732Y020308D02*
X015864Y020308D01*
X014864Y020308D02*
X014732Y020308D01*
X014758Y020149D02*
X014838Y020149D01*
X014838Y019991D02*
X014758Y019991D01*
X014758Y019832D02*
X014838Y019832D01*
X014838Y019674D02*
X014758Y019674D01*
X014758Y019515D02*
X014838Y019515D01*
X014882Y019357D02*
X014715Y019357D01*
X014594Y019198D02*
X015002Y019198D01*
X012066Y016662D02*
X011253Y016662D01*
X011361Y016504D02*
X012066Y016504D01*
X011988Y016345D02*
X011392Y016345D01*
X011364Y016187D02*
X011829Y016187D01*
X011671Y016028D02*
X011261Y016028D01*
X001481Y018406D02*
X000962Y018406D01*
X000962Y018564D02*
X001246Y018564D01*
X001139Y018723D02*
X000962Y018723D01*
X000962Y018881D02*
X001080Y018881D01*
X001080Y019040D02*
X000962Y019040D01*
X001037Y019198D02*
X001116Y019198D01*
X024416Y002873D02*
X024991Y002873D01*
D15*
X020416Y007070D03*
X018448Y005731D03*
X017975Y006361D03*
X018290Y004629D03*
X016715Y004629D03*
X015298Y004944D03*
X012789Y005364D03*
X014865Y008211D03*
X015849Y008566D03*
X015180Y010810D03*
X015889Y010967D03*
X015634Y012654D03*
X015574Y013211D03*
X015456Y014078D03*
X016514Y013164D03*
X018093Y012463D03*
X019407Y013650D03*
X018967Y014159D03*
X018723Y014739D03*
X016914Y015939D03*
X017244Y016539D03*
X017909Y016679D03*
X015179Y015759D03*
X014989Y016764D03*
X012414Y016489D03*
X011519Y014432D03*
X009629Y012818D03*
X007700Y012188D03*
X006204Y011637D03*
X003251Y012503D03*
X007227Y015298D03*
X006794Y016046D03*
X007109Y018172D03*
X007857Y018605D03*
X009353Y018133D03*
X004944Y018211D03*
X004117Y016125D03*
X003244Y015874D03*
X011873Y009471D03*
X013408Y011794D03*
X013448Y012345D03*
X019826Y013074D03*
X022089Y015314D03*
X022975Y016243D03*
X023172Y017778D03*
X020692Y018093D03*
X023022Y012045D03*
X007464Y002789D03*
X005789Y002789D03*
X004235Y004944D03*
X005101Y005416D03*
X003164Y008489D03*
D16*
X012078Y003739D02*
X012189Y003739D01*
X012464Y004014D01*
X015559Y004014D01*
X016283Y003289D01*
X022551Y014851D02*
X025626Y014851D01*
X022551Y014851D02*
X022539Y014864D01*
D17*
X023369Y015849D02*
X024700Y015849D01*
X025204Y016353D01*
X024714Y017864D02*
X023264Y017864D01*
X023178Y017778D01*
X023172Y017778D01*
X024204Y018353D02*
X020952Y018353D01*
X020692Y018093D01*
X019826Y018326D02*
X018298Y019853D01*
X017499Y020652D01*
X012739Y020652D01*
X011979Y019893D01*
X011404Y019893D01*
X010404Y019893D02*
X010404Y019601D01*
X011125Y018881D01*
X016326Y018881D01*
X017298Y019853D01*
X019432Y017719D01*
X019407Y013650D01*
X018967Y014159D02*
X018967Y014317D01*
X019114Y014464D01*
X019114Y016949D01*
X019117Y016952D01*
X018723Y017345D01*
X015023Y017345D01*
X013684Y018684D01*
X010613Y018684D01*
X009404Y019893D01*
X008404Y019893D02*
X010007Y018290D01*
X013787Y018290D01*
X013839Y018239D01*
X013864Y018239D01*
X015014Y017089D01*
X018389Y017089D01*
X018723Y016755D01*
X018723Y014739D01*
X017909Y014159D02*
X021304Y010764D01*
X021304Y009689D01*
X021314Y009679D01*
X020314Y009679D02*
X020314Y011124D01*
X017244Y014194D01*
X017244Y016539D01*
X017909Y016679D02*
X017909Y014159D01*
X018054Y012503D02*
X017542Y012503D01*
X017306Y012267D01*
X017306Y004826D01*
X018054Y004078D01*
X019353Y004078D01*
X020243Y003188D01*
X020283Y003188D01*
X019283Y003188D02*
X019133Y003188D01*
X018172Y002227D01*
X008589Y002227D01*
X007078Y003739D01*
X009078Y003739D02*
X009093Y003739D01*
X010259Y004904D01*
X015259Y004904D01*
X015298Y004944D01*
X016715Y004629D02*
X010613Y004629D01*
X010101Y004117D01*
X010101Y003763D01*
X010078Y003739D01*
X009048Y006115D02*
X009569Y006637D01*
X010337Y006637D01*
X012345Y008645D01*
X014747Y008645D01*
X015180Y009078D01*
X015180Y010810D01*
X013964Y010914D02*
X013964Y011289D01*
X015189Y012514D01*
X015634Y012654D01*
X015574Y013211D02*
X011873Y009511D01*
X011873Y009471D01*
X010714Y007664D02*
X013964Y010914D01*
X013408Y011794D02*
X008093Y011794D01*
X007700Y012188D01*
X007975Y012778D02*
X007345Y012778D01*
X006204Y011637D01*
X004747Y012503D02*
X003251Y012503D01*
X004747Y012503D02*
X005731Y013487D01*
X005731Y013631D01*
X005839Y013739D01*
X007873Y013739D01*
X007975Y013841D01*
X015219Y013841D01*
X015456Y014078D01*
X013448Y012345D02*
X012975Y012818D01*
X009629Y012818D01*
X008666Y012331D02*
X008423Y012331D01*
X007975Y012778D01*
X007711Y014814D02*
X009314Y014814D01*
X009439Y014939D01*
X009439Y018047D01*
X009353Y018133D01*
X007857Y018605D02*
X007030Y019432D01*
X007030Y020416D01*
X006715Y020731D01*
X004353Y020731D01*
X004196Y020574D01*
X004196Y019853D01*
X004196Y019609D01*
X002271Y017684D01*
X002271Y016684D02*
X002909Y016684D01*
X003589Y017364D01*
X004096Y017364D01*
X004944Y018211D01*
X004983Y018172D01*
X007109Y018172D01*
X006794Y016046D02*
X004196Y016046D01*
X004117Y016125D01*
X007227Y015298D02*
X007711Y014814D01*
X011519Y014432D02*
X011519Y015594D01*
X012414Y016489D01*
X017298Y019853D02*
X017621Y019530D01*
X019826Y018326D02*
X019826Y013074D01*
X018093Y012463D02*
X018054Y012503D01*
X023022Y012045D02*
X023589Y011478D01*
X023589Y011039D01*
X024204Y010424D01*
X024204Y010353D01*
X025204Y008353D02*
X024747Y007897D01*
X023920Y007897D01*
X021755Y005731D01*
X018448Y005731D01*
X017975Y006361D02*
X019708Y006361D01*
X020416Y007070D01*
X018290Y004629D02*
X023928Y004629D01*
X024204Y004353D01*
X010714Y007439D02*
X010714Y007664D01*
X010714Y007439D02*
X010390Y007115D01*
X010048Y007115D01*
X009048Y006115D02*
X005800Y006115D01*
X005101Y005416D01*
X022975Y016243D02*
X023369Y015849D01*
X024714Y017864D02*
X025204Y018353D01*
M02*
