%
M48
M72
T01C0.0236
T02C0.0335
T03C0.0374
T04C0.0400
%
T01
X4640Y9140
X5640Y10140
X6515Y10265
X7640Y10140
X10140Y11640
X10640Y10640
X11640Y9640
X13140Y10140
X14640Y10140
X16140Y8640
X15140Y7640
X13640Y6640
X14640Y5140
X13140Y3640
X10515Y5015
X11515Y12640
X11015Y13390
X11390Y14015
X10140Y15765
X10640Y16640
X11390Y16515
X11515Y17140
X12640Y18140
X13265Y17765
X13390Y18765
X12140Y19640
X12140Y20265
X11140Y19140
X10140Y17640
X9140Y19140
X8640Y19390
X9140Y20140
X10140Y22140
X7140Y20640
X6140Y16140
X6640Y14640
X5765Y13890
X5015Y14640
X3140Y13140
X7140Y13140
X8765Y13515
X8890Y15890
X13140Y16640
X14515Y14015
X15640Y13640
X16140Y13140
X13640Y12640
X18140Y7140
X19140Y9140
X17140Y20640
X15640Y20640
T02
X18140Y20140
X18140Y19140
X18140Y18140
X18140Y17140
X18140Y16140
X18140Y21140
X18140Y22140
X18140Y23140
X3640Y21140
X3640Y20140
X3640Y19140
X3640Y18140
X3640Y17140
X3640Y16140
X3640Y15140
X3640Y14140
T03
X4140Y4640
X4140Y5640
X5140Y5640
X5140Y4640
X6140Y4640
X6140Y5640
T04
X6640Y9140
X7640Y9140
X8640Y9140
X9640Y9140
X11140Y11640
X12140Y11640
X3640Y11140
X3640Y10140
X3640Y12140
X10640Y23140
X11640Y23140
X11640Y25640
X10640Y25640
X9640Y25640
X8640Y25640
X7640Y25640
X6640Y25640
X12640Y25640
X13640Y25640
X14640Y25640
X21140Y23640
X21140Y22640
X21140Y21640
X21140Y20640
X21140Y19640
X21140Y18640
X21140Y17640
X21140Y16640
X21140Y15640
M30
