G75*
%MOIN*%
%OFA0B0*%
%FSLAX24Y24*%
%IPPOS*%
%LPD*%
%AMOC8*
5,1,8,0,0,1.08239X$1,22.5*
%
%ADD10C,0.0040*%
%ADD11C,0.0060*%
%ADD12C,0.0080*%
%ADD13R,0.0240X0.0620*%
%ADD14C,0.0100*%
%ADD15R,0.0059X0.0118*%
%ADD16R,0.0118X0.0118*%
%ADD17C,0.0030*%
%ADD18C,0.0050*%
%ADD19C,0.0087*%
D10*
X004170Y006238D02*
X004170Y006585D01*
X004170Y006754D02*
X003910Y006754D01*
X003910Y007101D01*
X003910Y007269D02*
X004257Y007269D01*
X004430Y007443D01*
X004257Y007616D01*
X003910Y007616D01*
X004170Y007101D02*
X004343Y007101D01*
X004430Y007014D01*
X004430Y006840D01*
X004343Y006754D01*
X004170Y006754D02*
X004083Y006927D01*
X004083Y007014D01*
X004170Y007101D01*
X003996Y006412D02*
X004343Y006412D01*
X005785Y006450D02*
X005871Y006363D01*
X006218Y006363D01*
X006305Y006450D01*
X006305Y006623D01*
X006218Y006710D01*
X006045Y006710D01*
X006045Y006537D01*
X005871Y006710D02*
X005785Y006623D01*
X005785Y006450D01*
X005785Y006879D02*
X006305Y007226D01*
X005785Y007226D01*
X005785Y007394D02*
X005785Y007655D01*
X005871Y007741D01*
X006218Y007741D01*
X006305Y007655D01*
X006305Y007394D01*
X005785Y007394D01*
X005785Y006879D02*
X006305Y006879D01*
X009010Y005070D02*
X009010Y004610D01*
X009240Y004610D01*
X009317Y004687D01*
X009317Y004994D01*
X009240Y005070D01*
X009010Y005070D01*
X009166Y005260D02*
X009319Y005260D01*
X009396Y005337D01*
X009550Y005337D02*
X009626Y005260D01*
X009780Y005260D01*
X009857Y005337D01*
X009857Y005490D01*
X009780Y005567D01*
X009703Y005567D01*
X009550Y005490D01*
X009550Y005720D01*
X009857Y005720D01*
X009396Y005644D02*
X009319Y005720D01*
X009166Y005720D01*
X009089Y005644D01*
X009089Y005337D01*
X009166Y005260D01*
X009470Y004917D02*
X009624Y005070D01*
X009624Y004610D01*
X009777Y004610D02*
X009470Y004610D01*
X011860Y005260D02*
X012167Y005260D01*
X012320Y005260D02*
X012320Y005720D01*
X012551Y005567D02*
X012320Y005413D01*
X012551Y005260D01*
X012013Y005260D02*
X012013Y005720D01*
X011860Y005567D01*
X011860Y006560D02*
X011860Y007020D01*
X012090Y007020D01*
X012167Y006944D01*
X012167Y006790D01*
X012090Y006713D01*
X011860Y006713D01*
X012013Y006713D02*
X012167Y006560D01*
X012320Y006637D02*
X012397Y006560D01*
X012551Y006560D01*
X012627Y006637D01*
X012627Y006713D01*
X012551Y006790D01*
X012474Y006790D01*
X012551Y006790D02*
X012627Y006867D01*
X012627Y006944D01*
X012551Y007020D01*
X012397Y007020D01*
X012320Y006944D01*
X012360Y008260D02*
X012667Y008260D01*
X012513Y008260D02*
X012513Y008720D01*
X012360Y008567D01*
X012820Y008644D02*
X012820Y008337D01*
X013127Y008644D01*
X013127Y008337D01*
X013051Y008260D01*
X012897Y008260D01*
X012820Y008337D01*
X012820Y008644D02*
X012897Y008720D01*
X013051Y008720D01*
X013127Y008644D01*
X013281Y008720D02*
X013281Y008260D01*
X013281Y008413D02*
X013511Y008567D01*
X013281Y008413D02*
X013511Y008260D01*
X014360Y007020D02*
X014590Y007020D01*
X014667Y006944D01*
X014667Y006790D01*
X014590Y006713D01*
X014360Y006713D01*
X014360Y006560D02*
X014360Y007020D01*
X014513Y006713D02*
X014667Y006560D01*
X014820Y006790D02*
X015127Y006790D01*
X015051Y006560D02*
X015051Y007020D01*
X014820Y006790D01*
X014820Y005720D02*
X014820Y005260D01*
X014667Y005260D02*
X014360Y005260D01*
X014513Y005260D02*
X014513Y005720D01*
X014360Y005567D01*
X014820Y005413D02*
X015051Y005567D01*
X014820Y005413D02*
X015051Y005260D01*
X015127Y004520D02*
X014820Y004520D01*
X014820Y004290D01*
X014974Y004367D01*
X015051Y004367D01*
X015127Y004290D01*
X015127Y004137D01*
X015051Y004060D01*
X014897Y004060D01*
X014820Y004137D01*
X014667Y004060D02*
X014513Y004213D01*
X014590Y004213D02*
X014360Y004213D01*
X014360Y004060D02*
X014360Y004520D01*
X014590Y004520D01*
X014667Y004444D01*
X014667Y004290D01*
X014590Y004213D01*
X014513Y003220D02*
X014513Y002760D01*
X014360Y002760D02*
X014667Y002760D01*
X014820Y002760D02*
X014820Y003220D01*
X015051Y003067D02*
X014820Y002913D01*
X015051Y002760D01*
X014513Y003220D02*
X014360Y003067D01*
X016810Y005260D02*
X017117Y005260D01*
X016963Y005260D02*
X016963Y005720D01*
X016810Y005567D01*
X017270Y005644D02*
X017270Y005337D01*
X017577Y005644D01*
X017577Y005337D01*
X017501Y005260D01*
X017347Y005260D01*
X017270Y005337D01*
X017270Y005644D02*
X017347Y005720D01*
X017501Y005720D01*
X017577Y005644D01*
X017731Y005644D02*
X017731Y005337D01*
X018038Y005644D01*
X018038Y005337D01*
X017961Y005260D01*
X017808Y005260D01*
X017731Y005337D01*
X017731Y005644D02*
X017808Y005720D01*
X017961Y005720D01*
X018038Y005644D01*
X018191Y005567D02*
X018191Y005260D01*
X018191Y005567D02*
X018421Y005567D01*
X018498Y005490D01*
X018498Y005260D01*
X019160Y005155D02*
X019620Y005155D01*
X019620Y005002D02*
X019620Y005308D01*
X019543Y005462D02*
X019620Y005539D01*
X019620Y005692D01*
X019543Y005769D01*
X019467Y005769D01*
X019390Y005692D01*
X019390Y005615D01*
X019390Y005692D02*
X019313Y005769D01*
X019236Y005769D01*
X019160Y005692D01*
X019160Y005539D01*
X019236Y005462D01*
X019160Y005155D02*
X019313Y005002D01*
X019697Y004848D02*
X019697Y004541D01*
X019543Y004388D02*
X019236Y004388D01*
X019160Y004311D01*
X019160Y004081D01*
X019620Y004081D01*
X019620Y004311D01*
X019543Y004388D01*
X019620Y003927D02*
X019620Y003620D01*
X019160Y003620D01*
X019160Y003927D01*
X019390Y003774D02*
X019390Y003620D01*
X019620Y003467D02*
X019620Y003160D01*
X019160Y003160D01*
X018120Y003316D02*
X018120Y003469D01*
X018043Y003546D01*
X017736Y003546D01*
X017660Y003469D01*
X017660Y003316D01*
X017736Y003239D01*
X018043Y003239D01*
X018120Y003316D01*
X018120Y003700D02*
X017660Y003700D01*
X018120Y004007D01*
X017660Y004007D01*
X017577Y006560D02*
X017270Y006560D01*
X017424Y006560D02*
X017424Y007020D01*
X017270Y006867D01*
X017117Y006944D02*
X017040Y007020D01*
X016887Y007020D01*
X016810Y006944D01*
X016810Y006637D01*
X016887Y006560D01*
X017040Y006560D01*
X017117Y006637D01*
X017310Y008260D02*
X017617Y008260D01*
X017463Y008260D02*
X017463Y008720D01*
X017310Y008567D01*
X017770Y008644D02*
X017770Y008337D01*
X018077Y008644D01*
X018077Y008337D01*
X018001Y008260D01*
X017847Y008260D01*
X017770Y008337D01*
X017770Y008644D02*
X017847Y008720D01*
X018001Y008720D01*
X018077Y008644D01*
X018231Y008644D02*
X018308Y008720D01*
X018461Y008720D01*
X018538Y008644D01*
X018231Y008337D01*
X018308Y008260D01*
X018461Y008260D01*
X018538Y008337D01*
X018538Y008644D01*
X018691Y008567D02*
X018921Y008567D01*
X018998Y008490D01*
X018998Y008260D01*
X018691Y008260D02*
X018691Y008567D01*
X018231Y008644D02*
X018231Y008337D01*
X016011Y008260D02*
X015781Y008413D01*
X016011Y008567D01*
X015781Y008720D02*
X015781Y008260D01*
X015627Y008337D02*
X015551Y008260D01*
X015397Y008260D01*
X015320Y008337D01*
X015627Y008644D01*
X015627Y008337D01*
X015320Y008337D02*
X015320Y008644D01*
X015397Y008720D01*
X015551Y008720D01*
X015627Y008644D01*
X015167Y008260D02*
X014860Y008260D01*
X015013Y008260D02*
X015013Y008720D01*
X014860Y008567D01*
X014860Y010760D02*
X015167Y010760D01*
X015013Y010760D02*
X015013Y011220D01*
X014860Y011067D01*
X015320Y011144D02*
X015320Y010837D01*
X015627Y011144D01*
X015627Y010837D01*
X015551Y010760D01*
X015397Y010760D01*
X015320Y010837D01*
X015320Y011144D02*
X015397Y011220D01*
X015551Y011220D01*
X015627Y011144D01*
X015781Y011220D02*
X015781Y010760D01*
X015781Y010913D02*
X016011Y011067D01*
X015781Y010913D02*
X016011Y010760D01*
X017310Y010760D02*
X017617Y010760D01*
X017463Y010760D02*
X017463Y011220D01*
X017310Y011067D01*
X017770Y011144D02*
X017770Y010837D01*
X018077Y011144D01*
X018077Y010837D01*
X018001Y010760D01*
X017847Y010760D01*
X017770Y010837D01*
X017770Y011144D02*
X017847Y011220D01*
X018001Y011220D01*
X018077Y011144D01*
X018231Y011144D02*
X018308Y011220D01*
X018461Y011220D01*
X018538Y011144D01*
X018231Y010837D01*
X018308Y010760D01*
X018461Y010760D01*
X018538Y010837D01*
X018538Y011144D01*
X018691Y011067D02*
X018691Y010760D01*
X018691Y011067D02*
X018921Y011067D01*
X018998Y010990D01*
X018998Y010760D01*
X018231Y010837D02*
X018231Y011144D01*
X017807Y013260D02*
X017500Y013260D01*
X017807Y013567D01*
X017807Y013644D01*
X017730Y013720D01*
X017576Y013720D01*
X017500Y013644D01*
X017346Y013644D02*
X017346Y013490D01*
X017269Y013413D01*
X017039Y013413D01*
X017039Y013260D02*
X017039Y013720D01*
X017269Y013720D01*
X017346Y013644D01*
X017193Y013413D02*
X017346Y013260D01*
X019075Y015350D02*
X018988Y015437D01*
X018988Y015784D01*
X019075Y015870D01*
X019248Y015870D01*
X019335Y015784D01*
X019335Y015610D02*
X019162Y015610D01*
X019335Y015610D02*
X019335Y015437D01*
X019248Y015350D01*
X019075Y015350D01*
X019504Y015350D02*
X019504Y015870D01*
X019851Y015350D01*
X019851Y015870D01*
X020019Y015870D02*
X020280Y015870D01*
X020366Y015784D01*
X020366Y015437D01*
X020280Y015350D01*
X020019Y015350D01*
X020019Y015870D01*
X020193Y016350D02*
X020366Y016523D01*
X020366Y016870D01*
X020019Y016870D02*
X020019Y016523D01*
X020193Y016350D01*
X019851Y016437D02*
X019764Y016350D01*
X019590Y016350D01*
X019504Y016437D01*
X019504Y016610D02*
X019677Y016697D01*
X019764Y016697D01*
X019851Y016610D01*
X019851Y016437D01*
X019504Y016610D02*
X019504Y016870D01*
X019851Y016870D01*
X019335Y016610D02*
X018988Y016610D01*
X019162Y016437D02*
X019162Y016784D01*
X020238Y014995D02*
X020238Y014475D01*
X020585Y014475D01*
X020754Y014562D02*
X020754Y014909D01*
X020840Y014995D01*
X021014Y014995D01*
X021101Y014909D01*
X021269Y014995D02*
X021269Y014475D01*
X021530Y014475D01*
X021616Y014562D01*
X021616Y014909D01*
X021530Y014995D01*
X021269Y014995D01*
X021101Y014562D02*
X021014Y014475D01*
X020840Y014475D01*
X020754Y014562D01*
X017366Y016023D02*
X017366Y016370D01*
X017366Y016023D02*
X017193Y015850D01*
X017019Y016023D01*
X017019Y016370D01*
X016851Y016370D02*
X016504Y016370D01*
X016504Y016110D01*
X016677Y016197D01*
X016764Y016197D01*
X016851Y016110D01*
X016851Y015937D01*
X016764Y015850D01*
X016590Y015850D01*
X016504Y015937D01*
X016335Y016110D02*
X015988Y016110D01*
X016162Y015937D02*
X016162Y016284D01*
X016075Y017850D02*
X016248Y017850D01*
X016335Y017937D01*
X016335Y018110D01*
X016162Y018110D01*
X016335Y018284D02*
X016248Y018370D01*
X016075Y018370D01*
X015988Y018284D01*
X015988Y017937D01*
X016075Y017850D01*
X016504Y017850D02*
X016504Y018370D01*
X016851Y017850D01*
X016851Y018370D01*
X017019Y018370D02*
X017019Y017850D01*
X017280Y017850D01*
X017366Y017937D01*
X017366Y018284D01*
X017280Y018370D01*
X017019Y018370D01*
X013670Y023238D02*
X013670Y023585D01*
X013670Y023754D02*
X013410Y023754D01*
X013410Y024101D01*
X013410Y024269D02*
X013757Y024269D01*
X013930Y024443D01*
X013757Y024616D01*
X013410Y024616D01*
X013670Y024101D02*
X013843Y024101D01*
X013930Y024014D01*
X013930Y023840D01*
X013843Y023754D01*
X013670Y023754D02*
X013583Y023927D01*
X013583Y024014D01*
X013670Y024101D01*
X013496Y023412D02*
X013843Y023412D01*
X012745Y023606D02*
X012668Y023529D01*
X012361Y023529D01*
X012285Y023606D01*
X012285Y023759D01*
X012361Y023836D01*
X012515Y023836D02*
X012515Y023682D01*
X012515Y023836D02*
X012668Y023836D01*
X012745Y023759D01*
X012745Y023606D01*
X012530Y023370D02*
X012356Y023370D01*
X012269Y023284D01*
X012269Y023197D01*
X012356Y023110D01*
X012616Y023110D01*
X012616Y022937D02*
X012616Y023284D01*
X012530Y023370D01*
X012616Y022937D02*
X012530Y022850D01*
X012356Y022850D01*
X012269Y022937D01*
X012285Y023989D02*
X012745Y024296D01*
X012285Y024296D01*
X012285Y024450D02*
X012285Y024680D01*
X012361Y024757D01*
X012668Y024757D01*
X012745Y024680D01*
X012745Y024450D01*
X012285Y024450D01*
X012285Y023989D02*
X012745Y023989D01*
X011366Y023937D02*
X011280Y023850D01*
X011106Y023850D01*
X011019Y023937D01*
X011019Y024284D01*
X011106Y024370D01*
X011280Y024370D01*
X011366Y024284D01*
X010851Y024284D02*
X010851Y023937D01*
X010764Y023850D01*
X010504Y023850D01*
X010504Y024370D01*
X010764Y024370D01*
X010851Y024284D01*
X010335Y024197D02*
X010335Y023850D01*
X010335Y024110D02*
X009988Y024110D01*
X009988Y024197D02*
X009988Y023850D01*
X010030Y023370D02*
X009856Y023370D01*
X009769Y023284D01*
X009769Y023197D01*
X009856Y023110D01*
X010030Y023110D01*
X010116Y023023D01*
X010116Y022937D01*
X010030Y022850D01*
X009856Y022850D01*
X009769Y022937D01*
X009769Y023023D01*
X009856Y023110D01*
X010030Y023110D02*
X010116Y023197D01*
X010116Y023284D01*
X010030Y023370D01*
X009988Y024197D02*
X010162Y024370D01*
X010335Y024197D01*
X004616Y021284D02*
X004616Y020937D01*
X004530Y020850D01*
X004356Y020850D01*
X004269Y020937D01*
X004616Y021284D01*
X004530Y021370D01*
X004356Y021370D01*
X004269Y021284D01*
X004269Y020937D01*
X004443Y020370D02*
X004269Y020197D01*
X004443Y020370D02*
X004443Y019850D01*
X004616Y019850D02*
X004269Y019850D01*
X004356Y019370D02*
X004269Y019284D01*
X004356Y019370D02*
X004530Y019370D01*
X004616Y019284D01*
X004616Y019197D01*
X004269Y018850D01*
X004616Y018850D01*
X004530Y018370D02*
X004356Y018370D01*
X004269Y018284D01*
X004443Y018110D02*
X004530Y018110D01*
X004616Y018023D01*
X004616Y017937D01*
X004530Y017850D01*
X004356Y017850D01*
X004269Y017937D01*
X004530Y018110D02*
X004616Y018197D01*
X004616Y018284D01*
X004530Y018370D01*
X004530Y017370D02*
X004269Y017110D01*
X004616Y017110D01*
X004530Y016850D02*
X004530Y017370D01*
X004616Y016370D02*
X004269Y016370D01*
X004269Y016110D01*
X004443Y016197D01*
X004530Y016197D01*
X004616Y016110D01*
X004616Y015937D01*
X004530Y015850D01*
X004356Y015850D01*
X004269Y015937D01*
X004616Y015370D02*
X004443Y015284D01*
X004269Y015110D01*
X004530Y015110D01*
X004616Y015023D01*
X004616Y014937D01*
X004530Y014850D01*
X004356Y014850D01*
X004269Y014937D01*
X004269Y015110D01*
X004269Y014370D02*
X004616Y014370D01*
X004616Y014284D01*
X004269Y013937D01*
X004269Y013850D01*
X004450Y012495D02*
X004363Y012409D01*
X004363Y012062D01*
X004450Y011975D01*
X004623Y011975D01*
X004710Y012062D01*
X004710Y012235D01*
X004537Y012235D01*
X004710Y012409D02*
X004623Y012495D01*
X004450Y012495D01*
X004879Y012495D02*
X004879Y011975D01*
X005226Y011975D02*
X005226Y012495D01*
X005394Y012495D02*
X005655Y012495D01*
X005741Y012409D01*
X005741Y012062D01*
X005655Y011975D01*
X005394Y011975D01*
X005394Y012495D01*
X004879Y012495D02*
X005226Y011975D01*
X005269Y011370D02*
X005269Y011023D01*
X005443Y010850D01*
X005616Y011023D01*
X005616Y011370D01*
X005101Y011370D02*
X004754Y011370D01*
X004754Y011110D01*
X004927Y011197D01*
X005014Y011197D01*
X005101Y011110D01*
X005101Y010937D01*
X005014Y010850D01*
X004840Y010850D01*
X004754Y010937D01*
X004585Y011110D02*
X004238Y011110D01*
X004412Y010937D02*
X004412Y011284D01*
X017879Y023812D02*
X017965Y023725D01*
X018139Y023725D01*
X018226Y023812D01*
X018226Y023898D01*
X018139Y023985D01*
X017965Y023985D01*
X017879Y024072D01*
X017879Y024159D01*
X017965Y024245D01*
X018139Y024245D01*
X018226Y024159D01*
X018394Y024245D02*
X018394Y023725D01*
X018655Y023725D01*
X018741Y023812D01*
X018741Y024159D01*
X018655Y024245D01*
X018394Y024245D01*
X020463Y005720D02*
X020310Y005567D01*
X020463Y005720D02*
X020463Y005260D01*
X020310Y005260D02*
X020617Y005260D01*
X020770Y005337D02*
X020770Y005644D01*
X020847Y005720D01*
X021001Y005720D01*
X021077Y005644D01*
X020770Y005337D01*
X020847Y005260D01*
X021001Y005260D01*
X021077Y005337D01*
X021077Y005644D01*
X021231Y005644D02*
X021231Y005337D01*
X021538Y005644D01*
X021538Y005337D01*
X021461Y005260D01*
X021308Y005260D01*
X021231Y005337D01*
X021231Y005644D02*
X021308Y005720D01*
X021461Y005720D01*
X021538Y005644D01*
X021691Y005567D02*
X021691Y005260D01*
X021691Y005567D02*
X021921Y005567D01*
X021998Y005490D01*
X021998Y005260D01*
D11*
X003890Y004140D02*
X003640Y004390D01*
X003640Y005890D01*
X003890Y006140D01*
X004390Y006140D01*
X004640Y005890D01*
X004640Y004390D01*
X004890Y004140D01*
X005390Y004140D01*
X005640Y004390D01*
X005890Y004140D01*
X006390Y004140D01*
X006640Y004390D01*
X006640Y005890D01*
X006390Y006140D01*
X005890Y006140D01*
X005640Y005890D01*
X005640Y004390D01*
X004640Y004390D02*
X004390Y004140D01*
X003890Y004140D01*
X004640Y005890D02*
X004890Y006140D01*
X005390Y006140D01*
X005640Y005890D01*
X006881Y007720D02*
X007201Y007720D01*
X007308Y007827D01*
X007308Y007934D01*
X007201Y008040D01*
X006881Y008040D01*
X006881Y007720D02*
X006881Y008361D01*
X007201Y008361D01*
X007308Y008254D01*
X007308Y008147D01*
X007201Y008040D01*
X007525Y008361D02*
X007952Y008361D01*
X007739Y008361D02*
X007739Y007720D01*
X007890Y008640D02*
X007390Y008640D01*
X007140Y008890D01*
X006890Y008640D01*
X006390Y008640D01*
X006140Y008890D01*
X006140Y009390D01*
X006390Y009640D01*
X006890Y009640D01*
X007140Y009390D01*
X007390Y009640D01*
X007890Y009640D01*
X008140Y009390D01*
X008390Y009640D01*
X008890Y009640D01*
X009140Y009390D01*
X009390Y009640D01*
X009890Y009640D01*
X010140Y009390D01*
X010140Y008890D01*
X009890Y008640D01*
X009390Y008640D01*
X009140Y008890D01*
X008890Y008640D01*
X008390Y008640D01*
X008140Y008890D01*
X007890Y008640D01*
X009420Y011295D02*
X009847Y011722D01*
X009847Y011829D01*
X009740Y011936D01*
X009527Y011936D01*
X009420Y011829D01*
X009420Y011295D02*
X009847Y011295D01*
X010065Y011295D02*
X010492Y011295D01*
X010640Y011390D02*
X010640Y011890D01*
X010890Y012140D01*
X011390Y012140D01*
X011640Y011890D01*
X011890Y012140D01*
X012390Y012140D01*
X012640Y011890D01*
X012640Y011390D01*
X012390Y011140D01*
X011890Y011140D01*
X011640Y011390D01*
X011390Y011140D01*
X010890Y011140D01*
X010640Y011390D01*
X010278Y011295D02*
X010278Y011936D01*
X010065Y011722D01*
X011640Y011890D02*
X011640Y011390D01*
X012795Y011420D02*
X013222Y011847D01*
X013222Y011954D01*
X013115Y012061D01*
X012902Y012061D01*
X012795Y011954D01*
X012795Y011420D02*
X013222Y011420D01*
X013440Y011527D02*
X013867Y011954D01*
X013867Y011527D01*
X013760Y011420D01*
X013546Y011420D01*
X013440Y011527D01*
X013440Y011954D01*
X013546Y012061D01*
X013760Y012061D01*
X013867Y011954D01*
X017640Y015890D02*
X017640Y016390D01*
X017890Y016640D01*
X017640Y016890D01*
X017640Y017390D01*
X017890Y017640D01*
X017640Y017890D01*
X017640Y018390D01*
X017890Y018640D01*
X017640Y018890D01*
X017640Y019390D01*
X017890Y019640D01*
X017640Y019890D01*
X017640Y020390D01*
X017890Y020640D01*
X017640Y020890D01*
X017640Y021390D01*
X017890Y021640D01*
X017640Y021890D01*
X017640Y022390D01*
X017890Y022640D01*
X017640Y022890D01*
X017640Y023390D01*
X017890Y023640D01*
X018390Y023640D01*
X018640Y023390D01*
X018640Y022890D01*
X018390Y022640D01*
X018640Y022390D01*
X018640Y021890D01*
X018390Y021640D01*
X017890Y021640D01*
X018390Y021640D02*
X018640Y021390D01*
X018640Y020890D01*
X018390Y020640D01*
X018640Y020390D01*
X018640Y019890D01*
X018390Y019640D01*
X018640Y019390D01*
X018640Y018890D01*
X018390Y018640D01*
X017890Y018640D01*
X018390Y018640D02*
X018640Y018390D01*
X018640Y017890D01*
X018390Y017640D01*
X018640Y017390D01*
X018640Y016890D01*
X018390Y016640D01*
X018640Y016390D01*
X018640Y015890D01*
X018390Y015640D01*
X017890Y015640D01*
X017640Y015890D01*
X017890Y016640D02*
X018390Y016640D01*
X018390Y017640D02*
X017890Y017640D01*
X017890Y019640D02*
X018390Y019640D01*
X018390Y020640D02*
X017890Y020640D01*
X017890Y022640D02*
X018390Y022640D01*
X020640Y022390D02*
X020640Y022890D01*
X020890Y023140D01*
X020640Y023390D01*
X020640Y023890D01*
X020890Y024140D01*
X021390Y024140D01*
X021640Y023890D01*
X021640Y023390D01*
X021390Y023140D01*
X021640Y022890D01*
X021640Y022390D01*
X021390Y022140D01*
X021640Y021890D01*
X021640Y021390D01*
X021390Y021140D01*
X021640Y020890D01*
X021640Y020390D01*
X021390Y020140D01*
X021640Y019890D01*
X021640Y019390D01*
X021390Y019140D01*
X021640Y018890D01*
X021640Y018390D01*
X021390Y018140D01*
X021640Y017890D01*
X021640Y017390D01*
X021390Y017140D01*
X021640Y016890D01*
X021640Y016390D01*
X021390Y016140D01*
X021640Y015890D01*
X021640Y015390D01*
X021390Y015140D01*
X020890Y015140D01*
X020640Y015390D01*
X020640Y015890D01*
X020890Y016140D01*
X020640Y016390D01*
X020640Y016890D01*
X020890Y017140D01*
X021390Y017140D01*
X020890Y017140D02*
X020640Y017390D01*
X020640Y017890D01*
X020890Y018140D01*
X020640Y018390D01*
X020640Y018890D01*
X020890Y019140D01*
X020640Y019390D01*
X020640Y019890D01*
X020890Y020140D01*
X021390Y020140D01*
X020890Y020140D02*
X020640Y020390D01*
X020640Y020890D01*
X020890Y021140D01*
X020640Y021390D01*
X020640Y021890D01*
X020890Y022140D01*
X020640Y022390D01*
X020890Y022140D02*
X021390Y022140D01*
X021390Y021140D02*
X020890Y021140D01*
X020890Y019140D02*
X021390Y019140D01*
X021390Y018140D02*
X020890Y018140D01*
X020890Y016140D02*
X021390Y016140D01*
X021390Y023140D02*
X020890Y023140D01*
X015140Y025390D02*
X014890Y025140D01*
X014390Y025140D01*
X014140Y025390D01*
X013890Y025140D01*
X013390Y025140D01*
X013140Y025390D01*
X012890Y025140D01*
X012390Y025140D01*
X012140Y025390D01*
X011890Y025140D01*
X011390Y025140D01*
X011140Y025390D01*
X010890Y025140D01*
X010390Y025140D01*
X010140Y025390D01*
X009890Y025140D01*
X009390Y025140D01*
X009140Y025390D01*
X008890Y025140D01*
X008390Y025140D01*
X008140Y025390D01*
X007890Y025140D01*
X007390Y025140D01*
X007140Y025390D01*
X006890Y025140D01*
X006390Y025140D01*
X006140Y025390D01*
X006140Y025890D01*
X006390Y026140D01*
X006890Y026140D01*
X007140Y025890D01*
X007390Y026140D01*
X007890Y026140D01*
X008140Y025890D01*
X008140Y025390D01*
X008140Y025890D02*
X008390Y026140D01*
X008890Y026140D01*
X009140Y025890D01*
X009390Y026140D01*
X009890Y026140D01*
X010140Y025890D01*
X010390Y026140D01*
X010890Y026140D01*
X011140Y025890D01*
X011140Y025390D01*
X011140Y025890D02*
X011390Y026140D01*
X011890Y026140D01*
X012140Y025890D01*
X012390Y026140D01*
X012890Y026140D01*
X013140Y025890D01*
X013390Y026140D01*
X013890Y026140D01*
X014140Y025890D01*
X014390Y026140D01*
X014890Y026140D01*
X015140Y025890D01*
X015140Y025390D01*
X014140Y025390D02*
X014140Y025890D01*
X013140Y025890D02*
X013140Y025390D01*
X012140Y025390D02*
X012140Y025890D01*
X011890Y023640D02*
X011390Y023640D01*
X011140Y023390D01*
X011140Y022890D01*
X011390Y022640D01*
X011890Y022640D01*
X012140Y022890D01*
X012140Y023390D01*
X011890Y023640D01*
X011140Y023390D02*
X010890Y023640D01*
X010390Y023640D01*
X010140Y023390D01*
X010140Y022890D01*
X010390Y022640D01*
X010890Y022640D01*
X011140Y022890D01*
X010140Y025390D02*
X010140Y025890D01*
X009140Y025890D02*
X009140Y025390D01*
X007140Y025390D02*
X007140Y025890D01*
X003890Y021640D02*
X004140Y021390D01*
X004140Y020890D01*
X003890Y020640D01*
X004140Y020390D01*
X004140Y019890D01*
X003890Y019640D01*
X003390Y019640D01*
X003140Y019890D01*
X003140Y020390D01*
X003390Y020640D01*
X003140Y020890D01*
X003140Y021390D01*
X003390Y021640D01*
X003890Y021640D01*
X003890Y020640D02*
X003390Y020640D01*
X003390Y019640D02*
X003140Y019390D01*
X003140Y018890D01*
X003390Y018640D01*
X003140Y018390D01*
X003140Y017890D01*
X003390Y017640D01*
X003140Y017390D01*
X003140Y016890D01*
X003390Y016640D01*
X003890Y016640D01*
X004140Y016890D01*
X004140Y017390D01*
X003890Y017640D01*
X003390Y017640D01*
X003890Y017640D02*
X004140Y017890D01*
X004140Y018390D01*
X003890Y018640D01*
X003390Y018640D01*
X003890Y018640D02*
X004140Y018890D01*
X004140Y019390D01*
X003890Y019640D01*
X003890Y016640D02*
X004140Y016390D01*
X004140Y015890D01*
X003890Y015640D01*
X004140Y015390D01*
X004140Y014890D01*
X003890Y014640D01*
X004140Y014390D01*
X004140Y013890D01*
X003890Y013640D01*
X003390Y013640D01*
X003140Y013890D01*
X003140Y014390D01*
X003390Y014640D01*
X003140Y014890D01*
X003140Y015390D01*
X003390Y015640D01*
X003140Y015890D01*
X003140Y016390D01*
X003390Y016640D01*
X003390Y015640D02*
X003890Y015640D01*
X003890Y014640D02*
X003390Y014640D01*
D12*
X003390Y012640D02*
X003140Y012390D01*
X003140Y011890D01*
X003390Y011640D01*
X003140Y011390D01*
X003140Y010890D01*
X003390Y010640D01*
X003140Y010390D01*
X003140Y009890D01*
X003390Y009640D01*
X003890Y009640D01*
X004140Y009890D01*
X004140Y010390D01*
X003890Y010640D01*
X004140Y010890D01*
X004140Y011390D01*
X003890Y011640D01*
X004140Y011890D01*
X004140Y012390D01*
X003890Y012640D01*
X003390Y012640D01*
X005640Y012140D02*
X005640Y011152D01*
X006034Y010640D02*
X007246Y010640D01*
X007640Y011152D02*
X007640Y012128D01*
X007246Y012640D02*
X006034Y012640D01*
X006140Y011640D02*
X006142Y011684D01*
X006148Y011728D01*
X006158Y011771D01*
X006171Y011813D01*
X006188Y011854D01*
X006209Y011893D01*
X006233Y011930D01*
X006260Y011965D01*
X006290Y011997D01*
X006323Y012027D01*
X006359Y012053D01*
X006396Y012077D01*
X006436Y012096D01*
X006477Y012113D01*
X006520Y012125D01*
X006563Y012134D01*
X006607Y012139D01*
X006651Y012140D01*
X006695Y012137D01*
X006739Y012130D01*
X006782Y012119D01*
X006824Y012105D01*
X006864Y012087D01*
X006903Y012065D01*
X006939Y012041D01*
X006973Y012013D01*
X007005Y011982D01*
X007034Y011948D01*
X007060Y011912D01*
X007082Y011874D01*
X007101Y011834D01*
X007116Y011792D01*
X007128Y011750D01*
X007136Y011706D01*
X007140Y011662D01*
X007140Y011618D01*
X007136Y011574D01*
X007128Y011530D01*
X007116Y011488D01*
X007101Y011446D01*
X007082Y011406D01*
X007060Y011368D01*
X007034Y011332D01*
X007005Y011298D01*
X006973Y011267D01*
X006939Y011239D01*
X006903Y011215D01*
X006864Y011193D01*
X006824Y011175D01*
X006782Y011161D01*
X006739Y011150D01*
X006695Y011143D01*
X006651Y011140D01*
X006607Y011141D01*
X006563Y011146D01*
X006520Y011155D01*
X006477Y011167D01*
X006436Y011184D01*
X006396Y011203D01*
X006359Y011227D01*
X006323Y011253D01*
X006290Y011283D01*
X006260Y011315D01*
X006233Y011350D01*
X006209Y011387D01*
X006188Y011426D01*
X006171Y011467D01*
X006158Y011509D01*
X006148Y011552D01*
X006142Y011596D01*
X006140Y011640D01*
X009837Y004337D02*
X009837Y003943D01*
X009443Y004140D01*
X009837Y004337D01*
D13*
X009420Y004140D03*
D14*
X008483Y015384D02*
X008384Y015483D01*
X008384Y020601D01*
X008679Y020896D01*
X013797Y020896D01*
X013896Y020797D01*
X013896Y015483D01*
X013797Y015384D01*
X008483Y015384D01*
X008680Y020502D02*
X008682Y020521D01*
X008687Y020540D01*
X008697Y020556D01*
X008709Y020571D01*
X008724Y020583D01*
X008740Y020593D01*
X008759Y020598D01*
X008778Y020600D01*
X008797Y020598D01*
X008816Y020593D01*
X008832Y020583D01*
X008847Y020571D01*
X008859Y020556D01*
X008869Y020540D01*
X008874Y020521D01*
X008876Y020502D01*
X008874Y020483D01*
X008869Y020464D01*
X008859Y020448D01*
X008847Y020433D01*
X008832Y020421D01*
X008816Y020411D01*
X008797Y020406D01*
X008778Y020404D01*
X008759Y020406D01*
X008740Y020411D01*
X008724Y020421D01*
X008709Y020433D01*
X008697Y020448D01*
X008687Y020464D01*
X008682Y020483D01*
X008680Y020502D01*
D15*
X016904Y003581D03*
X017376Y003581D03*
X019904Y003699D03*
X020376Y003699D03*
D16*
X020140Y003699D03*
X017140Y003581D03*
D17*
X011354Y013935D02*
X011160Y013935D01*
X011257Y013935D02*
X011257Y014225D01*
X011160Y014128D01*
X011059Y014080D02*
X011059Y014177D01*
X011011Y014225D01*
X010866Y014225D01*
X010866Y013935D01*
X010866Y014032D02*
X011011Y014032D01*
X011059Y014080D01*
X010962Y014032D02*
X011059Y013935D01*
D18*
X010305Y009365D02*
X010155Y009215D01*
X010305Y009365D02*
X010305Y008915D01*
X010155Y008915D02*
X010455Y008915D01*
X005905Y009140D02*
X005605Y009140D01*
X005830Y009365D01*
X005830Y008915D01*
D19*
X009510Y012825D02*
X009510Y013455D01*
X010770Y013455D02*
X010770Y012825D01*
M02*
